<?xml version="1.0" encoding="UTF-8" standalone="no"?>
<svg
   xmlns:dc="http://purl.org/dc/elements/1.1/"
   xmlns:cc="http://creativecommons.org/ns#"
   xmlns:rdf="http://www.w3.org/1999/02/22-rdf-syntax-ns#"
   xmlns:svg="http://www.w3.org/2000/svg"
   xmlns="http://www.w3.org/2000/svg"
   xmlns:sodipodi="http://sodipodi.sourceforge.net/DTD/sodipodi-0.dtd"
   xmlns:inkscape="http://www.inkscape.org/namespaces/inkscape"
   width="47.765663mm"
   height="8.525445mm"
   viewBox="0 0 47.765663 8.5254453"
   version="1.1"
   id="svg8"
   inkscape:version="1.0.1 (3bc2e813f5, 2020-09-07)"
   sodipodi:docname="about-sweet-lou.svg">
  <title
     id="title1070">About Sweet Lou</title>
  <defs
     id="defs2" />
  <sodipodi:namedview
     id="base"
     pagecolor="#ffffff"
     bordercolor="#666666"
     borderopacity="1.0"
     inkscape:pageopacity="0.0"
     inkscape:pageshadow="2"
     inkscape:zoom="6.4623669"
     inkscape:cx="123.8312"
     inkscape:cy="86.165031"
     inkscape:document-units="mm"
     inkscape:current-layer="text851"
     inkscape:document-rotation="0"
     showgrid="false"
     inkscape:window-width="2560"
     inkscape:window-height="1506"
     inkscape:window-x="-11"
     inkscape:window-y="-11"
     inkscape:window-maximized="1"
     fit-margin-top="0"
     fit-margin-left="0"
     fit-margin-right="0"
     fit-margin-bottom="0"
     inkscape:showpageshadow="false" />
  <metadata
     id="metadata5">
    <rdf:RDF>
      <cc:Work
         rdf:about="">
        <dc:format>image/svg+xml</dc:format>
        <dc:type
           rdf:resource="http://purl.org/dc/dcmitype/StillImage" />
        <dc:title>About Sweet Lou</dc:title>
      </cc:Work>
    </rdf:RDF>
  </metadata>
  <g
     inkscape:label="Layer 1"
     inkscape:groupmode="layer"
     id="layer1"
     transform="translate(-19.645959,-15.150936)">
    <g
       id="g847">
      <g
         aria-label="About Sweet Lou"
         id="text851"
         style="font-size:10.5833px;line-height:1.25;font-family:'Retro Sign';-inkscape-font-specification:'Retro Sign';stroke-width:0.264583">
        <path
           id="path884"
           style="fill:#ba6211;fill-opacity:1;stroke:#5d3108;stroke-width:0.869291;stroke-miterlimit:4;stroke-dasharray:none;stroke-opacity:1"
           d="m 83.064453,-72.445312 c -0.279999,-0.01334 -0.57224,0.03395 -0.878906,0.140624 -0.373332,0.106674 -0.706668,0.252795 -1,0.439454 -0.293334,0.186665 -0.587528,0.400625 -0.880859,0.640625 -1.49333,1.279995 -2.719691,2.812948 -3.679688,4.599609 -0.346663,0.613332 -0.667603,1.226512 -0.960938,1.839844 -0.266665,0.613331 -0.532162,1.238909 -0.798828,1.878906 -0.346663,0.853332 -0.640859,1.733962 -0.880859,2.640625 -0.213342,0.879997 -0.332717,1.787374 -0.359375,2.720703 0,0.666666 0.09264,1.279846 0.279297,1.839844 0.213332,0.533332 0.519922,0.9469 0.919922,1.240234 0.426666,0.266656 0.908074,0.466268 1.441406,0.59961 0.373332,0.08 0.760159,0.133498 1.160156,0.160156 0.4,0.02666 0.786825,0.0658 1.160157,0.11914 1.226663,0.160001 2.41193,0.35961 3.558593,0.59961 0.373332,0.05334 0.747762,0.133576 1.121094,0.240234 0.373332,0.106676 0.733412,0.254748 1.080078,0.441406 0.293342,0.159998 0.532092,0.439844 0.71875,0.839844 0.213317,0.373332 0.227674,0.760157 0.04102,1.160156 -0.186659,0.426664 -0.386268,0.811538 -0.59961,1.158204 -0.133324,0.186676 -0.267049,0.373888 -0.40039,0.560546 -0.106659,0.159998 -0.227987,0.320469 -0.361328,0.480469 -0.426666,0.559998 -0.906122,1.066197 -1.439453,1.519531 -0.506666,0.426656 -1.105499,0.747596 -1.798829,0.960938 -0.64,0.213317 -1.228387,0.225721 -1.761718,0.03906 -0.213324,-0.106658 -0.38619,-0.160156 -0.519532,-0.160156 -0.160007,0.02666 -0.293732,-7.8e-5 -0.40039,-0.08008 -0.106684,-0.08 -0.211701,-0.172638 -0.31836,-0.279297 -0.319997,-0.293331 -0.601796,-0.626668 -0.841797,-1 -0.213324,-0.4 -0.386189,-0.813568 -0.519531,-1.240234 -0.05334,-0.08 -0.09248,-0.160235 -0.11914,-0.240235 -0.02666,-0.106658 -0.06775,-0.199296 -0.121094,-0.279296 -0.293324,-0.346674 -0.546424,-0.33427 -0.759766,0.03906 -0.293341,0.533332 -0.359218,1.119768 -0.199219,1.759766 0.106656,0.533331 0.267128,1.053881 0.480469,1.560547 0.213334,0.506663 0.466434,0.986121 0.759766,1.439453 0.15999,0.213334 0.306111,0.44164 0.439453,0.68164 0.159992,0.266674 0.347205,0.49303 0.560547,0.679688 1.039995,0.879997 2.198518,1.159844 3.478515,0.839844 0.453332,-0.133335 0.881253,-0.332944 1.28125,-0.59961 0.400001,-0.239997 0.786825,-0.507447 1.160157,-0.800781 0.933329,-0.746663 1.746121,-1.666436 2.439453,-2.759766 0.293332,-0.453331 0.560781,-0.906043 0.800781,-1.359375 0.240008,-0.453334 0.452014,-0.947137 0.638672,-1.480468 0.479997,-1.439995 0.521091,-2.907064 0.121094,-4.400391 -0.106666,-0.32 -0.240391,-0.614194 -0.400391,-0.880859 -0.133334,-0.293324 -0.347293,-0.546424 -0.640625,-0.759766 -0.293332,-0.186666 -0.585574,-0.359531 -0.878906,-0.519531 -0.293334,-0.16 -0.614272,-0.279375 -0.960938,-0.359375 -0.853329,-0.213324 -1.707215,-0.427284 -2.560547,-0.640625 -0.826663,-0.213324 -1.666199,-0.38619 -2.519531,-0.519531 -0.346666,-0.05332 -0.692399,-0.106815 -1.039062,-0.160157 -0.346666,-0.05332 -0.69435,-0.145955 -1.041016,-0.279297 -0.266666,-0.07999 -0.532162,-0.228064 -0.798828,-0.441406 -0.16,-0.133332 -0.281328,-0.279453 -0.361328,-0.439453 -0.08,-0.159997 -0.08,-0.359609 0,-0.599609 0.02666,-0.05334 0.04102,-0.09444 0.04102,-0.121094 0,-0.05332 0.01241,-0.106815 0.03906,-0.160156 0.133324,-0.586664 0.308143,-1.158753 0.521484,-1.71875 0.213322,-0.56 0.425331,-1.11969 0.638672,-1.679688 0.453332,-1.119997 1.027372,-2.134352 1.720703,-3.041016 0.693332,-0.933329 1.466981,-1.799611 2.320313,-2.599609 0.239997,-0.213332 0.4931,-0.400547 0.759765,-0.560547 0.293335,-0.186683 0.612322,-0.293654 0.958985,-0.320312 0.186676,0 0.334748,0.02674 0.441406,0.08008 0.23999,0.106666 0.425252,0.308231 0.558594,0.601562 0.213342,0.453332 0.320312,0.918438 0.320312,1.398438 0.02668,0.479997 0.01428,0.961406 -0.03906,1.441406 -0.05334,0.479998 -0.121172,0.959456 -0.201172,1.439453 -0.05334,0.48 -0.133576,0.947059 -0.240234,1.400391 -0.02668,0.133342 -0.05342,0.252717 -0.08008,0.359375 0,0.106683 0.01436,0.213654 0.04102,0.320312 0,0.186659 0.09264,0.306034 0.279297,0.359375 0.133342,0.02668 0.25467,-0.02681 0.361328,-0.160156 0.16,-0.213324 0.265018,-0.386189 0.318359,-0.519531 0.746671,-1.786661 1.133498,-3.626205 1.160157,-5.519531 0,-1.279995 -0.265497,-2.374587 -0.798828,-3.28125 -0.266666,-0.453335 -0.653493,-0.81146 -1.160157,-1.078125 -0.253333,-0.133342 -0.520782,-0.207368 -0.800781,-0.220703 z m 67.742187,0.414062 c -0.22833,0.01 -0.46313,0.05167 -0.70312,0.125 -0.16,0.05334 -0.30612,0.121172 -0.43946,0.201172 -0.13332,0.08 -0.26705,0.172638 -0.40039,0.279297 -0.45333,0.32 -0.86495,0.694428 -1.23828,1.121093 -0.34667,0.399998 -0.66761,0.825966 -0.96094,1.279297 -0.45333,0.693332 -0.84015,1.413491 -1.16015,2.160157 -0.32,0.719997 -0.59985,1.466905 -0.83985,2.240234 -0.39999,1.279997 -0.71898,2.572245 -0.95898,3.878906 -0.21334,1.306664 -0.36141,2.627609 -0.44141,3.960938 -0.0533,0.933331 -0.0801,1.853102 -0.0801,2.759765 0,0.879998 0.0535,1.787374 0.16016,2.720703 0.0533,0.693332 0.12117,1.3724 0.20117,2.039063 0.10666,0.666666 0.22604,1.345731 0.35938,2.039063 0.0533,0.239997 0.10681,0.480703 0.16015,0.720703 0.0533,0.24 0.10682,0.493099 0.16016,0.759765 -0.26667,0.02666 -0.51977,0.02666 -0.75977,0 -0.21333,-0.02666 -0.44164,-0.02666 -0.68164,0 -0.18666,0.02666 -0.35953,0.06775 -0.51953,0.121094 -0.16001,0.05332 -0.29373,0.145955 -0.40039,0.279297 -0.29334,0.319997 -0.53209,0.653334 -0.71875,1 -0.18666,0.346666 -0.28125,0.745887 -0.28125,1.199219 0,0.666673 0.33334,1.053498 1,1.160156 0.16,0.05332 0.32047,0.06767 0.48047,0.04102 h 0.43945 c 0.82667,-0.05332 1.64141,-0.106815 2.44141,-0.160157 0.8,-0.05334 1.61279,-0.133576 2.43945,-0.240234 2.50666,-0.266666 4.9059,-1.040318 7.19922,-2.320313 0.37333,-0.213331 0.58729,-0.478828 0.64063,-0.798828 0.08,-0.32 0.0676,-0.653334 -0.0391,-1 -0.0267,-0.213341 -0.16039,-0.281172 -0.40039,-0.201172 -0.13334,0.05334 -0.25467,0.09444 -0.36132,0.121094 -0.08,0.02666 -0.18502,0.0658 -0.31836,0.119141 -0.29334,0.106683 -0.59993,0.213654 -0.91993,0.320312 -0.29333,0.106659 -0.58752,0.186893 -0.88085,0.240235 -0.45334,0.08 -0.89365,0.160234 -1.32032,0.240234 -0.39999,0.05332 -0.82596,0.106815 -1.27929,0.160156 -0.42667,0.05332 -0.85459,0.106815 -1.28125,0.160156 -0.42667,0.02666 -0.86503,0.02666 -1.31836,0 -0.18666,-0.02666 -0.28125,-0.121249 -0.28125,-0.28125 -0.0533,-0.559997 -0.13358,-1.107293 -0.24024,-1.640624 -0.10666,-0.560001 -0.19929,-1.119691 -0.27929,-1.679688 -0.13335,-0.693332 -0.24032,-1.399143 -0.32032,-2.119141 -0.0533,-0.719997 -0.0925,-1.427762 -0.11914,-2.121093 -0.0533,-1.039995 -0.0533,-2.079144 0,-3.119141 0.0533,-1.066663 0.16031,-2.120159 0.32031,-3.160156 0.13335,-0.906664 0.29186,-1.79969 0.47852,-2.679688 0.21333,-0.906663 0.46643,-1.79969 0.75977,-2.679687 0.26666,-0.879998 0.72133,-1.69279 1.36132,-2.439453 0.21334,-0.266666 0.46644,-0.441485 0.75977,-0.521485 0.32,-0.08 0.63898,-0.11914 0.95898,-0.11914 0.0533,0 0.0944,0.0124 0.1211,0.03906 0.0267,0.02668 0.0658,0.05342 0.11914,0.08008 0.21333,0.186674 0.40055,0.373889 0.56055,0.560547 0.18665,0.186666 0.34712,0.413022 0.48046,0.679688 0.61334,1.253329 0.95907,2.654508 1.03907,4.201171 0.0533,0.799998 0.0266,1.598441 -0.0801,2.398438 -0.08,0.799997 -0.22611,1.587999 -0.43945,2.361328 -0.0533,0.213342 -0.0657,0.371857 -0.0391,0.478516 0.0533,0.186683 0.14596,0.293654 0.2793,0.320312 0.13334,0.02668 0.25272,-0.02681 0.35937,-0.160156 0.10666,-0.133324 0.1869,-0.265096 0.24024,-0.398438 0.08,-0.133324 0.14783,-0.267048 0.20117,-0.40039 0.21334,-0.479998 0.37186,-0.961406 0.47852,-1.441406 0.10665,-0.506664 0.20125,-1.012866 0.28125,-1.519532 0.08,-0.639997 0.14587,-1.279924 0.19922,-1.919922 0.08,-0.639997 0.0944,-1.292318 0.041,-1.958984 -0.0533,-0.693332 -0.14791,-1.374352 -0.28125,-2.041016 -0.13332,-0.693331 -0.30619,-1.360002 -0.51953,-2 -0.13333,-0.506665 -0.32055,-0.986121 -0.56055,-1.439453 -0.23999,-0.453331 -0.55898,-0.866902 -0.95898,-1.240234 -0.58,-0.539998 -1.21344,-0.795625 -1.89844,-0.765625 z m -137.300781,0.445312 c -0.23999,0.02668 -0.466345,0.09451 -0.679687,0.201172 -0.186658,0.106659 -0.388221,0.226034 -0.601563,0.359375 -0.426665,0.346666 -0.786746,0.733491 -1.080078,1.160157 -0.266666,0.426665 -0.519765,0.879377 -0.759765,1.359375 -0.5599979,1.173331 -1.0394535,2.360552 -1.4394535,3.560547 -0.3999975,1.199994 -0.7724748,2.426355 -1.1191406,3.679687 -0.3733317,1.333329 -0.7334123,2.666671 -1.0800781,4 -0.3466659,1.333329 -0.6532561,2.681021 -0.9199219,4.041016 -0.026666,0.266655 -0.1871346,0.425174 -0.4804688,0.478515 -0.2933316,0.05334 -0.5875277,0.121172 -0.8808593,0.201172 -0.2933317,0.05334 -0.5855721,0.119219 -0.8789063,0.199219 -0.3733317,0.08 -0.7066683,0.240469 -1,0.480469 -0.2666583,0.213331 -0.5073614,0.478828 -0.7207031,0.798828 -0.1333418,0.213324 -0.2135761,0.427283 -0.2402344,0.640625 -0.053342,0.266655 0.026893,0.507361 0.2402344,0.720703 0.24,0.213316 0.4930998,0.266814 0.7597656,0.160156 0.1333241,-0.05334 0.2670489,-0.09443 0.4003906,-0.121094 0.1599899,-0.02666 0.3061114,-0.0658 0.4394532,-0.11914 0.2933341,-0.08 0.5731779,-0.14783 0.8398437,-0.201172 0.2933317,-0.08 0.5999219,-0.145877 0.9199219,-0.199219 v 0.199219 c -0.08,0.533332 -0.1602344,1.053881 -0.2402344,1.560547 -0.08,0.479997 -0.1582813,0.986199 -0.2382812,1.519531 -0.08,0.453332 -0.1478302,0.907996 -0.2011719,1.361328 -0.026658,0.453332 -0.065799,0.906041 -0.1191407,1.359375 -0.053342,0.399998 -0.080078,0.799219 -0.080078,1.199219 0,0.399997 -0.014357,0.801172 -0.041016,1.201172 0,0.293339 0.1213281,0.492951 0.3613281,0.599609 0.2133418,0.05334 0.4129511,-0.0393 0.5996094,-0.279297 0.053342,-0.133341 0.092482,-0.25467 0.1191406,-0.361328 0.053317,-0.106658 0.1068145,-0.226033 0.1601563,-0.359375 0.1066582,-0.48 0.1868926,-0.959456 0.2402343,-1.439453 0.053317,-0.48 0.1068146,-0.947059 0.1601563,-1.400391 0.08,-0.853329 0.1602344,-1.692865 0.2402344,-2.519531 0.1066658,-0.826663 0.2403906,-1.668153 0.4003906,-2.521484 0.026683,-0.213342 0.05342,-0.31836 0.080078,-0.31836 0.053324,-0.02666 0.1850958,-0.06775 0.3984375,-0.121093 0.2933317,-0.05334 0.5607813,-0.09248 0.8007813,-0.119141 0.2666658,-0.02668 0.5465096,-0.05342 0.8398437,-0.08008 1.0666633,-0.133342 2.1201613,-0.25467 3.1601563,-0.361328 1.066664,-0.106684 2.132556,-0.172561 3.199219,-0.199219 0.213342,0 0.320313,0.09264 0.320313,0.279297 0.05334,0.346663 0.09443,0.69435 0.121093,1.041016 0.02666,0.346665 0.0658,0.692396 0.119141,1.039062 0.08,0.719997 0.14783,1.440159 0.201172,2.160156 0.08,0.719998 0.145877,1.454506 0.199219,2.201172 0.02666,0.293332 0.03906,0.599922 0.03906,0.919922 0.02666,0.319997 0.04102,0.638984 0.04102,0.958984 0,0.21334 0.08023,0.412951 0.240234,0.59961 0.160008,0.213324 0.332873,0.347049 0.519531,0.40039 0.160008,0.05334 0.332873,0.04094 0.519532,-0.03906 0.186655,-0.08 0.347127,-0.201328 0.480468,-0.361328 0.133342,-0.159998 0.240313,-0.35961 0.320313,-0.59961 0.133342,-0.346665 0.240312,-0.706746 0.320312,-1.080078 0.08,-0.373331 0.0924,-0.745806 0.03906,-1.11914 -0.02668,-0.159998 -0.05342,-0.320469 -0.08008,-0.480469 v -0.519531 c -0.05332,-0.533332 -0.106815,-1.066278 -0.160156,-1.59961 -0.05332,-0.559997 -0.106815,-1.107293 -0.160157,-1.640625 -0.05334,-0.32 -0.09248,-0.62659 -0.11914,-0.919922 0,-0.32 -0.02674,-0.64094 -0.08008,-0.960937 -0.05334,-0.213342 0.02689,-0.332717 0.240235,-0.359375 0.16,-0.02668 0.279375,-0.133654 0.359375,-0.320313 0.08,-0.159997 0.14783,-0.320468 0.201172,-0.480468 0.05334,-0.15999 0.08008,-0.345252 0.08008,-0.558594 0,-0.24 -0.133725,-0.400469 -0.400391,-0.480469 -0.213321,-0.05334 -0.386189,-0.08008 -0.519531,-0.08008 -0.133342,-0.02666 -0.201172,-0.119297 -0.201172,-0.279297 -0.02668,-0.159997 -0.05342,-0.320469 -0.08008,-0.480469 0,-0.186673 -0.0124,-0.373888 -0.03906,-0.560547 -0.05334,-0.453331 -0.09444,-0.90604 -0.121094,-1.359374 -0.02666,-0.453332 -0.0658,-0.906044 -0.119141,-1.359376 l -0.599609,-4.560546 c -0.133342,-0.879998 -0.25467,-1.760628 -0.361328,-2.640625 -0.106674,-0.879998 -0.252795,-1.76063 -0.439454,-2.640625 -0.133331,-0.586666 -0.279453,-1.158753 -0.439453,-1.71875 -0.133334,-0.56 -0.332943,-1.107294 -0.599609,-1.640625 -0.213332,-0.373332 -0.468385,-0.692319 -0.761719,-0.958985 -0.186663,-0.106658 -0.398672,-0.147752 -0.638672,-0.121094 z M 23.875,-70.445312 c -0.08667,-0.01334 -0.182392,-0.0071 -0.289062,0.01953 -0.31999,0.05332 -0.58744,0.187049 -0.800782,0.40039 -0.213324,0.186666 -0.427283,0.400625 -0.640625,0.640625 -0.02666,0.05332 -0.03906,0.145956 -0.03906,0.279297 -0.133317,0.853329 -0.225955,1.707215 -0.279297,2.560547 -0.02666,0.853332 -0.06775,1.705265 -0.121094,2.558594 -0.05334,0.773332 -0.09248,1.546981 -0.11914,2.320312 0,0.746664 -0.02674,1.507919 -0.08008,2.28125 -0.08,1.679995 -0.121093,3.35907 -0.121093,5.039063 -0.02668,1.279997 -0.05342,2.559849 -0.08008,3.839844 -0.02668,1.279997 -0.05342,2.559848 -0.08008,3.839843 v 1.160157 c 0.02668,0.373331 0.05342,0.747762 0.08008,1.121093 0.05334,0.426666 0.160312,0.772397 0.320312,1.039063 0.159992,0.23999 0.347205,0.386111 0.560547,0.439453 0.239997,0.05334 0.47875,-0.0393 0.71875,-0.279297 0.16,-0.15999 0.266971,-0.347205 0.320312,-0.560547 0.05334,-0.106658 0.09444,-0.199297 0.121094,-0.279297 0.02666,-0.08 0.0658,-0.172638 0.119141,-0.279297 v -0.002 c 0.08,0.02668 0.133498,0.05342 0.160156,0.08008 l 0.121094,0.121093 c 0.4,0.346666 0.784871,0.692397 1.158203,1.039063 0.399997,0.373331 0.827916,0.706668 1.28125,1 l 0.71875,0.480468 c 0.266666,0.160008 0.548465,0.293733 0.841797,0.400391 0.4,0.16 0.799221,0.118906 1.199218,-0.121094 0.266659,-0.159997 0.466268,-0.359609 0.59961,-0.599609 0.160007,-0.213334 0.293732,-0.466434 0.40039,-0.759766 0.133342,-0.479997 0.252717,-0.947056 0.359376,-1.40039 0.106658,-0.479998 0.20125,-0.959456 0.28125,-1.439453 0.02668,-0.106659 0.05342,-0.186893 0.08008,-0.240235 0.02666,-0.08 0.104939,-0.145877 0.238281,-0.199218 0.346666,-0.106666 0.680002,-0.240391 1,-0.400391 0.32,-0.159998 0.640937,-0.320469 0.960937,-0.480469 0.925764,-0.47233 1.711091,-1.092274 2.369141,-1.845703 0.2078,0.311778 0.494079,0.59436 0.871094,0.845703 0.24,0.159993 0.4931,0.308065 0.759765,0.441406 0.16,0.133324 0.240235,0.265096 0.240235,0.398438 0.05334,0.293332 0.119218,0.599924 0.199219,0.919922 0.08,0.293334 0.174591,0.587527 0.28125,0.880859 0.266665,0.746663 0.692631,1.267213 1.279296,1.560547 0.293332,0.16 0.612319,0.240234 0.958985,0.240234 0.346666,0.02667 0.69435,-0.107059 1.041015,-0.40039 l 0.279297,-0.28125 c 0.106659,-0.106684 0.20125,-0.211701 0.28125,-0.31836 0.426656,-0.639997 0.745643,-1.321018 0.958985,-2.041015 0.106665,-0.293342 0.293881,-0.412717 0.560546,-0.359375 0.186666,0.02666 0.400626,-7.8e-5 0.640626,-0.08008 0.4,-0.160005 0.799221,-0.332873 1.199218,-0.519532 0.4,-0.213324 0.786825,-0.427283 1.160156,-0.640625 0.21282,-0.100151 0.412251,-0.210343 0.601563,-0.328125 0.01331,0.255932 0.01346,0.511647 0.03906,0.767578 0.05334,0.533332 0.131622,1.066278 0.238281,1.59961 0.05334,0.32 0.133576,0.62659 0.240234,0.919922 0.106658,0.293331 0.267127,0.560781 0.480469,0.800781 0.719997,0.906663 1.493649,0.945804 2.320312,0.119141 0.186674,-0.213332 0.332795,-0.439688 0.439454,-0.679688 0.399999,-0.773332 0.76008,-1.559377 1.080078,-2.359375 0.346665,-0.799997 0.667605,-1.600393 0.960937,-2.400391 0.05334,-0.133324 0.09248,-0.267048 0.119141,-0.40039 0.02644,-0.132111 0.09425,-0.262403 0.199218,-0.394531 v 1.314453 c 0.02668,0.399997 0.05342,0.801172 0.08008,1.201172 0.02668,0.373331 0.05342,0.760156 0.08008,1.160156 0.05334,0.373332 0.121172,0.745809 0.201172,1.11914 0.05332,0.213325 0.106814,0.427284 0.160156,0.640626 0.05332,0.213324 0.145955,0.427283 0.279297,0.640624 0.213331,0.31999 0.480781,0.546346 0.800781,0.679688 0.319997,0.106683 0.665728,0.09233 1.039063,-0.04102 0.213331,-0.05334 0.400546,-0.133576 0.560546,-0.240234 0.15999,-0.106658 0.306112,-0.226033 0.439454,-0.359375 0.293324,-0.24 0.546423,-0.50745 0.759765,-0.800781 0.23999,-0.293332 0.466346,-0.585572 0.679688,-0.878906 0.346665,-0.506664 0.667605,-1.012866 0.960937,-1.519532 0.06026,-0.109564 0.128067,-0.211873 0.189453,-0.320312 0.04127,0.586374 0.09474,1.173392 0.169922,1.759765 0.05334,0.373332 0.121172,0.733413 0.201172,1.080079 0.08001,0.319997 0.211779,0.626587 0.398437,0.919921 0.213332,0.373322 0.546669,0.665565 1,0.878907 0.48,0.240007 0.988153,0.188462 1.521485,-0.158204 0.213339,-0.133324 0.412951,-0.267048 0.599609,-0.40039 0.186666,-0.160008 0.359531,-0.334826 0.519532,-0.521484 l 0.880859,-1.119141 c 0.293334,-0.4 0.573178,-0.799221 0.839844,-1.199219 0.293321,-0.426666 0.546424,-0.854584 0.759765,-1.28125 0.24,-0.426666 0.480703,-0.866981 0.720703,-1.320312 0.293342,-0.453332 0.39836,-0.945184 0.31836,-1.478516 -0.02668,-0.08 -0.05342,-0.174592 -0.08008,-0.28125 0,-0.106658 -0.05155,-0.186893 -0.158203,-0.240234 -0.133342,-0.02666 -0.240313,7.8e-5 -0.320313,0.08008 -0.08,0.08 -0.14783,0.174591 -0.201172,0.28125 -0.186658,0.24 -0.345174,0.4931 -0.478515,0.759765 -0.133325,0.266666 -0.267049,0.532163 -0.400391,0.798829 -0.32,0.559997 -0.680081,1.094896 -1.080078,1.601562 -0.373332,0.479997 -0.80125,0.945106 -1.28125,1.398438 -0.160008,0.16 -0.332873,0.281328 -0.519531,0.361328 -0.666664,0.266665 -1.039141,0.05271 -1.119141,-0.640625 -0.05332,-0.373332 -0.106815,-0.719063 -0.160156,-1.039063 -0.02666,-0.346666 -0.04102,-0.706746 -0.04102,-1.080078 v -1.800781 -1.560547 c 0,-0.506666 0.01436,-1.025262 0.04102,-1.558594 0,-0.666663 0.0124,-1.32094 0.03906,-1.960937 0.02668,-0.639998 0.05342,-1.279922 0.08008,-1.919922 0.02666,-0.559998 0.04102,-1.11969 0.04102,-1.679688 0,-0.56 0.02674,-1.107293 0.08008,-1.640625 0.02666,-0.213321 0.03906,-0.42533 0.03906,-0.638672 v -0.640625 c -10e-7,-0.133341 0.06783,-0.213576 0.201171,-0.240234 0.133342,0 0.23836,-0.0124 0.31836,-0.03906 0.666663,-0.05332 1.333334,-0.106814 2,-0.160156 0.666663,-0.05332 1.347684,-0.06767 2.041015,-0.04102 0.266674,0 0.453889,-0.133725 0.560547,-0.400391 0.05334,-0.05334 0.08008,-0.119219 0.08008,-0.199219 0,-0.08 0.01241,-0.160234 0.03906,-0.240234 0.05334,-0.453332 -1.56e-4,-0.759922 -0.160156,-0.919922 -0.133335,-0.16 -0.425575,-0.266971 -0.878907,-0.320313 -0.613331,-0.05334 -1.214118,-0.08008 -1.800781,-0.08008 -0.586666,-0.02668 -1.187449,-0.05342 -1.800781,-0.08008 -0.320005,0 -0.492873,-0.0124 -0.519531,-0.03906 -0.02666,-0.02667 -0.03906,-0.199532 -0.03906,-0.519532 0.02666,-0.479997 0.03906,-0.961408 0.03906,-1.441406 0.02666,-0.48 0.04102,-0.959455 0.04102,-1.439453 0,-0.266666 -0.01436,-0.534115 -0.04102,-0.800781 0,-0.266666 -0.06588,-0.519766 -0.199219,-0.759766 -0.16,-0.373341 -0.4131,-0.453576 -0.759766,-0.240234 -0.133341,0.05334 -0.240312,0.133576 -0.320312,0.240234 -0.05334,0.08 -0.121172,0.174592 -0.201172,0.28125 -0.533339,0.799998 -0.813186,1.666278 -0.839844,2.59961 0,0.319997 -0.0124,0.638984 -0.03906,0.958984 0,0.319997 -0.01436,0.640938 -0.04102,0.960938 0,0.213341 -0.08023,0.320312 -0.240234,0.320312 -0.106659,0 -0.18494,0.0124 -0.238282,0.03906 -0.453331,0.05334 -0.907996,0.133577 -1.361328,0.240235 -0.453331,0.08 -0.906043,0.186971 -1.359375,0.320312 -0.56,0.16 -0.985965,0.520081 -1.279297,1.080079 -0.05334,0.106683 -0.09444,0.213654 -0.121093,0.320312 -0.05332,0.08 -0.106815,0.186971 -0.160157,0.320312 -0.08,0.160008 -0.11914,0.332873 -0.11914,0.519532 -0.02666,0.159997 -0.02666,0.320469 0,0.480468 0.05332,0.293332 0.187049,0.519688 0.40039,0.679688 0.186666,0.133342 0.425419,0.172482 0.71875,0.119141 0.106684,-0.02668 0.213655,-0.05342 0.320313,-0.08008 0.08,-0.02668 0.172638,-0.05342 0.279297,-0.08008 0.239997,-0.106658 0.480703,-0.199297 0.720703,-0.279296 0.24,-0.106659 0.4931,-0.199297 0.759766,-0.279297 0.266665,-0.08 0.519765,-0.160235 0.759765,-0.240235 0.239998,-0.08 0.507447,-0.14783 0.800781,-0.201172 0.05332,0.08 0.06572,0.160235 0.03906,0.240235 v 0.199219 c -0.02666,0.426665 -0.03906,0.854586 -0.03906,1.28125 0,0.399999 -0.01436,0.813568 -0.04102,1.240234 -0.02668,1.066663 -0.05342,2.132555 -0.08008,3.199219 0,1.039995 0.01436,2.093493 0.04102,3.160156 0.0196,0.784045 0.0241,1.567517 0.0293,2.351562 -0.01065,0.01639 -0.01837,0.03244 -0.0293,0.04883 -0.24,0.426665 -0.4931,0.852631 -0.759765,1.279296 -0.24,0.399998 -0.50745,0.801172 -0.800782,1.201172 -0.160007,0.213324 -0.332873,0.42533 -0.519531,0.638672 -0.186666,0.186656 -0.400625,0.347127 -0.640625,0.480469 -0.613329,0.32 -0.959062,0.147134 -1.039062,-0.519531 -0.08,-0.77333 -0.121094,-1.534585 -0.121094,-2.28125 0,-0.746664 0.01436,-1.505966 0.04102,-2.279297 0.02666,-0.453332 0.02666,-0.906044 0,-1.359375 0,-0.479998 -0.02674,-0.947059 -0.08008,-1.400391 -0.05334,-0.266666 -0.133576,-0.546509 -0.240234,-0.839844 -0.133334,-0.293341 -0.347293,-0.359218 -0.640625,-0.199218 -0.133324,0.08 -0.265096,0.199375 -0.398437,0.359375 -0.24,0.266665 -0.441563,0.546512 -0.601563,0.839843 -0.160008,0.293332 -0.332873,0.585575 -0.519531,0.878907 -0.160008,0.293334 -0.293733,0.601877 -0.400391,0.921875 -0.106658,0.32 -0.226033,0.62659 -0.359375,0.919921 -0.266666,0.639998 -0.519765,1.279922 -0.759766,1.919922 -0.213331,0.639998 -0.466431,1.265575 -0.759765,1.878907 -0.106658,0.160007 -0.20125,0.332873 -0.28125,0.519531 -0.08,0.15999 -0.185018,0.308064 -0.318359,0.441406 l -0.160157,0.160156 c -0.02666,0.02666 -0.06775,0.03906 -0.121093,0.03906 -0.133342,-0.02668 -0.199219,-0.133654 -0.199219,-0.320313 -0.08,-0.266665 -0.133498,-0.532162 -0.160157,-0.798828 -0.02668,-0.266666 -0.05342,-0.546512 -0.08008,-0.839844 -0.08,-1.199997 -0.04086,-2.401567 0.119141,-3.601562 0.05334,-0.32 0.08008,-0.638987 0.08008,-0.958984 0.02668,-0.32 0.01428,-0.640938 -0.03906,-0.960938 -0.02668,-0.133342 -0.05342,-0.252717 -0.08008,-0.359375 -0.02666,-0.106658 -0.06775,-0.226033 -0.121093,-0.359375 -0.16,-0.346658 -0.398753,-0.44125 -0.71875,-0.28125 -0.05332,0.05334 -0.106815,0.09444 -0.160157,0.121094 -0.05332,0.02666 -0.106814,0.0658 -0.160156,0.11914 -0.213339,0.293332 -0.412951,0.587528 -0.599609,0.88086 -0.16,0.293334 -0.281328,0.612321 -0.361328,0.958984 -0.133317,0.586666 -0.225955,1.1731 -0.279297,1.759766 -0.0089,0.195347 -0.0078,0.401305 -0.01367,0.599609 -0.468867,0.24802 -0.941654,0.460365 -1.425781,0.601563 -0.639998,0.186663 -1.306669,0.359531 -2,0.519531 -0.05334,-0.05334 -0.08008,-0.09248 -0.08008,-0.119141 0.02666,-0.05332 0.03906,-0.106814 0.03906,-0.160156 0,-0.346666 0.01436,-0.680002 0.04102,-1 0.02666,-0.346666 0.02666,-0.69435 0,-1.041016 -0.05334,-0.453331 -0.121172,-0.893646 -0.201172,-1.320312 -0.08,-0.426666 -0.199375,-0.852634 -0.359375,-1.279297 -0.05334,-0.133324 -0.119219,-0.267049 -0.199219,-0.400391 -0.05334,-0.133324 -0.121172,-0.267048 -0.201172,-0.40039 -0.373331,-0.506674 -0.813646,-0.852404 -1.320312,-1.039063 -0.479998,-0.213341 -1.02534,-0.293576 -1.638672,-0.240234 -0.533332,0.02667 -1.000393,0.172787 -1.400391,0.439453 -0.4,0.24 -0.76008,0.54659 -1.080078,0.919922 -0.506666,0.586666 -0.932631,1.214196 -1.279297,1.880859 -0.320007,0.639998 -0.533966,1.345809 -0.640625,2.119141 -0.0227,0.272439 -0.01298,0.530093 0.0078,0.783203 -0.03097,0.03256 -0.05533,0.06509 -0.08789,0.09766 -0.373332,0.319998 -0.745809,0.612241 -1.11914,0.878907 -0.373332,0.266658 -0.786903,0.507361 -1.240235,0.720703 -0.213332,0.106683 -0.439687,0.213654 -0.679687,0.320312 -0.213335,0.08 -0.454038,0.160235 -0.720704,0.240235 -0.02666,-0.23999 -0.02666,-0.466346 0,-0.679688 0.02666,-0.213324 0.03906,-0.427283 0.03906,-0.640625 0.05334,-1.119997 0.0018,-2.185889 -0.158203,-3.199219 -0.05334,-0.399997 -0.133576,-0.786822 -0.240234,-1.160156 -0.106659,-0.399997 -0.267128,-0.786824 -0.480469,-1.160156 -0.16,-0.266674 -0.42745,-0.453889 -0.800781,-0.560547 -0.346666,-0.106666 -0.68,-0.02643 -1,0.240234 -0.373332,0.32 -0.719066,0.665731 -1.039063,1.039063 -0.746666,0.906663 -1.40094,1.867528 -1.960937,2.880859 -0.559998,0.986664 -1.105341,1.999068 -1.638672,3.039063 -0.02668,0.08 -0.05342,0.160234 -0.08008,0.240234 -0.02668,0.05334 -0.09451,0.121172 -0.201172,0.201172 v -0.400391 l 0.121093,-2.160156 c 0.05334,-0.666666 0.08008,-1.32094 0.08008,-1.960937 0.02668,-0.639998 0.05342,-1.279925 0.08008,-1.919922 0.02666,-0.773332 0.03906,-1.532631 0.03906,-2.279297 0,-0.773329 0.01436,-1.546981 0.04102,-2.320313 0.02668,-0.693331 0.05342,-1.399143 0.08008,-2.11914 0.02668,-0.719998 0.05147,-1.440159 0.07813,-2.160156 0.05334,-1.386664 0.133576,-2.773496 0.240234,-4.160157 0.05334,-0.453331 0.09444,-0.906043 0.121094,-1.359375 0.02666,-0.48 0.03906,-0.947059 0.03906,-1.40039 0,-0.21334 -0.06588,-0.373811 -0.199219,-0.480469 -0.06666,-0.05334 -0.143803,-0.08627 -0.230469,-0.09961 z m 104.03125,0.355468 c -0.075,0.01667 -0.15552,0.05018 -0.24219,0.103516 -0.13334,0.05334 -0.24031,0.133576 -0.32031,0.240234 -0.0533,0.08 -0.11922,0.174592 -0.19922,0.28125 -0.53334,0.799998 -0.81318,1.666278 -0.83984,2.59961 0,0.319997 -0.0144,0.638984 -0.041,0.958984 0,0.319997 -0.0124,0.640938 -0.0391,0.960938 0,0.213341 -0.0802,0.320312 -0.24023,0.320312 -0.10666,0 -0.1869,0.0124 -0.24024,0.03906 -0.45333,0.05334 -0.90604,0.133577 -1.35937,0.240235 -0.45334,0.08 -0.90605,0.186971 -1.35938,0.320312 -0.56,0.16 -0.98792,0.520081 -1.28125,1.080079 -0.0533,0.106683 -0.0925,0.213654 -0.11914,0.320312 -0.0533,0.08 -0.10681,0.186971 -0.16016,0.320312 -0.08,0.160008 -0.12109,0.332873 -0.12109,0.519532 -0.0267,0.159997 -0.0267,0.320469 0,0.480468 0.0533,0.293332 0.18705,0.519688 0.40039,0.679688 0.18667,0.133342 0.42737,0.172482 0.7207,0.119141 0.10669,-0.02668 0.21366,-0.05342 0.32032,-0.08008 0.08,-0.02668 0.17263,-0.05342 0.27929,-0.08008 0.24,-0.106658 0.48071,-0.199297 0.72071,-0.279296 0.23999,-0.106659 0.4931,-0.199297 0.75976,-0.279297 0.26667,-0.08 0.51977,-0.160235 0.75977,-0.240235 0.24,-0.08 0.50745,-0.14783 0.80078,-0.201172 0.0533,0.08 0.0657,0.160235 0.0391,0.240235 v 0.199219 c -0.0267,0.426665 -0.0391,0.854586 -0.0391,1.28125 0,0.399999 -0.0144,0.813568 -0.041,1.240234 -0.0267,1.066663 -0.0534,2.132555 -0.0801,3.199219 0,1.039995 0.0143,2.093493 0.041,3.160156 0.012,0.478631 0.011,0.956916 0.0176,1.435547 -0.61162,0.443459 -1.22678,0.879742 -1.85742,1.285156 -0.72,0.479997 -1.46691,0.945106 -2.24024,1.398438 -0.48,0.293331 -0.96141,0.560781 -1.4414,0.800781 -0.45334,0.23999 -0.93279,0.466346 -1.43946,0.679687 -0.24,0.133342 -0.4931,0.213576 -0.75976,0.240235 -0.47999,0.08 -0.82768,-0.119612 -1.04102,-0.59961 l -0.0391,-0.04102 c 0,-0.02668 -0.0124,-0.05342 -0.0391,-0.08008 1.27999,-0.719998 2.14627,-1.491694 2.59961,-2.31836 0.47999,-0.826663 0.70634,-1.614665 0.67968,-2.361328 -0.0267,-0.746666 -0.19953,-1.398987 -0.51953,-1.958984 -0.29333,-0.586664 -0.57318,-1.000235 -0.83984,-1.240235 -0.48,-0.426666 -0.98815,-0.467759 -1.52149,-0.121093 -0.10665,0.05334 -0.19929,0.121171 -0.27929,0.201171 l -0.24024,0.240235 c -0.42666,0.533331 -0.78674,1.146512 -1.08007,1.839844 -0.31609,0.63218 -0.53496,1.285687 -0.70118,1.951171 -0.6502,0.475037 -1.30673,0.937276 -1.97851,1.369141 -0.72,0.479997 -1.46691,0.945106 -2.24024,1.398438 -0.47999,0.293331 -0.95945,0.560781 -1.43945,0.800781 -0.45333,0.23999 -0.93279,0.466346 -1.43945,0.679687 -0.24,0.133342 -0.49506,0.213576 -0.76172,0.240235 -0.47999,0.08 -0.82572,-0.119612 -1.03906,-0.59961 l -0.041,-0.04102 c 0,-0.02668 -0.0124,-0.05342 -0.0391,-0.08008 1.27999,-0.719998 2.14628,-1.491694 2.59961,-2.31836 0.47999,-0.826663 0.70634,-1.614665 0.67968,-2.361328 -0.0267,-0.746666 -0.19953,-1.398987 -0.51953,-1.958984 -0.29333,-0.586664 -0.57317,-1.000235 -0.83984,-1.240235 -0.48,-0.426666 -0.9862,-0.467759 -1.51953,-0.121093 -0.10666,0.05334 -0.20125,0.121171 -0.28125,0.201171 l -0.23828,0.240235 c -0.42667,0.533331 -0.78675,1.146512 -1.08008,1.839844 -0.4,0.799997 -0.67984,1.627139 -0.83985,2.480468 -0.0149,0.09262 -0.0216,0.183103 -0.0352,0.275391 -0.39382,0.358733 -0.79553,0.601745 -1.20508,0.724609 -0.53333,0.133317 -1.16086,0.10658 -1.88086,-0.08008 -0.21334,-0.05334 -0.33272,-0.09443 -0.35937,-0.121094 -0.0267,-0.05332 -0.0143,-0.187049 0.0391,-0.40039 0.10666,-0.746664 0.18689,-1.518362 0.24023,-2.31836 0.0267,-0.453331 0.0143,-0.881252 -0.0391,-1.28125 -0.0267,-0.426665 -0.10689,-0.852631 -0.24023,-1.279296 -0.13334,-0.533332 -0.35969,-0.959297 -0.67969,-1.279297 -0.480001,-0.453324 -0.973804,-0.467682 -1.48047,-0.04102 -0.160005,0.16 -0.332873,0.400706 -0.519531,0.720703 -0.453332,0.746666 -0.720782,1.625343 -0.800781,2.638672 -0.02666,0.293334 -0.03906,0.587528 -0.03906,0.880859 0,0.266666 0.02478,0.546512 0.07813,0.839844 0.106656,0.506666 0.267127,0.973725 0.480469,1.400391 0.213334,0.426663 0.507527,0.81349 0.880859,1.160156 0.133317,0.106676 0.186815,0.252795 0.160156,0.439453 -0.08,0.266666 -0.174591,0.534116 -0.28125,0.800781 -0.08,0.239998 -0.160234,0.4931 -0.240234,0.759766 -0.02666,0.133324 -0.10494,0.265096 -0.238281,0.398438 -0.16,0.293341 -0.361563,0.320078 -0.601563,0.08008 -0.213341,-0.186666 -0.371857,-0.425416 -0.478515,-0.71875 -0.160008,-0.373332 -0.293733,-0.760159 -0.400391,-1.160157 -0.106658,-0.426665 -0.199297,-0.86698 -0.279297,-1.320312 -0.106658,-0.666666 -0.20125,-1.333337 -0.28125,-2 -0.08,-0.666666 -0.172638,-1.345733 -0.279297,-2.039063 -0.02668,-0.186676 -0.05342,-0.373888 -0.08008,-0.560546 -0.02666,-0.186674 -0.08016,-0.373889 -0.160156,-0.560547 -0.159998,-0.480008 -0.4131,-0.545885 -0.759766,-0.199219 -0.159992,0.186673 -0.306111,0.371935 -0.439453,0.558594 -0.133316,0.186665 -0.227908,0.400625 -0.28125,0.640625 -0.106658,0.399997 -0.199297,0.801171 -0.279297,1.201171 -0.08,0.373332 -0.160234,0.758206 -0.240234,1.158204 -0.133339,0.693331 -0.293811,1.386746 -0.480469,2.080078 -0.186658,0.693331 -0.386268,1.374352 -0.599609,2.041015 0,0.16 -0.08024,0.240235 -0.240235,0.240235 -0.05332,-0.133324 -0.106814,-0.267049 -0.160156,-0.400391 -0.05332,-0.133332 -0.106814,-0.279453 -0.160156,-0.439453 l -0.240235,-1.441406 c -0.08,-0.506666 -0.11914,-1.012868 -0.11914,-1.519532 v -2.679687 c 0,-0.266666 -0.01436,-0.519766 -0.04102,-0.759766 0,-0.266665 -0.05155,-0.519765 -0.158203,-0.759765 -0.213332,-0.613342 -0.534272,-0.681172 -0.960937,-0.201172 -0.266666,0.293332 -0.480625,0.614272 -0.640625,0.960937 -0.16,0.319998 -0.252639,0.680078 -0.279297,1.080079 -0.05334,0.533331 -0.08008,1.053881 -0.08008,1.560546 0,0.506664 0.01436,1.012866 0.04102,1.519532 0.05333,1.413329 0.26534,2.732321 0.638672,3.958984 0.133324,0.373332 0.30619,0.733412 0.519531,1.080078 0.213335,0.31999 0.507528,0.58744 0.88086,0.800781 0.239997,0.133342 0.439609,0.199219 0.599609,0.199219 0.186658,0 0.386268,-0.106971 0.599609,-0.320312 0.21334,-0.186659 0.373811,-0.386268 0.480469,-0.59961 0.106684,-0.239997 0.213654,-0.47875 0.320313,-0.71875 0.186655,-0.533331 0.347127,-1.080627 0.480468,-1.640625 0.159993,-0.56 0.306112,-1.13404 0.439454,-1.720703 0.05334,0.05334 0.08008,0.09444 0.08008,0.121094 0,0.02666 0.0124,0.0658 0.03906,0.11914 0.08,0.506664 0.174592,1.000469 0.28125,1.480469 0.133324,0.479998 0.267049,0.959456 0.400391,1.439453 0.239997,0.853332 0.719456,1.493256 1.439453,1.919922 0.48,0.319998 0.959456,0.319998 1.439453,0 0.373342,-0.24 0.653186,-0.519846 0.839844,-0.839844 0.213332,-0.346665 0.400547,-0.706743 0.560547,-1.080078 0.133341,-0.266665 0.240312,-0.532162 0.320312,-0.798828 0.08,-0.266666 0.186971,-0.546512 0.320319,-0.839844 0.0533,-0.159999 0.0925,-0.254591 0.11914,-0.28125 0.0533,-0.02668 0.14595,-0.01233 0.2793,0.04102 0.90666,0.213334 1.70706,0.172241 2.40039,-0.121094 0.42026,-0.176954 0.7957,-0.410993 1.14258,-0.679687 -0.005,0.106279 -0.018,0.2145 -0.0215,0.320312 0,1.119995 0.17287,2.120003 0.51953,3 0.21334,0.533332 0.60016,0.946901 1.16016,1.240235 0.56,0.293331 1.15883,0.252238 1.79883,-0.121094 l 1.83984,-1.039062 c 0.61333,-0.346666 1.22847,-0.706747 1.8418,-1.080079 0.85333,-0.56 1.69286,-1.146436 2.51953,-1.759765 0.40815,-0.302827 0.82948,-0.605377 1.24414,-0.908203 -0.0155,0.222689 -0.0376,0.447308 -0.0449,0.667968 0,1.119995 0.17286,2.120003 0.51953,3 0.21333,0.533332 0.60015,0.946901 1.16015,1.240235 0.56,0.293331 1.16079,0.252238 1.80079,-0.121094 l 1.83984,-1.039062 c 0.61333,-0.346666 1.22651,-0.706747 1.83984,-1.080079 0.85333,-0.56 1.69287,-1.146436 2.51953,-1.759765 0.4898,-0.363394 0.99499,-0.72645 1.49414,-1.089844 0.0328,0.949539 0.10482,1.90007 0.22657,2.849609 0.0533,0.373332 0.11922,0.733413 0.19922,1.080079 0.08,0.319997 0.21373,0.626587 0.40039,0.919921 0.21333,0.373322 0.54666,0.665565 1,0.878907 0.47999,0.240007 0.9862,0.188462 1.51953,-0.158204 0.21334,-0.133324 0.4149,-0.267048 0.60156,-0.40039 0.18667,-0.160008 0.35953,-0.334826 0.51953,-0.521484 l 0.87891,-1.119141 c 0.29333,-0.4 0.57318,-0.799221 0.83984,-1.199219 0.29333,-0.426666 0.54838,-0.854584 0.76172,-1.28125 0.24,-0.426666 0.47875,-0.866981 0.71875,-1.320312 0.29334,-0.453332 0.40031,-0.945184 0.32031,-1.478516 -0.0267,-0.08 -0.0534,-0.174592 -0.0801,-0.28125 0,-0.106658 -0.0535,-0.186893 -0.16016,-0.240234 -0.13334,-0.02666 -0.24031,7.8e-5 -0.32031,0.08008 -0.08,0.08 -0.14588,0.174591 -0.19922,0.28125 -0.18666,0.24 -0.34713,0.4931 -0.48047,0.759765 -0.13333,0.266666 -0.26705,0.532163 -0.40039,0.798829 -0.32,0.559997 -0.68008,1.094896 -1.08008,1.601562 -0.37333,0.479997 -0.7993,0.945106 -1.2793,1.398438 -0.16,0.16 -0.33287,0.281328 -0.51953,0.361328 -0.66666,0.266665 -1.04109,0.05271 -1.12109,-0.640625 -0.0533,-0.373332 -0.10682,-0.719063 -0.16016,-1.039063 -0.0267,-0.346666 -0.0391,-0.706746 -0.0391,-1.080078 v -1.800781 -1.560547 c 0,-0.506666 0.0124,-1.025262 0.0391,-1.558594 0,-0.666663 0.0144,-1.32094 0.041,-1.960937 0.0267,-0.639998 0.0534,-1.279922 0.0801,-1.919922 0.0266,-0.559998 0.0391,-1.11969 0.0391,-1.679688 0,-0.56 0.0267,-1.107293 0.0801,-1.640625 0.0267,-0.213321 0.041,-0.42533 0.041,-0.638672 v -0.640625 c 0,-0.133341 0.0659,-0.213576 0.19922,-0.240234 0.13334,0 0.2403,-0.0124 0.32031,-0.03906 0.66667,-0.05332 1.33334,-0.106814 2,-0.160156 0.66667,-0.05332 1.34769,-0.06767 2.04102,-0.04102 0.26667,0 0.45193,-0.133725 0.55859,-0.400391 0.0533,-0.05334 0.0801,-0.119219 0.0801,-0.199219 0,-0.08 0.0144,-0.160234 0.041,-0.240234 0.0533,-0.453332 -1.6e-4,-0.759922 -0.16016,-0.919922 -0.13333,-0.16 -0.42753,-0.266971 -0.88086,-0.320313 -0.61333,-0.05334 -1.21217,-0.08008 -1.79884,-0.08008 -0.58666,-0.02668 -1.18745,-0.05342 -1.80078,-0.08008 -0.32001,0 -0.49287,-0.0124 -0.51953,-0.03906 -0.0267,-0.02667 -0.041,-0.199532 -0.041,-0.519532 0.0267,-0.479997 0.041,-0.961408 0.041,-1.441406 0.0267,-0.48 0.0391,-0.959455 0.0391,-1.439453 0,-0.266666 -0.0124,-0.534115 -0.0391,-0.800781 0,-0.266666 -0.0678,-0.519766 -0.20117,-0.759766 -0.12,-0.280006 -0.29257,-0.393753 -0.51757,-0.34375 z m -115.400391,1.144532 c 0.05334,0 0.119219,0.06588 0.199219,0.199218 0.106658,0.213322 0.186893,0.427284 0.240234,0.640625 0.08,0.213324 0.160235,0.427284 0.240235,0.640625 0.186666,0.613332 0.32039,1.238909 0.400391,1.878906 0.106683,0.639998 0.213654,1.279922 0.320312,1.919922 0.186673,1.01333 0.332795,2.040081 0.439453,3.080078 0.133324,1.01333 0.267049,2.040081 0.400391,3.080079 0.05332,0.613331 0.106814,1.226512 0.160156,1.839843 l 0.238281,1.839844 c 0,0.16 -0.0124,0.266971 -0.03906,0.320313 -0.02666,0.02666 -0.119297,0.02666 -0.279297,0 -0.853332,-0.106684 -1.707215,-0.13342 -2.560547,-0.08008 -0.853329,0.05332 -1.707215,0.106815 -2.5605469,0.160157 -0.4266658,0.05332 -0.8526335,0.106814 -1.2792969,0.160156 -0.4,0.05332 -0.8279183,0.106815 -1.28125,0.160156 0.1066583,-0.4 0.1868927,-0.772475 0.2402344,-1.11914 L 7.625,-55.345703 c 0.2399975,-1.093329 0.4930998,-2.159221 0.7597656,-3.199219 0.2666659,-1.039997 0.5732561,-2.081099 0.9199219,-3.121094 0.2933317,-0.906665 0.5875252,-1.812086 0.8808595,-2.71875 0.293332,-0.906663 0.626668,-1.787293 1,-2.640625 0.266666,-0.639997 0.65349,-1.226434 1.160156,-1.759765 0.08,-0.133317 0.133498,-0.186815 0.160156,-0.160156 z M 160.87109,-56.28125 c -0.145,-0.0033 -0.29393,0.0023 -0.44726,0.01563 -0.53333,0.02667 -1.00039,0.172787 -1.40039,0.439453 -0.4,0.24 -0.76008,0.54659 -1.08008,0.919922 -0.50666,0.586666 -0.93263,1.214196 -1.2793,1.880859 -0.32001,0.639998 -0.53396,1.345809 -0.64062,2.119141 -0.0533,0.639997 0.0145,1.226434 0.20117,1.759766 0.18667,0.506665 0.55914,0.94698 1.11914,1.320312 0.24,0.159993 0.4931,0.308065 0.75977,0.441406 0.16,0.133324 0.24023,0.265096 0.24023,0.398438 0.0533,0.293332 0.12117,0.599924 0.20117,0.919922 0.08,0.293334 0.17264,0.587527 0.2793,0.880859 0.26666,0.746663 0.69263,1.267213 1.2793,1.560547 0.29333,0.16 0.61427,0.240234 0.96093,0.240234 0.34667,0.02667 0.6924,-0.107059 1.03907,-0.40039 l 0.28125,-0.28125 c 0.10665,-0.106684 0.19929,-0.211701 0.27929,-0.31836 0.42666,-0.639997 0.7476,-1.321018 0.96094,-2.041015 0.10667,-0.293342 0.29193,-0.412717 0.55859,-0.359375 0.18667,0.02666 0.40063,-7.8e-5 0.64063,-0.08008 0.4,-0.160005 0.79922,-0.332873 1.19922,-0.519532 0.39999,-0.213324 0.78682,-0.427283 1.16015,-0.640625 0.21282,-0.100151 0.41225,-0.210343 0.60157,-0.328125 0.0133,0.255932 0.0135,0.511647 0.0391,0.767578 0.0533,0.533332 0.13357,1.066278 0.24023,1.59961 0.0533,0.32 0.13358,0.62659 0.24024,0.919922 0.10665,0.293331 0.26712,0.560781 0.48047,0.800781 0.71999,0.906663 1.49169,0.945804 2.31836,0.119141 0.18667,-0.213332 0.33474,-0.439688 0.4414,-0.679688 0.4,-0.773332 0.76008,-1.559377 1.08008,-2.359375 0.34667,-0.799997 0.66565,-1.600393 0.95898,-2.400391 0.0533,-0.133324 0.0944,-0.267048 0.1211,-0.40039 0.0267,-0.133324 0.0926,-0.265096 0.19922,-0.398438 v 1.31836 c 0.0267,0.399997 0.0534,0.801172 0.0801,1.201172 0.0267,0.373331 0.0534,0.760156 0.0801,1.160156 0.0533,0.373332 0.11922,0.745809 0.19922,1.11914 0.0533,0.213325 0.10682,0.427284 0.16016,0.640626 0.0533,0.213324 0.14791,0.427283 0.28125,0.640624 0.21333,0.31999 0.47883,0.546346 0.79883,0.679688 0.31999,0.106683 0.66768,0.09233 1.04101,-0.04102 0.21334,-0.05334 0.3986,-0.133576 0.5586,-0.240234 0.15999,-0.106658 0.30806,-0.226033 0.4414,-0.359375 0.29333,-0.24 0.54643,-0.50745 0.75977,-0.800781 0.23999,-0.293332 0.46634,-0.585572 0.67969,-0.878906 0.34666,-0.506664 0.66565,-1.012866 0.95898,-1.519532 0.29333,-0.533331 0.59992,-1.053881 0.91992,-1.560547 0.16,-0.266665 0.28133,-0.546512 0.36133,-0.839843 0.08,-0.293332 0.0656,-0.587526 -0.041,-0.88086 -0.0267,-0.05332 -0.0534,-0.106814 -0.0801,-0.160156 0,-0.08 -0.0391,-0.119141 -0.11914,-0.119141 -0.13335,-0.02668 -0.24032,0.02681 -0.32032,0.160157 -0.13334,0.133334 -0.25271,0.279453 -0.35937,0.439453 -0.08,0.159997 -0.17459,0.320468 -0.28125,0.480469 -0.24,0.426665 -0.4931,0.852631 -0.75977,1.279296 -0.24,0.399998 -0.50549,0.801172 -0.79883,1.201172 -0.16,0.213324 -0.33482,0.42533 -0.52148,0.638672 -0.18667,0.186656 -0.39867,0.347127 -0.63867,0.480469 -0.61333,0.32 -0.96102,0.147134 -1.04102,-0.519531 -0.08,-0.77333 -0.11914,-1.534585 -0.11914,-2.28125 0,-0.746664 0.0124,-1.505966 0.0391,-2.279297 0.0267,-0.453332 0.0267,-0.906044 0,-1.359375 0,-0.479998 -0.0267,-0.947059 -0.0801,-1.400391 -0.0533,-0.266666 -0.13358,-0.546509 -0.24024,-0.839844 -0.13333,-0.293341 -0.34534,-0.359218 -0.63867,-0.199218 -0.13332,0.08 -0.26705,0.199375 -0.40039,0.359375 -0.24,0.266665 -0.43961,0.546512 -0.59961,0.839843 -0.16001,0.293332 -0.33287,0.585575 -0.51953,0.878907 -0.16001,0.293334 -0.29373,0.601877 -0.40039,0.921875 -0.10666,0.32 -0.22799,0.62659 -0.36133,0.919921 -0.26666,0.639998 -0.51977,1.279922 -0.75977,1.919922 -0.21333,0.639998 -0.46643,1.265575 -0.75976,1.878907 -0.10666,0.160007 -0.1993,0.332873 -0.2793,0.519531 -0.08,0.15999 -0.18697,0.308064 -0.32031,0.441406 l -0.16016,0.160156 c -0.0267,0.02666 -0.0658,0.03906 -0.11914,0.03906 -0.13334,-0.02668 -0.20117,-0.133654 -0.20117,-0.320313 -0.08,-0.266665 -0.1335,-0.532162 -0.16016,-0.798828 -0.0267,-0.266666 -0.0534,-0.546512 -0.0801,-0.839844 -0.08,-1.199997 -0.0389,-2.401567 0.12109,-3.601562 0.0533,-0.32 0.0801,-0.638987 0.0801,-0.958984 0.0267,-0.32 0.0123,-0.640938 -0.041,-0.960938 -0.0267,-0.133342 -0.0534,-0.252717 -0.0801,-0.359375 -0.0267,-0.106658 -0.0658,-0.226033 -0.11914,-0.359375 -0.16,-0.346658 -0.4007,-0.44125 -0.7207,-0.28125 -0.0533,0.05334 -0.10681,0.09444 -0.16016,0.121094 -0.0533,0.02666 -0.10681,0.0658 -0.16015,0.11914 -0.21334,0.293332 -0.41295,0.587528 -0.59961,0.88086 -0.16,0.293334 -0.27938,0.612321 -0.35938,0.958984 -0.13331,0.586666 -0.22595,1.1731 -0.27929,1.759766 -0.009,0.195342 -0.008,0.40131 -0.0137,0.599609 -0.46886,0.24802 -0.94361,0.460365 -1.42773,0.601563 -0.64,0.186663 -1.30667,0.359531 -2,0.519531 -0.0533,-0.05334 -0.0801,-0.09248 -0.0801,-0.119141 0.0267,-0.05332 0.041,-0.106814 0.041,-0.160156 0,-0.346666 0.0124,-0.680002 0.0391,-1 0.0267,-0.346666 0.0267,-0.69435 0,-1.041016 -0.0533,-0.453331 -0.11922,-0.893646 -0.19922,-1.320312 -0.08,-0.426666 -0.19937,-0.852634 -0.35937,-1.279297 -0.0533,-0.133324 -0.12118,-0.267049 -0.20118,-0.400391 -0.0533,-0.133324 -0.11921,-0.267048 -0.19921,-0.40039 -0.37334,-0.506674 -0.81365,-0.852404 -1.32032,-1.039063 -0.35999,-0.160006 -0.75836,-0.245862 -1.19336,-0.255859 z m -61.845699,2.175781 c 0.239992,0.24 0.386111,0.573334 0.439453,1 0.08,0.399998 0.0924,0.799219 0.03906,1.199219 -0.02666,0.373332 -0.0658,0.774506 -0.11914,1.201172 -0.21334,-0.16 -0.373811,-0.386356 -0.480469,-0.679688 -0.106658,-0.293334 -0.186893,-0.599924 -0.240235,-0.919922 -0.02668,-0.319999 -0.01233,-0.64094 0.04102,-0.960937 0.05334,-0.32 0.160313,-0.599844 0.320313,-0.839844 z M 38.705078,-53.625 c 0.453334,0.02666 0.852556,0.119297 1.199219,0.279297 0.373332,0.133332 0.679922,0.413178 0.919922,0.839844 0.293334,0.506665 0.480547,1.039612 0.560547,1.599609 0.106683,0.533332 0.133419,1.080628 0.08008,1.640625 0,0.16 -0.02674,0.266971 -0.08008,0.320313 -0.02668,0.02666 -0.133655,0.02666 -0.320313,0 -0.373332,-0.05332 -0.733412,-0.106815 -1.080078,-0.160157 -0.346666,-0.08 -0.692397,-0.145877 -1.039063,-0.199219 -0.186683,-0.02666 -0.25256,-0.147986 -0.199218,-0.361328 0.05332,-0.186673 0.06572,-0.373888 0.03906,-0.560546 v -0.558594 c 0,-0.133332 -0.0535,-0.332944 -0.160156,-0.59961 -0.133334,-0.266658 -0.332944,-0.307752 -0.599609,-0.121093 -0.240005,0.239997 -0.412873,0.493099 -0.519532,0.759765 -0.05332,0.133342 -0.106814,0.25467 -0.160156,0.361328 -0.02666,0.106659 -0.06775,0.226034 -0.121094,0.359375 -0.213321,-0.08 -0.386189,-0.18697 -0.519531,-0.320312 -0.106683,-0.160008 -0.213654,-0.332873 -0.320312,-0.519531 -0.02666,-0.05334 -0.03906,-0.160313 -0.03906,-0.320313 0.186666,-0.533332 0.439766,-1.012787 0.759766,-1.439453 0.319997,-0.426656 0.772709,-0.747596 1.359375,-0.960938 0.05334,-0.02666 0.133576,-0.03906 0.240234,-0.03906 z m 121.240232,0 c 0.45333,0.02666 0.85256,0.119297 1.19922,0.279297 0.37333,0.133332 0.67992,0.413178 0.91992,0.839844 0.29333,0.506665 0.48055,1.039612 0.56055,1.599609 0.10668,0.533332 0.13342,1.080628 0.0801,1.640625 0,0.16 -0.0267,0.266971 -0.0801,0.320313 -0.0267,0.02666 -0.13365,0.02666 -0.32031,0 -0.37333,-0.05332 -0.73341,-0.106815 -1.08008,-0.160157 -0.34667,-0.08 -0.69435,-0.145877 -1.04102,-0.199219 -0.18668,-0.02666 -0.25256,-0.147986 -0.19921,-0.361328 0.0533,-0.186673 0.0657,-0.373888 0.0391,-0.560546 v -0.558594 c 0,-0.133332 -0.0515,-0.332944 -0.15821,-0.59961 -0.13333,-0.266658 -0.33489,-0.307752 -0.60156,-0.121093 -0.24001,0.239997 -0.41287,0.493099 -0.51953,0.759765 -0.0533,0.133342 -0.10681,0.25467 -0.16016,0.361328 -0.0266,0.106659 -0.0658,0.226034 -0.11914,0.359375 -0.21332,-0.08 -0.38619,-0.18697 -0.51953,-0.320312 -0.10668,-0.160008 -0.21365,-0.332873 -0.32031,-0.519531 -0.0267,-0.05334 -0.041,-0.160313 -0.041,-0.320313 0.18667,-0.533332 0.43977,-1.012787 0.75977,-1.439453 0.32,-0.426656 0.77466,-0.747596 1.36133,-0.960938 0.0533,-0.02666 0.13357,-0.03906 0.24023,-0.03906 z m -52.40039,1.039062 c 0.16,0 0.32047,0.119375 0.48047,0.359376 0.18666,0.24 0.26689,0.56094 0.24023,0.960937 -0.0267,0.373334 -0.20148,0.799299 -0.52148,1.279297 -0.32,0.479997 -0.86534,0.961406 -1.63867,1.441406 -0.0267,-0.746666 0.0784,-1.520315 0.31836,-2.320312 l 0.24023,-0.720704 c 0.10666,-0.239989 0.22799,-0.466345 0.36133,-0.679687 l 0.19922,-0.199219 c 0.08,-0.08 0.18697,-0.121093 0.32031,-0.121094 z m 10.87891,0 c 0.16,0 0.32047,0.119375 0.48047,0.359376 0.18666,0.24 0.26689,0.56094 0.24023,0.960937 -0.0267,0.373334 -0.19953,0.799299 -0.51953,1.279297 -0.32,0.479997 -0.8673,0.961406 -1.64062,1.441406 -0.0267,-0.746666 0.0803,-1.520315 0.32031,-2.320312 l 0.24023,-0.720704 c 0.10666,-0.239989 0.22604,-0.466345 0.35938,-0.679687 l 0.20117,-0.199219 c 0.08,-0.08 0.18502,-0.121093 0.31836,-0.121094 z m -90.238283,0.359376 c 0.186683,0.24 0.293654,0.480703 0.320312,0.720703 0.05334,0.239997 0.09248,0.480703 0.119141,0.720703 0.16,1.013329 0.174357,2.079221 0.04102,3.199218 0,0.186684 -0.106971,0.293655 -0.320313,0.320313 -0.453332,0.05334 -0.907996,0.05334 -1.361328,0 -0.346666,-0.02666 -0.692397,-0.03906 -1.039063,-0.03906 -0.319999,-0.02666 -0.667683,-0.06775 -1.041015,-0.121093 0.479997,-0.853329 0.973803,-1.692866 1.480469,-2.519531 0.506665,-0.826664 1.107449,-1.587919 1.800781,-2.28125 z m 11.349609,5.480468 c 0.06,0 0.116593,0.01434 0.169922,0.04102 0.106658,0.02666 0.226033,0.03906 0.359375,0.03906 h 0.361328 c 0.133334,0 0.279453,0.01436 0.439453,0.04102 -0.133334,0.373332 -0.320546,0.558594 -0.560546,0.558594 -0.23999,0.02668 -0.425253,-0.02486 -0.558594,-0.158203 -0.133324,-0.13334 -0.267049,-0.293811 -0.400391,-0.480469 0.06667,-0.02667 0.129453,-0.04102 0.189453,-0.04102 z m 121.238284,0 c 0.06,0 0.11854,0.01434 0.17187,0.04102 0.10666,0.02666 0.22604,0.03906 0.35938,0.03906 h 0.35937 c 0.13333,0 0.27946,0.01436 0.43946,0.04102 -0.13334,0.373332 -0.3186,0.558594 -0.5586,0.558594 -0.23999,0.02668 -0.4272,-0.02486 -0.56054,-0.158203 -0.13333,-0.13334 -0.26705,-0.293811 -0.4004,-0.480469 0.0667,-0.02667 0.12946,-0.04102 0.18946,-0.04102 z m -133.988284,1.441406 c 0.293332,-0.02666 0.560782,-0.02666 0.800782,0 h 0.798828 c -0.02666,0.08 -0.03906,0.158282 -0.03906,0.238282 0,0.08 -0.01436,0.14783 -0.04102,0.201172 -0.02666,0.24 -0.146034,0.305877 -0.359376,0.199218 -0.213341,-0.05334 -0.412951,-0.133576 -0.599609,-0.240234 -0.15999,-0.133324 -0.347205,-0.265096 -0.560547,-0.398438 z"
           transform="matrix(0.26458333,0,0,0.26458333,19.334427,34.434727)" />
      </g>
    </g>
  </g>
</svg>
