<?xml version="1.0" encoding="UTF-8" standalone="no"?>
<svg
   xmlns:dc="http://purl.org/dc/elements/1.1/"
   xmlns:cc="http://creativecommons.org/ns#"
   xmlns:rdf="http://www.w3.org/1999/02/22-rdf-syntax-ns#"
   xmlns:svg="http://www.w3.org/2000/svg"
   xmlns="http://www.w3.org/2000/svg"
   xmlns:sodipodi="http://sodipodi.sourceforge.net/DTD/sodipodi-0.dtd"
   xmlns:inkscape="http://www.inkscape.org/namespaces/inkscape"
   width="47.341888mm"
   height="11.841809mm"
   viewBox="0 0 47.341888 11.84181"
   version="1.1"
   id="svg8"
   inkscape:version="1.0.1 (3bc2e813f5, 2020-09-07)"
   sodipodi:docname="contact-the-shop.svg">
  <title
     id="title1070">Contact the Shop</title>
  <defs
     id="defs2" />
  <sodipodi:namedview
     id="base"
     pagecolor="#ffffff"
     bordercolor="#666666"
     borderopacity="1.0"
     inkscape:pageopacity="0.0"
     inkscape:pageshadow="2"
     inkscape:zoom="6.4623669"
     inkscape:cx="117.12132"
     inkscape:cy="40.371455"
     inkscape:document-units="mm"
     inkscape:current-layer="text851"
     inkscape:document-rotation="0"
     showgrid="false"
     inkscape:window-width="2560"
     inkscape:window-height="1506"
     inkscape:window-x="-11"
     inkscape:window-y="-11"
     inkscape:window-maximized="1"
     fit-margin-top="0"
     fit-margin-left="0"
     fit-margin-right="0"
     fit-margin-bottom="0"
     inkscape:showpageshadow="false" />
  <metadata
     id="metadata5">
    <rdf:RDF>
      <cc:Work
         rdf:about="">
        <dc:format>image/svg+xml</dc:format>
        <dc:type
           rdf:resource="http://purl.org/dc/dcmitype/StillImage" />
        <dc:title>Contact the Shop</dc:title>
      </cc:Work>
    </rdf:RDF>
  </metadata>
  <g
     inkscape:label="Layer 1"
     inkscape:groupmode="layer"
     id="layer1"
     transform="translate(-21.421283,-27.267153)">
    <g
       id="g847">
      <g
         aria-label="About Sweet Lou"
         id="text851"
         style="font-size:10.5833px;line-height:1.25;font-family:'Retro Sign';-inkscape-font-specification:'Retro Sign';stroke-width:0.264583">
        <g
           aria-label="Contact the Shop"
           id="text923"
           style="font-size:10.5833px;line-height:1.25;font-family:'Retro Sign';-inkscape-font-specification:'Retro Sign';stroke-width:0.0700042">
          <path
             id="path925"
             style="fill:#ba6211;fill-opacity:1;stroke:#5d3108;stroke-width:0.869291;stroke-miterlimit:4;stroke-dasharray:none;stroke-opacity:1"
             d="m 141.02344,46.230469 c -0.28,-0.01334 -0.57224,0.032 -0.87891,0.138672 -0.37333,0.106673 -0.70667,0.254748 -1,0.441406 -0.29333,0.186666 -0.58753,0.398672 -0.88086,0.638672 -1.49333,1.279995 -2.71969,2.814899 -3.67969,4.601562 -0.34666,0.613329 -0.6676,1.226512 -0.96093,1.839844 -0.26667,0.613332 -0.53217,1.238909 -0.79883,1.878906 -0.34666,0.853332 -0.64086,1.733962 -0.88086,2.640625 -0.21334,0.879998 -0.33272,1.787372 -0.35938,2.720703 0,0.666664 0.0926,1.279847 0.2793,1.839844 0.21334,0.533332 0.51993,0.944947 0.91992,1.238281 0.42667,0.266656 0.90612,0.468221 1.43946,0.601563 0.37333,0.08 0.76015,0.133498 1.16015,0.160156 0.4,0.02666 0.78683,0.0658 1.16016,0.119141 1.22666,0.16 2.41388,0.359609 3.56055,0.599609 0.37333,0.05334 0.7458,0.133576 1.11914,0.240235 0.37333,0.106675 0.73341,0.252794 1.08007,0.439453 0.29335,0.16 0.53405,0.439846 0.72071,0.839843 0.21331,0.373332 0.22767,0.760157 0.041,1.160157 -0.18665,0.426665 -0.38822,0.813493 -0.60156,1.160156 -0.13332,0.186676 -0.2651,0.373888 -0.39844,0.560547 -0.10666,0.159997 -0.22798,0.320469 -0.36133,0.480468 -0.42666,0.560001 -0.90612,1.0662 -1.43945,1.519532 -0.50666,0.426655 -1.10745,0.747596 -1.80078,0.960937 -0.64,0.213317 -1.22643,0.225721 -1.75977,0.03906 -0.21332,-0.106659 -0.38618,-0.160156 -0.51953,-0.160156 -0.16,0.02666 -0.29373,-7.9e-5 -0.40039,-0.08008 -0.10668,-0.08 -0.21365,-0.172638 -0.32031,-0.279297 -0.32,-0.293331 -0.59984,-0.626668 -0.83984,-1 -0.21333,-0.399999 -0.38619,-0.813568 -0.51953,-1.240234 -0.0533,-0.08 -0.0925,-0.160234 -0.11914,-0.240234 -0.0267,-0.106659 -0.0678,-0.199297 -0.1211,-0.279297 -0.29332,-0.346674 -0.54642,-0.334269 -0.75976,0.03906 -0.29335,0.533332 -0.35922,1.119769 -0.19922,1.759766 0.10666,0.533332 0.26517,1.053881 0.47851,1.560547 0.21333,0.506663 0.46644,0.986121 0.75977,1.439453 0.15999,0.213334 0.30806,0.439687 0.4414,0.679687 0.15999,0.266674 0.34526,0.494983 0.5586,0.681641 1.03999,0.879998 2.20047,1.159844 3.48047,0.839844 0.45333,-0.133334 0.88125,-0.334897 1.28125,-0.601563 0.4,-0.239997 0.78682,-0.505494 1.16015,-0.798828 0.93333,-0.746663 1.74613,-1.666436 2.43946,-2.759765 0.29333,-0.453332 0.55882,-0.907997 0.79882,-1.361329 0.24001,-0.453331 0.45397,-0.945183 0.64063,-1.478515 0.48,-1.439998 0.52109,-2.907064 0.12109,-4.400391 -0.10666,-0.32 -0.24039,-0.614193 -0.40039,-0.880859 -0.13333,-0.293324 -0.34729,-0.546424 -0.64062,-0.759766 -0.29332,-0.18666 -0.58752,-0.359525 -0.88085,-0.519525 -0.29334,-0.16 -0.61232,-0.279375 -0.95899,-0.359375 -0.85333,-0.213324 -1.70721,-0.427283 -2.56054,-0.640625 -0.82667,-0.213324 -1.6662,-0.38619 -2.51953,-0.519531 -0.34667,-0.05332 -0.6924,-0.106815 -1.03907,-0.160157 -0.34666,-0.05332 -0.69435,-0.147908 -1.04101,-0.28125 -0.26667,-0.07999 -0.53412,-0.226111 -0.80078,-0.439453 -0.16,-0.133331 -0.27938,-0.279453 -0.35938,-0.439453 -0.08,-0.159997 -0.08,-0.359609 0,-0.599609 0.0267,-0.05334 0.041,-0.09444 0.041,-0.121094 0,-0.05332 0.0124,-0.106814 0.0391,-0.160156 0.13332,-0.586666 0.30619,-1.158753 0.51953,-1.71875 0.21332,-0.56 0.42728,-1.11969 0.64063,-1.679688 0.45333,-1.119997 1.02737,-2.134352 1.7207,-3.041015 0.69333,-0.933329 1.46503,-1.799612 2.31836,-2.59961 0.24,-0.213331 0.49505,-0.400546 0.76172,-0.560546 0.29333,-0.186684 0.61232,-0.293655 0.95898,-0.320313 0.18667,0 0.3328,0.02674 0.43945,0.08008 0.23999,0.106666 0.42721,0.306278 0.56055,0.599609 0.21334,0.453332 0.32031,0.920391 0.32031,1.400391 0.0267,0.479998 0.0123,0.961406 -0.041,1.441406 -0.0533,0.479998 -0.11922,0.959456 -0.19922,1.439453 -0.0533,0.480001 -0.13358,0.947059 -0.24024,1.400391 -0.0267,0.133342 -0.0534,0.252717 -0.0801,0.359375 0,0.106684 0.0144,0.213654 0.041,0.320313 0,0.186658 0.0926,0.306033 0.2793,0.359375 0.13334,0.02668 0.25272,-0.02681 0.35937,-0.160157 0.16,-0.213321 0.26698,-0.386189 0.32032,-0.519531 0.74667,-1.786663 1.13349,-3.626205 1.16015,-5.519531 0,-1.279995 -0.26549,-2.374587 -0.79882,-3.28125 -0.26667,-0.453332 -0.6535,-0.813412 -1.16016,-1.080078 -0.25333,-0.133342 -0.52078,-0.205415 -0.80078,-0.21875 z M 16.923828,46.900391 c -0.226666,-0.0067 -0.473568,0.02938 -0.740234,0.109375 -0.293332,0.08 -0.558828,0.18697 -0.798828,0.320312 -0.23999,0.133332 -0.466346,0.279453 -0.679688,0.439453 -0.639997,0.453334 -1.201643,0.973884 -1.68164,1.560547 -0.480001,0.586666 -0.905966,1.22659 -1.279297,1.919922 -0.639998,1.173329 -1.19969,2.372949 -1.679688,3.599609 -0.4799999,1.199998 -0.9059651,2.440709 -1.2792968,3.720703 -0.5333316,1.759995 -0.934506,3.533652 -1.2011718,5.320313 -0.2399899,1.786661 -0.3861114,3.599458 -0.4394532,5.439453 10e-8,0.693332 0.026736,1.372399 0.080078,2.039063 0.053324,0.639997 0.1870489,1.279921 0.4003906,1.919921 0.2133342,0.639998 0.4788306,1.228388 0.7988281,1.761719 0.3466659,0.533332 0.8013281,0.986044 1.3613281,1.359375 1.279995,0.826664 2.559849,0.865804 3.839844,0.119141 0.426666,-0.266666 0.81349,-0.573256 1.160156,-0.919922 0.693332,-0.693332 1.333259,-1.399143 1.919922,-2.119141 0.613332,-0.719997 1.212162,-1.454508 1.798828,-2.201172 0.15999,-0.213324 0.308065,-0.42533 0.441406,-0.638671 0.15999,-0.24 0.306112,-0.480704 0.439454,-0.720703 0.213341,-0.426664 0.252482,-0.866981 0.11914,-1.320313 -0.02668,-0.08 -0.05342,-0.160234 -0.08008,-0.240234 0,-0.08 -0.0535,-0.133498 -0.160156,-0.160157 -0.08,-0.02666 -0.160234,7.8e-5 -0.240234,0.08008 l -0.158204,0.160157 c -0.05334,0.106683 -0.121171,0.213654 -0.201172,0.320312 -0.05334,0.08 -0.119218,0.160235 -0.199218,0.240235 -0.24,0.346663 -0.4931,0.68 -0.759766,1 -0.266666,0.293331 -0.546512,0.587525 -0.839844,0.880859 -0.373334,0.399997 -0.747762,0.786825 -1.121093,1.160156 -0.346666,0.373334 -0.745887,0.706669 -1.199219,1 -0.213324,0.133324 -0.427283,0.265096 -0.640625,0.398438 -0.186666,0.106658 -0.413022,0.160156 -0.679688,0.160156 -0.479997,0 -0.920312,-0.09264 -1.320312,-0.279297 C 11.504299,73.116746 11.158566,72.8369 10.865234,72.490234 10.385227,71.956903 10.051893,71.370469 9.8652344,70.730469 9.6785509,70.063805 9.6107208,69.370388 9.6640625,68.650391 c 0.026658,-0.586666 0.067752,-1.173103 0.1210937,-1.759766 0.053342,-0.586666 0.1192188,-1.1731 0.1992188,-1.759766 0.08,-0.773329 0.172639,-1.54698 0.279297,-2.320312 0.133324,-0.773332 0.308143,-1.546983 0.521484,-2.320313 0.293332,-1.199997 0.639063,-2.372868 1.039063,-3.519531 0.399997,-1.146663 0.879453,-2.267999 1.439453,-3.361328 0.613332,-1.199995 1.481567,-2.146512 2.601562,-2.839844 0.239998,-0.186658 0.47875,-0.279297 0.71875,-0.279297 0.293324,-0.05334 0.507284,0.02689 0.640625,0.240235 l 0.480469,0.71875 c 0.186674,0.373331 0.332795,0.774506 0.439453,1.201172 0.133342,0.399997 0.252717,0.799218 0.359375,1.199218 0.133342,0.639998 0.240313,1.279925 0.320313,1.919922 0.106658,0.64 0.186892,1.279925 0.240234,1.919922 0.02668,0.693332 0.05342,1.374352 0.08008,2.041016 0.02666,0.666666 0.02666,1.333336 0,2 v 0.199219 c 0.05332,0.293339 0.187049,0.45381 0.400391,0.480468 0.239997,0.02667 0.398515,-0.107059 0.478516,-0.40039 0.05334,-0.133324 0.09444,-0.267049 0.121093,-0.400391 0.02668,-0.133324 0.05342,-0.267049 0.08008,-0.400391 0.106684,-0.693331 0.172561,-1.384795 0.199219,-2.078125 0.02666,-0.72 0.04102,-1.427764 0.04102,-2.121093 0.02668,-0.506666 0.01233,-1.000472 -0.04102,-1.480469 -0.02666,-0.506666 -0.0658,-1.025262 -0.11914,-1.558594 -0.08,-0.693332 -0.186971,-1.386746 -0.320313,-2.080078 -0.133332,-0.719997 -0.320547,-1.427762 -0.560547,-2.121094 -0.133324,-0.346663 -0.267049,-0.68 -0.40039,-1 -0.133325,-0.32 -0.30619,-0.62659 -0.519532,-0.919922 -0.266666,-0.373331 -0.585652,-0.638828 -0.958984,-0.798828 -0.186667,-0.09333 -0.394427,-0.143726 -0.621094,-0.15039 z m 86.730472,0.529297 c -0.0867,0 -0.17816,0.03294 -0.27149,0.09961 -0.34666,0.213332 -0.6389,0.480781 -0.8789,0.800781 -0.23999,0.293332 -0.38612,0.665809 -0.43946,1.119141 -0.13331,0.853331 -0.22791,1.707217 -0.28125,2.560547 -0.0456,0.706824 -0.0911,1.427975 -0.13672,2.154296 -0.10874,-0.02631 -0.20309,-0.0579 -0.34179,-0.07422 -0.61333,-0.05334 -1.21412,-0.08008 -1.800784,-0.08008 -0.586666,-0.02668 -1.187449,-0.05342 -1.800781,-0.08008 -0.320008,0 -0.492873,-0.01241 -0.519531,-0.03906 -0.02666,-0.02667 -0.03906,-0.201484 -0.03906,-0.521484 0.02666,-0.479998 0.03906,-0.959456 0.03906,-1.439453 0.02666,-0.480001 0.04102,-0.959456 0.04102,-1.439454 0,-0.266665 -0.01436,-0.534115 -0.04102,-0.800781 0,-0.266666 -0.06588,-0.519766 -0.199219,-0.759765 -0.16,-0.373342 -0.4131,-0.453577 -0.759766,-0.240235 -0.133341,0.05334 -0.240312,0.133576 -0.320312,0.240235 -0.05334,0.08 -0.121172,0.172638 -0.201172,0.279296 -0.533339,0.799998 -0.813185,1.668231 -0.839844,2.601563 0,0.319997 -0.0124,0.638984 -0.03906,0.958984 0,0.319998 -0.01436,0.640938 -0.04102,0.960938 0,0.213341 -0.08023,0.320312 -0.240234,0.320312 -0.106659,0 -0.18494,0.0124 -0.238281,0.03906 -0.453332,0.05334 -0.907997,0.133576 -1.361329,0.240234 -0.453334,0.08 -0.906043,0.186971 -1.359375,0.320313 -0.559997,0.16 -0.985965,0.52008 -1.279296,1.080078 -0.05334,0.106683 -0.09444,0.213654 -0.121094,0.320312 -0.05332,0.08 -0.106815,0.185018 -0.160156,0.31836 -0.08,0.160007 -0.119141,0.334826 -0.119141,0.521484 -0.02666,0.159997 -0.02666,0.318516 0,0.478516 0.05332,0.293331 0.187049,0.52164 0.400391,0.68164 0.186665,0.133342 0.425418,0.172483 0.71875,0.119141 0.106683,-0.02668 0.213654,-0.05342 0.320312,-0.08008 0.08,-0.02668 0.172639,-0.05342 0.279297,-0.08008 0.239997,-0.106659 0.480703,-0.199297 0.720703,-0.279297 0.24,-0.106659 0.4931,-0.20125 0.759766,-0.28125 0.266663,-0.08 0.519765,-0.158282 0.759765,-0.238281 0.24,-0.08 0.50745,-0.147831 0.800781,-0.201172 0.05332,0.08 0.06572,0.160234 0.03906,0.240234 v 0.199219 c -0.02666,0.426666 -0.03906,0.854584 -0.03906,1.28125 0,0.399997 -0.01436,0.813568 -0.04102,1.240234 -0.02668,1.066663 -0.05342,2.132556 -0.08008,3.199219 0,1.039995 0.01436,2.093493 0.04102,3.160156 0.02666,1.066663 0.03906,2.132556 0.03906,3.199219 0.02666,1.039997 0.106893,2.081096 0.240234,3.121094 0.05334,0.373331 0.121172,0.733412 0.201172,1.080078 0.08001,0.32 0.211779,0.62659 0.398438,0.919922 0.213334,0.373321 0.546668,0.665564 1,0.878906 0.479997,0.240007 0.988152,0.186509 1.521484,-0.160156 0.213342,-0.133324 0.412951,-0.265096 0.599609,-0.398438 0.186666,-0.160007 0.359532,-0.334826 0.519532,-0.521484 l 0.880859,-1.119141 c 0.293332,-0.4 0.573172,-0.799221 0.839842,-1.199219 0.0965,-0.140401 0.18167,-0.281474 0.26953,-0.421875 0.001,0.153651 0.01,0.307288 0.01,0.460938 0,0.639997 0.0143,1.306668 0.041,2 0.0267,0.133342 0.0515,0.252717 0.0781,0.359375 0.0266,0.08 0.0677,0.186971 0.12109,0.320312 0.0533,0.133342 0.16031,0.252717 0.32031,0.359375 0.18666,0.106659 0.34713,0.147752 0.48047,0.121094 0.18667,-0.05334 0.35953,-0.133576 0.51953,-0.240234 0.18668,-0.07999 0.3328,-0.226112 0.43946,-0.439453 0.18667,-0.4 0.37388,-0.786825 0.56054,-1.160157 0.18668,-0.373331 0.37194,-0.760156 0.5586,-1.160156 0.29333,-0.613329 0.57513,-1.214115 0.84179,-1.800781 0.26667,-0.586666 0.57326,-1.173102 0.91993,-1.759766 0.0533,-0.133341 0.10681,-0.252716 0.16015,-0.359375 0.08,-0.106683 0.18502,-0.213654 0.31836,-0.320312 0.0267,0.239997 0.041,0.480703 0.041,0.720703 0.0267,0.213324 0.0534,0.42533 0.0801,0.638672 0.0267,0.533331 0.0534,1.068231 0.0801,1.601562 0.0533,0.533332 0.11922,1.066278 0.19922,1.59961 0.0533,0.373331 0.12117,0.745809 0.20117,1.11914 0.10667,0.373332 0.29193,0.706666 0.5586,1 0.32,0.400005 0.62659,0.613967 0.91992,0.640625 0.32,0.02666 0.62659,-0.05358 0.91992,-0.240234 0.24001,-0.160008 0.45397,-0.332873 0.64063,-0.519531 0.37332,-0.373332 0.66751,-0.733413 0.88086,-1.080079 0.51337,-0.744391 1.00088,-1.514787 1.46484,-2.308593 0.0528,0.873805 0.21237,1.673416 0.49414,2.388672 0.21333,0.533331 0.60016,0.9469 1.16016,1.240234 0.55999,0.293332 1.16078,0.252238 1.80078,-0.121094 l 1.83984,-1.039062 c 0.61333,-0.346666 1.22651,-0.706747 1.83984,-1.080078 0.85334,-0.559998 1.69287,-1.146434 2.51954,-1.759766 0.82666,-0.613332 1.6662,-1.226512 2.51953,-1.839844 0.63999,-0.453331 0.8807,-1.054115 0.7207,-1.800781 -0.0533,-0.213342 -0.12117,-0.332717 -0.20117,-0.359375 -0.0533,-0.05334 -0.1851,-0.04094 -0.39844,0.03906 -0.15999,0.08 -0.30806,0.172638 -0.44141,0.279296 -0.13332,0.106684 -0.26509,0.213655 -0.39843,0.320313 -0.72,0.533332 -1.45451,1.041484 -2.20118,1.521484 -0.71999,0.479998 -1.4669,0.945106 -2.24023,1.398438 -0.48,0.293331 -0.95945,0.560781 -1.43945,0.800781 -0.45333,0.23999 -0.93279,0.466346 -1.43946,0.679688 -0.24,0.133341 -0.4931,0.213576 -0.75976,0.240234 -0.47999,0.08 -0.82768,-0.119612 -1.04102,-0.59961 l -0.0391,-0.04102 c 0,-0.02668 -0.0144,-0.05342 -0.041,-0.08008 1.28,-0.719998 2.14628,-1.491694 2.59961,-2.31836 0.47999,-0.826663 0.7083,-1.614664 0.68165,-2.361328 -0.0267,-0.746666 -0.20149,-1.398987 -0.52149,-1.958984 -0.29333,-0.586663 -0.57318,-1.000235 -0.83984,-1.240235 -0.48,-0.426665 -0.9862,-0.467759 -1.51953,-0.121093 -0.10666,0.05334 -0.1993,0.121172 -0.2793,0.201172 l -0.24024,0.240234 c -0.42666,0.533332 -0.78674,1.146512 -1.08007,1.839844 -0.4,0.799997 -0.67985,1.625184 -0.83985,2.478515 -0.01,0.06036 -0.0143,0.119468 -0.0234,0.179688 -0.14727,0.217234 -0.29862,0.426131 -0.45703,0.621094 -0.29333,0.373331 -0.57317,0.760158 -0.83984,1.160156 -0.24,0.373332 -0.4931,0.745806 -0.75977,1.11914 -0.13333,0.186656 -0.27945,0.347128 -0.43945,0.480469 -0.13333,0.133324 -0.28141,0.267049 -0.44141,0.400391 -0.26665,0.15999 -0.42712,0.09411 -0.48046,-0.199219 -0.0534,-0.213324 -0.0781,-0.427283 -0.0781,-0.640625 0,-0.213324 -0.0144,-0.427283 -0.041,-0.640625 -0.0533,-0.613332 -0.10682,-1.238909 -0.16016,-1.878906 -0.0533,-0.639998 -0.10682,-1.267528 -0.16016,-1.880859 -0.0533,-0.373332 -0.0925,-0.745809 -0.11914,-1.119141 -0.0267,-0.4 -0.10689,-0.786825 -0.24023,-1.160156 -0.0533,-0.213342 -0.13358,-0.373811 -0.24024,-0.480469 -0.18666,-0.266658 -0.42737,-0.320156 -0.7207,-0.160156 -0.13334,0.05334 -0.25272,0.133576 -0.35937,0.240234 l -0.2793,0.279297 c -0.45333,0.559997 -0.8669,1.146434 -1.24024,1.759765 -0.34666,0.586666 -0.68,1.18745 -1,1.800782 -0.26666,0.479997 -0.51976,0.973803 -0.75976,1.480468 -0.21333,0.479998 -0.43969,0.9862 -0.67969,1.519532 -0.0533,-0.05334 -0.0801,-0.09248 -0.0801,-0.119141 v -0.160156 c 0,-0.613332 0.0124,-1.226512 0.0391,-1.839844 0.0267,-0.639997 0.0534,-1.267528 0.0801,-1.880859 v -1.560547 c 0.0267,-0.506663 0.0534,-1.025262 0.0801,-1.558594 v -0.560547 c 0,-0.186658 0.0124,-0.386267 0.0391,-0.599609 0.0534,-0.613332 0.0801,-1.226512 0.0801,-1.839844 0.0267,-0.613332 0.0677,-1.226514 0.1211,-1.839844 0.0533,-0.506665 0.0801,-1.014818 0.0801,-1.521484 0.0267,-0.506666 0.0658,-1.012868 0.11914,-1.519531 0.0533,-0.613332 0.0944,-1.238909 0.1211,-1.878906 0.0533,-0.640001 0.10681,-1.267531 0.16016,-1.88086 l 0.11914,-1.439453 c 0.0533,-0.48 0.10681,-0.961409 0.16015,-1.441406 0.0533,-0.479998 0.0533,-0.959453 0,-1.439453 -0.0533,-0.21334 -0.17271,-0.373811 -0.35937,-0.480469 -0.08,-0.06667 -0.16334,-0.09961 -0.25,-0.09961 z m 46.27929,0 c -0.0867,0 -0.1762,0.03294 -0.26953,0.09961 -0.34666,0.213332 -0.64086,0.480781 -0.88086,0.800781 -0.23999,0.293332 -0.38611,0.665809 -0.43945,1.119141 -0.13332,0.853331 -0.22791,1.707217 -0.28125,2.560547 -0.0533,0.826663 -0.10486,1.666199 -0.1582,2.519531 -0.0533,0.533332 -0.0944,1.080627 -0.1211,1.640625 -0.0267,0.56 -0.0534,1.107293 -0.0801,1.640625 -0.0533,0.613332 -0.10681,1.238909 -0.16015,1.878906 -0.0267,0.613332 -0.0534,1.226512 -0.0801,1.839844 -0.0267,0.853329 -0.0534,1.707215 -0.0801,2.560547 v 2.560547 c 0,0.586663 -0.0124,1.173099 -0.0391,1.759765 v 1.759766 c 0.0267,0.666666 0.0391,1.333337 0.0391,2 0,0.639997 0.0144,1.306668 0.041,2 0.0267,0.133342 0.0534,0.252717 0.0801,0.359375 0.0267,0.08 0.0658,0.186971 0.11914,0.320312 0.0533,0.133342 0.16031,0.252717 0.32031,0.359375 0.18666,0.106659 0.34713,0.147752 0.48047,0.121094 0.18666,-0.05334 0.35953,-0.133576 0.51953,-0.240234 0.18668,-0.07999 0.33279,-0.226112 0.43945,-0.439453 0.18668,-0.4 0.37389,-0.786825 0.56055,-1.160157 0.18667,-0.373331 0.37389,-0.760156 0.56055,-1.160156 0.29333,-0.613329 0.57317,-1.214115 0.83984,-1.800781 0.26667,-0.586666 0.57326,-1.173102 0.91992,-1.759766 0.0533,-0.133341 0.10682,-0.252716 0.16016,-0.359375 0.08,-0.106683 0.18697,-0.213654 0.32031,-0.320312 0.0267,0.239997 0.0391,0.480703 0.0391,0.720703 0.0267,0.213324 0.0534,0.42533 0.0801,0.638672 0.0267,0.533331 0.0534,1.068231 0.0801,1.601562 0.0533,0.533332 0.11922,1.066278 0.19922,1.59961 0.0533,0.373331 0.12117,0.745809 0.20117,1.11914 0.10667,0.373332 0.29388,0.706666 0.56055,1 0.32,0.400005 0.62659,0.613967 0.91992,0.640625 0.32,0.02666 0.62659,-0.05358 0.91992,-0.240234 0.24001,-0.160008 0.45201,-0.332873 0.63867,-0.519531 0.37333,-0.373332 0.66752,-0.733413 0.88086,-1.080079 0.53333,-0.773331 1.03954,-1.573727 1.51953,-2.40039 0.18397,-0.300153 0.34494,-0.611176 0.50782,-0.921875 0.18549,0.216867 0.41487,0.417208 0.6914,0.601562 0.24,0.159993 0.49505,0.306112 0.76172,0.439453 0.16,0.133325 0.23828,0.267049 0.23828,0.400391 0.0533,0.293332 0.12117,0.599922 0.20117,0.919922 0.08,0.293332 0.17264,0.587528 0.2793,0.880859 0.26667,0.746664 0.69458,1.267213 1.28125,1.560547 0.29333,0.16 0.61232,0.238281 0.95898,0.238281 0.34667,0.02667 0.69435,-0.105105 1.04102,-0.398437 l 0.2793,-0.28125 c 0.10666,-0.106683 0.19929,-0.213654 0.27929,-0.320313 0.42666,-0.639997 0.7476,-1.319065 0.96094,-2.039062 0.10667,-0.293342 0.29388,-0.412717 0.56055,-0.359375 0.18666,0.02666 0.39867,-7.8e-5 0.63867,-0.08008 0.4,-0.160008 0.80118,-0.334826 1.20117,-0.521485 0.4,-0.213324 0.78683,-0.42533 1.16016,-0.638671 0.21279,-0.100136 0.41032,-0.210364 0.59961,-0.328125 0.002,0.496123 -0.0106,0.992157 0,1.488281 0.0267,1.226661 0.0534,2.465421 0.0801,3.71875 0,1.013332 0.0124,2.013337 0.0391,3 0.0267,1.013329 0.0677,2.027684 0.12109,3.041015 0.0267,0.373332 0.0391,0.719066 0.0391,1.039063 0.0267,0.346666 0.0534,0.706744 0.0801,1.080078 0.0533,0.586663 0.0925,1.160706 0.11914,1.720703 0.0267,0.586666 0.0678,1.158753 0.1211,1.71875 0.0267,0.24 0.0391,0.480703 0.0391,0.720703 0,0.239998 0.0144,0.480703 0.041,0.720703 0.0266,0.266666 0.0802,0.519766 0.16015,0.759766 0.08,0.239998 0.22611,0.43961 0.43945,0.59961 0.37334,0.293341 0.70667,0.239843 1,-0.160157 0.0533,-0.106666 0.10682,-0.24039 0.16016,-0.40039 0.13334,-0.293332 0.19922,-0.585572 0.19922,-0.878907 0.0267,-0.293331 0.0143,-0.587527 -0.0391,-0.880859 -0.0533,-0.533332 -0.10682,-1.066278 -0.16016,-1.599609 -0.0267,-0.506666 -0.0534,-1.027216 -0.0801,-1.560547 -0.0267,-0.239998 -0.0534,-0.4931 -0.0801,-0.759766 -0.0267,-0.24 -0.0267,-0.4931 0,-0.759765 0.0267,-0.240001 0.041,-0.480704 0.041,-0.720704 0.0267,-0.239997 0.0658,-0.47875 0.11914,-0.71875 0.0267,-0.373331 0.0534,-0.760156 0.0801,-1.160156 0.0267,-0.399997 0.0658,-0.786824 0.11914,-1.160156 0.24,-1.519995 0.51985,-2.987062 0.83984,-4.400391 0.0533,-0.213331 0.10682,-0.439687 0.16016,-0.679687 0.0533,-0.24 0.12117,-0.480703 0.20117,-0.720703 l 0.59961,0.601562 c 0.18667,0.186674 0.35953,0.371936 0.51953,0.558594 0.21334,0.266666 0.49318,0.480625 0.83985,0.640625 0.55999,0.293316 1.04141,0.346814 1.4414,0.160156 0.42667,-0.186666 0.78675,-0.480859 1.08008,-0.880859 0.37332,-0.559998 0.62642,-1.212321 0.75977,-1.958985 0.0267,-0.346665 0.19953,-0.560625 0.51953,-0.640625 0.85333,-0.266665 1.63938,-0.612396 2.35937,-1.039062 0.72,-0.426666 1.42776,-0.908075 2.1211,-1.441406 0.23999,-0.186656 0.42525,-0.386268 0.55859,-0.59961 0.13334,-0.24 0.17444,-0.519843 0.12109,-0.839843 0,-0.266656 -0.0678,-0.427128 -0.20117,-0.480469 -0.13334,-0.05334 -0.23836,-0.03898 -0.31836,0.04102 l -0.16015,0.160157 c -0.13335,0.106683 -0.25467,0.213654 -0.36133,0.320312 l -0.35938,0.359375 c -0.37333,0.293332 -0.77255,0.560781 -1.19922,0.800781 -0.39999,0.239993 -0.82791,0.466346 -1.28125,0.679688 -0.45333,0.240005 -0.95953,0.412873 -1.51953,0.519531 0,-0.426663 -0.0124,-0.825884 -0.0391,-1.199219 0,-0.399997 -0.0267,-0.801172 -0.0801,-1.201171 -0.08,-0.61333 -0.18697,-1.199766 -0.32031,-1.759766 -0.10666,-0.586663 -0.26713,-1.160703 -0.48047,-1.720703 -0.0533,-0.133342 -0.11922,-0.252717 -0.19922,-0.359375 -0.0533,-0.133342 -0.13357,-0.252717 -0.24023,-0.359375 -0.37333,-0.373324 -0.80125,-0.426822 -1.28125,-0.160157 -0.10669,0.05334 -0.2117,0.133577 -0.31836,0.240235 l -0.24024,0.240234 c -0.26667,0.266666 -0.49302,0.54651 -0.67968,0.839844 -0.18667,0.293332 -0.36149,0.599922 -0.52149,0.919922 -0.55999,1.146661 -1.02706,2.33193 -1.40039,3.558594 -0.34666,1.199997 -0.66565,2.428311 -0.95898,3.68164 -0.0533,0.346666 -0.11922,0.680003 -0.19922,1 -0.08,0.32 -0.16024,0.653334 -0.24024,1 -0.0266,-0.05332 -0.041,-0.147908 -0.041,-0.28125 v -1.080078 c 0,-0.373334 0.0144,-0.745809 0.041,-1.119141 0,-0.666663 0.0124,-1.333334 0.0391,-2 0.0267,-0.666663 0.041,-1.333334 0.041,-2 0,-0.453331 0.0124,-0.893646 0.0391,-1.320312 0.0267,-0.426663 0.0678,-0.866978 0.1211,-1.320312 0.0533,-0.373332 0.0925,-0.760159 0.11914,-1.160157 0.0533,-0.4 0.0533,-0.786824 0,-1.160156 -0.0267,-0.159997 -0.0534,-0.318516 -0.0801,-0.478516 -0.0267,-0.186665 -0.0926,-0.361484 -0.19922,-0.521484 -0.18666,-0.266658 -0.40062,-0.346893 -0.64062,-0.240234 -0.08,0.05334 -0.16024,0.09444 -0.24024,0.121093 -0.0533,0.02666 -0.10681,0.08016 -0.16015,0.160157 -0.26668,0.32 -0.49303,0.653336 -0.67969,1 -0.18666,0.346665 -0.30603,0.745887 -0.35938,1.199218 -0.0533,0.533332 -0.0944,1.066278 -0.12109,1.59961 0,0.533331 -0.0124,1.068231 -0.0391,1.601562 -0.002,0.07683 0.001,0.153642 0,0.230469 -0.47323,0.251446 -0.95262,0.466818 -1.44141,0.609375 -0.64,0.186666 -1.30667,0.359531 -2,0.519531 -0.0533,-0.05334 -0.0781,-0.09444 -0.0781,-0.121094 0.0267,-0.05332 0.0391,-0.104861 0.0391,-0.158203 0,-0.346663 0.0124,-0.68 0.0391,-1 0.0267,-0.346665 0.0267,-0.694349 0,-1.041015 -0.0533,-0.453332 -0.11922,-0.893647 -0.19922,-1.320313 -0.08,-0.426666 -0.19937,-0.852633 -0.35937,-1.279297 -0.0533,-0.133324 -0.12117,-0.267049 -0.20117,-0.40039 -0.0533,-0.133324 -0.11922,-0.267049 -0.19922,-0.400391 -0.37333,-0.506673 -0.81365,-0.852404 -1.32032,-1.039062 -0.48,-0.213342 -1.02729,-0.293576 -1.64062,-0.240235 -0.53333,0.02667 -0.99844,0.172788 -1.39844,0.439453 -0.4,0.24 -0.76008,0.546591 -1.08008,0.919922 -0.50666,0.586666 -0.93458,1.214196 -1.28125,1.88086 -0.32,0.64 -0.53201,1.345811 -0.63867,2.11914 -0.0275,0.329684 -0.0206,0.643934 0.0156,0.945313 -0.0727,0.09756 -0.14161,0.202378 -0.2168,0.294922 -0.29333,0.373331 -0.57318,0.760158 -0.83984,1.160156 -0.24,0.373332 -0.4931,0.745806 -0.75977,1.11914 -0.13333,0.186656 -0.27945,0.347128 -0.43945,0.480469 -0.13333,0.133324 -0.28141,0.267049 -0.44141,0.400391 -0.26666,0.15999 -0.42517,0.09411 -0.47851,-0.199219 -0.0533,-0.213324 -0.0801,-0.427283 -0.0801,-0.640625 0,-0.213324 -0.0144,-0.427283 -0.041,-0.640625 -0.0533,-0.613332 -0.10681,-1.238909 -0.16015,-1.878906 -0.0533,-0.639998 -0.10682,-1.267528 -0.16016,-1.880859 -0.0533,-0.373332 -0.0925,-0.745809 -0.11914,-1.119141 -0.0267,-0.4 -0.10689,-0.786825 -0.24024,-1.160156 -0.0533,-0.213342 -0.13357,-0.373811 -0.24023,-0.480469 -0.18667,-0.266658 -0.42542,-0.320156 -0.71875,-0.160156 -0.13334,0.05334 -0.25467,0.133576 -0.36133,0.240234 l -0.27929,0.279297 c -0.45334,0.559997 -0.86691,1.146434 -1.24024,1.759765 -0.34666,0.586666 -0.68,1.18745 -1,1.800782 -0.26666,0.479997 -0.51976,0.973803 -0.75976,1.480468 -0.21334,0.479998 -0.43969,0.9862 -0.67969,1.519532 -0.0533,-0.05334 -0.0801,-0.09248 -0.0801,-0.119141 v -0.160156 c 0,-0.613332 0.0124,-1.226512 0.0391,-1.839844 0.0267,-0.639997 0.0534,-1.267528 0.0801,-1.880859 v -1.560547 c 0.0267,-0.506663 0.0534,-1.025262 0.0801,-1.558594 V 63.41016 c 0,-0.186658 0.0144,-0.386267 0.041,-0.599609 0.0533,-0.613332 0.0801,-1.226512 0.0801,-1.839844 0.0267,-0.613332 0.0658,-1.226514 0.11914,-1.839844 0.0533,-0.506665 0.0801,-1.014818 0.0801,-1.521484 0.0267,-0.506666 0.0658,-1.012868 0.11914,-1.519531 0.0533,-0.613332 0.0944,-1.238909 0.1211,-1.878906 0.0533,-0.640001 0.10681,-1.267531 0.16015,-1.88086 l 0.11914,-1.439453 c 0.0533,-0.48 0.10682,-0.961409 0.16016,-1.441406 0.0533,-0.479998 0.0533,-0.959453 0,-1.439453 -0.0533,-0.21334 -0.17272,-0.373811 -0.35938,-0.480469 -0.08,-0.06667 -0.16333,-0.09961 -0.25,-0.09961 z m -100.826168,1.15625 c -0.075,0.01667 -0.157474,0.05018 -0.244141,0.103515 -0.133341,0.05334 -0.238359,0.133576 -0.318359,0.240235 -0.05334,0.08 -0.121172,0.172638 -0.201172,0.279296 -0.533339,0.799998 -0.813185,1.668231 -0.839844,2.601563 0,0.319997 -0.0124,0.638984 -0.03906,0.958984 0,0.319998 -0.01436,0.640938 -0.04102,0.960938 0,0.213341 -0.08023,0.320312 -0.240234,0.320312 -0.106659,0 -0.186893,0.0124 -0.240235,0.03906 -0.453331,0.05334 -0.906043,0.133576 -1.359375,0.240234 -0.453331,0.08 -0.906043,0.186971 -1.359375,0.320313 -0.559997,0.16 -0.987918,0.52008 -1.28125,1.080078 -0.05334,0.106683 -0.09248,0.213654 -0.11914,0.320312 -0.05332,0.08 -0.106815,0.185018 -0.160157,0.31836 -0.08,0.160007 -0.11914,0.334826 -0.11914,0.521484 -0.02666,0.159997 -0.02666,0.318516 0,0.478516 0.05332,0.293331 0.185096,0.52164 0.398437,0.68164 0.186666,0.133342 0.427372,0.172483 0.720703,0.119141 0.106684,-0.02668 0.213655,-0.05342 0.320313,-0.08008 0.08,-0.02668 0.172639,-0.05342 0.279297,-0.08008 0.24,-0.106659 0.480703,-0.199297 0.720703,-0.279297 0.239997,-0.106659 0.4931,-0.20125 0.759766,-0.28125 0.266665,-0.08 0.519765,-0.158282 0.759765,-0.238281 0.24,-0.08 0.50745,-0.147831 0.800782,-0.201172 0.05332,0.08 0.06572,0.160234 0.03906,0.240234 v 0.199219 c -0.02666,0.426666 -0.03906,0.854584 -0.03906,1.28125 0,0.399997 -0.01436,0.813568 -0.04102,1.240234 -0.02668,1.066663 -0.05342,2.132556 -0.08008,3.199219 0,1.039995 0.01436,2.093493 0.04102,3.160156 0.01714,0.685713 0.01927,1.370927 0.02539,2.056641 -0.129973,0.205046 -0.270784,0.387971 -0.425781,0.542969 l -0.720703,0.880859 c -0.24,0.266666 -0.47875,0.546512 -0.71875,0.839844 -0.239998,0.293331 -0.4931,0.573178 -0.759766,0.839843 -0.24,0.24 -0.50745,0.47875 -0.800781,0.71875 -0.213334,0.186666 -0.480784,0.320391 -0.800781,0.400391 -0.426666,0.08 -0.679766,-0.07852 -0.759766,-0.478516 -0.08,-0.346665 -0.119141,-0.694349 -0.119141,-1.041015 0.02666,-0.719998 0.02666,-1.440159 0,-2.160156 -0.02666,-0.719998 -0.08016,-1.440159 -0.160156,-2.160157 -0.08001,-0.693331 -0.213732,-1.306512 -0.400391,-1.839843 -0.133331,-0.266666 -0.279453,-0.480626 -0.439453,-0.640626 -0.293334,-0.293341 -0.599924,-0.332482 -0.919922,-0.11914 -0.186665,0.106658 -0.359531,0.267127 -0.519531,0.480469 l -0.601562,0.958984 c -0.533332,0.773332 -1.051931,1.573727 -1.558594,2.400391 -0.48,0.799997 -0.947059,1.627137 -1.400391,2.480468 -0.05334,0.08 -0.09443,0.160235 -0.121093,0.240235 0,0.05332 -0.03914,0.106814 -0.119141,0.160156 -0.05334,-0.05332 -0.08008,-0.106815 -0.08008,-0.160156 0.02666,-0.05332 0.04102,-0.106815 0.04102,-0.160157 0,-1.199994 0.03914,-2.426358 0.119141,-3.679687 v -0.441406 c 0,-0.15999 0.0124,-0.306112 0.03906,-0.439453 0.05332,-0.293332 0.06767,-0.573178 0.04102,-0.839844 0,-0.293334 -0.01436,-0.587528 -0.04102,-0.88086 0,-0.24 -0.06588,-0.532242 -0.199219,-0.878906 -0.213334,-0.4 -0.507528,-0.480234 -0.88086,-0.240234 -0.160007,0.106666 -0.291779,0.240391 -0.398437,0.40039 -0.640005,0.826664 -0.973342,1.719691 -1,2.679688 -0.04002,0.680165 -0.05055,1.360851 -0.06055,2.041016 -0.466999,0.246561 -0.93779,0.458993 -1.419922,0.599609 -0.64,0.186666 -1.306671,0.359531 -2,0.519531 -0.05334,-0.05334 -0.08008,-0.09444 -0.08008,-0.121094 0.02666,-0.05332 0.03906,-0.104861 0.03906,-0.158203 0,-0.346663 0.01436,-0.68 0.04102,-1 0.02666,-0.346665 0.02666,-0.694349 0,-1.041015 -0.05334,-0.453332 -0.119219,-0.893647 -0.199219,-1.320313 -0.08,-0.426666 -0.201328,-0.852633 -0.361328,-1.279297 -0.05334,-0.133324 -0.119219,-0.267049 -0.199218,-0.40039 -0.05334,-0.133324 -0.121172,-0.267049 -0.201172,-0.400391 -0.373332,-0.506673 -0.811696,-0.852404 -1.31836,-1.039062 -0.48,-0.213342 -1.027293,-0.293576 -1.640625,-0.240235 -0.533331,0.02667 -1.000393,0.172788 -1.40039,0.439453 -0.4,0.24 -0.760081,0.546591 -1.080079,0.919922 -0.506665,0.586666 -0.932631,1.214196 -1.279296,1.88086 -0.320008,0.64 -0.533967,1.345811 -0.640625,2.11914 -0.05332,0.639998 0.01256,1.226434 0.199218,1.759766 0.186666,0.506666 0.561097,0.946981 1.121094,1.320312 0.24,0.159993 0.4931,0.306112 0.759766,0.439453 0.16,0.133325 0.240234,0.267049 0.240234,0.400391 0.05334,0.293332 0.119219,0.599922 0.199219,0.919922 0.08,0.293332 0.174592,0.587528 0.28125,0.880859 0.266666,0.746664 0.692631,1.267213 1.279297,1.560547 0.293331,0.16 0.614271,0.238281 0.960937,0.238281 0.346666,0.02667 0.692397,-0.105105 1.039063,-0.398437 l 0.279297,-0.28125 c 0.106658,-0.106683 0.20125,-0.213654 0.28125,-0.320313 0.426655,-0.639997 0.745642,-1.319065 0.958984,-2.039062 0.106666,-0.293342 0.293881,-0.412717 0.560547,-0.359375 0.186666,0.02666 0.400625,-7.8e-5 0.640625,-0.08008 0.4,-0.160008 0.799221,-0.334826 1.199219,-0.521485 0.4,-0.213324 0.786824,-0.42533 1.160156,-0.638671 0.205219,-0.09658 0.396718,-0.203438 0.580078,-0.316407 0.0067,0.438968 0.0064,0.871003 0.01953,1.316407 0.02668,0.346665 0.05342,0.692396 0.08008,1.039062 0.02666,0.32 0.06775,0.653334 0.121094,1 0.05332,0.213339 0.104862,0.412951 0.158203,0.599609 0.08,0.186666 0.201328,0.361485 0.361328,0.521485 0.05334,0.05332 0.09248,0.106814 0.119141,0.160156 0.02666,0.05334 0.06775,0.119219 0.121094,0.199219 0.106666,0.213342 0.238437,0.320312 0.398437,0.320312 0.186666,0.02666 0.361485,-0.04117 0.521485,-0.201172 0.106683,-0.08 0.17256,-0.172638 0.199218,-0.279296 0.05332,-0.106659 0.106815,-0.226034 0.160157,-0.359375 0.453331,-1.013332 0.932787,-1.986593 1.439453,-2.919922 0.506666,-0.959998 1.027215,-1.920862 1.560547,-2.88086 0.133324,-0.213321 0.267049,-0.427283 0.40039,-0.640625 0.160008,-0.213324 0.332873,-0.42533 0.519531,-0.638672 0.05334,0.05332 0.08008,0.106815 0.08008,0.160157 0.05334,0.613331 0.09248,1.212165 0.11914,1.798828 0.02666,0.56 0.06775,1.13404 0.121094,1.720703 0.02668,0.32 0.05342,0.638984 0.08008,0.958984 0.02666,0.319998 0.0658,0.640938 0.119141,0.960938 0.05334,0.266666 0.121172,0.534115 0.201172,0.800781 0.08001,0.23999 0.213732,0.466346 0.40039,0.679688 0.293332,0.373339 0.626669,0.612091 1,0.71875 0.4,0.106665 0.811616,0.02643 1.238282,-0.240235 0.293321,-0.159997 0.548377,-0.318515 0.761718,-0.478515 0.373334,-0.346666 0.719065,-0.706747 1.039063,-1.080079 0.32,-0.373331 0.62659,-0.760156 0.919922,-1.160156 0.346665,-0.453331 0.68,-0.893646 1,-1.320312 0.177884,-0.218935 0.367458,-0.429874 0.566406,-0.634766 0.04101,0.731524 0.09957,1.463789 0.193359,2.195313 0.05334,0.373331 0.119219,0.733412 0.199219,1.080078 0.08001,0.32 0.213732,0.62659 0.400391,0.919922 0.213334,0.373321 0.546668,0.665564 1,0.878906 0.479997,0.240007 0.988152,0.186509 1.521484,-0.160156 0.213342,-0.133324 0.412951,-0.265096 0.599609,-0.398438 0.186664,-0.160007 0.359532,-0.334826 0.519532,-0.521484 L 52.625,73.330078 c 0.237967,-0.324503 0.461223,-0.648155 0.681641,-0.972656 -9.98e-4,0.227689 0.0095,0.458514 0.03711,0.693359 0.05332,0.319998 0.106815,0.638985 0.160156,0.958985 0.07999,0.32 0.226112,0.614193 0.439453,0.880859 0.746664,0.906656 1.520315,0.999294 2.320313,0.279297 l 0.160156,-0.160156 c 0.133342,-0.133324 0.252717,-0.267049 0.359375,-0.400391 0.133324,-0.159997 0.267049,-0.318516 0.400391,-0.478516 0.453331,-0.533331 0.893646,-1.080627 1.320312,-1.640625 0.426666,-0.56 0.786747,-1.17318 1.080078,-1.839843 0.106659,-0.213342 0.226034,-0.412951 0.359375,-0.59961 0.133324,-0.186655 0.267049,-0.388221 0.400391,-0.601562 l 0.08008,-0.08008 c 0.02666,-0.05334 0.08016,-0.08008 0.160156,-0.08008 v 0.201172 c -0.05334,0.613332 -0.05334,1.212163 0,1.798828 0.05332,0.426664 0.106815,0.854585 0.160157,1.28125 0.05332,0.4 0.145955,0.799222 0.279297,1.199219 0.05332,0.16 0.106814,0.320469 0.160156,0.480469 0.08,0.15999 0.174591,0.306111 0.28125,0.439453 0.213334,0.293332 0.519924,0.519688 0.919922,0.679688 0.426665,0.15999 0.865027,0.09411 1.318359,-0.199219 0.186658,-0.133324 0.347127,-0.267049 0.480469,-0.400391 0.15999,-0.133334 0.306111,-0.279453 0.439453,-0.439453 0.773332,-0.853329 1.481096,-1.760706 2.121094,-2.720703 0.203378,-0.292865 0.387523,-0.595278 0.585937,-0.890625 -0.0066,0.123424 -0.0213,0.248298 -0.02539,0.371094 -1e-6,1.146663 0.172865,2.146668 0.519531,3 0.213331,0.559997 0.600159,0.973568 1.160156,1.240234 0.56,0.293332 1.158831,0.252238 1.798828,-0.121094 l 1.839844,-1.039062 c 0.613332,-0.346666 1.228465,-0.706747 1.841797,-1.080078 0.853329,-0.559998 1.692868,-1.146434 2.519531,-1.759766 0.687024,-0.509726 1.38831,-1.01957 2.09375,-1.529297 0.03281,0.949539 0.104819,1.900071 0.226563,2.84961 0.05334,0.373331 0.119218,0.733412 0.199218,1.080078 0.08001,0.32 0.213733,0.62659 0.400391,0.919922 0.213334,0.373321 0.546668,0.665564 1,0.878906 0.479997,0.240007 0.986199,0.186509 1.519531,-0.160156 0.213339,-0.133324 0.412951,-0.265096 0.59961,-0.398438 0.186665,-0.160007 0.359531,-0.334826 0.519531,-0.521484 l 0.880859,-1.119141 c 0.293332,-0.4 0.573178,-0.799221 0.839844,-1.199219 0.293324,-0.426665 0.546424,-0.854584 0.759766,-1.28125 0.239997,-0.426663 0.480703,-0.866978 0.720703,-1.320312 0.293341,-0.453332 0.400312,-0.945184 0.320312,-1.478516 -0.02668,-0.08 -0.05342,-0.174591 -0.08008,-0.28125 0,-0.106658 -0.0535,-0.186892 -0.160156,-0.240234 -0.133342,-0.02666 -0.240313,7.8e-5 -0.320313,0.08008 -0.08,0.08 -0.145877,0.174592 -0.199218,0.28125 -0.186659,0.24 -0.347128,0.4931 -0.480469,0.759766 -0.133324,0.266665 -0.267049,0.532162 -0.400391,0.798828 -0.319997,0.559997 -0.680078,1.094896 -1.080078,1.601562 -0.373332,0.479998 -0.799299,0.945106 -1.279297,1.398438 -0.160007,0.16 -0.334826,0.281328 -0.521484,0.361328 -0.666666,0.266666 -1.039141,0.05271 -1.119141,-0.640625 -0.05332,-0.373332 -0.106814,-0.719063 -0.160156,-1.039063 -0.02666,-0.346663 -0.03906,-0.706744 -0.03906,-1.080078 V 68.25 66.689453 c 0,-0.506666 0.01241,-1.025262 0.03906,-1.558594 0,-0.666663 0.01436,-1.32094 0.04102,-1.960937 0.02668,-0.639998 0.05342,-1.279922 0.08008,-1.919922 0.02666,-0.559997 0.03906,-1.11969 0.03906,-1.679688 0,-0.559997 0.02674,-1.107293 0.08008,-1.640624 0.02666,-0.213325 0.03906,-0.427284 0.03906,-0.640626 v -0.638671 c 0,-0.133342 0.06783,-0.213576 0.201172,-0.240235 0.133341,0 0.240312,-0.01436 0.320312,-0.04102 0.666666,-0.05332 1.333337,-0.104862 2,-0.158203 0.666666,-0.05332 1.345731,-0.06767 2.039063,-0.04102 0.266673,0 0.453888,-0.133725 0.560546,-0.400391 0.05334,-0.05334 0.08008,-0.119219 0.08008,-0.199219 0,-0.08 0.0124,-0.160234 0.03906,-0.240234 0.05334,-0.453332 -1.56e-4,-0.759922 -0.160156,-0.919922 -0.133332,-0.16 -0.425575,-0.266971 -0.878906,-0.320312 -0.613332,-0.05334 -1.214116,-0.08008 -1.800782,-0.08008 -0.586663,-0.02668 -1.185496,-0.05342 -1.798828,-0.08008 -0.320007,0 -0.494826,-0.01241 -0.521484,-0.03906 -0.02666,-0.02667 -0.03906,-0.201484 -0.03906,-0.521484 0.02666,-0.479998 0.03906,-0.959456 0.03906,-1.439453 0.02666,-0.480001 0.04102,-0.959456 0.04102,-1.439454 1e-6,-0.266665 -0.01436,-0.534115 -0.04102,-0.800781 0,-0.266666 -0.06588,-0.519766 -0.199219,-0.759765 -0.159997,-0.373342 -0.4131,-0.453577 -0.759766,-0.240235 -0.133341,0.05334 -0.240312,0.133576 -0.320312,0.240235 -0.05334,0.08 -0.119219,0.172638 -0.199219,0.279296 -0.533339,0.799998 -0.813185,1.668231 -0.839843,2.601563 -1e-6,0.319997 -0.01436,0.638984 -0.04102,0.958984 0,0.319998 -0.0124,0.640938 -0.03906,0.960938 0,0.213341 -0.08023,0.320312 -0.240234,0.320312 -0.106658,0 -0.186893,0.0124 -0.240234,0.03906 -0.453332,0.05334 -0.906044,0.133576 -1.359375,0.240234 -0.453332,0.08 -0.907997,0.186971 -1.361328,0.320313 -0.559998,0.16 -0.985963,0.52008 -1.279297,1.080078 -0.05334,0.106683 -0.09444,0.213654 -0.121094,0.320312 -0.05332,0.08 -0.104862,0.185018 -0.158203,0.31836 -0.08,0.160007 -0.121094,0.334826 -0.121094,0.521484 -0.02666,0.159997 -0.02666,0.318516 0,0.478516 0.05332,0.293331 0.187049,0.52164 0.400391,0.68164 0.186668,0.133342 0.427371,0.172483 0.720703,0.119141 0.106683,-0.02668 0.211701,-0.05342 0.318359,-0.08008 0.08,-0.02668 0.174592,-0.05342 0.28125,-0.08008 0.24,-0.106659 0.47875,-0.199297 0.71875,-0.279297 0.239998,-0.106659 0.4931,-0.20125 0.759766,-0.28125 0.266666,-0.08 0.521718,-0.158282 0.761719,-0.238281 0.24,-0.08 0.505496,-0.147831 0.798828,-0.201172 0.05332,0.08 0.06767,0.160234 0.04102,0.240234 v 0.199219 c -0.02666,0.426666 -0.04102,0.854584 -0.04102,1.28125 0,0.399997 -0.01241,0.813568 -0.03906,1.240234 -0.02668,1.066663 -0.05342,2.132556 -0.08008,3.199219 0,1.039995 0.0124,2.093493 0.03906,3.160156 0.01206,0.482542 0.01293,0.964723 0.01953,1.447266 -0.08638,0.07519 -0.173378,0.146034 -0.259766,0.232422 -0.719997,0.533331 -1.452553,1.039533 -2.199219,1.519531 -0.719997,0.48 -1.466905,0.947059 -2.240234,1.400391 -0.48,0.266665 -0.959456,0.519765 -1.439453,0.759765 -0.453332,0.239998 -0.932787,0.480703 -1.439453,0.720703 -0.133324,0.05334 -0.267049,0.09248 -0.400391,0.119141 -0.106658,0.02668 -0.227986,0.05342 -0.361328,0.08008 -0.453329,0.08 -0.799062,-0.105262 -1.039063,-0.558594 -0.05334,-0.106658 -0.09444,-0.20125 -0.121093,-0.28125 -0.02668,-0.08 -0.05147,-0.172638 -0.07813,-0.279297 -0.106684,-0.533331 -0.13342,-1.066277 -0.08008,-1.599609 0.05334,-0.559997 0.158359,-1.107293 0.318359,-1.640625 l 0.240234,-0.720703 c 0.106659,-0.23999 0.227987,-0.466346 0.361329,-0.679688 0.08,-0.106683 0.185017,-0.133419 0.318359,-0.08008 0.05334,0.02668 0.09444,0.05342 0.121094,0.08008 0.05332,0 0.106814,0.02674 0.160156,0.08008 0.400005,0.373331 0.692248,0.733412 0.878906,1.080078 0.106658,0.160007 0.186893,0.332873 0.240235,0.519531 0.08,0.16 0.14783,0.320469 0.201171,0.480469 0.08,0.266665 0.252866,0.40039 0.519532,0.40039 0.239997,0.05333 0.400468,-0.08039 0.480468,-0.40039 0.02666,-0.05334 0.03906,-0.133576 0.03906,-0.240235 0.05332,-0.213331 0.06767,-0.400547 0.04102,-0.560547 0,-0.186658 -0.01436,-0.386267 -0.04102,-0.599609 -0.133334,-1.466661 -0.719768,-2.666278 -1.759766,-3.599609 -0.479997,-0.426666 -0.986199,-0.465807 -1.519531,-0.119141 -0.186666,0.106658 -0.359531,0.265174 -0.519531,0.478516 -0.213339,0.266665 -0.414904,0.560862 -0.601563,0.880859 -0.186658,0.293334 -0.345174,0.599924 -0.478515,0.919922 -0.399998,0.799997 -0.681797,1.627137 -0.841797,2.480469 -7.42e-4,0.0046 -0.0012,0.0091 -0.002,0.01367 -0.08993,0.116546 -0.169677,0.238036 -0.277344,0.345704 -0.373334,0.346663 -0.706668,0.706744 -1,1.080078 -0.293332,0.373331 -0.599922,0.745809 -0.919922,1.11914 -0.213322,0.266666 -0.427283,0.521719 -0.640625,0.761719 -0.213334,0.23999 -0.466434,0.466346 -0.759766,0.679688 -0.213331,0.16 -0.398593,0.213498 -0.558593,0.160156 -0.16,-0.05333 -0.266971,-0.201406 -0.320313,-0.441406 -0.02668,-0.106684 -0.05342,-0.211701 -0.08008,-0.31836 0,-0.106683 -0.01436,-0.213654 -0.04102,-0.320312 -0.05334,-0.506666 -0.09248,-1.000472 -0.11914,-1.480469 -0.02668,-0.506666 -0.01428,-1.027215 0.03906,-1.560547 0.05334,-0.319997 0.08008,-0.638984 0.08008,-0.958984 0,-0.32 0.02674,-0.64094 0.08008,-0.960938 0.05332,-0.373331 0.106814,-0.745806 0.160156,-1.11914 0.05334,-0.399998 0.04094,-0.801172 -0.03906,-1.201172 -0.02668,-0.15999 -0.05342,-0.306112 -0.08008,-0.439453 -0.02666,-0.15999 -0.08016,-0.306112 -0.160156,-0.439454 -0.186666,-0.24 -0.400625,-0.293497 -0.640625,-0.160156 -0.08,0.05334 -0.199375,0.160313 -0.359375,0.320313 -0.133342,0.160007 -0.252717,0.332873 -0.359375,0.519531 -0.106684,0.186656 -0.213654,0.386268 -0.320313,0.599609 -0.08,0.160008 -0.14783,0.332873 -0.201171,0.519532 -0.02666,0.186658 -0.0658,0.38822 -0.119141,0.601562 -0.133324,-0.213342 -0.267049,-0.414904 -0.400391,-0.601562 -0.106658,-0.21334 -0.226033,-0.412951 -0.359375,-0.59961 -0.213331,-0.293331 -0.454037,-0.558828 -0.720703,-0.798828 -0.24,-0.266666 -0.53224,-0.480625 -0.878906,-0.640625 -0.399998,-0.213332 -0.786825,-0.174191 -1.160156,0.119141 -0.293332,0.186666 -0.560782,0.414975 -0.800782,0.68164 -0.213341,0.266666 -0.412951,0.546512 -0.599609,0.839844 -0.533332,0.853332 -1.012787,1.732009 -1.439453,2.638672 -0.09734,0.200759 -0.169626,0.414784 -0.25586,0.621094 -0.08999,0.13925 -0.191921,0.272524 -0.265624,0.419922 -0.133325,0.266665 -0.265096,0.532162 -0.398438,0.798828 -0.32,0.559997 -0.680078,1.094896 -1.080078,1.601562 -0.373332,0.479998 -0.801253,0.945106 -1.28125,1.398438 -0.160008,0.16 -0.332873,0.281328 -0.519531,0.361328 -0.666664,0.266666 -1.039141,0.05271 -1.119141,-0.640625 -0.05332,-0.373332 -0.106815,-0.719063 -0.160156,-1.039063 -0.02666,-0.346663 -0.04102,-0.706744 -0.04102,-1.080078 V 68.25 66.689453 c 0,-0.506666 0.01436,-1.025262 0.04102,-1.558594 0,-0.666663 0.0124,-1.32094 0.03906,-1.960937 0.02668,-0.639998 0.05342,-1.279922 0.08008,-1.919922 0.02666,-0.559997 0.04102,-1.11969 0.04102,-1.679688 0,-0.559997 0.02478,-1.107293 0.07813,-1.640624 0.02666,-0.213325 0.04102,-0.427284 0.04102,-0.640626 v -0.638671 c 0,-0.133342 0.06588,-0.213576 0.199218,-0.240235 0.133342,0 0.240313,-0.01436 0.320313,-0.04102 0.666666,-0.05332 1.333337,-0.104862 2,-0.158203 0.666666,-0.05332 1.347684,-0.06767 2.041016,-0.04102 0.266673,0 0.451935,-0.133725 0.558593,-0.400391 0.05334,-0.05334 0.08008,-0.119219 0.08008,-0.199219 0,-0.08 0.01436,-0.160234 0.04102,-0.240234 0.05334,-0.453332 -1.56e-4,-0.759922 -0.160156,-0.919922 -0.133334,-0.16 -0.427528,-0.266971 -0.88086,-0.320312 -0.613331,-0.05334 -1.212162,-0.08008 -1.798828,-0.08008 -0.586663,-0.02668 -1.187449,-0.05342 -1.800781,-0.08008 -0.320008,0 -0.492873,-0.01241 -0.519531,-0.03906 -0.02666,-0.02667 -0.04102,-0.201484 -0.04102,-0.521484 0.02666,-0.479998 0.04102,-0.959456 0.04102,-1.439453 0.02666,-0.480001 0.03906,-0.959456 0.03906,-1.439454 0,-0.266665 -0.0124,-0.534115 -0.03906,-0.800781 0,-0.266666 -0.06588,-0.519766 -0.199219,-0.759765 -0.12,-0.280007 -0.292579,-0.393754 -0.517578,-0.34375 z m 51.525388,7.574218 c 0.2872,-0.0056 0.57914,-8.23e-4 0.8711,0.0078 0,0 0,0.002 0,0.002 -0.0267,0.56 -0.0534,1.107293 -0.0801,1.640625 -0.0533,0.613332 -0.10682,1.238909 -0.16016,1.878906 -0.0267,0.613332 -0.0534,1.226512 -0.0801,1.839844 -0.0267,0.853329 -0.0534,1.707215 -0.0801,2.560547 v 2.560547 c 0,0.586663 -0.0124,1.173099 -0.0391,1.759765 v 0.878906 c -0.0267,0.05349 -0.0533,0.106667 -0.0801,0.160157 -0.32001,0.559997 -0.68009,1.094896 -1.080083,1.601562 -0.373334,0.479998 -0.801253,0.945106 -1.28125,1.398438 -0.160008,0.16 -0.332873,0.281328 -0.519531,0.361328 -0.666664,0.266666 -1.039141,0.05271 -1.119141,-0.640625 -0.05332,-0.373332 -0.106815,-0.719063 -0.160156,-1.039063 -0.02666,-0.346663 -0.04102,-0.706744 -0.04102,-1.080078 V 68.25 66.689453 c 0,-0.506666 0.01436,-1.025262 0.04102,-1.558594 0,-0.666663 0.0124,-1.32094 0.03906,-1.960937 0.02668,-0.639998 0.05342,-1.279922 0.08008,-1.919922 0.02666,-0.559997 0.04102,-1.11969 0.04102,-1.679688 0,-0.559997 0.02674,-1.107293 0.08008,-1.640624 0.02666,-0.213325 0.03906,-0.427284 0.03906,-0.640626 v -0.638671 c 0,-0.133342 0.06783,-0.213576 0.201172,-0.240235 0.133341,0 0.238359,-0.01436 0.318359,-0.04102 0.666663,-0.05332 1.333334,-0.104862 2,-0.158203 0.333332,-0.02666 0.66976,-0.04412 1.00976,-0.05078 z m -74.968748,8.890625 c 0.453332,0.02666 0.854507,0.119297 1.201172,0.279297 0.373332,0.133332 0.679922,0.413178 0.919922,0.839844 0.293332,0.506666 0.478594,1.039612 0.558594,1.599609 0.106683,0.533332 0.13342,1.080625 0.08008,1.640625 0,0.16 -0.02674,0.266971 -0.08008,0.320313 -0.02668,0.02666 -0.133654,0.02666 -0.320312,0 -0.373332,-0.05332 -0.733413,-0.106815 -1.080079,-0.160157 -0.346665,-0.08 -0.692396,-0.14783 -1.039062,-0.201171 -0.186684,-0.02666 -0.252561,-0.146034 -0.199219,-0.359375 0.05332,-0.186676 0.06572,-0.373889 0.03906,-0.560547 v -0.558594 c 0,-0.133332 -0.0535,-0.334897 -0.160157,-0.601563 -0.133331,-0.266658 -0.332943,-0.305798 -0.599609,-0.11914 -0.240008,0.239997 -0.412873,0.4931 -0.519531,0.759766 -0.05332,0.133341 -0.106815,0.252716 -0.160156,0.359374 -0.02666,0.106659 -0.06775,0.227987 -0.121094,0.361329 -0.213324,-0.08 -0.38619,-0.186971 -0.519532,-0.320313 -0.106683,-0.160005 -0.213654,-0.332873 -0.320312,-0.519531 -0.02666,-0.05334 -0.03906,-0.160313 -0.03906,-0.320313 0.186665,-0.533331 0.439765,-1.012787 0.759765,-1.439453 0.319998,-0.426655 0.772709,-0.747596 1.359375,-0.960937 0.05334,-0.02666 0.133576,-0.03906 0.240234,-0.03906 z m 136.919918,0 c 0.45334,0.02666 0.85256,0.119297 1.19922,0.279297 0.37333,0.133332 0.67993,0.413178 0.91992,0.839844 0.29334,0.506666 0.48055,1.039612 0.56055,1.599609 0.10669,0.533332 0.13342,1.080625 0.0801,1.640625 0,0.16 -0.0267,0.266971 -0.0801,0.320313 -0.0267,0.02666 -0.13365,0.02666 -0.32031,0 -0.37333,-0.05332 -0.73341,-0.106815 -1.08008,-0.160157 -0.34666,-0.08 -0.6924,-0.14783 -1.03906,-0.201171 -0.18668,-0.02666 -0.25451,-0.146034 -0.20117,-0.359375 0.0533,-0.186676 0.0677,-0.373889 0.041,-0.560547 v -0.558594 c 0,-0.133332 -0.0535,-0.334897 -0.16015,-0.601563 -0.13334,-0.266658 -0.33295,-0.305798 -0.59961,-0.11914 -0.24001,0.239997 -0.41483,0.4931 -0.52149,0.759766 -0.0533,0.133341 -0.10681,0.252716 -0.16015,0.359374 -0.0267,0.106659 -0.0658,0.227987 -0.11914,0.361329 -0.21333,-0.08 -0.38619,-0.186971 -0.51954,-0.320313 -0.10668,-0.160005 -0.21365,-0.332873 -0.32031,-0.519531 -0.0267,-0.05334 -0.041,-0.160313 -0.041,-0.320313 0.18666,-0.533331 0.43976,-1.012787 0.75976,-1.439453 0.32,-0.426655 0.77466,-0.747596 1.36133,-0.960937 0.0533,-0.02666 0.13358,-0.03906 0.24023,-0.03906 z m -46.64062,1.039063 c 0.16,0 0.32047,0.119375 0.48047,0.359375 0.18666,0.24 0.26689,0.560937 0.24023,0.960937 -0.0267,0.373332 -0.19953,0.7993 -0.51953,1.279297 -0.32,0.48 -0.86729,0.961409 -1.64062,1.441406 -0.0267,-0.746663 0.0803,-1.520315 0.32031,-2.320312 l 0.24023,-0.720703 c 0.10666,-0.23999 0.22604,-0.466346 0.35938,-0.679688 l 0.19922,-0.201172 c 0.08,-0.08 0.18697,-0.11914 0.32031,-0.11914 z m 61.08008,0.439453 c 0.16,0.293332 0.27937,0.587525 0.35937,0.880859 0.10666,0.479998 0.20125,0.973803 0.28125,1.480469 0.08,0.479997 0.11914,0.97185 0.11914,1.478516 0,0.186683 -0.0124,0.293654 -0.0391,0.320312 -0.0267,0.02668 -0.13365,0.05342 -0.32031,0.08008 -0.37334,0.05334 -0.74776,0.05334 -1.1211,0 l -1.11914,-0.240234 c -0.13334,-0.02666 -0.17443,-0.106893 -0.12109,-0.240235 0.0533,-0.159997 0.10681,-0.318515 0.16016,-0.478515 0.0533,-0.16 0.10681,-0.320469 0.16015,-0.480469 0.13333,-0.32 0.26705,-0.64094 0.40039,-0.960937 0.16,-0.32 0.32047,-0.626591 0.48047,-0.919922 0.08,-0.186659 0.17264,-0.345174 0.2793,-0.478516 0.10666,-0.15999 0.26713,-0.308064 0.48047,-0.441406 z m -119.320315,0.08008 c 0.106666,-0.02666 0.388465,0.04117 0.841797,0.201172 0.293324,0.106658 0.546424,0.265174 0.759766,0.478515 0.239989,0.186666 0.466345,0.414975 0.679687,0.681641 l -0.880859,1.119141 c -0.293335,0.346666 -0.585575,0.706746 -0.878907,1.080078 -0.239997,0.293334 -0.480703,0.599924 -0.720703,0.919922 -0.213334,0.32 -0.454037,0.62659 -0.720703,0.919922 -0.266666,0.293324 -0.532162,0.546424 -0.798828,0.759765 -0.266666,0.186674 -0.439531,0.133176 -0.519531,-0.160156 -0.05332,-0.213334 -0.06767,-0.398594 -0.04102,-0.558594 0.07999,-0.586663 0.226112,-1.201799 0.439453,-1.841797 0.213342,-0.506665 0.414904,-1.012865 0.601563,-1.519531 0.213331,-0.506666 0.466434,-0.986121 0.759765,-1.439453 0.24,-0.400005 0.398516,-0.613967 0.478516,-0.640625 z M 26.494141,71.92969 c 0.06,0 0.116592,0.01434 0.169921,0.04102 0.106659,0.02666 0.226034,0.03906 0.359376,0.03906 h 0.361328 c 0.133331,0 0.279453,0.01436 0.439453,0.04102 -0.133332,0.373334 -0.320547,0.558594 -0.560547,0.558594 -0.239993,0.02668 -0.425252,-0.02681 -0.558594,-0.160156 -0.133324,-0.133339 -0.267049,-0.291858 -0.40039,-0.478516 0.06667,-0.02667 0.129453,-0.04102 0.189453,-0.04102 z m 136.919919,0 c 0.06,0 0.1166,0.01434 0.16992,0.04102 0.10666,0.02666 0.22604,0.03906 0.35938,0.03906 h 0.35937 c 0.13334,0 0.28141,0.01436 0.44141,0.04102 -0.13333,0.373334 -0.32055,0.558594 -0.56055,0.558594 -0.23999,0.02668 -0.4272,-0.02681 -0.56054,-0.160156 -0.13333,-0.133339 -0.26705,-0.291858 -0.40039,-0.478516 0.0667,-0.02667 0.1314,-0.04102 0.1914,-0.04102 z m 13.66992,0.529296 c 0.12,-0.0067 0.24558,0.0046 0.37891,0.03125 -0.29334,0.16 -0.53209,0.172405 -0.71875,0.03906 0.10667,-0.04 0.21985,-0.06365 0.33984,-0.07031 z"
             transform="matrix(0.26458333,0,0,0.26458333,19.645959,15.150936)" />
        </g>
      </g>
    </g>
  </g>
</svg>
