<svg width="12.795in" height="12.795in" version="1.1" viewBox="0 0 325 325" xmlns="http://www.w3.org/2000/svg">
  <defs>
    <filter id="a" x="-2.2035e-5" y="-1.7011e-5" width="1" height="1" color-interpolation-filters="sRGB">
      <feGaussianBlur stdDeviation="0.0042442765"/>
    </filter>
    <filter id="c" x="-5.0648e-5" y="-.00025125" width="1.0001" height="1.0005" color-interpolation-filters="sRGB">
      <feGaussianBlur stdDeviation="0.0033876956"/>
    </filter>
    <filter id="b" x="-2.2035e-5" y="-1.7011e-5" width="1" height="1" color-interpolation-filters="sRGB">
      <feGaussianBlur stdDeviation="0.0042442765"/>
    </filter>
  </defs>
  <g transform="translate(-476.86 103.79)">
    <g>
      <rect x="476.86" y="-103.79" width="325" height="325" fill="#fff6d5"/>
      <g transform="translate(573.58 -108.55)">
        <path d="m59.016 306.15c-8.8435-5.514-15.307-8.6246-23.502-11.31-8.7385-2.8636-16.158-4.1176-31.217-5.2762-18.155-1.3968-26.781-2.9194-35.943-6.3442-21.089-7.884-36.488-25.264-42.224-47.657-1.8144-7.0834-2.4443-12.29-2.4274-20.062 0.03384-15.533 2.8946-25.537 13.894-48.587 7.7939-16.332 9.9203-24.494 9.5499-36.654-0.21394-7.0247-0.65132-9.5405-2.7684-15.924-3.0608-9.2292-8.3424-18.638-17.535-31.238-2.3275-3.1902-3.7135-5.4034-3.5498-5.6685 0.24261-0.3928 42.356-44.731 46.879-49.356l1.8886-1.931 3.7525 1.9894c8.8601 4.6972 17.475 7.6089 27.602 9.3293 5.5942 0.95035 18.049 1.1573 23.446 0.3895 11.974-1.7035 23.076-5.2027 34.208-10.782l4.6032-2.3071 4.6032 2.3071c8.7666 4.3939 18.707 7.8955 27.168 9.5698 7.1051 1.4061 10.114 1.6756 18.232 1.6332 6.827-0.03573 8.6781-0.17263 13.178-0.97457 9.3668-1.6694 16.862-4.1975 25.619-8.6407l4.8597-2.4659 2.0422 2.0877c5.588 5.7125 46.906 49.26 46.906 49.437 0 0.1124-1.6933 2.5253-3.7629 5.362-11.073 15.177-17.044 26.838-19.53 38.141-0.93653 4.2577-1.1272 14.446-0.36185 19.338 1.2796 8.1789 3.5826 14.726 9.6529 27.441 9.4478 19.79 12.249 28.796 13.289 42.718 1.0192 13.652-2.0461 28.56-8.3277 40.502-9.2956 17.672-24.919 29.733-44.933 34.687-7.0517 1.7457-13.183 2.5691-27.258 3.6608-15.649 1.2137-23.082 2.5123-32.172 5.6207-8.2323 2.815-15.252 6.2423-23.927 11.682-2.5588 1.6045-4.9957 2.9068-5.4155 2.8941-0.41975-0.0123-3.3526-1.6376-6.5174-3.6109z" fill="#231f20" stroke-width=".99999"/>
        <path transform="translate(-2.5233)" d="m68.246 32.645-1.4473 0.72461c-11.754 5.8909-23.667 9.6516-36.371 11.459-7.0682 1.0056-18.489 0.79109-25.617-0.41992-10.408-1.7681-19.612-4.8563-28.762-9.5879-3.1109 3.2206-12.891 13.479-23.238 24.373-5.5596 5.8533-10.986 11.575-15.033 15.854-1.2855 1.3589-2.1331 2.2566-3.0996 3.2812 0.17891 0.25006 0.2351 0.35634 0.42969 0.62305 9.4199 12.911 15.159 23.003 18.531 33.172 2.1996 6.6325 2.9017 10.66 3.123 17.926 0.39826 13.076-2.2623 23.196-10.234 39.902-10.863 22.763-13.175 30.895-13.207 45.57-0.01612 7.3846 0.50111 11.637 2.207 18.297 5.2014 20.306 18.907 35.72 37.869 42.809 8.4442 3.1568 16.08 4.54 34.016 5.9199 15.27 1.1748 23.589 2.5618 32.871 5.6035 8.6829 2.8454 15.892 6.3276 25.033 12.027 1.0628 0.66267 1.948 1.1698 2.834 1.6816 0.55368-0.32211 1.0217-0.57309 1.6309-0.95508 8.9963-5.6412 16.662-9.3944 25.391-12.379 9.6341-3.2943 18.043-4.7481 33.906-5.9785 13.96-1.0828 19.481-1.8337 26.109-3.4746 18.256-4.5194 31.998-15.168 40.395-31.131 5.5968-10.64 8.4499-24.473 7.5371-36.699-0.98623-13.209-3.2979-20.676-12.621-40.205-6.1767-12.938-8.8673-20.501-10.258-29.389-1.0241-6.5453-0.9563-15.578 0.44336-21.941 2.776-12.62 9.3437-25.186 20.719-40.777 0.16333-0.22386 0.25815-0.36257 0.41602-0.58008-0.85736-0.91144-1.532-1.6308-2.6289-2.793-3.9537-4.1892-9.2898-9.8245-14.801-15.633-10.353-10.912-20.464-21.516-23.93-25.096l-0.22656 0.11328c-9.241 4.6888-17.632 7.522-27.568 9.293-4.6917 0.83618-7.4625 1.0478-14.377 1.084-8.2825 0.04334-12.328-0.3212-19.637-1.7676-9.2644-1.8334-19.624-5.5038-28.957-10.182zm-93.156 1.7148 0.90039 0.47656 0.0293-0.0293c-0.30889-0.15986-0.62088-0.28355-0.92969-0.44727z" fill="#ba6211" stroke-width=".99999"/>
        <path transform="translate(-2.5186)" d="m68.221 42.822c-11.735 5.5648-23.795 9.3083-36.496 11.115-8.6658 1.2329-19.863 1.0007-28.455-0.45898-8.9011-1.5121-17.133-4.0594-25.09-7.5566-4.2711 4.4576-10.361 10.831-18.699 19.609-4.809 5.0631-9.2006 9.694-13 13.707 7.4216 10.779 12.672 20.278 15.893 29.988 2.3645 7.1295 3.3518 12.788 3.5879 20.541 0.44047 14.462-2.8781 26.857-11.129 44.146-10.714 22.453-12.281 27.909-12.311 41.627-0.01516 6.9482 0.33651 9.8145 1.9199 15.996 4.5153 17.628 15.95 30.404 32.178 36.471 7.5663 2.8286 13.832 4.0041 31.498 5.3633 15.568 1.1977 24.992 2.7452 35.031 6.0352 8.6734 2.8423 16.369 6.6019 25.041 11.854 8.1148-4.8393 15.739-8.6128 24.006-11.439 10.399-3.5557 20.001-5.195 36.172-6.4492 13.82-1.0719 18.502-1.7204 24.609-3.2324 16.031-3.9686 27.204-12.684 34.461-26.48 4.6658-8.8701 7.2741-21.441 6.5059-31.73-0.92605-12.403-2.5651-17.688-11.75-36.928-6.3296-13.259-9.496-22.04-11.043-31.928-1.2439-7.9501-1.2551-17.149 0.54688-25.342 2.7672-12.58 8.9959-24.8 18.352-38.447-3.647-3.8592-7.7396-8.1851-12.334-13.027-8.404-8.8575-14.871-15.622-19.393-20.336-7.772 3.4201-15.515 5.8531-24.043 7.373-5.0426 0.89871-8.8569 1.1895-15.945 1.2266-8.5668 0.04483-13.817-0.42676-21.471-1.9414-9.3927-1.8588-19.327-5.3363-28.643-9.7559z" fill="#231f20" stroke-width=".99999"/>
        <path transform="translate(-2.5147)" d="m68.291 49.164c-11.469 5.183-23.313 8.8002-35.742 10.568-9.4632 1.3463-20.941 1.0988-30.26-0.48438-7.9446-1.3497-15.346-3.6526-22.523-6.5078-4.1116 4.296-8.8869 9.2902-16.041 16.822-3.6288 3.8205-6.731 7.094-9.8086 10.342 6.2274 9.477 10.977 18.331 14.012 27.48 2.5025 7.5457 3.6342 14.043 3.8828 22.205 0.4708 15.458-3.2409 29.125-11.697 46.846-10.651 22.32-11.709 25.843-11.738 39.119-0.01472 6.7472 0.20914 8.5672 1.7363 14.529 4.0946 15.985 14.008 27.003 28.557 32.441 7.0718 2.6437 12.384 3.6623 29.898 5.0098 15.772 1.2134 25.851 2.8503 36.404 6.3086 8.0898 2.651 15.468 6.266 23.225 10.762 7.2843-4.1655 14.429-7.6974 22.105-10.322 10.921-3.7344 21.228-5.4772 37.613-6.748 13.74-1.0657 17.847-1.64 23.656-3.0781 14.706-3.6407 24.11-11.019 30.688-23.523 4.0236-7.6492 6.5183-19.614 5.8496-28.57-0.89706-12.015-2.0733-15.734-11.195-34.842-6.4355-13.481-9.8912-22.975-11.545-33.545-1.3496-8.626-1.3873-18.409 0.61328-27.504 2.702-12.284 8.527-24.035 16.668-36.494-2.8863-3.0519-5.7609-6.0901-9.1797-9.6934-7.2475-7.6386-12.364-12.987-16.721-17.535-6.8908 2.7498-13.882 4.9574-21.441 6.3047-5.3298 0.94991-9.704 1.2805-16.941 1.3184-8.794 0.04602-14.712-0.48405-22.639-2.0527-9.1213-1.8051-18.484-5.1114-27.436-9.1562z" fill="#5ccace" stroke-width=".99999"/>
        <rect x="-35.155" y="116.06" width="201.87" height="5.857" fill="#231f20"/>
        <g transform="matrix(.88722 0 0 .88722 -131.78 74.618)" filter="url(#b)" stroke-width=".26458" style="font-variant-caps:normal;font-variant-east-asian:normal;font-variant-ligatures:normal;font-variant-numeric:normal" aria-label="Sweet Lou's">
          <path d="m170.22 8.2662q-2.1396 0-2.1396-1.8652 0-2.8527 3.1819-5.3763 3.1819-2.5236 7.5707-4.1145-0.38402-1.5909-1.975-2.4138-1.5909-0.87776-3.9499-0.87776-2.3041 0-4.8277 0.87776-2.4687 0.87776-4.718 2.5236-2.1944 1.5909-3.6208 4.2791-1.3715 2.6333-1.3715 5.8152 0 1.0972 1.6458 6.4186 1.6458 5.3214 1.6458 8.8325 0 0.87776-0.21944 2.5236 2.0847-0.21944 3.0173-0.21944 5.3214 0 5.3214 2.7979 0 0.98748-0.60346 1.6458-0.60347 0.65832-2.0298 1.5361-0.43888-0.2743-0.43888-0.49374t0.21944-0.38402q1.6458-0.93262 1.6458-1.8652 0-1.8652-4.334-1.8652-1.591 0-3.0722 0.21944-0.93263 3.5111-3.5111 6.5832-2.5236 3.0173-5.6506 4.8826-3.127 1.9201-6.3089 2.9625-3.127 1.0423-5.5409 1.0423-3.7305 0-3.7305-2.1944 0-3.0722 3.8402-6.1992 3.8402-3.127 9.1068-5.2117 5.3214-2.1395 10.423-3.0173 0.21944-1.5361 0.21944-2.4687 0-2.359-1.7555-7.3513-1.7007-5.0471-1.7007-8.6679 0-3.6208 2.8527-7.1867 2.8527-3.6208 6.7478-5.5409 3.9499-1.9201 7.461-1.9201 5.5409 0 6.0895 4.6631 3.0722-0.98748 4.1694-0.98748t1.1521 0.10972q0.10972 0.05486 0.10972 0.60346 0 0.5486-0.49374 0.71318-2.4687 0.10972-4.8826 0.71318-0.10972 4.4437-3.3465 7.461-3.2368 3.0173-6.1992 3.0173zm-31.654 29.899q0 1.5909 3.1819 1.5909 4.4437 0 9.9297-3.1819 2.6882-1.5361 4.8277-4.1694 2.1944-2.6882 3.0173-5.9249-4.6631 0.76804-9.3811 2.4687-4.6631 1.7007-8.1193 4.2242-3.4562 2.4687-3.4562 4.9923zm31.27-32.093q0 1.0423 1.0972 1.0423 2.0847 0 4.9923-2.7979 2.9624-2.8527 3.0173-6.2541-3.8402 1.2069-6.4735 3.3465-2.6333 2.1395-2.6333 4.6631z" style="font-variant-caps:normal;font-variant-east-asian:normal;font-variant-ligatures:normal;font-variant-numeric:normal"/>
          <path d="m171.05 24.615-1.7007 0.71318q-0.10972 0-0.10972-0.16458 0-0.49374 1.2069-1.2069 1.2618-0.71318 2.0298-0.71318 0.82291 0 0.82291 1.0972 0 1.8652-1.2069 6.4735 0.0549 0.05486 0.10972 0.05486 4.7728-3.8951 6.3638-5.486 1.5909-1.5909 2.1395-1.5909 0.60347 0 0.60347 0.60346t-1.2618 4.2791q-1.2618 3.6208-1.2618 4.1145l0.8229-0.71318q2.4687-2.2493 4.7728-4.6631-1.2069-0.16458-1.2069-1.3715 0-1.975 2.1944-4.0048 2.2493-2.0847 3.6756-2.0847 0.71319 0 0.71319 0.71318 0 1.7555-3.5659 5.8152h0.38402q1.1521 0 4.1694-2.0847l0.98748-0.71318q0.10972 0 0.10972 0.2743t-0.2743 0.49374q-3.4013 2.743-6.2541 3.0173-2.5784 2.7979-5.4312 5.2117-2.8527 2.359-3.511 2.359-0.60346 0-0.60346-0.5486 0-0.21944 0.21944-0.65832 0.21944-0.49374 1.1521-3.4562 0.93262-2.9625 0.87776-3.0722 0-0.16458-0.0549-0.16458-0.16458 0-0.43888 0.2743l-7.077 5.87q-1.1521 1.0972-1.6458 1.0972-0.49374-0.16458-0.49374-0.32916 0-0.21944 0.43888-1.0423 0.43888-0.87776 1.4264-3.8402 1.0424-3.0173 1.0424-3.7854 0-0.76804-0.16458-0.76804zm16.842-2.6882q0-0.32916-0.5486-0.32916t-1.6458 1.2069q-1.0972 1.1521-1.0972 2.5784 0 0.71318 0.8229 0.93262 2.4687-2.9625 2.4687-4.3888z" style="font-variant-caps:normal;font-variant-east-asian:normal;font-variant-ligatures:normal;font-variant-numeric:normal"/>
          <path d="m191.18 28.729q-3.2916 0-3.2916-1.4264 0-1.7007 3.8951-4.0048 3.8951-2.359 7.0221-2.359 1.591 0 1.591 0.98748 0 0.5486-0.82291 1.2069-0.8229 0.65832-1.5909 1.0423-0.76805 0.38402-0.87777 0.38402-0.32916 0-0.43888-0.2743-0.10972-0.38402 0.5486-0.76804 0.71319-0.43888 0.71319-0.93262 0-0.49374-1.2618-0.49374-1.2069 0-3.8402 1.7555-2.6333 1.7007-2.6333 2.7979 0 0.8229 1.9201 0.8229 0.32916 0 1.2069-0.05486t0.87776 0.21944-2.743 1.975q-2.6882 1.7007-2.6882 2.9076 0 1.3715 1.7555 1.3715 1.8104 0 4.0597-0.93262 3.6208-1.5909 6.5832-3.4013l1.0423-0.65832q0.0549 0.10972 0.0549 0.43888t-0.49374 0.5486q-2.9076 1.975-6.3638 3.7854-3.4562 1.7555-6.2541 1.7555-2.743 0-2.743-1.8104 0-1.8652 4.7728-4.8826z" style="font-variant-caps:normal;font-variant-east-asian:normal;font-variant-ligatures:normal;font-variant-numeric:normal"/>
          <path d="m203.69 28.729q-3.2916 0-3.2916-1.4264 0-1.7007 3.8951-4.0048 3.8951-2.359 7.0221-2.359 1.5909 0 1.5909 0.98748 0 0.5486-0.8229 1.2069-0.8229 0.65832-1.591 1.0423-0.76804 0.38402-0.87776 0.38402-0.32916 0-0.43888-0.2743-0.10972-0.38402 0.5486-0.76804 0.71318-0.43888 0.71318-0.93262 0-0.49374-1.2618-0.49374-1.2069 0-3.8402 1.7555-2.6333 1.7007-2.6333 2.7979 0 0.8229 1.9201 0.8229 0.32916 0 1.2069-0.05486 0.87776-0.05486 0.87776 0.21944t-2.743 1.975q-2.6882 1.7007-2.6882 2.9076 0 1.3715 1.7555 1.3715 1.8104 0 4.0596-0.93262 3.6208-1.5909 6.5832-3.4013l1.0423-0.65832q0.0549 0.10972 0.0549 0.43888t-0.49374 0.5486q-2.9076 1.975-6.3638 3.7854-3.4562 1.7555-6.2541 1.7555-2.743 0-2.743-1.8104 0-1.8652 4.7728-4.8826z" style="font-variant-caps:normal;font-variant-east-asian:normal;font-variant-ligatures:normal;font-variant-numeric:normal"/>
          <path d="m214.33 15.947q3.7305 0 7.3513-0.05486 5.87-7.5158 8.0096-7.5158 0.76805 0 0.76805 0.8229 0 2.6333-3.8402 6.5832l4.1694-0.05486q4.1694-0.16458 5.102-0.16458 0.93262 0 0.93262 0.21944 0 1.0423-1.4264 1.0972l-10.314 0.43888q-2.6882 2.5236-6.6381 5.3214-4.1694 6.8575-4.1694 9.3262 0 1.2618 1.5909 1.2618 1.6458 0 5.1569-1.7555l4.4437-2.5784q0.0549 0.10972 0.0549 0.43888t-0.49374 0.5486q-1.7555 1.2069-3.8402 2.4138-4.4437 2.2493-6.8027 2.2493-1.0972 0-1.7007-0.43888-0.60346-0.43888-0.65832-0.87776l-0.10972-0.43888q0-1.8652 2.5236-6.2541 2.5236-4.4437 5.9798-9.0519-2.6333 0.10972-4.9923 0.10972t-2.359-0.5486q0-1.0423 1.2618-1.0972zm14.428-5.5957q0-0.2743-0.21944-0.2743-1.2618 0-5.5957 5.7603h2.743q3.0722-3.3465 3.0722-5.486zm-4.6083 7.0221q-1.7555 0-2.359 0.05486-0.49375 0.71318-1.3715 2.0847t-1.2069 1.8652q2.8527-2.0847 4.9374-4.0048z" style="font-variant-caps:normal;font-variant-east-asian:normal;font-variant-ligatures:normal;font-variant-numeric:normal"/>
          <path d="m281.92-0.40173-1.975-0.10972h-0.65832q-0.93262 2.8527-4.1145 5.3214-3.127 2.4138-6.4186 2.4138-1.8104 0-1.8104-1.4264 0-2.0298 3.3465-4.6083 3.3465-2.6333 8.0096-3.0722v-0.21944q0-2.7979-4.7728-2.7979-7.3513 0-13.112 8.6679-2.6882 4.1145-5.0471 8.4485-7.3513 13.77-11.411 19.036 1.8104 0 2.7979 0.05486l8.9971 0.2743q3.3465 0 3.8951 0.10972 0.60346 0.05486 0.60346 0.2743 0 1.5909-2.6333 1.7555-7.2416-0.21944-15.416-0.32916-9.0519 10.369-21.231 10.369-1.8652 0-2.9624-0.93262-1.1521-0.87776-1.1521-2.3041 0-1.4264 1.3715-2.9076 1.3166-1.4812 4.0596-2.9076 2.6882-1.4264 7.6804-2.359 4.9923-0.98748 11.521-1.0972 4.334-5.87 9.6005-15.964 1.9201-3.7854 4.5534-7.845 2.6333-4.0597 5.102-6.8027 2.5236-2.7979 5.9798-4.5534 3.5111-1.8104 7.461-1.8104 5.4312 0 5.4312 3.5659v0.16458q1.4264 0 2.4687 0.21944 0.32916 0.10972 0.32916 0.76804 0 0.60346-0.49374 0.60346zm-62.76 38.512q-1.2618 1.1521-1.2618 2.1944 0 1.0972 1.0423 1.7555 1.0423 0.65832 2.9076 0.65832 10.094 0 17.939-9.3262-15.745 0.16458-20.627 4.718zm49.429-32.642q0 0.87776 1.0972 0.87776 1.975 0 4.6083-2.1944 2.6333-2.1944 3.6208-4.5534-4.0048 0.49374-6.6929 2.4687-2.6333 1.9201-2.6333 3.4013z" style="font-variant-caps:normal;font-variant-east-asian:normal;font-variant-ligatures:normal;font-variant-numeric:normal"/>
          <path d="m273.14 30.21q-1.7007 1.0423-3.9499 1.0423h-0.65833q-1.4812 1.7007-3.1819 2.7979-1.6458 1.0423-2.8527 1.0423-1.7007 0-1.7007-2.1944t2.359-5.102q-0.21944-0.60346-0.21944-1.4812 0-1.9201 1.6458-3.2916 1.7007-1.4264 3.2916-1.4264 3.3465 0 3.3465 3.6208 0 2.4138-2.0847 5.2666h0.65832q1.7555 0 3.0173-0.8229 0.16458-0.16458 0.43888-0.16458t0.2743 0.21944q0 0.16458-0.38402 0.49374zm-5.2666-6.3089q0.2743-0.10972 0.43888-0.10972t0.16458 0.2743q0 0.21944-0.60346 0.65832-2.1944 1.7007-3.2916 3.0722 1.2069 1.9201 3.6756 2.5236 2.1396-2.5236 2.1396-4.718 0-1.2618-0.8229-1.9201-0.82291-0.65832-2.1396-0.65832-1.2618 0-2.359 0.76804-1.0972 0.71318-1.0972 1.5909 0 0.8229 0.16458 1.3166 1.7007-1.7555 3.7305-2.7979zm-4.0596 5.102q-0.87777 1.4812-0.87777 3.2916 0 0.98748 0.87777 0.98748 1.4812 0 3.6756-2.1944-2.4687-0.43888-3.6756-2.0847z" style="font-variant-caps:normal;font-variant-east-asian:normal;font-variant-ligatures:normal;font-variant-numeric:normal"/>
          <path d="m279.29 33.502q0-0.60346 0.87777-2.0298 0.93262-1.4264 1.2069-1.8104 0.32916-0.38402 0.93263-1.2069-6.5284 5.9249-8.9971 5.9249-1.3715 0-1.3715-1.1521 0-1.6458 5.5409-9.2714 0.2743-0.43888 0.71318-0.43888 1.2618 0.38402 1.2618 0.5486 0 0.16458-0.32917 0.65832-4.718 6.3638-4.718 7.1867 0 0.76804 0.5486 0.76804 1.5361 0 5.4312-3.5111 3.9499-3.5659 5.7055-5.87 0.21944-0.38402 0.71318-0.38402 1.0972 0.21944 1.0972 0.43888-0.60347 0.87776-1.6458 2.3041-1.0423 1.4264-1.7007 2.359-0.65832 0.87776-1.3715 1.9201-1.3715 1.8652-1.6458 2.743 0 0.5486 0.87777 0.5486 0.93262 0 3.2368-1.0423 2.3041-1.0972 4.0596-2.1944l1.7555-1.0972q0.0549 0.10972 0.0549 0.43888t-0.49374 0.5486q-7.4061 5.0471-10.314 5.0471-1.4264 0-1.4264-1.4264z" style="font-variant-caps:normal;font-variant-east-asian:normal;font-variant-ligatures:normal;font-variant-numeric:normal"/>
          <path d="m301.23 6.3461-3.3465 4.334q-0.38402 0.5486-0.76804 0.5486-0.2743 0-0.2743-0.2743 0-0.32916 0.16458-0.65832l2.9076-4.8277q0.32916-0.5486 0.8229-0.5486 0.65832 0 0.65832 0.87776 0 0.21944-0.16458 0.5486z" style="font-variant-caps:normal;font-variant-east-asian:normal;font-variant-ligatures:normal;font-variant-numeric:normal"/>
          <path d="m303.64 28.071q-2.6333 2.4138-3.3465 2.4138-0.21944 0-0.21944-0.21944 0-0.21944 0.16458-0.38402 1.3166-0.71318 3.0722-2.3041-0.27431-0.65832-0.27431-1.4264 0-1.8652 1.9201-3.5659 1.9201-1.7007 3.2368-1.7007 0.71319 0 0.71319 0.71318 0 0.65832-2.1944 3.2916-0.21944 0.2743-0.49374 0.5486t-0.60347 0.65832q-0.2743 0.32916-0.43888 0.49374 0.2743 0.2743 0.98749 0.98748 0.71318 0.65832 1.1521 1.0972 1.2069 1.2069 1.2069 3.0173 0 1.8104-2.2493 3.127-2.2493 1.3715-4.718 1.3715-2.4138 0-2.4138-1.4812 0-1.4264 2.2493-2.6333t4.718-1.6458q-0.32917-0.43888-1.2618-1.1521-0.87776-0.71318-1.2069-1.2069zm2.8527 3.0173q-1.8652 0.21944-3.5111 1.0423-1.6458 0.76804-1.6458 1.8652 0 1.0423 1.4812 1.0423 1.5361 0 2.6882-0.71318 1.2069-0.71318 1.2069-1.5909t-0.21944-1.6458zm-1.7007-4.9374 1.4264-1.5361q1.4264-1.7007 1.4264-2.0298 0-0.38402-0.32916-0.38402-0.93262 0-1.9201 0.93262-0.98748 0.87776-0.98748 1.7555 0 0.8229 0.38402 1.2618z" style="font-variant-caps:normal;font-variant-east-asian:normal;font-variant-ligatures:normal;font-variant-numeric:normal"/>
        </g>
        <g transform="translate(-1064.5 -635.65)" fill="#231f20" filter="url(#c)" stroke-width=".26458" style="font-variant-caps:normal;font-variant-east-asian:normal;font-variant-ligatures:normal;font-variant-numeric:normal" aria-label="Auto">
          <path d="m1073.7 821.55h-10.16l13.36-31.75h14.935l2.2352 31.75h-10.211l-0.2032-5.0292h-7.9756zm9.1948-13.106v-8.89h-0.508l-3.556 8.89zm-20.98 12.903-20.828-2.2352h21.793zm2.0828-4.9276-20.828-2.2352h21.793zm2.0828-4.8768-20.828-2.2352h21.742zm2.032-4.8768-20.777-2.2352h21.742zm2.0828-4.8768-20.777-2.2352h21.692zm4.1148-9.8044-20.726-2.1844h21.641zm-2.0828 4.8768-20.726-2.1844h21.641zm2.0828-4.8768 0.9144-2.1844h-21.641z" style="font-variant-caps:normal;font-variant-east-asian:normal;font-variant-ligatures:normal;font-variant-numeric:normal"/>
          <path d="m1107.4 811.59-21.539-2.286h21.946zm0.8636-4.8768-21.539-2.286h21.946zm0.8636-4.8768-21.539-2.286h21.946zm0.8636-4.8768-21.539-2.286h21.895zm-2.794 17.221v1.016q0 0.8636 0.051 1.27l-21.539-2.286zm1.9812 7.2136-21.539-2.286h20.066q0.5588 1.4224 1.4732 2.286zm10.414-6.9596q1.3716 0 1.8796-0.3048 0.5588-0.3556 0.762-1.6256l3.2004-17.831h8.5344l-2.6416 15.138q-1.2192 7.112-3.9624 9.7536-2.6924 2.5908-9.2456 2.5908-5.2324 0-7.3152-1.524-2.0828-1.5748-2.0828-5.4356 0-2.1336 0.5588-5.3848l2.6924-15.138h8.5344l-3.4544 19.761z" style="font-variant-caps:normal;font-variant-east-asian:normal;font-variant-ligatures:normal;font-variant-numeric:normal"/>
          <path d="m1165.8 802.3h-5.4864l-3.3528 19.253h-8.9408l3.3528-19.253h-5.6388l1.3716-7.62h20.066zm-19.304 19.101-21.539-2.286h21.946zm1.7272-9.8044-21.539-2.286h21.946zm0.8636-4.8768-21.539-2.286h21.946zm-4.8768-4.8768-21.539-2.286h21.946zm0.8636-4.8768-21.539-2.286h21.895zm2.286 19.507-21.539-2.286h21.946z" style="font-variant-caps:normal;font-variant-east-asian:normal;font-variant-ligatures:normal;font-variant-numeric:normal"/>
          <path d="m1191.4 794.17q5.4864 0 7.8232 2.1336 2.3368 2.0828 2.3368 6.5532 0 2.1844-0.5588 5.2832-1.27 7.3152-4.4704 10.668t-10.058 3.3528q-5.3848 0-7.6708-2.0828-2.286-2.1336-2.286-6.5532 0-2.286 0.5588-5.3848 1.27-7.3152 4.4196-10.617 3.1496-3.3528 9.906-3.3528zm-3.4544 20.269q1.4732 0 2.1844-0.3556 0.762-0.3556 1.016-1.5748l1.9304-10.617h-3.0988q-1.4224 0-2.2352 0.3556-0.762 0.3556-0.9144 1.524l-1.8796 10.668zm-12.649-5.1308q-0.2032 1.5748-0.254 2.1336l-20.015-2.1336zm0.9652-4.8768-0.4572 2.1336-19.863-2.1336zm-1.27 9.7536q0 0.8128 0.2032 2.1336l-19.964-2.1336zm3.048-14.63q-0.6096 1.3208-0.8636 2.032l-19.202-2.032zm-1.9812 19.558q0.6096 1.2192 1.3208 1.8796l-17.729-1.8796zm6.4008-24.435q-1.2192 0.7112-2.0828 1.6764l-15.596-1.6764z" style="font-variant-caps:normal;font-variant-east-asian:normal;font-variant-ligatures:normal;font-variant-numeric:normal"/>
        </g>
        <g transform="translate(-1062.9 -635.65)" fill="#231f20" filter="url(#a)" stroke-width=".26458" style="font-variant-caps:normal;font-variant-east-asian:normal;font-variant-ligatures:normal;font-variant-numeric:normal" aria-label="Repair">
          <path d="m1058.9 839.1q8.6868 0 8.6868 7.7724 0 3.2004-0.9652 6.096-1.778 5.4864-5.588 7.3152l3.3528 10.566h-10.617l-2.3368-9.4488h-2.0828l-1.6256 9.4488h-9.652l5.588-31.75zm-5.9436 14.478q1.7272 0 2.5908-0.3556 0.9144-0.4064 1.2192-2.1844 0.3556-1.8288 0.3556-2.2352 0-1.016-0.8128-1.27-0.762-0.3048-2.54-0.3048h-1.9304l-1.1176 6.35zm-16.408 17.12-21.539-2.286h21.946zm1.7272-9.8044-21.539-2.286h21.946zm1.6764-9.7536-21.488-2.286h21.895zm0.8636-4.8768-21.488-2.286h21.895zm-3.4036 19.507-21.539-2.286h21.946zm4.2672-24.384-21.488-2.286h21.895zm-2.5908 14.63-21.488-2.286h21.895z" style="font-variant-caps:normal;font-variant-east-asian:normal;font-variant-ligatures:normal;font-variant-numeric:normal"/>
          <path d="m1096.5 859.93h-7.5692l-0.6096 3.4544h9.398l-1.3208 7.4676h-17.932l4.6736-26.873h17.882l-2.3876 7.62h-8.2804l-0.6096 3.4544h7.62zm-19.71 10.77-21.539-2.286h21.946zm1.7272-9.8044-21.539-2.286h21.946zm0.8636-4.8768-21.539-2.286h21.946zm0.8636-4.8768-21.539-2.286h21.946zm0.8636-4.8768-21.539-2.286h21.895zm-3.4544 19.507-21.539-2.286h21.946z" style="font-variant-caps:normal;font-variant-east-asian:normal;font-variant-ligatures:normal;font-variant-numeric:normal"/>
          <path d="m1126.4 864.55h-4.9276l-1.1176 6.2992h-8.5344l4.6736-26.873h12.903q7.366 0 7.366 6.9596 0 3.1496-0.9144 5.7912t-1.9812 4.1656-3.048 2.5908q-1.9304 1.0668-4.4196 1.0668zm1.1176-11.786q0-0.0508 0.051-0.3048 0-1.0668-2.1844-1.0668h-1.6256l-1.0668 6.2992h1.5748q1.1684 0 1.8288-0.254 0.6604-0.3048 0.8128-1.2192zm-17.374 17.932-21.539-2.286h21.946zm1.7272-9.8044-21.539-2.286h21.946zm0.8636-4.8768-21.539-2.286h21.946zm0.8636-4.8768-21.539-2.286h21.946zm0.8636-4.8768-21.539-2.286h21.895zm-3.4544 19.507-21.539-2.286h21.946z" style="font-variant-caps:normal;font-variant-east-asian:normal;font-variant-ligatures:normal;font-variant-numeric:normal"/>
          <path d="m1162 870.85-0.2032-4.1148h-6.4008l-1.5748 4.1148h-8.7884l11.278-26.873h12.598l1.9812 26.873zm-0.2032-11.379v-7.7216h-0.7112l-2.9972 7.7216zm-18.39 11.176-20.828-2.2352h21.793zm2.0828-4.9276-20.828-2.2352h21.793zm2.0828-4.8768-20.828-2.2352h21.742zm2.032-4.8768-20.777-2.2352h21.742zm2.0828-4.8768-20.777-2.2352h21.692zm2.032-4.9276-20.726-2.1844h21.641z" style="font-variant-caps:normal;font-variant-east-asian:normal;font-variant-ligatures:normal;font-variant-numeric:normal"/>
          <path d="m1184.1 870.85 4.6736-26.873h8.9408l-4.7244 26.873zm-1.6764-0.1524-21.539-2.286h21.946zm1.7272-9.8044-21.539-2.286h21.946zm0.8636-4.8768-21.539-2.286h21.946zm0.8636-4.8768-21.539-2.286h21.946zm0.8636-4.8768-21.539-2.286h21.895zm-3.4544 19.507-21.539-2.286h21.946z" style="font-variant-caps:normal;font-variant-east-asian:normal;font-variant-ligatures:normal;font-variant-numeric:normal"/>
          <path d="m1226.5 843.98q7.4168 0 7.4168 6.7056 0 3.048-1.2192 6.35-1.2192 3.2512-4.1148 4.8768l2.8956 8.9408h-9.4996l-1.9304-7.8232h-1.2192l-1.3716 7.8232h-8.5344l4.6736-26.873zm-1.8796 8.7884q0-0.0508 0.051-0.508 0-0.8636-2.6924-0.8636h-1.1176l-0.8128 4.6736h1.6256q2.3368 0 2.6416-1.524zm-17.374 17.932-21.539-2.286h21.946zm1.7272-9.8044-21.539-2.286h21.946zm0.8636-4.8768-21.539-2.286h21.946zm0.8636-4.8768-21.539-2.286h21.946zm0.8636-4.8768-21.539-2.286h21.895zm-3.4544 19.507-21.539-2.286h21.946z" style="font-variant-caps:normal;font-variant-east-asian:normal;font-variant-ligatures:normal;font-variant-numeric:normal"/>
        </g>
      </g>
    </g>
  </g>
</svg>
