<?xml version="1.0" encoding="UTF-8" standalone="no"?>
<svg
   xmlns:dc="http://purl.org/dc/elements/1.1/"
   xmlns:cc="http://creativecommons.org/ns#"
   xmlns:rdf="http://www.w3.org/1999/02/22-rdf-syntax-ns#"
   xmlns:svg="http://www.w3.org/2000/svg"
   xmlns="http://www.w3.org/2000/svg"
   xmlns:sodipodi="http://sodipodi.sourceforge.net/DTD/sodipodi-0.dtd"
   xmlns:inkscape="http://www.inkscape.org/namespaces/inkscape"
   width="10.854755in"
   height="11.250049in"
   viewBox="0 0 275.71079 285.75124"
   version="1.1"
   id="svg1714"
   inkscape:version="1.0.2 (1.0.2+r75+1)"
   sodipodi:docname="logo-v2.svg">
  <defs
     id="defs1708">
    <filter
       inkscape:collect="always"
       style="color-interpolation-filters:sRGB"
       id="filter869-7"
       x="-2.2035498e-05"
       width="1.0000441"
       y="-1.7011042e-05"
       height="1.000034">
      <feGaussianBlur
         inkscape:collect="always"
         stdDeviation="0.0042442765"
         id="feGaussianBlur871-6" />
    </filter>
    <filter
       inkscape:collect="always"
       style="color-interpolation-filters:sRGB"
       id="filter1150"
       x="-5.0648327e-05"
       width="1.0001013"
       y="-0.00025125372"
       height="1.0005025">
      <feGaussianBlur
         inkscape:collect="always"
         stdDeviation="0.0033876956"
         id="feGaussianBlur1152" />
    </filter>
    <filter
       inkscape:collect="always"
       style="color-interpolation-filters:sRGB"
       id="filter869-6-4"
       x="-2.2035498e-05"
       width="1.0000441"
       y="-1.7011042e-05"
       height="1.000034">
      <feGaussianBlur
         inkscape:collect="always"
         stdDeviation="0.0042442765"
         id="feGaussianBlur871-25-1" />
    </filter>
  </defs>
  <sodipodi:namedview
     id="base"
     pagecolor="#ffffff"
     bordercolor="#666666"
     borderopacity="1.0"
     inkscape:pageopacity="0.99607843"
     inkscape:pageshadow="2"
     inkscape:zoom="0.22555299"
     inkscape:cx="84.905331"
     inkscape:cy="553.11371"
     inkscape:document-units="mm"
     inkscape:current-layer="g2517"
     inkscape:document-rotation="0"
     showgrid="false"
     inkscape:showpageshadow="false"
     showborder="true"
     inkscape:pagecheckerboard="true"
     units="in"
     fit-margin-top="0"
     fit-margin-left="0"
     fit-margin-right="0"
     fit-margin-bottom="0"
     inkscape:window-width="1920"
     inkscape:window-height="1010"
     inkscape:window-x="1440"
     inkscape:window-y="0"
     inkscape:window-maximized="1" />
  <metadata
     id="metadata1711">
    <rdf:RDF>
      <cc:Work
         rdf:about="">
        <dc:format>image/svg+xml</dc:format>
        <dc:type
           rdf:resource="http://purl.org/dc/dcmitype/StillImage" />
        <dc:title />
      </cc:Work>
    </rdf:RDF>
  </metadata>
  <g
     inkscape:label="Layer 1"
     inkscape:groupmode="layer"
     id="layer1"
     transform="translate(-420.84615,319.18904)">
    <g
       id="g2517">
      <g
         id="path1682"
         style="fill:#5ccace;fill-opacity:1;stroke-width:1;stroke-miterlimit:4;stroke-dasharray:none;filter:url(#filter869-7)"
         transform="translate(876.70421,-403.78595)">
        <path
           style="color:#000000;font-style:normal;font-variant:normal;font-weight:normal;font-stretch:normal;font-size:medium;line-height:normal;font-family:sans-serif;font-variant-ligatures:normal;font-variant-position:normal;font-variant-caps:normal;font-variant-numeric:normal;font-variant-alternates:normal;font-variant-east-asian:normal;font-feature-settings:normal;font-variation-settings:normal;text-indent:0;text-align:start;text-decoration:none;text-decoration-line:none;text-decoration-style:solid;text-decoration-color:#000000;letter-spacing:normal;word-spacing:normal;text-transform:none;writing-mode:lr-tb;direction:ltr;text-orientation:mixed;dominant-baseline:auto;baseline-shift:baseline;text-anchor:start;white-space:normal;shape-padding:0;shape-margin:0;inline-size:0;clip-rule:nonzero;display:inline;overflow:visible;visibility:visible;isolation:auto;mix-blend-mode:normal;color-interpolation:sRGB;color-interpolation-filters:linearRGB;solid-color:#000000;solid-opacity:1;vector-effect:none;fill:#5ccace;fill-opacity:1;fill-rule:nonzero;stroke:none;stroke-width:1;stroke-linecap:butt;stroke-linejoin:miter;stroke-miterlimit:4;stroke-dasharray:none;stroke-dashoffset:0;stroke-opacity:1;color-rendering:auto;image-rendering:auto;shape-rendering:auto;text-rendering:auto;enable-background:accumulate;stop-color:#000000;stop-opacity:1"
           d="m -437.09319,142.30499 38.88087,-38.64258 157.1013,-1.28093 39.5664,37.9414 -20.22415,40.5902 14.8317,48.6421 12.43941,39.07053 -2.3268,25.32792 -20.30857,27.64933 -32.08208,14.95278 -67.83527,17.027 -111.018,-31.12692 -18.41191,-69.91048 23.93286,-81.91466 z"
           id="path1686" />
        <path
           style="color:#000000;font-style:normal;font-variant:normal;font-weight:normal;font-stretch:normal;font-size:medium;line-height:normal;font-family:sans-serif;font-variant-ligatures:normal;font-variant-position:normal;font-variant-caps:normal;font-variant-numeric:normal;font-variant-alternates:normal;font-variant-east-asian:normal;font-feature-settings:normal;font-variation-settings:normal;text-indent:0;text-align:start;text-decoration:none;text-decoration-line:none;text-decoration-style:solid;text-decoration-color:#000000;letter-spacing:normal;word-spacing:normal;text-transform:none;writing-mode:lr-tb;direction:ltr;text-orientation:mixed;dominant-baseline:auto;baseline-shift:baseline;text-anchor:start;white-space:normal;shape-padding:0;shape-margin:0;inline-size:0;clip-rule:nonzero;display:inline;overflow:visible;visibility:visible;isolation:auto;mix-blend-mode:normal;color-interpolation:sRGB;color-interpolation-filters:linearRGB;solid-color:#000000;solid-opacity:1;vector-effect:none;fill:#5ccace;fill-opacity:1;fill-rule:nonzero;stroke:none;stroke-width:1;stroke-linecap:butt;stroke-linejoin:miter;stroke-miterlimit:4;stroke-dasharray:none;stroke-dashoffset:0;stroke-opacity:1;color-rendering:auto;image-rendering:auto;shape-rendering:auto;text-rendering:auto;enable-background:accumulate;stop-color:#000000;stop-opacity:1"
           d="m -241.05859,102.24805 -157.20899,1.2832 -38.98828,38.74805 0.0449,0.0859 14.52149,28.2793 -23.92774,81.89844 18.43946,70.01953 111.125,31.15625 67.88281,-17.03711 32.12304,-14.97266 20.35157,-27.70703 2.33203,-25.39062 -12.44727,-39.09571 -14.8164,-48.58984 20.24414,-40.63086 z m -0.10547,0.26562 39.45703,37.83789 -20.20313,40.54883 14.84766,48.69336 12.42969,39.04687 -2.32031,25.26368 -20.26563,27.59375 -32.04102,14.93164 -67.78906,17.01562 -110.91015,-31.0957 -18.38477,-69.80273 23.9375,-81.92969 -14.52539,-28.28711 38.77344,-38.53516 z"
           id="path1688" />
      </g>
      <path
         style="color:#000000;font-style:normal;font-variant:normal;font-weight:normal;font-stretch:normal;font-size:medium;line-height:normal;font-family:sans-serif;font-variant-ligatures:normal;font-variant-position:normal;font-variant-caps:normal;font-variant-numeric:normal;font-variant-alternates:normal;font-variant-east-asian:normal;font-feature-settings:normal;font-variation-settings:normal;text-indent:0;text-align:start;text-decoration:none;text-decoration-line:none;text-decoration-style:solid;text-decoration-color:#000000;letter-spacing:normal;word-spacing:normal;text-transform:none;writing-mode:lr-tb;direction:ltr;text-orientation:mixed;dominant-baseline:auto;baseline-shift:baseline;text-anchor:start;white-space:normal;shape-padding:0;shape-margin:0;inline-size:0;clip-rule:nonzero;display:inline;overflow:visible;visibility:visible;isolation:auto;mix-blend-mode:normal;color-interpolation:sRGB;color-interpolation-filters:linearRGB;solid-color:#000000;solid-opacity:1;vector-effect:none;fill:#231f20;fill-opacity:1;fill-rule:nonzero;stroke:none;stroke-linecap:butt;stroke-linejoin:round;stroke-miterlimit:4;stroke-dasharray:none;stroke-dashoffset:0;stroke-opacity:1;filter:url(#filter869-7);color-rendering:auto;image-rendering:auto;shape-rendering:auto;text-rendering:auto;enable-background:accumulate;stop-color:#000000"
         d="m 636.04379,-319.18407 a 4.000395,4.000395 0 0 0 -3.1211,1.46094 c -6.39601,7.79304 -18.08067,12.25942 -34.73242,13.40039 -10.95329,-0.30339 -22.86979,-2.19996 -39.35547,-11.46289 a 4.000395,4.000395 0 0 0 -3.98047,0.0351 c -16.33184,9.56407 -27.73264,11.54069 -38.69726,12.03907 -16.66857,-0.84373 -28.43106,-5.10012 -34.96485,-12.77735 a 4.000395,4.000395 0 0 0 -5.86523,-0.24414 l -52.49024,52.16797 a 4.000395,4.000395 0 0 0 0.41211,6.0332 c 4.86241,3.66358 9.53003,12.10818 13.83203,20.24219 4.26671,8.06726 8.4277,16.5174 7.5586,26.83399 a 4.000395,4.000395 0 0 0 -0.01,0.14648 c -0.43273,9.19712 -2.76013,18.20056 -9.29883,30.71289 -9.5654,14.47713 -12.34272,30.62433 -14.43554,46.3457 a 4.000395,4.000395 0 0 0 -0.0352,0.47852 c -0.26316,20.88087 6.19769,39.87535 23.70117,59.02734 9.25656,10.12832 23.72557,18.76888 52.02539,21.85352 10.37858,1.13127 22.10065,1.36724 36.16993,4.53711 7.55767,1.70992 16.57631,7.62928 24.77148,14.05859 a 4.000395,4.000395 0 0 0 4.99414,-0.0449 c 8.16926,-6.64802 16.13326,-12.53327 23.63477,-14.37109 14.00873,-3.4197 25.72434,-3.86538 36.08007,-5.18164 28.24029,-3.58941 42.55272,-12.48736 51.62696,-22.7793 17.15884,-19.4614 23.27848,-38.5685 22.64258,-59.44141 a 4.000395,4.000395 0 0 0 -0.043,-0.47656 c -2.3731,-15.68085 -5.43835,-31.77649 -15.25977,-46.08008 -6.76106,-12.39361 -9.24882,-21.35508 -9.8457,-30.54297 a 4.000395,4.000395 0 0 0 -0.0137,-0.14648 c -1.05317,-10.29947 2.95611,-18.82079 7.07812,-26.96289 4.15609,-8.20947 8.6724,-16.7384 13.46875,-20.48828 a 4.000395,4.000395 0 0 0 0.30469,-6.03711 l -53.41406,-51.22461 a 4.000395,4.000395 0 0 0 -2.73828,-1.11133 z m 0.0918,9.6582 47.57617,45.625 c -5.27182,5.6165 -8.97842,13.15533 -12.42578,19.96485 -4.1757,8.24815 -9.18737,18.56659 -7.90039,31.33203 0.68289,10.30782 3.66338,20.69991 10.8086,33.79101 a 4.000395,4.000395 0 0 0 0.22656,0.36719 c 8.7792,12.6219 11.73572,27.301 14.08789,42.78906 0.54099,19.14196 -4.60336,35.4974 -20.64649,53.69336 -7.90012,8.96026 -19.65118,16.70509 -46.63476,20.13477 -9.80514,1.24628 -22.12178,1.72043 -36.9707,5.3457 a 4.000395,4.000395 0 0 0 -0.004,0.002 c -8.94533,2.19155 -16.78279,7.93043 -24.32422,13.98437 -7.85167,-5.98478 -16.44058,-11.63366 -25.41016,-13.66211 a 4.000395,4.000395 0 0 0 -0.004,0 c -14.91129,-3.35957 -27.23475,-3.61453 -37.06055,-4.68555 -27.04047,-2.94737 -38.92758,-10.47917 -46.98633,-19.29687 -16.36583,-17.9072 -21.80111,-34.17083 -21.60156,-53.32031 2.07521,-15.52643 4.77051,-30.25555 13.32227,-43.03125 a 4.000395,4.000395 0 0 0 0.2207,-0.3711 c 6.91388,-13.22334 9.70649,-23.67071 10.20312,-33.99414 1.05251,-12.77805 -4.13874,-23.00339 -8.45898,-31.17187 -3.56838,-6.74692 -7.40988,-14.2167 -12.78125,-19.73828 l 46.75391,-46.4668 c 8.77278,8.00124 21.82533,11.7504 37.8164,12.5332 a 4.000395,4.000395 0 0 0 0.3711,0 c 11.31512,-0.49682 24.16194,-2.91777 40.60547,-12.13867 16.65133,8.94359 29.91274,11.2339 41.25976,11.5293 a 4.000395,4.000395 0 0 0 0.37109,-0.008 c 15.97417,-1.06813 28.95752,-5.05089 37.58594,-13.20703 z"
         id="path865" />
      <g
         aria-label="Auto"
         id="g881"
         style="font-style:normal;font-variant:normal;font-weight:normal;font-stretch:normal;font-size:50.8px;line-height:1.25;font-family:'Faster One';-inkscape-font-specification:'Faster One, Normal';font-variant-ligatures:normal;font-variant-caps:normal;font-variant-numeric:normal;font-variant-east-asian:normal;fill:#231f20;fill-opacity:1;stroke:none;stroke-width:0.264583;filter:url(#filter1150)"
         transform="translate(-567.42822,-980.75867)">
        <path
           d="m 1073.6817,821.55066 h -10.16 l 13.3604,-31.75 h 14.9352 l 2.2352,31.75 h -10.2108 l -0.2032,-5.0292 h -7.9756 z m 9.1948,-13.1064 v -8.89 h -0.508 l -3.556,8.89 z m -20.9804,12.9032 -20.828,-2.2352 h 21.7932 z m 2.0828,-4.9276 -20.828,-2.2352 h 21.7932 z m 2.0828,-4.8768 -20.828,-2.2352 h 21.7424 z m 2.032,-4.8768 -20.7772,-2.2352 h 21.7424 z m 2.0828,-4.8768 -20.7772,-2.2352 h 21.6916 z m 4.1148,-9.8044 -20.7264,-2.1844 h 21.6408 z m -2.0828,4.8768 -20.7264,-2.1844 h 21.6408 z m 2.0828,-4.8768 0.9144,-2.1844 h -21.6408 z"
           style="font-style:normal;font-variant:normal;font-weight:normal;font-stretch:normal;font-size:50.8px;font-family:'Faster One';-inkscape-font-specification:'Faster One, Normal';font-variant-ligatures:normal;font-variant-caps:normal;font-variant-numeric:normal;font-variant-east-asian:normal;fill:#231f20;fill-opacity:1;stroke-width:0.264583"
           id="path873" />
        <path
           d="m 1107.4129,811.59386 -21.5392,-2.286 h 21.9456 z m 0.8636,-4.8768 -21.5392,-2.286 h 21.9456 z m 0.8636,-4.8768 -21.5392,-2.286 h 21.9456 z m 0.8636,-4.8768 -21.5392,-2.286 h 21.8948 z m -2.794,17.2212 v 1.016 q 0,0.8636 0.051,1.27 l -21.5392,-2.286 z m 1.9812,7.2136 -21.5392,-2.286 h 20.066 q 0.5588,1.4224 1.4732,2.286 z m 10.414,-6.9596 q 1.3716,0 1.8796,-0.3048 0.5588,-0.3556 0.762,-1.6256 l 3.2004,-17.8308 h 8.5344 l -2.6416,15.1384 q -1.2192,7.112 -3.9624,9.7536 -2.6924,2.5908 -9.2456,2.5908 -5.2324,0 -7.3152,-1.524 -2.0828,-1.5748 -2.0828,-5.4356 0,-2.1336 0.5588,-5.3848 l 2.6924,-15.1384 h 8.5344 l -3.4544,19.7612 z"
           style="font-style:normal;font-variant:normal;font-weight:normal;font-stretch:normal;font-size:50.8px;font-family:'Faster One';-inkscape-font-specification:'Faster One, Normal';font-variant-ligatures:normal;font-variant-caps:normal;font-variant-numeric:normal;font-variant-east-asian:normal;fill:#231f20;fill-opacity:1;stroke-width:0.264583"
           id="path875" />
        <path
           d="m 1165.782,802.29746 h -5.4864 l -3.3528,19.2532 h -8.9408 l 3.3528,-19.2532 h -5.6388 l 1.3716,-7.62 h 20.066 z m -19.304,19.1008 -21.5392,-2.286 h 21.9456 z m 1.7272,-9.8044 -21.5392,-2.286 h 21.9456 z m 0.8636,-4.8768 -21.5392,-2.286 h 21.9456 z m -4.8768,-4.8768 -21.5392,-2.286 h 21.9456 z m 0.8636,-4.8768 -21.5392,-2.286 h 21.8948 z m 2.286,19.5072 -21.5392,-2.286 h 21.9456 z"
           style="font-style:normal;font-variant:normal;font-weight:normal;font-stretch:normal;font-size:50.8px;font-family:'Faster One';-inkscape-font-specification:'Faster One, Normal';font-variant-ligatures:normal;font-variant-caps:normal;font-variant-numeric:normal;font-variant-east-asian:normal;fill:#231f20;fill-opacity:1;stroke-width:0.264583"
           id="path877" />
        <path
           d="m 1191.436,794.16946 q 5.4864,0 7.8232,2.1336 2.3368,2.0828 2.3368,6.5532 0,2.1844 -0.5588,5.2832 -1.27,7.3152 -4.4704,10.668 -3.2004,3.3528 -10.0584,3.3528 -5.3848,0 -7.6708,-2.0828 -2.286,-2.1336 -2.286,-6.5532 0,-2.286 0.5588,-5.3848 1.27,-7.3152 4.4196,-10.6172 3.1496,-3.3528 9.906,-3.3528 z m -3.4544,20.2692 q 1.4732,0 2.1844,-0.3556 0.762,-0.3556 1.016,-1.5748 l 1.9304,-10.6172 h -3.0988 q -1.4224,0 -2.2352,0.3556 -0.762,0.3556 -0.9144,1.524 l -1.8796,10.668 z m -12.6492,-5.1308 q -0.2032,1.5748 -0.254,2.1336 l -20.0152,-2.1336 z m 0.9652,-4.8768 -0.4572,2.1336 -19.8628,-2.1336 z m -1.27,9.7536 q 0,0.8128 0.2032,2.1336 l -19.9644,-2.1336 z m 3.048,-14.6304 q -0.6096,1.3208 -0.8636,2.032 l -19.2024,-2.032 z m -1.9812,19.558 q 0.6096,1.2192 1.3208,1.8796 l -17.7292,-1.8796 z m 6.4008,-24.4348 q -1.2192,0.7112 -2.0828,1.6764 l -15.5956,-1.6764 z"
           style="font-style:normal;font-variant:normal;font-weight:normal;font-stretch:normal;font-size:50.8px;font-family:'Faster One';-inkscape-font-specification:'Faster One, Normal';font-variant-ligatures:normal;font-variant-caps:normal;font-variant-numeric:normal;font-variant-east-asian:normal;fill:#231f20;fill-opacity:1;stroke-width:0.264583"
           id="path879" />
      </g>
      <g
         aria-label="Repair"
         id="g895"
         style="font-style:normal;font-variant:normal;font-weight:normal;font-stretch:normal;font-size:50.8px;line-height:1.25;font-family:'Faster One';-inkscape-font-specification:'Faster One, Normal';font-variant-ligatures:normal;font-variant-caps:normal;font-variant-numeric:normal;font-variant-east-asian:normal;fill:#231f20;fill-opacity:1;stroke:none;stroke-width:0.264583;filter:url(#filter869-7)"
         transform="translate(-565.84072,-980.75867)">
        <path
           d="m 1058.9499,839.10175 q 8.6868,0 8.6868,7.7724 0,3.2004 -0.9652,6.096 -1.778,5.4864 -5.588,7.3152 l 3.3528,10.5664 h -10.6172 l -2.3368,-9.4488 h -2.0828 l -1.6256,9.4488 h -9.652 l 5.588,-31.75 z m -5.9436,14.478 q 1.7272,0 2.5908,-0.3556 0.9144,-0.4064 1.2192,-2.1844 0.3556,-1.8288 0.3556,-2.2352 0,-1.016 -0.8128,-1.27 -0.762,-0.3048 -2.54,-0.3048 h -1.9304 l -1.1176,6.35 z m -16.4084,17.1196 -21.5392,-2.286 h 21.9456 z m 1.7272,-9.8044 -21.5392,-2.286 h 21.9456 z m 1.6764,-9.7536 -21.4884,-2.286 h 21.8948 z m 0.8636,-4.8768 -21.4884,-2.286 h 21.8948 z m -3.4036,19.5072 -21.5392,-2.286 h 21.9456 z m 4.2672,-24.384 -21.4884,-2.286 h 21.8948 z m -2.5908,14.6304 -21.4884,-2.286 h 21.8948 z"
           style="font-style:normal;font-variant:normal;font-weight:normal;font-stretch:normal;font-size:50.8px;font-family:'Faster One';-inkscape-font-specification:'Faster One, Normal';font-variant-ligatures:normal;font-variant-caps:normal;font-variant-numeric:normal;font-variant-east-asian:normal;fill:#231f20;fill-opacity:1;stroke-width:0.264583"
           id="path883" />
        <path
           d="m 1096.5418,859.92975 h -7.5692 l -0.6096,3.4544 h 9.398 l -1.3208,7.4676 h -17.9324 l 4.6736,-26.8732 h 17.8816 l -2.3876,7.62 h -8.2804 l -0.6096,3.4544 h 7.62 z m -19.7104,10.7696 -21.5392,-2.286 h 21.9456 z m 1.7272,-9.8044 -21.5392,-2.286 h 21.9456 z m 0.8636,-4.8768 -21.5392,-2.286 h 21.9456 z m 0.8636,-4.8768 -21.5392,-2.286 h 21.9456 z m 0.8636,-4.8768 -21.5392,-2.286 h 21.8948 z m -3.4544,19.5072 -21.5392,-2.286 h 21.9456 z"
           style="font-style:normal;font-variant:normal;font-weight:normal;font-stretch:normal;font-size:50.8px;font-family:'Faster One';-inkscape-font-specification:'Faster One, Normal';font-variant-ligatures:normal;font-variant-caps:normal;font-variant-numeric:normal;font-variant-east-asian:normal;fill:#231f20;fill-opacity:1;stroke-width:0.264583"
           id="path885" />
        <path
           d="m 1126.4121,864.55255 h -4.9276 l -1.1176,6.2992 h -8.5344 l 4.6736,-26.8732 h 12.9032 q 7.366,0 7.366,6.9596 0,3.1496 -0.9144,5.7912 -0.9144,2.6416 -1.9812,4.1656 -1.0668,1.524 -3.048,2.5908 -1.9304,1.0668 -4.4196,1.0668 z m 1.1176,-11.7856 q 0,-0.0508 0.051,-0.3048 0,-1.0668 -2.1844,-1.0668 h -1.6256 l -1.0668,6.2992 h 1.5748 q 1.1684,0 1.8288,-0.254 0.6604,-0.3048 0.8128,-1.2192 z m -17.3736,17.9324 -21.5392,-2.286 h 21.9456 z m 1.7272,-9.8044 -21.5392,-2.286 h 21.9456 z m 0.8636,-4.8768 -21.5392,-2.286 h 21.9456 z m 0.8636,-4.8768 -21.5392,-2.286 h 21.9456 z m 0.8636,-4.8768 -21.5392,-2.286 h 21.8948 z m -3.4544,19.5072 -21.5392,-2.286 h 21.9456 z"
           style="font-style:normal;font-variant:normal;font-weight:normal;font-stretch:normal;font-size:50.8px;font-family:'Faster One';-inkscape-font-specification:'Faster One, Normal';font-variant-ligatures:normal;font-variant-caps:normal;font-variant-numeric:normal;font-variant-east-asian:normal;fill:#231f20;fill-opacity:1;stroke-width:0.264583"
           id="path887" />
        <path
           d="m 1161.972,870.85175 -0.2032,-4.1148 h -6.4008 l -1.5748,4.1148 h -8.7884 l 11.2776,-26.8732 h 12.5984 l 1.9812,26.8732 z m -0.2032,-11.3792 v -7.7216 h -0.7112 l -2.9972,7.7216 z m -18.3896,11.176 -20.828,-2.2352 h 21.7932 z m 2.0828,-4.9276 -20.828,-2.2352 h 21.7932 z m 2.0828,-4.8768 -20.828,-2.2352 h 21.7424 z m 2.032,-4.8768 -20.7772,-2.2352 h 21.7424 z m 2.0828,-4.8768 -20.7772,-2.2352 h 21.6916 z m 2.032,-4.9276 -20.7264,-2.1844 h 21.6408 z"
           style="font-style:normal;font-variant:normal;font-weight:normal;font-stretch:normal;font-size:50.8px;font-family:'Faster One';-inkscape-font-specification:'Faster One, Normal';font-variant-ligatures:normal;font-variant-caps:normal;font-variant-numeric:normal;font-variant-east-asian:normal;fill:#231f20;fill-opacity:1;stroke-width:0.264583"
           id="path889" />
        <path
           d="m 1184.1208,870.85175 4.6736,-26.8732 h 8.9408 l -4.7244,26.8732 z m -1.6764,-0.1524 -21.5392,-2.286 h 21.9456 z m 1.7272,-9.8044 -21.5392,-2.286 h 21.9456 z m 0.8636,-4.8768 -21.5392,-2.286 h 21.9456 z m 0.8636,-4.8768 -21.5392,-2.286 h 21.9456 z m 0.8636,-4.8768 -21.5392,-2.286 h 21.8948 z m -3.4544,19.5072 -21.5392,-2.286 h 21.9456 z"
           style="font-style:normal;font-variant:normal;font-weight:normal;font-stretch:normal;font-size:50.8px;font-family:'Faster One';-inkscape-font-specification:'Faster One, Normal';font-variant-ligatures:normal;font-variant-caps:normal;font-variant-numeric:normal;font-variant-east-asian:normal;fill:#231f20;fill-opacity:1;stroke-width:0.264583"
           id="path891" />
        <path
           d="m 1226.5387,843.97855 q 7.4168,0 7.4168,6.7056 0,3.048 -1.2192,6.35 -1.2192,3.2512 -4.1148,4.8768 l 2.8956,8.9408 h -9.4996 l -1.9304,-7.8232 h -1.2192 l -1.3716,7.8232 h -8.5344 l 4.6736,-26.8732 z m -1.8796,8.7884 q 0,-0.0508 0.051,-0.508 0,-0.8636 -2.6924,-0.8636 h -1.1176 l -0.8128,4.6736 h 1.6256 q 2.3368,0 2.6416,-1.524 z m -17.3736,17.9324 -21.5392,-2.286 h 21.9456 z m 1.7272,-9.8044 -21.5392,-2.286 h 21.9456 z m 0.8636,-4.8768 -21.5392,-2.286 h 21.9456 z m 0.8636,-4.8768 -21.5392,-2.286 h 21.9456 z m 0.8636,-4.8768 -21.5392,-2.286 h 21.8948 z m -3.4544,19.5072 -21.5392,-2.286 h 21.9456 z"
           style="font-style:normal;font-variant:normal;font-weight:normal;font-stretch:normal;font-size:50.8px;font-family:'Faster One';-inkscape-font-specification:'Faster One, Normal';font-variant-ligatures:normal;font-variant-caps:normal;font-variant-numeric:normal;font-variant-east-asian:normal;fill:#231f20;fill-opacity:1;stroke-width:0.264583"
           id="path893" />
      </g>
      <g
         aria-label="Sweet Lou's"
         transform="matrix(0.88722066,0,0,0.88722066,358.50864,-270.68307)"
         id="text901"
         style="font-style:normal;font-variant:normal;font-weight:normal;font-stretch:normal;font-size:54.8602px;line-height:1.25;font-family:'Mr De Haviland';-inkscape-font-specification:'Mr De Haviland, Normal';font-variant-ligatures:normal;font-variant-caps:normal;font-variant-numeric:normal;font-variant-east-asian:normal;fill:#000000;fill-opacity:1;stroke:none;stroke-width:0.264583;filter:url(#filter869-6-4)"
         inkscape:transform-center-x="45.281712"
         inkscape:transform-center-y="-104.23973">
        <path
           d="m 170.22388,8.2661826 q -2.13955,0 -2.13955,-1.8652468 0,-2.8527304 3.18189,-5.3762995 3.1819,-2.5235692 7.57071,-4.1145149 -0.38402,-1.5909458 -1.97497,-2.4138488 -1.59094,-0.8777632 -3.94993,-0.8777632 -2.30413,0 -4.8277,0.8777632 -2.46871,0.8777632 -4.71798,2.5235692 -2.1944,1.5909457 -3.62077,4.2790955 -1.3715,2.6332895 -1.3715,5.8151811 0,1.097204 1.6458,6.4186436 1.64581,5.321439 1.64581,8.832492 0,0.877763 -0.21944,2.523569 2.08469,-0.219441 3.01731,-0.219441 5.32144,0 5.32144,2.79787 0,0.987484 -0.60346,1.645806 -0.60347,0.658323 -2.02983,1.536086 -0.43888,-0.274301 -0.43888,-0.493742 0,-0.219441 0.21944,-0.384021 1.6458,-0.932624 1.6458,-1.865247 0,-1.865247 -4.33395,-1.865247 -1.59095,0 -3.07217,0.219441 -0.93263,3.511053 -3.51106,6.583224 -2.52356,3.017311 -5.6506,4.882557 -3.12703,1.920107 -6.30892,2.962451 -3.12703,1.042344 -5.54088,1.042344 -3.73049,0 -3.73049,-2.194408 0,-3.072171 3.84021,-6.199203 3.84022,-3.127031 9.10679,-5.211718 5.32144,-2.139548 10.42344,-3.017311 0.21944,-1.536086 0.21944,-2.468709 0,-2.358989 -1.75552,-7.351267 -1.70067,-5.047138 -1.70067,-8.6679114 0,-3.6207731 2.85273,-7.18668608 2.85273,-3.62077312 6.74781,-5.54088012 3.94993,-1.9201069 7.46098,-1.9201069 5.54088,0 6.08948,4.6631169 3.07218,-0.9874836 4.16938,-0.9874836 1.0972,0 1.15206,0.1097204 0.10972,0.05486 0.10972,0.6034622 0,0.548602 -0.49374,0.7131826 -2.46871,0.1097204 -4.88256,0.7131826 -0.10972,4.4436761 -3.34647,7.460987 -3.23675,3.017311 -6.1992,3.017311 z M 138.56955,38.164991 q 0,1.590946 3.18189,1.590946 4.44367,0 9.92969,-3.181892 2.68815,-1.536085 4.8277,-4.169375 2.19441,-2.68815 3.01731,-5.924901 -4.66312,0.768042 -9.38109,2.468709 -4.66312,1.700666 -8.11931,4.224235 -3.45619,2.468709 -3.45619,4.992278 z M 169.83986,6.0717746 q 0,1.0423438 1.0972,1.0423438 2.08469,0 4.99228,-2.7978702 2.96245,-2.8527303 3.01731,-6.2540627 -3.84021,1.20692442 -6.4735,3.3464722 -2.63329,2.1395477 -2.63329,4.6631169 z"
           style="font-style:normal;font-variant:normal;font-weight:normal;font-stretch:normal;font-size:54.8602px;font-family:'Mr De Haviland';-inkscape-font-specification:'Mr De Haviland, Normal';font-variant-ligatures:normal;font-variant-caps:normal;font-variant-numeric:normal;font-variant-east-asian:normal;stroke-width:0.264583"
           id="path2350" />
        <path
           d="m 171.04678,24.614522 -1.70067,0.713182 q -0.10972,0 -0.10972,-0.16458 0,-0.493742 1.20693,-1.206925 1.26178,-0.713182 2.02982,-0.713182 0.82291,0 0.82291,1.097204 0,1.865247 -1.20693,6.473503 0.0549,0.05486 0.10972,0.05486 4.77284,-3.895075 6.36379,-5.48602 1.59094,-1.590946 2.13954,-1.590946 0.60347,0 0.60347,0.603462 0,0.603462 -1.26179,4.279096 -1.26178,3.620773 -1.26178,4.114514 l 0.8229,-0.713182 q 2.46871,-2.249268 4.77284,-4.663117 -1.20693,-0.164581 -1.20693,-1.371505 0,-1.974967 2.19441,-4.004795 2.24927,-2.084687 3.67563,-2.084687 0.71319,0 0.71319,0.713183 0,1.755526 -3.56592,5.815181 h 0.38402 q 1.15207,0 4.16938,-2.084688 l 0.98748,-0.713183 q 0.10972,0 0.10972,0.274301 0,0.274301 -0.2743,0.493742 -3.40133,2.74301 -6.25406,3.017311 -2.57843,2.79787 -5.43116,5.211719 -2.85273,2.358989 -3.51105,2.358989 -0.60346,0 -0.60346,-0.548602 0,-0.219441 0.21944,-0.658323 0.21944,-0.493742 1.15206,-3.456192 0.93262,-2.962451 0.87776,-3.072171 0,-0.164581 -0.0549,-0.164581 -0.16458,0 -0.43888,0.274301 l -7.07696,5.870041 q -1.15207,1.097204 -1.64581,1.097204 -0.49374,-0.16458 -0.49374,-0.329161 0,-0.219441 0.43888,-1.042344 0.43888,-0.877763 1.42636,-3.840214 1.04235,-3.017311 1.04235,-3.785353 0,-0.768043 -0.16458,-0.768043 z m 16.84208,-2.68815 q 0,-0.329161 -0.5486,-0.329161 -0.5486,0 -1.64581,1.206924 -1.0972,1.152064 -1.0972,2.57843 0,0.713182 0.8229,0.932623 2.46871,-2.962451 2.46871,-4.388816 z"
           style="font-style:normal;font-variant:normal;font-weight:normal;font-stretch:normal;font-size:54.8602px;font-family:'Mr De Haviland';-inkscape-font-specification:'Mr De Haviland, Normal';font-variant-ligatures:normal;font-variant-caps:normal;font-variant-numeric:normal;font-variant-east-asian:normal;stroke-width:0.264583"
           id="path2352" />
        <path
           d="m 191.18046,28.729037 q -3.29161,0 -3.29161,-1.426365 0,-1.700667 3.89507,-4.004795 3.89508,-2.358988 7.02211,-2.358988 1.59095,0 1.59095,0.987483 0,0.548602 -0.82291,1.206924 -0.8229,0.658323 -1.59094,1.042344 -0.76805,0.384022 -0.87777,0.384022 -0.32916,0 -0.43888,-0.274301 -0.10972,-0.384022 0.5486,-0.768043 0.71319,-0.438882 0.71319,-0.932624 0,-0.493741 -1.26179,-0.493741 -1.20692,0 -3.84021,1.755526 -2.63329,1.700666 -2.63329,2.79787 0,0.822903 1.92011,0.822903 0.32916,0 1.20692,-0.05486 0.87776,-0.05486 0.87776,0.219441 0,0.274301 -2.74301,1.974967 -2.68815,1.700666 -2.68815,2.907591 0,1.371504 1.75553,1.371504 1.81039,0 4.05966,-0.932623 3.62077,-1.590946 6.58322,-3.401332 l 1.04234,-0.658323 q 0.0549,0.109721 0.0549,0.438882 0,0.329161 -0.49374,0.548602 -2.90759,1.974967 -6.36378,3.785354 -3.45619,1.755526 -6.25406,1.755526 -2.74301,0 -2.74301,-1.810387 0,-1.865246 4.77283,-4.882557 z"
           style="font-style:normal;font-variant:normal;font-weight:normal;font-stretch:normal;font-size:54.8602px;font-family:'Mr De Haviland';-inkscape-font-specification:'Mr De Haviland, Normal';font-variant-ligatures:normal;font-variant-caps:normal;font-variant-numeric:normal;font-variant-east-asian:normal;stroke-width:0.264583"
           id="path2354" />
        <path
           d="m 203.68852,28.729037 q -3.29161,0 -3.29161,-1.426365 0,-1.700667 3.89507,-4.004795 3.89508,-2.358988 7.02211,-2.358988 1.59094,0 1.59094,0.987483 0,0.548602 -0.8229,1.206924 -0.8229,0.658323 -1.59095,1.042344 -0.76804,0.384022 -0.87776,0.384022 -0.32916,0 -0.43888,-0.274301 -0.10972,-0.384022 0.5486,-0.768043 0.71318,-0.438882 0.71318,-0.932624 0,-0.493741 -1.26178,-0.493741 -1.20693,0 -3.84021,1.755526 -2.63329,1.700666 -2.63329,2.79787 0,0.822903 1.9201,0.822903 0.32916,0 1.20693,-0.05486 0.87776,-0.05486 0.87776,0.219441 0,0.274301 -2.74301,1.974967 -2.68815,1.700666 -2.68815,2.907591 0,1.371504 1.75553,1.371504 1.81038,0 4.05965,-0.932623 3.62077,-1.590946 6.58323,-3.401332 l 1.04234,-0.658323 q 0.0549,0.109721 0.0549,0.438882 0,0.329161 -0.49374,0.548602 -2.90759,1.974967 -6.36379,3.785354 -3.45619,1.755526 -6.25406,1.755526 -2.74301,0 -2.74301,-1.810387 0,-1.865246 4.77284,-4.882557 z"
           style="font-style:normal;font-variant:normal;font-weight:normal;font-stretch:normal;font-size:54.8602px;font-family:'Mr De Haviland';-inkscape-font-specification:'Mr De Haviland, Normal';font-variant-ligatures:normal;font-variant-caps:normal;font-variant-numeric:normal;font-variant-east-asian:normal;stroke-width:0.264583"
           id="path2356" />
        <path
           d="m 214.33133,15.94661 q 3.73049,0 7.35127,-0.05486 5.87004,-7.515847 8.00958,-7.515847 0.76805,0 0.76805,0.8229029 0,2.6332891 -3.84022,6.5832241 l 4.16938,-0.05486 q 4.16937,-0.164581 5.102,-0.164581 0.93262,0 0.93262,0.219441 0,1.042344 -1.42636,1.097204 l -10.31372,0.438881 q -2.68815,2.52357 -6.63809,5.32144 -4.16937,6.857525 -4.16937,9.326234 0,1.261784 1.59094,1.261784 1.64581,0 5.15686,-1.755526 l 4.44368,-2.57843 q 0.0549,0.109721 0.0549,0.438882 0,0.329161 -0.49374,0.548602 -1.75553,1.206924 -3.84022,2.413849 -4.44367,2.249268 -6.80266,2.249268 -1.0972,0 -1.70067,-0.438882 -0.60346,-0.438881 -0.65832,-0.877763 l -0.10972,-0.438882 q 0,-1.865246 2.52357,-6.254062 2.52357,-4.443676 5.97976,-9.051933 -2.63329,0.10972 -4.99228,0.10972 -2.35899,0 -2.35899,-0.548602 0,-1.042343 1.26179,-1.097204 z m 14.42823,-5.59574 q 0,-0.274301 -0.21944,-0.274301 -1.26178,0 -5.59574,5.760321 h 2.74301 q 3.07217,-3.346472 3.07217,-5.48602 z m -4.60826,7.022106 q -1.75552,0 -2.35898,0.05486 -0.49375,0.713182 -1.37151,2.084687 -0.87776,1.371505 -1.20692,1.865247 2.85273,-2.084687 4.93741,-4.004794 z"
           style="font-style:normal;font-variant:normal;font-weight:normal;font-stretch:normal;font-size:54.8602px;font-family:'Mr De Haviland';-inkscape-font-specification:'Mr De Haviland, Normal';font-variant-ligatures:normal;font-variant-caps:normal;font-variant-numeric:normal;font-variant-east-asian:normal;stroke-width:0.264583"
           id="path2358" />
        <path
           d="m 281.91902,-0.40172888 -1.97497,-0.1097204 h -0.65832 q -0.93262,2.85273038 -4.11452,5.32143928 -3.12703,2.4138488 -6.41864,2.4138488 -1.81039,0 -1.81039,-1.4263652 0,-2.0298274 3.34648,-4.6082567 3.34647,-2.6332896 8.00959,-3.0721712 v -0.2194408 q 0,-2.7978701 -4.77284,-2.7978701 -7.35127,0 -13.11159,8.6679114 -2.68815,4.114515 -5.04714,8.4484708 -7.35126,13.76991 -11.41092,19.036489 1.81039,0 2.79787,0.05486 l 8.99707,0.274301 q 3.34648,0 3.89508,0.109721 0.60346,0.05486 0.60346,0.274301 0,1.590945 -2.63329,1.755526 -7.24155,-0.219441 -15.41571,-0.329161 -9.05194,10.368577 -21.2309,10.368577 -1.86525,0 -2.96245,-0.932623 -1.15207,-0.877763 -1.15207,-2.304128 0,-1.426366 1.37151,-2.907591 1.31664,-1.481225 4.05965,-2.907591 2.68815,-1.426365 7.68043,-2.358988 4.99228,-0.987484 11.52064,-1.097204 4.33396,-5.870041 9.60054,-15.964318 1.9201,-3.785354 4.55339,-7.8450084 2.63329,-4.0596548 5.102,-6.8026647 2.52357,-2.7978701 5.97976,-4.5533965 3.51106,-1.8103866 7.46099,-1.8103866 5.43116,0 5.43116,3.565913 v 0.1645805 q 1.42637,0 2.46871,0.2194408 0.32916,0.1097204 0.32916,0.7680428 0,0.60346222 -0.49374,0.60346222 z M 219.15895,38.110131 q -1.26178,1.152064 -1.26178,2.194408 0,1.097204 1.04234,1.755526 1.04234,0.658323 2.90759,0.658323 10.09428,0 17.93929,-9.326234 -15.74488,0.16458 -20.62744,4.717977 z M 268.58799,5.4683124 q 0,0.8777632 1.0972,0.8777632 1.97497,0 4.60826,-2.194408 2.63329,-2.1944079 3.62077,-4.55339648 -4.00479,0.49374179 -6.69294,2.46870898 -2.63329,1.9201069 -2.63329,3.4013323 z"
           style="font-style:normal;font-variant:normal;font-weight:normal;font-stretch:normal;font-size:54.8602px;font-family:'Mr De Haviland';-inkscape-font-specification:'Mr De Haviland, Normal';font-variant-ligatures:normal;font-variant-caps:normal;font-variant-numeric:normal;font-variant-east-asian:normal;stroke-width:0.264583"
           id="path2360" />
        <path
           d="m 273.14128,30.210262 q -1.70067,1.042344 -3.94993,1.042344 h -0.65833 q -1.48122,1.700666 -3.18189,2.79787 -1.6458,1.042344 -2.85273,1.042344 -1.70066,0 -1.70066,-2.194408 0,-2.194408 2.35898,-5.101999 -0.21944,-0.603462 -0.21944,-1.481225 0,-1.920107 1.64581,-3.291612 1.70067,-1.426365 3.29161,-1.426365 3.34647,0 3.34647,3.620773 0,2.413849 -2.08468,5.266579 h 0.65832 q 1.75552,0 3.01731,-0.822903 0.16458,-0.16458 0.43888,-0.16458 0.2743,0 0.2743,0.21944 0,0.164581 -0.38402,0.493742 z m -5.26658,-6.308923 q 0.2743,-0.10972 0.43888,-0.10972 0.16458,0 0.16458,0.274301 0,0.219441 -0.60346,0.658322 -2.19441,1.700666 -3.29161,3.072171 1.20692,1.920107 3.67563,2.52357 2.13955,-2.52357 2.13955,-4.717978 0,-1.261784 -0.8229,-1.920107 -0.82291,-0.658322 -2.13955,-0.658322 -1.26178,0 -2.35899,0.768043 -1.0972,0.713182 -1.0972,1.590946 0,0.822903 0.16458,1.316644 1.70066,-1.755526 3.73049,-2.79787 z m -4.05965,5.101999 q -0.87777,1.481225 -0.87777,3.291612 0,0.987483 0.87777,0.987483 1.48122,0 3.67563,-2.194408 -2.46871,-0.438881 -3.67563,-2.084687 z"
           style="font-style:normal;font-variant:normal;font-weight:normal;font-stretch:normal;font-size:54.8602px;font-family:'Mr De Haviland';-inkscape-font-specification:'Mr De Haviland, Normal';font-variant-ligatures:normal;font-variant-caps:normal;font-variant-numeric:normal;font-variant-east-asian:normal;stroke-width:0.264583"
           id="path2362" />
        <path
           d="m 279.28556,33.501874 q 0,-0.603462 0.87777,-2.029827 0.93262,-1.426365 1.20692,-1.810387 0.32916,-0.384021 0.93263,-1.206924 -6.52837,5.924901 -8.99708,5.924901 -1.3715,0 -1.3715,-1.152064 0,-1.645806 5.54088,-9.271374 0.2743,-0.438881 0.71318,-0.438881 1.26179,0.384021 1.26179,0.548602 0,0.16458 -0.32917,0.658322 -4.71797,6.363783 -4.71797,7.186686 0,0.768043 0.5486,0.768043 1.53608,0 5.43116,-3.511053 3.94993,-3.565913 5.70546,-5.870041 0.21944,-0.384021 0.71318,-0.384021 1.09721,0.21944 1.09721,0.438881 -0.60347,0.877763 -1.64581,2.304129 -1.04234,1.426365 -1.70067,2.358988 -0.65832,0.877763 -1.3715,1.920107 -1.37151,1.865247 -1.64581,2.74301 0,0.548602 0.87777,0.548602 0.93262,0 3.23675,-1.042344 2.30413,-1.097204 4.05965,-2.194408 l 1.75553,-1.097204 q 0.0549,0.109721 0.0549,0.438882 0,0.329161 -0.49374,0.548602 -7.40613,5.047138 -10.31372,5.047138 -1.42637,0 -1.42637,-1.426365 z"
           style="font-style:normal;font-variant:normal;font-weight:normal;font-stretch:normal;font-size:54.8602px;font-family:'Mr De Haviland';-inkscape-font-specification:'Mr De Haviland, Normal';font-variant-ligatures:normal;font-variant-caps:normal;font-variant-numeric:normal;font-variant-east-asian:normal;stroke-width:0.264583"
           id="path2364" />
        <path
           d="m 301.22958,6.3460756 -3.34647,4.3339554 q -0.38402,0.548602 -0.76804,0.548602 -0.2743,0 -0.2743,-0.274301 0,-0.329161 0.16458,-0.658322 l 2.90759,-4.8276976 q 0.32916,-0.548602 0.8229,-0.548602 0.65832,0 0.65832,0.8777632 0,0.2194408 -0.16458,0.548602 z"
           style="font-style:normal;font-variant:normal;font-weight:normal;font-stretch:normal;font-size:54.8602px;font-family:'Mr De Haviland';-inkscape-font-specification:'Mr De Haviland, Normal';font-variant-ligatures:normal;font-variant-caps:normal;font-variant-numeric:normal;font-variant-east-asian:normal;stroke-width:0.264583"
           id="path2366" />
        <path
           d="m 303.64335,28.070714 q -2.63329,2.413849 -3.34648,2.413849 -0.21944,0 -0.21944,-0.219441 0,-0.21944 0.16458,-0.384021 1.31665,-0.713183 3.07218,-2.304128 -0.27431,-0.658323 -0.27431,-1.426366 0,-1.865246 1.92011,-3.565913 1.92011,-1.700666 3.23675,-1.700666 0.71319,0 0.71319,0.713183 0,0.658322 -2.19441,3.291612 -0.21944,0.274301 -0.49374,0.548602 -0.2743,0.274301 -0.60347,0.658322 -0.2743,0.329161 -0.43888,0.493742 0.2743,0.274301 0.98749,0.987484 0.71318,0.658322 1.15206,1.097204 1.20692,1.206924 1.20692,3.017311 0,1.810386 -2.24926,3.127031 -2.24927,1.371505 -4.71798,1.371505 -2.41385,0 -2.41385,-1.481226 0,-1.426365 2.24927,-2.633289 2.24927,-1.206924 4.71798,-1.645806 -0.32917,-0.438882 -1.26179,-1.152064 -0.87776,-0.713183 -1.20692,-1.206925 z m 2.85273,3.017311 q -1.86525,0.219441 -3.51106,1.042344 -1.6458,0.768043 -1.6458,1.865247 0,1.042344 1.48122,1.042344 1.53609,0 2.68815,-0.713183 1.20693,-0.713183 1.20693,-1.590946 0,-0.877763 -0.21944,-1.645806 z m -1.70067,-4.937418 1.42637,-1.536085 q 1.42636,-1.700666 1.42636,-2.029828 0,-0.384021 -0.32916,-0.384021 -0.93262,0 -1.92011,0.932623 -0.98748,0.877764 -0.98748,1.755527 0,0.822903 0.38402,1.261784 z"
           style="font-style:normal;font-variant:normal;font-weight:normal;font-stretch:normal;font-size:54.8602px;font-family:'Mr De Haviland';-inkscape-font-specification:'Mr De Haviland, Normal';font-variant-ligatures:normal;font-variant-caps:normal;font-variant-numeric:normal;font-variant-east-asian:normal;stroke-width:0.264583"
           id="path2368" />
      </g>
      <path
         id="path859"
         style="fill:#231f20;fill-opacity:1;stroke:none;stroke-width:14.3622;stroke-linecap:round;stroke-linejoin:round;stroke-miterlimit:4;stroke-dasharray:none;stroke-opacity:1;filter:url(#filter869-7)"
         d="m 2747.1309,-982.9043 c -0.5248,0.1879 -0.9166,5.64172 -5.4493,16.44336 l -136.0488,135.20703 c -18.1604,12.2442 -21.2597,3.49017 -1.0781,12.1211 13.267,18.93622 23.1375,39.03541 32.4219,56.58984 16.4349,31.07422 38.9195,74.64267 34.5683,129.74414 -0.01,0.0911 -0.012,0.18235 -0.016,0.27344 -2.0731,41.63259 -13.7807,84.5216 -40.1641,135.51562 -0.7172,0.83067 -1.2843,1.77946 -1.6757,2.80469 -0.3704,0.9724 -0.8431,1.90496 -1.4102,2.77735 -28.6617,42.87586 -38.6036,93.70734 -46.3125,150.79687 -0.053,0.40139 -0.081,0.80608 -0.082,1.21094 -0.364,66.8174 17.3869,120.27332 75.6425,184.01562 27.0529,29.60077 64.623,54.91775 163.25,65.667972 95.3891,10.992 148.5981,4.210432 227.5977,59.46875 3.3553,2.365077 2.9693,10.019053 11.1328,-0.177734 67.7104,-51.886186 136.0171,-52.148591 223.7461,-62.958985 98.4202,-12.509403 135.5271,-38.491883 162.0469,-68.570313 57.1185,-64.78329 73.9142,-118.56998 72.3496,-185.39062 -0.011,-0.40551 -0.049,-0.80825 -0.1113,-1.20899 -8.5349,-55.67792 -19.3696,-105.20983 -47.3536,-146.98242 -0.359,-1.51446 -1.0875,-2.91654 -2.1191,-4.08203 -0.6756,-0.76199 -1.2678,-1.59549 -1.7715,-2.48047 -28.0114,-51.33725 -40.623,-94.48659 -43.4863,-136.57813 l -0.023,-0.27343 c -5.3637,-55.04773 16.328,-99.03517 32.2148,-130.41602 8.9705,-17.71933 18.4908,-37.98478 31.418,-57.15039 13.5096,-12.75485 8.102,-12.83233 -1.293,-12.10742 l -138.4473,-132.76172 c -2.9959,-9.7745 -5.1192,-10.10563 -11.7148,-1.08594 -35.7783,23.43905 -81.4629,34.66772 -132.9473,38.11914 -0.8732,0.0427 -1.7463,0.013 -2.6133,-0.10156 -0.9178,-0.11792 -1.8489,-0.10153 -2.7617,0.0508 -41.2803,-1.28912 -90.8029,-10.63023 -148.998,-39.07226 -1.2933,-0.74727 -2.6268,-7.98083 -4.1758,-1.01172 -2.7088,-6.37554 -3.0285,0.34562 -4.3848,1.04101 -57.344,29.35242 -105.7117,39.28561 -146.7441,41.29492 -0.9105,-0.13379 -1.8357,-0.13379 -2.7461,0 -0.8666,0.12926 -1.7454,0.18114 -2.6211,0.1543 -51.5313,-2.53376 -97.4105,-12.93929 -133.5977,-35.73437 -5.0611,-10.26138 -5.7174,-15.34024 -6.2421,-15.15235 z m 296.3437,28.13672 c 59.5672,28.39287 111.4247,38.24709 154.4512,39.36719 0.7514,0.0189 1.5019,-0.053 2.2363,-0.21289 0.9665,0.034 1.9278,0.16002 2.8945,0.10937 0.047,-0.002 0.094,-0.004 0.1407,-0.008 50.6001,-3.38343 96.9062,-14.40812 135.3398,-37.52148 l 128.1113,122.85742 c -11.6149,18.42198 -20.7255,36.88369 -28.5078,52.25586 -9.3784,18.52493 -21.5806,42.87832 -28.8437,72.17773 h -727.1758 c -7.8446,-26.47793 -19.4129,-48.5583 -28.4414,-65.6289 -8.0529,-15.2261 -17.4898,-33.52329 -29.4317,-51.74024 l 125.8985,-125.12305 c 38.8432,22.42595 85.342,32.61416 135.9961,35.09376 0.049,0.003 0.099,0.004 0.1484,0.008 0.963,0.034 1.9177,-0.11147 2.8789,-0.16211 0.7386,0.14589 1.492,0.2028 2.2442,0.16992 42.7101,-1.87529 93.4464,-12.38394 152.0586,-41.64062 z m -355.2363,275.36719 h 716.2246 c -1.5701,13.25641 -1.9249,27.30986 -0.4941,42.11328 3.0786,44.97245 16.7595,91.13215 45.7675,144.2793 0.019,0.0378 0.039,0.0727 0.059,0.10937 0.5621,0.99765 1.3263,1.85729 1.9863,2.79102 0.282,0.82556 0.6772,1.60897 1.1739,2.32617 26.555,38.17837 37.188,85.45212 45.7969,141.44336 1.3863,63.3027 -12.7984,109.68127 -67.625,171.86523 -24.5485,27.84254 -54.3548,50.1289 -150.2579,62.31836 -33.5305,4.26187 -82.7685,6.35786 -142.1972,20.617191 -0.087,0.01512 -0.1732,0.03875 -0.2598,0.05273 l -0.037,0.0059 c -0.098,0.02268 -0.1834,0.0356 -0.2812,0.06055 -0.026,0.0038 -0.048,0.0099 -0.072,0.01367 l -0.031,0.0078 c -0.4875,0.09487 -0.978,0.186325 -1.4609,0.302734 -0.026,0.0038 -0.05,0.01184 -0.074,0.01563 -32.51,7.964787 -59.2343,24.324552 -82.8164,41.619141 -23.2001,-15.906293 -49.1549,-30.368962 -98.3418,-42.289063 -49.187,-11.920103 -98.7122,-13.086143 -132.4688,-16.765623 -96.1045,-10.47526 -126.3097,-32.23842 -151.3515,-59.63867 -55.9295,-61.19706 -70.9348,-107.30111 -70.6797,-170.61719 7.6082,-56.14197 17.3888,-103.60361 43.2578,-142.25 0.023,-0.034 0.044,-0.0691 0.066,-0.10352 0.6207,-0.95501 1.0231,-2.02938 1.543,-3.04101 0.606,-0.63659 1.1196,-1.35408 1.5273,-2.13282 28.0756,-53.6968 40.9394,-100.11766 43.1992,-145.17968 1.3289,-17.02304 0.3302,-33.0222 -2.1523,-47.92383 z"
         transform="matrix(0.26458333,0,0,0.26458333,-248.22444,-43.0899)" />
      <path
         style="color:#000000;font-style:normal;font-variant:normal;font-weight:normal;font-stretch:normal;font-size:medium;line-height:normal;font-family:sans-serif;font-variant-ligatures:normal;font-variant-position:normal;font-variant-caps:normal;font-variant-numeric:normal;font-variant-alternates:normal;font-variant-east-asian:normal;font-feature-settings:normal;font-variation-settings:normal;text-indent:0;text-align:start;text-decoration:none;text-decoration-line:none;text-decoration-style:solid;text-decoration-color:#000000;letter-spacing:normal;word-spacing:normal;text-transform:none;writing-mode:lr-tb;direction:ltr;text-orientation:mixed;dominant-baseline:auto;baseline-shift:baseline;text-anchor:start;white-space:normal;shape-padding:0;shape-margin:0;inline-size:0;clip-rule:nonzero;display:inline;overflow:visible;visibility:visible;isolation:auto;mix-blend-mode:normal;color-interpolation:sRGB;color-interpolation-filters:linearRGB;solid-color:#000000;solid-opacity:1;vector-effect:none;fill:#ba6211;fill-opacity:1;fill-rule:nonzero;stroke:none;stroke-linecap:butt;stroke-linejoin:round;stroke-miterlimit:4;stroke-dasharray:none;stroke-dashoffset:0;stroke-opacity:1;filter:url(#filter869-7);color-rendering:auto;image-rendering:auto;shape-rendering:auto;text-rendering:auto;enable-background:accumulate;stop-color:#000000"
         d="m 636.09847,-310.62157 a 4.000395,4.000395 0 0 0 -2.61914,0.94922 c -8.14319,6.90511 -20.17545,10.50715 -35.05273,11.50195 -0.0662,0.004 -0.13288,0.006 -0.19922,0.004 -10.83796,-0.28215 -23.50627,-2.48389 -39.42969,-10.83008 a 4.000395,4.000395 0 0 0 -3.7793,0.0352 c -15.71457,8.60534 -27.97674,10.92963 -38.7871,11.40429 -0.065,0.003 -0.13035,0.003 -0.19532,0 a 4.000395,4.000395 0 0 0 -0.004,-0.002 c -14.89311,-0.72905 -26.98856,-4.11223 -35.25391,-10.87109 a 4.000395,4.000395 0 0 0 -5.35156,0.25781 l -43.79883,43.5293 a 4.000395,4.000395 0 0 0 -0.1875,5.47461 c 4.45735,5.08616 7.7691,11.76603 11.07031,18.00781 4.30847,8.14622 9.24183,17.9284 8.25391,30.10351 a 4.000395,4.000395 0 0 0 -0.01,0.13086 c -0.48537,10.02408 -3.17987,20.17207 -9.99219,33.20118 -0.035,0.0662 -0.0735,0.13117 -0.11523,0.19335 a 4.000395,4.000395 0 0 0 -0.004,0.006 c -8.79662,13.14153 -11.51786,28.14305 -13.5996,43.68164 a 4.000395,4.000395 0 0 0 -0.0352,0.49415 c -0.17847,19.41282 5.54007,36.35675 22.08594,54.46093 8.26868,9.04744 20.86463,16.91761 48.1582,19.89258 9.97206,1.08695 22.12534,1.33421 36.83594,4.64649 a 4.000395,4.000395 0 0 0 0.0195,0.006 c 8.07327,1.82576 15.96142,6.76676 23.38476,12.33399 a 4.000395,4.000395 0 0 0 4.88868,-0.0684 c 7.10172,-5.64294 14.28819,-10.63127 22.31445,-12.59766 a 4.000395,4.000395 0 0 0 0.006,-0.002 c 14.65573,-3.57761 26.80597,-4.04147 36.75976,-5.30664 27.236,-3.46176 39.68893,-11.55625 47.79493,-20.75 16.22064,-18.39731 21.63485,-35.44003 21.10937,-54.84766 a 4.000395,4.000395 0 0 0 -0.043,-0.49414 c -2.35853,-15.49626 -5.34823,-30.44354 -14.375,-43.42383 l -0.004,-0.004 c -0.0428,-0.062 -0.0812,-0.12523 -0.11719,-0.19141 a 4.000395,4.000395 0 0 0 -0.002,-0.006 c -7.03898,-12.89647 -9.91314,-22.99273 -10.58007,-33 a 4.000395,4.000395 0 0 0 -0.0117,-0.13086 c -1.21239,-12.16501 3.54453,-22.03772 7.70898,-30.26367 3.18895,-6.29909 6.38364,-13.03803 10.75,-18.20312 a 4.000395,4.000395 0 0 0 -0.28515,-5.46875 l -44.57227,-42.74024 a 4.000395,4.000395 0 0 0 -2.73633,-1.11328 z m -0.34375,9.24219 39.56641,37.9414 c -4.00829,5.53697 -6.89572,11.55345 -9.51563,16.72852 -4.20087,8.29789 -9.96762,19.9762 -8.53711,34.58984 0.75309,11.18443 4.09466,22.61771 11.53125,36.24414 0.17443,0.32078 0.36624,0.63349 0.57422,0.9336 a 4.000395,4.000395 0 0 0 0.004,0.004 c 7.80252,11.21773 10.67736,24.66962 12.99023,39.80274 0.43931,17.77812 -3.94545,31.91032 -19.11132,49.11133 -7.06563,8.01377 -16.74469,14.78952 -42.80274,18.10156 -9.36011,1.18971 -22.16508,1.69107 -37.6543,5.47266 a 4.000395,4.000395 0 0 0 -0.65625,0.22265 c -8.59288,2.2564 -15.78731,7.00469 -22.32812,12.04883 -7.12829,-5.15333 -15.00394,-9.94562 -23.92578,-11.9668 a 4.000395,4.000395 0 0 0 -0.0254,-0.006 c -15.55418,-3.50442 -28.3642,-3.77641 -37.74414,-4.79882 -26.11289,-2.84628 -35.91153,-9.45147 -43.11914,-17.33789 -15.47192,-16.92909 -20.10881,-30.97716 -19.98633,-48.76172 2.04193,-15.1686 4.67603,-28.66821 12.27344,-40.02149 l 0.004,-0.006 c 0.20237,-0.30174 0.38779,-0.61384 0.55664,-0.93554 a 4.000395,4.000395 0 0 0 0.004,-0.006 c 7.19292,-13.75705 10.33269,-25.24613 10.88672,-36.44336 1.17093,-14.6405 -4.81002,-26.21815 -9.15821,-34.43946 -2.71106,-5.12595 -5.70296,-11.08963 -9.80859,-16.55468 l 38.88086,-38.64258 c 9.84723,6.77771 22.57616,9.82574 36.98828,10.53125 l -0.004,-0.002 c 0.31369,0.0157 0.62763,0.0174 0.94141,0.004 a 4.000395,4.000395 0 0 0 0.004,0 c 11.2668,-0.4947 24.53134,-3.15567 40.39844,-11.48437 16.10628,8.08233 29.7081,10.58392 41.03906,10.8789 0.31403,0.008 0.62797,10e-4 0.9414,-0.0195 14.39698,-0.96268 27.06871,-4.23739 36.79297,-11.18945 z m -99.82812,239.24414 0.32422,0.0918 a 4.000395,4.000395 0 0 0 -0.32422,-0.0918 z"
         id="path863" />
    </g>
  </g>
</svg>
