<?xml version="1.0" encoding="UTF-8" standalone="no"?>
<svg
   xmlns:dc="http://purl.org/dc/elements/1.1/"
   xmlns:cc="http://creativecommons.org/ns#"
   xmlns:rdf="http://www.w3.org/1999/02/22-rdf-syntax-ns#"
   xmlns:svg="http://www.w3.org/2000/svg"
   xmlns="http://www.w3.org/2000/svg"
   xmlns:sodipodi="http://sodipodi.sourceforge.net/DTD/sodipodi-0.dtd"
   xmlns:inkscape="http://www.inkscape.org/namespaces/inkscape"
   width="62.601955mm"
   height="10.147878mm"
   viewBox="0 0 62.601956 10.147878"
   version="1.1"
   id="svg8"
   inkscape:version="1.0.1 (3bc2e813f5, 2020-09-07)"
   sodipodi:docname="sweet-lous-services.svg">
  <title
     id="title1070">Sweet Lou's Services</title>
  <defs
     id="defs2" />
  <sodipodi:namedview
     id="base"
     pagecolor="#ffffff"
     bordercolor="#666666"
     borderopacity="1.0"
     inkscape:pageopacity="0.0"
     inkscape:pageshadow="2"
     inkscape:zoom="6.4623669"
     inkscape:cx="125.15983"
     inkscape:cy="13.432589"
     inkscape:document-units="mm"
     inkscape:current-layer="g847"
     inkscape:document-rotation="0"
     showgrid="false"
     inkscape:window-width="2560"
     inkscape:window-height="1506"
     inkscape:window-x="-11"
     inkscape:window-y="-11"
     inkscape:window-maximized="1"
     fit-margin-top="0"
     fit-margin-left="0"
     fit-margin-right="0"
     fit-margin-bottom="0"
     inkscape:showpageshadow="false" />
  <metadata
     id="metadata5">
    <rdf:RDF>
      <cc:Work
         rdf:about="">
        <dc:format>image/svg+xml</dc:format>
        <dc:type
           rdf:resource="http://purl.org/dc/dcmitype/StillImage" />
        <dc:title>Sweet Lou's Services</dc:title>
      </cc:Work>
    </rdf:RDF>
  </metadata>
  <g
     inkscape:label="Layer 1"
     inkscape:groupmode="layer"
     id="layer1"
     transform="translate(-19.294427,-34.394728)">
    <g
       id="g847">
      <path
         id="path886"
         style="font-style:normal;font-variant:normal;font-weight:normal;font-stretch:normal;font-size:11.2889px;line-height:1.25;font-family:'Retro Sign';-inkscape-font-specification:'Retro Sign, Normal';font-variant-ligatures:normal;font-variant-caps:normal;font-variant-numeric:normal;font-variant-east-asian:normal;fill:#ba6211;fill-opacity:1;stroke:#5d3108;stroke-width:0.23;stroke-miterlimit:4;stroke-dasharray:none;stroke-opacity:1"
         d="m 22.073347,34.510369 c -0.07902,-0.0038 -0.162015,0.0092 -0.248564,0.03927 -0.105363,0.03011 -0.199368,0.07186 -0.282153,0.124541 -0.08279,0.05268 -0.165261,0.112617 -0.248047,0.18035 -0.421452,0.361245 -0.767763,0.794392 -1.038696,1.298629 -0.09784,0.173097 -0.187999,0.345735 -0.270785,0.518832 -0.07526,0.173096 -0.150566,0.350094 -0.225826,0.530717 -0.09784,0.24083 -0.18083,0.489292 -0.248563,0.745174 -0.06021,0.248356 -0.09376,0.503987 -0.101286,0.767395 0,0.188148 0.02587,0.361303 0.07855,0.519348 0.06021,0.150519 0.147044,0.267581 0.259933,0.350366 0.120414,0.07526 0.255658,0.131349 0.406176,0.168982 0.105364,0.02257 0.21474,0.03795 0.327629,0.04547 0.112889,0.0075 0.221749,0.01854 0.327112,0.03359 0.346192,0.04516 0.681491,0.101765 1.005106,0.169499 0.105363,0.01505 0.21038,0.03759 0.315743,0.0677 0.105364,0.03011 0.207055,0.07134 0.304891,0.124023 0.08279,0.04516 0.150409,0.124306 0.203089,0.237195 0.06021,0.105363 0.06405,0.214223 0.01137,0.327112 -0.05268,0.120415 -0.109292,0.229791 -0.169498,0.327628 -0.03763,0.05268 -0.07503,0.10545 -0.112655,0.15813 -0.03011,0.04516 -0.06418,0.09024 -0.101803,0.135392 -0.120415,0.158045 -0.255657,0.300974 -0.406176,0.428915 -0.142993,0.120416 -0.312305,0.210578 -0.50798,0.270784 -0.180622,0.06021 -0.346091,0.06405 -0.49661,0.01137 -0.06021,-0.03011 -0.109134,-0.04496 -0.146761,-0.04496 -0.04515,0.0075 -0.08306,-1.58e-4 -0.113172,-0.02274 -0.0301,-0.02257 -0.05981,-0.04896 -0.08992,-0.07906 -0.09031,-0.08278 -0.169461,-0.17679 -0.237195,-0.282153 -0.06021,-0.11289 -0.109135,-0.229435 -0.146761,-0.34985 -0.01505,-0.02257 -0.02658,-0.04512 -0.03411,-0.0677 -0.0075,-0.0301 -0.01854,-0.05648 -0.03359,-0.07906 -0.08279,-0.09784 -0.15425,-0.09399 -0.214456,0.01137 -0.08278,0.150519 -0.101998,0.315988 -0.05684,0.496611 0.0301,0.150518 0.0757,0.29729 0.135909,0.440283 0.06021,0.142993 0.131672,0.278236 0.214457,0.406177 0.04515,0.06021 0.08639,0.124503 0.124024,0.192236 0.04516,0.07526 0.09792,0.139039 0.15813,0.191719 0.293511,0.248357 0.620607,0.327507 0.981852,0.237194 0.127941,-0.03763 0.24833,-0.09424 0.361218,-0.169497 0.11289,-0.06773 0.222266,-0.143041 0.327629,-0.225826 0.263408,-0.210726 0.492656,-0.470201 0.68833,-0.778764 0.08279,-0.127941 0.158093,-0.256015 0.225826,-0.383956 0.06773,-0.127941 0.128187,-0.267027 0.180868,-0.417546 0.135469,-0.4064 0.146478,-0.820332 0.03359,-1.241784 -0.03011,-0.09031 -0.0675,-0.173305 -0.112654,-0.248564 -0.03763,-0.08279 -0.09808,-0.15425 -0.180868,-0.214457 -0.08279,-0.05268 -0.165262,-0.101608 -0.248047,-0.146761 -0.08279,-0.04515 -0.172948,-0.07871 -0.270784,-0.101286 -0.24083,-0.06021 -0.482124,-0.120661 -0.722954,-0.180868 -0.233304,-0.0602 -0.470237,-0.109127 -0.711067,-0.146761 l -0.293522,-0.04496 c -0.09784,-0.01505 -0.195685,-0.04143 -0.293523,-0.07906 -0.07526,-0.02258 -0.150566,-0.06433 -0.225826,-0.12454 -0.04515,-0.03763 -0.0787,-0.07887 -0.101286,-0.124024 -0.02258,-0.04516 -0.02258,-0.101248 0,-0.168982 0.0075,-0.01505 0.01137,-0.02658 0.01137,-0.03411 0,-0.01505 0.0033,-0.02991 0.01085,-0.04496 0.03763,-0.165571 0.08655,-0.327714 0.14676,-0.485759 0.06021,-0.158045 0.120661,-0.315828 0.180868,-0.473873 0.127941,-0.316089 0.289568,-0.602464 0.485242,-0.858345 0.195674,-0.263408 0.41391,-0.507511 0.65474,-0.733289 0.06773,-0.06021 0.139198,-0.112976 0.214457,-0.15813 0.08279,-0.05268 0.173464,-0.08291 0.271302,-0.09043 0.05268,0 0.09392,0.0077 0.124023,0.02274 0.06774,0.0301 0.120503,0.0862 0.15813,0.168982 0.06021,0.127941 0.09043,0.259858 0.09043,0.395325 0.0075,0.135466 0.0037,0.270709 -0.01137,0.406176 -0.01505,0.135467 -0.03426,0.271227 -0.05684,0.406694 -0.01505,0.135467 -0.0376,0.266867 -0.0677,0.394808 -0.0075,0.03763 -0.01469,0.0717 -0.02222,0.101802 0,0.0301 0.0038,0.06033 0.01137,0.09043 0,0.05268 0.02587,0.08623 0.07855,0.101286 0.03763,0.0075 0.0717,-0.0073 0.101802,-0.04496 0.04515,-0.06021 0.07538,-0.109135 0.09043,-0.146762 0.210726,-0.504238 0.319585,-1.023703 0.327112,-1.558044 0,-0.361245 -0.07531,-0.669644 -0.225826,-0.925525 -0.07526,-0.127941 -0.184119,-0.229632 -0.327112,-0.304891 -0.0715,-0.03763 -0.146804,-0.05825 -0.225826,-0.06201 z m 36.903175,0 c -0.07902,-0.0038 -0.161499,0.0092 -0.248047,0.03927 -0.105365,0.03011 -0.199369,0.07186 -0.282155,0.124541 -0.08279,0.05268 -0.165777,0.112617 -0.248562,0.18035 -0.421455,0.361245 -0.767763,0.794392 -1.038696,1.298629 -0.09784,0.173097 -0.188,0.345735 -0.270786,0.518832 -0.07526,0.173096 -0.150566,0.350094 -0.225827,0.530717 -0.09783,0.24083 -0.180829,0.489292 -0.248562,0.745174 -0.06021,0.248356 -0.09376,0.503987 -0.101286,0.767395 0,0.188148 0.02638,0.361303 0.07906,0.519348 0.06021,0.150519 0.146529,0.267581 0.259416,0.350366 0.120417,0.07526 0.256175,0.131349 0.406694,0.168982 0.105362,0.02257 0.214222,0.03795 0.327112,0.04547 0.11289,0.0075 0.222266,0.01854 0.327628,0.03359 0.346194,0.04516 0.680977,0.101765 1.004592,0.169499 0.105362,0.01505 0.21038,0.03759 0.315743,0.0677 0.105362,0.03011 0.207052,0.07134 0.30489,0.124023 0.08279,0.04516 0.150926,0.124306 0.203604,0.237195 0.06021,0.105363 0.06353,0.214223 0.01085,0.327112 -0.05268,0.120415 -0.108776,0.229791 -0.168984,0.327628 -0.03763,0.05268 -0.07554,0.10545 -0.113171,0.15813 -0.03011,0.04516 -0.06366,0.09024 -0.101285,0.135392 -0.120414,0.158045 -0.256175,0.300974 -0.406693,0.428915 -0.142994,0.120416 -0.312307,0.210578 -0.507979,0.270784 -0.180623,0.06021 -0.346094,0.06405 -0.496613,0.01137 -0.0602,-0.03011 -0.109127,-0.04496 -0.146759,-0.04496 -0.04515,0.0075 -0.08255,-1.58e-4 -0.112657,-0.02274 -0.0301,-0.02257 -0.06032,-0.04896 -0.09043,-0.07906 -0.09031,-0.08278 -0.169463,-0.17679 -0.237196,-0.282153 -0.06021,-0.11289 -0.109133,-0.229435 -0.146759,-0.34985 -0.01505,-0.02257 -0.02658,-0.04512 -0.03411,-0.0677 -0.0075,-0.0301 -0.01854,-0.05648 -0.03359,-0.07906 -0.08279,-0.09784 -0.154252,-0.09399 -0.214458,0.01137 -0.08278,0.150519 -0.101481,0.315988 -0.05633,0.496611 0.0301,0.150518 0.07519,0.29729 0.135392,0.440283 0.06021,0.142993 0.131673,0.278236 0.214456,0.406177 0.04515,0.06021 0.08639,0.124503 0.124026,0.192236 0.04516,0.07526 0.09792,0.139039 0.158128,0.191719 0.293513,0.248357 0.621125,0.327507 0.982369,0.237194 0.127942,-0.03763 0.24833,-0.09424 0.361219,-0.169497 0.112888,-0.06773 0.221748,-0.143041 0.32711,-0.225826 0.263409,-0.210726 0.493173,-0.470201 0.688848,-0.778764 0.08279,-0.127941 0.158094,-0.256015 0.225827,-0.383956 0.06773,-0.127941 0.12767,-0.267027 0.180351,-0.417546 0.135466,-0.4064 0.146994,-0.820332 0.03411,-1.241784 -0.0301,-0.09031 -0.06802,-0.173305 -0.113171,-0.248564 -0.03763,-0.08279 -0.09757,-0.15425 -0.18035,-0.214457 -0.08279,-0.05268 -0.16578,-0.101608 -0.248566,-0.146761 -0.08279,-0.04515 -0.172945,-0.07871 -0.270782,-0.101286 -0.240832,-0.06021 -0.481608,-0.120661 -0.722437,-0.180868 -0.233304,-0.0602 -0.470755,-0.109127 -0.711584,-0.146761 l -0.293523,-0.04496 c -0.09784,-0.01505 -0.195686,-0.04143 -0.293524,-0.07906 -0.07526,-0.02258 -0.150047,-0.06433 -0.225308,-0.12454 -0.04515,-0.03763 -0.07922,-0.07887 -0.101801,-0.124024 -0.02258,-0.04516 -0.02258,-0.101248 0,-0.168982 0.0075,-0.01505 0.01137,-0.02658 0.01137,-0.03411 0,-0.01505 0.0038,-0.02991 0.01137,-0.04496 0.03763,-0.165571 0.08656,-0.327714 0.146762,-0.485759 0.06021,-0.158045 0.120145,-0.315828 0.180351,-0.473873 0.127942,-0.316089 0.289568,-0.602464 0.485243,-0.858345 0.195673,-0.263408 0.414427,-0.507511 0.655256,-0.733289 0.06773,-0.06021 0.139198,-0.112976 0.214458,-0.15813 0.08279,-0.05268 0.172948,-0.08291 0.270783,-0.09043 0.05268,0 0.09392,0.0077 0.124023,0.02274 0.06773,0.0301 0.120497,0.0862 0.158131,0.168982 0.06021,0.127941 0.09043,0.259858 0.09043,0.395325 0.0075,0.135466 0.0037,0.270709 -0.01137,0.406176 -0.01505,0.135467 -0.03375,0.271227 -0.05633,0.406694 -0.01505,0.135467 -0.03759,0.266867 -0.0677,0.394808 -0.0075,0.03763 -0.01521,0.0717 -0.02274,0.101802 0,0.0301 0.0038,0.06033 0.01137,0.09043 0,0.05268 0.02638,0.08623 0.07907,0.101286 0.03763,0.0075 0.07118,-0.0073 0.101285,-0.04496 0.04515,-0.06021 0.07538,-0.109135 0.09043,-0.146762 0.210725,-0.504238 0.320101,-1.023703 0.327629,-1.558044 0,-0.361245 -0.07531,-0.669644 -0.225828,-0.925525 -0.07526,-0.127941 -0.184634,-0.229632 -0.327628,-0.304891 -0.0715,-0.03763 -0.146804,-0.05825 -0.225824,-0.06201 z m -17.784961,0.117305 c -0.06444,0.0028 -0.130188,0.01444 -0.197922,0.03514 -0.04515,0.01505 -0.08691,0.03375 -0.124539,0.05633 -0.03763,0.02257 -0.07503,0.04896 -0.112657,0.07906 -0.127939,0.09031 -0.244486,0.195845 -0.349848,0.31626 -0.09784,0.112889 -0.188516,0.233278 -0.271301,0.361218 -0.127942,0.195675 -0.236802,0.398539 -0.327112,0.609265 -0.09031,0.2032 -0.169461,0.414268 -0.237194,0.63252 -0.11289,0.361245 -0.203052,0.726253 -0.270785,1.095023 -0.06021,0.368771 -0.101444,0.740948 -0.124024,1.117245 -0.01505,0.263407 -0.02274,0.523398 -0.02274,0.77928 0,0.248357 0.01485,0.503988 0.04496,0.767396 0.01505,0.195674 0.03426,0.387527 0.05685,0.575675 0.03011,0.188149 0.06366,0.380518 0.101285,0.576192 l 0.04496,0.203089 c 0.01505,0.06773 0.03042,0.139197 0.04548,0.214457 -0.07526,0.0075 -0.146725,0.0075 -0.214458,0 -0.06021,-0.0075 -0.124503,-0.0075 -0.192236,0 -0.05268,0.0075 -0.101608,0.01854 -0.146762,0.03359 -0.04515,0.01505 -0.08255,0.04144 -0.112654,0.07906 -0.08279,0.09031 -0.15041,0.184316 -0.203089,0.282154 -0.05268,0.09784 -0.07906,0.211056 -0.07906,0.338997 0,0.188145 0.09401,0.297005 0.282154,0.327112 0.04516,0.01505 0.09024,0.0189 0.135392,0.01137 h 0.124024 c 0.233304,-0.01505 0.463068,-0.02991 0.688845,-0.04496 0.22578,-0.01505 0.455544,-0.03759 0.688848,-0.0677 0.707438,-0.07526 1.384686,-0.293496 2.031916,-0.65474 0.105362,-0.06021 0.165298,-0.135516 0.180353,-0.225826 0.02258,-0.09031 0.01874,-0.184316 -0.01137,-0.282154 -0.0075,-0.06021 -0.04492,-0.07942 -0.112655,-0.05684 -0.03763,0.01505 -0.0717,0.02658 -0.101803,0.03411 -0.02258,0.0075 -0.05229,0.01854 -0.08992,0.03359 -0.08279,0.0301 -0.169622,0.06033 -0.259935,0.09043 -0.08279,0.0301 -0.165261,0.05264 -0.248047,0.0677 -0.127939,0.02257 -0.252172,0.04512 -0.372586,0.0677 -0.112887,0.01505 -0.233278,0.03042 -0.361217,0.04548 -0.120415,0.01505 -0.240803,0.0299 -0.36122,0.04496 -0.120415,0.0075 -0.244647,0.0075 -0.372586,0 -0.05268,-0.0075 -0.07907,-0.03391 -0.07907,-0.07906 -0.01505,-0.158045 -0.03759,-0.311985 -0.0677,-0.462504 -0.0301,-0.158045 -0.05648,-0.316345 -0.07906,-0.474389 -0.03763,-0.195675 -0.06785,-0.395213 -0.09043,-0.598414 -0.01505,-0.2032 -0.02658,-0.402739 -0.03411,-0.598413 -0.01505,-0.293511 -0.01505,-0.587055 0,-0.880566 0.01505,-0.301037 0.04528,-0.597907 0.09043,-0.891418 0.03763,-0.255882 0.08271,-0.508187 0.135392,-0.756543 0.06021,-0.255882 0.13167,-0.508188 0.214456,-0.756543 0.07526,-0.248356 0.203335,-0.477604 0.383955,-0.688331 0.06021,-0.07526 0.131673,-0.124181 0.214458,-0.14676 0.09031,-0.02258 0.180991,-0.03411 0.271301,-0.03411 0.01506,0 0.02606,0.0038 0.03359,0.01137 0.0075,0.0075 0.01905,0.01521 0.0341,0.02274 0.06021,0.05268 0.112461,0.105449 0.157612,0.158129 0.05269,0.05268 0.09828,0.116461 0.135911,0.19172 0.173093,0.353719 0.270941,0.748953 0.293521,1.185457 0.01506,0.225778 0.0074,0.4517 -0.02274,0.677478 -0.02258,0.225778 -0.06381,0.447341 -0.124024,0.665593 -0.01505,0.0602 -0.01889,0.105802 -0.01137,0.135909 0.01505,0.05268 0.04144,0.08239 0.07906,0.08992 0.03763,0.0075 0.07118,-0.0073 0.101288,-0.04496 0.0301,-0.03763 0.05264,-0.07554 0.0677,-0.113171 0.02257,-0.03763 0.04179,-0.07502 0.05684,-0.112655 0.0602,-0.135466 0.105285,-0.27071 0.135392,-0.406176 0.0301,-0.142993 0.05648,-0.286438 0.07907,-0.429432 0.02257,-0.180622 0.04127,-0.360946 0.05633,-0.541569 0.02258,-0.180622 0.02642,-0.365306 0.01137,-0.553454 -0.01505,-0.195674 -0.04143,-0.387527 -0.07907,-0.575676 -0.03763,-0.195674 -0.08656,-0.383684 -0.146761,-0.564306 -0.03763,-0.142993 -0.0904,-0.278237 -0.158131,-0.406177 -0.06773,-0.127942 -0.157896,-0.245004 -0.270783,-0.350366 -0.163689,-0.1524 -0.342564,-0.223957 -0.535884,-0.215491 z m -6.462657,0.547253 c -0.02117,0.0047 -0.04375,0.0144 -0.06821,0.02946 -0.03763,0.01505 -0.06785,0.03811 -0.09043,0.06821 -0.01505,0.02258 -0.03375,0.04845 -0.05633,0.07855 -0.150516,0.225778 -0.229666,0.470397 -0.237194,0.733805 0,0.09031 -0.0038,0.18099 -0.01137,0.271302 0,0.09031 -0.0038,0.180473 -0.01137,0.270784 0,0.06021 -0.02254,0.09043 -0.0677,0.09043 -0.0301,0 -0.05264,0.0038 -0.0677,0.01137 -0.12794,0.01505 -0.256014,0.03759 -0.383956,0.0677 -0.127939,0.02257 -0.256013,0.05228 -0.383955,0.08992 -0.158044,0.04516 -0.278435,0.146846 -0.361217,0.304891 -0.01506,0.0301 -0.02606,0.06033 -0.03359,0.09043 -0.01505,0.02257 -0.03042,0.0528 -0.04547,0.09043 -0.02258,0.04516 -0.03359,0.09408 -0.03359,0.146761 -0.0075,0.04516 -0.0075,0.09024 0,0.135392 0.01505,0.08279 0.05245,0.146567 0.112657,0.19172 0.05268,0.03763 0.120819,0.04916 0.203604,0.03411 0.0301,-0.0075 0.05981,-0.01521 0.08992,-0.02274 0.02257,-0.0075 0.04896,-0.01521 0.07907,-0.02274 0.06773,-0.0301 0.135871,-0.05597 0.203605,-0.07855 0.06773,-0.0301 0.139197,-0.05649 0.214458,-0.07906 0.07526,-0.02257 0.146722,-0.04512 0.214455,-0.0677 0.06773,-0.02257 0.143042,-0.04179 0.225827,-0.05684 0.01505,0.02257 0.01838,0.04512 0.01085,0.0677 v 0.05684 c -0.0075,0.120415 -0.01085,0.240803 -0.01085,0.361218 0,0.112889 -0.0038,0.229435 -0.01137,0.34985 l -0.02274,0.903304 c 0,0.293511 0.0038,0.590381 0.01137,0.891418 0.0034,0.135192 0.0033,0.270469 0.0052,0.40566 -0.17268,0.125209 -0.346461,0.24779 -0.524515,0.362252 -0.2032,0.135467 -0.41375,0.266867 -0.632002,0.394808 -0.135467,0.08278 -0.271227,0.158092 -0.406694,0.225826 -0.127942,0.06773 -0.263184,0.13203 -0.406178,0.192236 -0.06773,0.03763 -0.139197,0.06017 -0.214455,0.0677 -0.135469,0.02258 -0.233318,-0.03403 -0.293524,-0.169499 l -0.01137,-0.01137 c 0,-0.0075 -0.0038,-0.01469 -0.01137,-0.02222 0.361246,-0.2032 0.605867,-0.421953 0.733806,-0.655257 0.135469,-0.233304 0.199247,-0.454866 0.19172,-0.665592 -0.0075,-0.210727 -0.05645,-0.395411 -0.146762,-0.553455 -0.08279,-0.165571 -0.161417,-0.282116 -0.236678,-0.349849 -0.135466,-0.120418 -0.27891,-0.131944 -0.429429,-0.03411 -0.0301,0.01505 -0.05597,0.03426 -0.07855,0.05684 l -0.06821,0.0677 c -0.120414,0.150519 -0.221588,0.323675 -0.304374,0.519348 -0.08935,0.17869 -0.151521,0.36327 -0.198437,0.551388 -0.183282,0.133884 -0.368747,0.263776 -0.558107,0.385506 -0.2032,0.135467 -0.41375,0.266867 -0.632002,0.394808 -0.135467,0.08278 -0.271227,0.158092 -0.406694,0.225826 -0.127939,0.06773 -0.263184,0.13203 -0.406175,0.192236 -0.06773,0.03763 -0.1392,0.06017 -0.214458,0.0677 -0.135467,0.02258 -0.233315,-0.03403 -0.293523,-0.169499 l -0.01137,-0.01137 c 0,-0.0075 -0.0038,-0.01469 -0.01137,-0.02222 0.361243,-0.2032 0.605864,-0.421953 0.733803,-0.655257 0.13547,-0.233304 0.199247,-0.454866 0.19172,-0.665592 -0.0075,-0.210727 -0.05645,-0.395411 -0.146759,-0.553455 -0.08279,-0.165571 -0.16142,-0.282116 -0.23668,-0.349849 -0.135467,-0.120418 -0.278395,-0.131944 -0.428914,-0.03411 -0.0301,0.01505 -0.05649,0.03426 -0.07906,0.05684 l -0.0677,0.0677 c -0.120414,0.150519 -0.222104,0.323675 -0.30489,0.519348 -0.112892,0.225778 -0.192042,0.458869 -0.237196,0.699699 -0.0042,0.02603 -0.006,0.05158 -0.0098,0.07751 -0.111148,0.101253 -0.22444,0.169964 -0.340029,0.204638 -0.150519,0.03763 -0.327517,0.02994 -0.530717,-0.02274 -0.06021,-0.01505 -0.09428,-0.02606 -0.101804,-0.03359 -0.0075,-0.01505 -0.0037,-0.05296 0.01137,-0.113171 0.0301,-0.210726 0.05264,-0.428963 0.0677,-0.65474 0.0075,-0.127941 0.0042,-0.248329 -0.01085,-0.361219 -0.0075,-0.120414 -0.03059,-0.240803 -0.06821,-0.361218 -0.03763,-0.150519 -0.101406,-0.270907 -0.191719,-0.361218 -0.135467,-0.127942 -0.274553,-0.131784 -0.417545,-0.01137 -0.04516,0.04516 -0.09408,0.113294 -0.146761,0.203605 -0.12794,0.210726 -0.203246,0.458672 -0.225826,0.744658 -0.0075,0.08279 -0.01137,0.165778 -0.01137,0.248563 0,0.07526 0.0077,0.15441 0.02274,0.237195 0.0301,0.142993 0.07518,0.274393 0.135391,0.394808 0.06021,0.120415 0.142685,0.229791 0.248047,0.327628 0.03763,0.0301 0.053,0.07134 0.04548,0.124024 -0.02257,0.07526 -0.04896,0.150567 -0.07907,0.225826 -0.02257,0.06773 -0.04512,0.139198 -0.0677,0.214457 -0.0075,0.03763 -0.03006,0.07554 -0.0677,0.113172 -0.04515,0.08279 -0.101764,0.08995 -0.169498,0.02222 -0.0602,-0.05268 -0.105286,-0.120303 -0.135393,-0.203088 -0.04515,-0.105363 -0.08255,-0.214223 -0.112654,-0.327112 -0.0301,-0.120415 -0.05648,-0.244645 -0.07906,-0.372587 -0.0301,-0.188148 -0.05648,-0.376675 -0.07906,-0.564823 -0.02257,-0.188148 -0.04896,-0.380001 -0.07906,-0.575676 l -0.02274,-0.15813 c -0.0075,-0.05268 -0.02238,-0.104933 -0.04496,-0.157613 -0.04516,-0.135464 -0.116621,-0.154681 -0.214458,-0.05684 -0.04516,0.05268 -0.08691,0.10545 -0.12454,0.15813 -0.03763,0.05268 -0.06401,0.113134 -0.07906,0.180868 -0.0301,0.112888 -0.05597,0.225591 -0.07855,0.33848 -0.02257,0.105363 -0.04563,0.21474 -0.06821,0.327629 -0.03763,0.195674 -0.08271,0.391369 -0.135392,0.587044 -0.05268,0.195674 -0.108775,0.387527 -0.168982,0.575675 0,0.04515 -0.02254,0.0677 -0.0677,0.0677 -0.01505,-0.03763 -0.03042,-0.07554 -0.04547,-0.113172 -0.01505,-0.03763 -0.02991,-0.07887 -0.04496,-0.124023 -0.02257,-0.135467 -0.04512,-0.27071 -0.0677,-0.406177 -0.02258,-0.142993 -0.03411,-0.286438 -0.03411,-0.429431 v -0.756026 c 0,-0.07526 -0.0038,-0.146724 -0.01137,-0.214458 0,-0.07526 -0.01485,-0.146723 -0.04496,-0.214457 -0.06021,-0.1731 -0.15037,-0.19231 -0.270784,-0.05684 -0.07526,0.08279 -0.135714,0.173464 -0.180868,0.271301 -0.04515,0.09031 -0.07154,0.192003 -0.07906,0.304891 -0.01505,0.150519 -0.02222,0.297291 -0.02222,0.440284 0,0.142992 0.0033,0.285921 0.01085,0.428914 0.01505,0.398874 0.0755,0.771051 0.180868,1.117245 0.03763,0.105362 0.08656,0.207053 0.146761,0.30489 0.06021,0.09031 0.1432,0.16562 0.248564,0.225826 0.06774,0.03763 0.123828,0.05633 0.168982,0.05633 0.05268,0 0.109292,-0.02971 0.169499,-0.08992 0.0602,-0.05268 0.105285,-0.109292 0.135392,-0.169499 0.0301,-0.06773 0.06033,-0.135355 0.09043,-0.203088 0.05268,-0.150519 0.09776,-0.304976 0.135393,-0.463021 0.04515,-0.158045 0.08639,-0.319671 0.124023,-0.485242 0.01505,0.01505 0.02274,0.02606 0.02274,0.03359 0,0.0075 0.0038,0.01905 0.01137,0.03411 0.02257,0.142994 0.04896,0.282079 0.07906,0.417546 0.03763,0.135467 0.07502,0.27071 0.112655,0.406177 0.06773,0.240829 0.203494,0.421671 0.406694,0.542085 0.135466,0.09031 0.270709,0.09031 0.406176,0 0.105365,-0.06773 0.184515,-0.146883 0.237196,-0.237194 0.06021,-0.09784 0.112977,-0.199528 0.158128,-0.304891 0.03763,-0.07526 0.06734,-0.15005 0.08992,-0.22531 0.02257,-0.07526 0.0528,-0.154409 0.09043,-0.237194 0.01505,-0.04515 0.02658,-0.07154 0.03411,-0.07906 0.01505,-0.0075 0.04143,-0.0037 0.07907,0.01137 0.255881,0.06021 0.481285,0.04868 0.67696,-0.03411 0.118623,-0.04995 0.224554,-0.115876 0.322461,-0.19172 -0.0015,0.03002 -0.0052,0.06054 -0.0062,0.09043 -3e-6,0.316089 0.04892,0.598104 0.146759,0.84646 0.06021,0.150519 0.169068,0.267065 0.327112,0.349849 0.158043,0.08278 0.327358,0.07177 0.507979,-0.03359 l 0.519348,-0.293522 c 0.173095,-0.09784 0.346252,-0.199528 0.519348,-0.304891 0.240831,-0.158045 0.478282,-0.323514 0.711586,-0.496611 0.115131,-0.08542 0.233918,-0.170894 0.350882,-0.256315 -0.0044,0.06291 -0.01032,0.126286 -0.0124,0.188619 0,0.316089 0.04892,0.598104 0.146761,0.84646 0.06021,0.150519 0.169069,0.267065 0.327113,0.349849 0.158043,0.08278 0.327356,0.07177 0.507979,-0.03359 l 0.519348,-0.293522 c 0.173098,-0.09784 0.346252,-0.199528 0.519348,-0.304891 0.240831,-0.158045 0.477763,-0.323514 0.711067,-0.496611 0.13829,-0.102602 0.280747,-0.205389 0.42168,-0.307991 0.0092,0.268194 0.0297,0.536407 0.06408,0.804602 0.01505,0.105363 0.03375,0.207054 0.05633,0.304891 0.02258,0.09031 0.05997,0.17663 0.112654,0.259415 0.06021,0.105364 0.154731,0.188357 0.28267,0.248564 0.135467,0.06773 0.278397,0.05236 0.428913,-0.04547 0.06021,-0.03763 0.116303,-0.07502 0.168985,-0.112655 0.05268,-0.04516 0.101607,-0.09408 0.146759,-0.146761 l 0.248565,-0.31626 c 0.08279,-0.112888 0.161936,-0.225591 0.237194,-0.33848 0.08278,-0.120415 0.154252,-0.240804 0.214458,-0.361219 0.06773,-0.120415 0.135355,-0.244646 0.203089,-0.372587 0.08279,-0.127941 0.113014,-0.267026 0.09043,-0.417545 -0.0075,-0.02257 -0.01521,-0.04896 -0.02274,-0.07906 0,-0.0301 -0.01485,-0.05264 -0.04496,-0.0677 -0.03763,-0.0075 -0.06785,-3.59e-4 -0.09043,0.02222 -0.02257,0.02257 -0.04127,0.04896 -0.05633,0.07906 -0.05269,0.06773 -0.09777,0.139199 -0.135392,0.214458 -0.03764,0.07526 -0.07555,0.150566 -0.113173,0.225826 -0.09031,0.158044 -0.192,0.308659 -0.30489,0.451652 -0.105363,0.135466 -0.225751,0.267383 -0.361217,0.395325 -0.04516,0.04515 -0.09408,0.0787 -0.146762,0.101285 -0.188145,0.07526 -0.293164,0.01532 -0.315743,-0.18035 -0.01505,-0.105363 -0.03042,-0.203211 -0.04548,-0.293523 -0.0075,-0.09784 -0.01137,-0.199528 -0.01137,-0.304891 v -0.507979 -0.440283 c 0,-0.142993 0.0038,-0.289765 0.01137,-0.440283 0,-0.188149 0.0038,-0.372316 0.01137,-0.552938 l 0.02274,-0.542086 c 0.0075,-0.158044 0.01137,-0.316345 0.01137,-0.47439 0,-0.158044 0.0072,-0.311985 0.02222,-0.462504 0.0075,-0.06021 0.01137,-0.12066 0.01137,-0.180867 v -0.180351 c 0,-0.03763 0.0187,-0.06017 0.05633,-0.0677 0.03763,0 0.06785,-0.0038 0.09043,-0.01137 l 0.564306,-0.04547 c 0.188148,-0.01505 0.380003,-0.01838 0.575675,-0.01085 0.07526,0 0.128024,-0.03791 0.158131,-0.113171 0.01505,-0.01505 0.02274,-0.03375 0.02274,-0.05633 0,-0.02257 0.0038,-0.04512 0.01137,-0.0677 0.01504,-0.127943 -3.23e-4,-0.214779 -0.04548,-0.259932 -0.03763,-0.04515 -0.120105,-0.07486 -0.248047,-0.08992 -0.173095,-0.01505 -0.342408,-0.02274 -0.507978,-0.02274 -0.165571,-0.0075 -0.334884,-0.01521 -0.507979,-0.02274 -0.09031,0 -0.139235,-0.0038 -0.146762,-0.01137 -0.0075,-0.0075 -0.01137,-0.05645 -0.01137,-0.146762 0.0075,-0.135466 0.01137,-0.27071 0.01137,-0.406176 0.0075,-0.135468 0.01137,-0.27071 0.01137,-0.406177 0,-0.07526 -0.0038,-0.150567 -0.01137,-0.225826 0,-0.07526 -0.0187,-0.146724 -0.05633,-0.214457 -0.03387,-0.07902 -0.08275,-0.11178 -0.146246,-0.09767 z m 35.900135,1.238168 c -0.01834,0.0033 -0.03821,0.01093 -0.05891,0.02222 -0.0301,0.0075 -0.05981,0.03391 -0.08992,0.07906 -0.06021,0.06773 -0.112978,0.139198 -0.158129,0.214458 -0.03763,0.07526 -0.06401,0.153892 -0.07906,0.236678 -0.04515,0.150518 -0.07538,0.301133 -0.09043,0.451652 -0.01505,0.150518 -0.0189,0.301133 -0.01137,0.451652 v 0.180867 c 0.0075,0.06021 0.01137,0.120144 0.01137,0.180351 v 0.259416 c 0,0.06773 0.01153,0.128187 0.03411,0.180867 0.02258,0.06773 0.05997,0.10897 0.112654,0.124024 0.06021,0.01505 0.116819,1.94e-4 0.169497,-0.04496 0.03763,-0.03763 0.06401,-0.0904 0.07907,-0.15813 0.01505,-0.195674 0.04144,-0.383684 0.07906,-0.564306 0.04515,-0.188149 0.08255,-0.380002 0.112655,-0.575676 0.01505,-0.09031 0.03375,-0.18099 0.05633,-0.271301 0.02258,-0.09031 0.03411,-0.180474 0.03411,-0.270785 0,-0.07526 -0.0038,-0.146723 -0.01137,-0.214457 0,-0.07526 -0.0187,-0.142881 -0.05633,-0.203088 -0.03387,-0.06208 -0.07829,-0.08843 -0.133326,-0.07855 z M 50.10626,37.651262 c -0.02822,0.0056 -0.05531,0.01787 -0.08165,0.03669 -0.05268,0.03763 -0.09777,0.08656 -0.135393,0.146761 -0.0301,0.05268 -0.05264,0.116977 -0.0677,0.192237 -0.01505,0.06773 -0.01505,0.12767 0,0.18035 0.0075,0.01505 0.01137,0.03426 0.01137,0.05684 0,0.01505 0.0033,0.0299 0.01085,0.04496 0.02258,0.150519 0.03795,0.304976 0.04547,0.463021 l 0.02222,0.473873 v 0.0677 c 0.0075,0.02257 0.01137,0.04896 0.01137,0.07907 0.0075,0.0602 0.04544,0.105285 0.11317,0.135392 0.04516,0.01505 0.09024,-0.0075 0.135393,-0.0677 0.0301,-0.03763 0.05264,-0.07502 0.0677,-0.112655 0.01505,-0.04515 0.02991,-0.08691 0.04496,-0.12454 0.05268,-0.135467 0.09059,-0.27071 0.11317,-0.406177 0.0301,-0.142992 0.06033,-0.285922 0.09043,-0.428914 0.0075,-0.04516 0.01085,-0.0864 0.01085,-0.124023 0.0075,-0.04516 0.01137,-0.08691 0.01137,-0.124541 v -0.135392 c 0,-0.03763 -0.0072,-0.07503 -0.02222,-0.112655 -0.02258,-0.127938 -0.09071,-0.203246 -0.203605,-0.225826 -0.04515,0 -0.07486,-0.0038 -0.08992,-0.01137 -0.0301,-0.0075 -0.05963,-0.0087 -0.08785,-0.0031 z m 18.443836,1.260905 c -0.02117,-0.0014 -0.04375,0.0011 -0.06821,0.0067 -0.03011,0.0075 -0.06034,0.01469 -0.09043,0.02222 h -0.09043 c -0.0602,0 -0.105286,0.01538 -0.135393,0.04547 -0.0301,0.03011 -0.05981,0.06366 -0.08992,0.101286 -0.01505,0.01505 -0.02658,0.03042 -0.03411,0.04547 0,0.0075 -0.0077,0.01854 -0.02274,0.03359 -0.07526,0.120414 -0.131349,0.244646 -0.168984,0.372587 -0.0301,0.120415 -0.05264,0.248489 -0.06769,0.383956 -0.04516,0.44403 0.09393,0.812881 0.417544,1.106392 0.01506,0.01505 0.02606,0.0299 0.03359,0.04496 0.01505,0.0075 0.0189,0.02238 0.01137,0.04496 -0.05268,0.2032 -0.127987,0.414268 -0.225825,0.63252 -0.0301,-0.01505 -0.0488,-0.03042 -0.05633,-0.04548 -0.0075,-0.02257 -0.01854,-0.04512 -0.03359,-0.0677 -0.07526,-0.12794 -0.131866,-0.25934 -0.169498,-0.394808 -0.03763,-0.142992 -0.07555,-0.289764 -0.113173,-0.440283 -0.03763,-0.180622 -0.07118,-0.361463 -0.101285,-0.542086 -0.02258,-0.180622 -0.03795,-0.364789 -0.04547,-0.552938 -0.01505,-0.09031 -0.03759,-0.173304 -0.0677,-0.248563 -0.04516,-0.10536 -0.11662,-0.131745 -0.214458,-0.07906 -0.05268,0.0301 -0.09776,0.07186 -0.135393,0.12454 -0.165573,0.233304 -0.237037,0.511477 -0.214458,0.835091 0.01168,0.116785 0.02772,0.229327 0.04393,0.341582 -0.0035,0.0029 -0.0063,0.0054 -0.0098,0.0083 -0.08279,0.06021 -0.165778,0.116818 -0.248563,0.169498 -0.07526,0.05268 -0.161578,0.09392 -0.259416,0.124024 -0.11289,0.0301 -0.207412,0.02293 -0.28267,-0.02222 -0.06773,-0.04516 -0.108972,-0.124306 -0.124024,-0.237195 -0.01505,-0.07526 -0.02606,-0.150567 -0.03359,-0.225826 0,-0.07526 -0.0077,-0.154409 -0.02274,-0.237195 -0.01505,-0.105363 -0.03375,-0.207054 -0.05633,-0.304891 -0.02258,-0.105363 -0.05665,-0.206536 -0.101804,-0.304374 -0.09784,-0.233302 -0.244607,-0.263529 -0.440282,-0.09043 -0.05268,0.06021 -0.101608,0.120145 -0.146762,0.180351 -0.03763,0.06021 -0.07503,0.120661 -0.112654,0.180868 -0.08279,0.150518 -0.161936,0.308302 -0.237194,0.473873 -0.06773,0.158044 -0.135355,0.320187 -0.203089,0.485758 -0.01506,0.03763 -0.03042,0.07502 -0.04548,0.112654 -0.0075,0.03763 -0.02623,0.07554 -0.05633,0.113172 -0.01505,-0.120415 -0.02273,-0.233635 -0.02273,-0.338997 v -0.327112 -0.395325 c 0,-0.135467 -0.0072,-0.266867 -0.02222,-0.394808 -0.0075,-0.03763 -0.01521,-0.07554 -0.02274,-0.113171 -0.0075,-0.04516 -0.01853,-0.0864 -0.03359,-0.124024 -0.05268,-0.10536 -0.124663,-0.127902 -0.214974,-0.0677 -0.03763,0.01505 -0.06734,0.03375 -0.08992,0.05633 -0.01505,0.02257 -0.03427,0.04896 -0.05684,0.07906 -0.08278,0.112888 -0.138875,0.233276 -0.168982,0.361218 -0.0301,0.120415 -0.0488,0.248489 -0.05633,0.383956 -0.007,0.142665 -0.0098,0.28424 -0.01033,0.425297 -0.142372,0.101069 -0.283966,0.203293 -0.429947,0.297139 -0.2032,0.135467 -0.414269,0.266867 -0.632521,0.394808 -0.135467,0.08278 -0.270709,0.158092 -0.406175,0.225826 -0.127942,0.06773 -0.263703,0.13203 -0.406694,0.192236 -0.06774,0.03763 -0.139197,0.06017 -0.214458,0.0677 -0.135467,0.02258 -0.233315,-0.03403 -0.293521,-0.169499 l -0.01085,-0.01137 c 0,-0.0075 -0.0038,-0.01469 -0.01137,-0.02222 0.361246,-0.2032 0.605864,-0.421953 0.733806,-0.655257 0.135466,-0.233304 0.199247,-0.454866 0.191719,-0.665592 -0.0075,-0.210727 -0.05645,-0.395411 -0.146761,-0.553455 -0.08279,-0.165571 -0.161936,-0.282116 -0.237194,-0.349849 -0.135467,-0.120418 -0.278397,-0.131944 -0.428916,-0.03411 -0.0301,0.01505 -0.05648,0.03426 -0.07906,0.05684 l -0.06769,0.0677 c -0.120417,0.150519 -0.222107,0.323675 -0.304893,0.519348 -0.112889,0.225778 -0.191524,0.458869 -0.236677,0.699699 -0.03763,0.233304 -0.06069,0.463069 -0.06821,0.688847 0,0.316089 0.04892,0.598104 0.146762,0.84646 0.06021,0.150519 0.169582,0.267065 0.327628,0.349849 0.158044,0.08278 0.327356,0.07177 0.507979,-0.03359 l 0.519348,-0.293522 c 0.173096,-0.09784 0.346252,-0.199528 0.519348,-0.304891 0.240829,-0.158045 0.477764,-0.323514 0.711068,-0.496611 0.109545,-0.08128 0.222626,-0.162637 0.33383,-0.243913 0.02048,0.27314 0.04101,0.546449 0.06149,0.819589 0.02258,0.16557 0.0715,0.319511 0.146762,0.462504 0.02258,0.03763 0.05613,0.0717 0.101285,0.101802 0.04515,0.02258 0.08691,0.02642 0.12454,0.01137 0.05268,-0.01505 0.101608,-0.03759 0.146761,-0.0677 0.05268,-0.0301 0.08623,-0.07903 0.101285,-0.146761 0.0301,-0.105363 0.05649,-0.207054 0.07907,-0.304891 0.03011,-0.105363 0.06418,-0.210897 0.101804,-0.31626 0.06021,-0.210726 0.123983,-0.417434 0.191719,-0.620634 0.07526,-0.2032 0.165421,-0.402738 0.270783,-0.598413 0.01506,-0.03763 0.03042,-0.0717 0.04548,-0.101802 0.02258,-0.0301 0.05229,-0.06365 0.08992,-0.101286 0.0075,0.01505 0.01137,0.02606 0.01137,0.03359 0.0075,0.0075 0.01137,0.01905 0.01137,0.03411 l 0.04548,0.225826 0.04496,0.203088 c 0.01505,0.09031 0.03375,0.180474 0.05633,0.270785 0.02258,0.08279 0.05665,0.165778 0.101802,0.248563 0.127941,0.180624 0.308266,0.266943 0.54157,0.259416 0.06773,0 0.13203,-0.01101 0.192236,-0.03359 0.06773,-0.02257 0.131513,-0.0528 0.191719,-0.09043 0.120415,-0.06773 0.236961,-0.135355 0.349851,-0.203089 0.04949,-0.033 0.09706,-0.06912 0.143658,-0.106453 0.0011,0.0055 0.002,0.01053 0.0031,0.01602 0.06021,0.255881 0.139359,0.500501 0.237196,0.733805 0.06021,0.127941 0.13167,0.244486 0.214456,0.349849 0.08279,0.105364 0.192164,0.188357 0.327631,0.248564 0.09783,0.04515 0.187997,0.04131 0.270782,-0.01137 0.05268,-0.03763 0.09392,-0.07887 0.124023,-0.124023 0.03763,-0.05268 0.0717,-0.109292 0.101804,-0.169499 0.06773,-0.142993 0.12767,-0.289764 0.180351,-0.440283 0.06021,-0.150519 0.116819,-0.301134 0.169497,-0.451652 0.01505,-0.04515 0.02606,-0.07154 0.03359,-0.07906 0.01505,-0.0075 0.04528,-0.0037 0.09043,0.01137 0.255883,0.03763 0.500501,0.04148 0.733806,0.01137 0.1823,-0.0294 0.35755,-0.09655 0.526065,-0.199471 0.01407,0.179412 0.02967,0.358539 0.04961,0.537951 0.02258,0.180623 0.06433,0.369149 0.124542,0.564824 0.05268,0.173096 0.165383,0.300653 0.338479,0.383439 0.09784,0.05268 0.203372,0.05268 0.316261,0 0.120415,-0.06021 0.236958,-0.158056 0.349848,-0.293523 0.188148,-0.218251 0.361305,-0.443657 0.519348,-0.676961 0.03261,-0.04742 0.06152,-0.09469 0.09354,-0.14211 -7.44e-4,0.01713 -0.003,0.03459 -0.0036,0.05168 h 5.16e-4 c 0,0.323615 0.04892,0.60563 0.146762,0.84646 0.06021,0.158044 0.169066,0.27459 0.327109,0.349849 0.158046,0.08278 0.327359,0.07177 0.507982,-0.03359 l 0.519348,-0.293522 c 0.173095,-0.09784 0.346249,-0.199527 0.519348,-0.304891 0.240829,-0.158045 0.477763,-0.323514 0.711067,-0.49661 0.170781,-0.126708 0.345567,-0.253631 0.52038,-0.380339 -0.0044,0.06291 -0.01032,0.126286 -0.0124,0.188619 0,0.316089 0.04892,0.598104 0.146762,0.84646 0.06021,0.150519 0.169582,0.267065 0.327628,0.349849 0.158044,0.08278 0.327356,0.07177 0.507979,-0.03359 l 0.519348,-0.293522 c 0.173096,-0.09784 0.345734,-0.199528 0.518832,-0.304891 0.240829,-0.158045 0.478279,-0.323514 0.711584,-0.496611 0.233304,-0.173096 0.470238,-0.346251 0.711067,-0.519348 0.02226,-0.01577 0.0375,-0.03414 0.05633,-0.05116 0.123161,0.164527 0.243719,0.315413 0.36122,0.445968 -0.105365,0.08278 -0.210381,0.165778 -0.315743,0.248564 -0.09784,0.08279 -0.188516,0.17679 -0.271301,0.282153 -0.07526,0.09784 -0.139041,0.21054 -0.19172,0.338481 -0.04515,0.12794 -0.0677,0.274712 -0.0677,0.440283 0,0.255882 0.04124,0.48949 0.124023,0.700215 0.08279,0.218252 0.192162,0.406263 0.327629,0.564306 0.135466,0.158046 0.285564,0.282276 0.451135,0.372589 0.173096,0.09031 0.34625,0.135393 0.519348,0.135393 0.278458,0 0.496695,-0.108861 0.654741,-0.327113 0.150519,-0.210727 0.225824,-0.493257 0.225824,-0.846976 0,-0.376298 -0.07915,-0.707236 -0.237193,-0.993222 -0.158047,-0.293511 -0.319673,-0.538131 -0.485243,-0.733805 0.07526,-0.03763 0.150566,-0.06785 0.225827,-0.09043 0.08279,-0.03011 0.169103,-0.06366 0.259416,-0.101286 0.142991,-0.05268 0.286438,-0.101608 0.429429,-0.146761 0.142994,-0.05268 0.278236,-0.09828 0.406178,-0.135909 0.127942,-0.03763 0.244485,-0.07118 0.34985,-0.101286 0.105363,-0.0301 0.188357,-0.05264 0.248563,-0.0677 0.120415,-0.02258 0.188034,-0.09404 0.203089,-0.214457 l 0.02274,-0.135392 c 0.0075,-0.03763 -0.004,-0.06785 -0.03411,-0.09043 -0.02258,-0.02258 -0.05281,-0.03026 -0.09043,-0.02274 -0.105362,0.01505 -0.24829,0.04143 -0.428913,0.07906 -0.173096,0.03763 -0.368792,0.08655 -0.587044,0.146761 -0.218252,0.06021 -0.443659,0.135515 -0.676961,0.225826 -0.233304,0.08279 -0.459226,0.180634 -0.677478,0.293522 -0.11289,-0.12794 -0.206894,-0.256014 -0.282155,-0.383955 -0.07526,-0.127941 -0.11317,-0.27087 -0.11317,-0.428915 0,-0.142993 0.03407,-0.278236 0.101801,-0.406177 0.06773,-0.135466 0.214506,-0.203605 0.440285,-0.203605 0.158044,0 0.282274,0.02254 0.372587,0.0677 0.09031,0.04515 0.184316,0.08691 0.282151,0.124541 0.03763,0.01505 0.0717,0.01121 0.101804,-0.01137 0.03011,-0.03011 0.04112,-0.06418 0.03359,-0.101803 l -0.0677,-0.428914 c -0.01505,-0.06021 -0.04528,-0.101444 -0.09043,-0.124024 -0.06021,-0.03011 -0.146529,-0.06033 -0.259416,-0.09043 -0.105363,-0.03763 -0.229595,-0.05633 -0.372587,-0.05633 -0.346194,0 -0.628208,0.09016 -0.84646,0.270785 -0.210727,0.180622 -0.316262,0.440096 -0.316262,0.778764 0,0.111894 0.01719,0.218763 0.04806,0.32091 -0.01225,0.0098 -0.02443,0.01965 -0.03669,0.02946 -0.2032,0.150518 -0.410424,0.293448 -0.621149,0.428914 -0.203202,0.135467 -0.413752,0.266867 -0.632005,0.394808 -0.135466,0.08278 -0.271224,0.158092 -0.406691,0.225826 -0.127942,0.06773 -0.263186,0.13203 -0.406177,0.192236 -0.06773,0.03763 -0.139198,0.06017 -0.214458,0.0677 -0.135467,0.02258 -0.233315,-0.03403 -0.293521,-0.169499 l -0.01137,-0.01137 c 0,-0.0075 -0.0038,-0.01469 -0.01137,-0.02222 0.361243,-0.2032 0.605864,-0.421953 0.733806,-0.655257 0.135466,-0.233304 0.199763,-0.454866 0.192235,-0.665592 -0.0075,-0.210727 -0.05645,-0.395411 -0.146762,-0.553455 -0.08279,-0.165571 -0.161935,-0.282116 -0.237193,-0.349849 -0.135467,-0.120418 -0.278397,-0.131944 -0.428916,-0.03411 -0.0301,0.01505 -0.05648,0.03426 -0.07906,0.05684 l -0.0677,0.0677 c -0.120417,0.150519 -0.222107,0.323675 -0.304893,0.519348 -0.08852,0.177034 -0.150013,0.359932 -0.196887,0.54622 -0.03591,0.02905 -0.07209,0.06124 -0.108003,0.09715 -0.2032,0.150519 -0.409908,0.293448 -0.620633,0.428914 -0.2032,0.135467 -0.414269,0.266868 -0.632521,0.394808 -0.135466,0.07526 -0.270708,0.147241 -0.406175,0.214974 -0.127942,0.06773 -0.263702,0.135355 -0.406694,0.203089 -0.03763,0.01505 -0.07503,0.02606 -0.112657,0.03359 -0.0301,0.0075 -0.06417,0.01521 -0.101801,0.02274 -0.127942,0.02258 -0.225787,-0.03019 -0.293523,-0.15813 -0.01505,-0.0301 -0.02606,-0.05649 -0.03359,-0.07906 -0.0075,-0.02257 -0.01521,-0.04896 -0.02274,-0.07906 -0.03011,-0.150518 -0.03779,-0.300617 -0.02274,-0.451135 0.01505,-0.158045 0.04528,-0.312502 0.09043,-0.463021 0.02257,-0.06773 0.04512,-0.135355 0.0677,-0.203088 0.0301,-0.06774 0.06417,-0.13203 0.101804,-0.192237 0.02258,-0.03011 0.05281,-0.03727 0.09043,-0.02222 0.01506,0.0075 0.02606,0.01469 0.03359,0.02222 0.01505,0 0.03042,0.0077 0.04547,0.02274 0.112893,0.105363 0.195369,0.207054 0.248047,0.304891 0.0301,0.04516 0.05264,0.09408 0.0677,0.146761 0.02257,0.04516 0.04127,0.09024 0.05633,0.135392 0.02258,0.07526 0.0715,0.112655 0.146761,0.112655 0.06773,0.01505 0.113329,-0.02234 0.135909,-0.112655 0.0075,-0.01505 0.01085,-0.03759 0.01085,-0.0677 0.01505,-0.06021 0.01889,-0.112976 0.01137,-0.15813 0,-0.05268 -0.0038,-0.109292 -0.01137,-0.169498 -0.03763,-0.413927 -0.203099,-0.752552 -0.496612,-1.015959 -0.135467,-0.120417 -0.278395,-0.131427 -0.428914,-0.03359 -0.05268,0.0301 -0.101607,0.07519 -0.146761,0.135393 -0.06021,0.07526 -0.116819,0.157736 -0.169498,0.248046 -0.05268,0.08279 -0.09777,0.169622 -0.135392,0.259933 -0.08983,0.179651 -0.151498,0.365307 -0.198438,0.554488 -0.0429,0.0522 -0.08393,0.104375 -0.128674,0.15658 l -0.248563,0.316259 c -0.08279,0.105364 -0.169106,0.210381 -0.259416,0.315743 -0.08279,0.105364 -0.180634,0.199885 -0.293524,0.28267 -0.08278,0.06021 -0.143232,0.08275 -0.180866,0.0677 -0.03011,-0.02258 -0.06366,-0.07534 -0.101285,-0.15813 -0.0075,-0.01505 -0.01137,-0.04528 -0.01137,-0.09043 -0.01505,-0.09031 -0.02658,-0.180473 -0.03411,-0.270785 l -0.02222,-0.293522 -0.02274,-0.383956 v -0.383956 -0.304374 c 0,-0.09784 -0.0077,-0.199528 -0.02274,-0.304891 -0.0075,-0.03763 -0.01469,-0.0717 -0.02222,-0.101802 -0.0075,-0.03763 -0.01905,-0.07502 -0.03411,-0.112655 -0.05268,-0.09031 -0.124146,-0.109524 -0.214456,-0.05684 -0.0301,0.01505 -0.0488,0.03042 -0.05633,0.04547 -0.135464,0.158044 -0.218458,0.323514 -0.248565,0.496611 -0.01505,0.08279 -0.02274,0.165778 -0.02274,0.248563 v 0.248047 c 0,0.07644 0.0063,0.149863 0.0083,0.22531 -0.216141,0.118662 -0.46559,0.181384 -0.752927,0.181384 -0.06021,0.0075 -0.116819,0.0075 -0.169498,0 -0.05268,-0.0075 -0.105449,-0.01905 -0.158131,-0.03411 -0.0602,-0.01505 -0.0976,-0.02991 -0.112654,-0.04496 -0.0075,-0.01505 -0.0042,-0.05297 0.01085,-0.113172 0.01506,-0.112889 0.02658,-0.225591 0.03411,-0.33848 0.01506,-0.112889 0.02274,-0.225592 0.02274,-0.338481 0.0075,-0.12794 -1.58e-4,-0.267543 -0.02274,-0.418062 -0.01505,-0.188149 -0.06398,-0.357461 -0.146762,-0.507979 -0.03387,-0.06773 -0.08274,-0.103772 -0.146243,-0.108004 z m -24.517884,0.160197 c -0.04092,-9.41e-4 -0.08281,3.71e-4 -0.12609,0.0041 -0.150518,0.0075 -0.282434,0.04928 -0.395324,0.12454 -0.11289,0.06773 -0.21458,0.154053 -0.30489,0.259416 -0.142994,0.165571 -0.263382,0.342569 -0.36122,0.530717 -0.09031,0.180622 -0.150244,0.380161 -0.18035,0.598413 -0.01505,0.180623 0.0036,0.346092 0.05633,0.49661 0.05268,0.142993 0.158215,0.267224 0.316261,0.372587 0.06773,0.04516 0.139198,0.0864 0.214456,0.124024 0.04515,0.03763 0.0677,0.07554 0.0677,0.113171 0.01505,0.08279 0.03375,0.169105 0.05633,0.259416 0.02257,0.08278 0.04896,0.165778 0.07907,0.248564 0.07526,0.210725 0.195648,0.357498 0.361217,0.440283 0.08278,0.04515 0.17295,0.0677 0.270785,0.0677 0.09784,0.0075 0.195686,-0.03039 0.293523,-0.113172 l 0.07907,-0.07906 c 0.0301,-0.0301 0.05648,-0.05981 0.07906,-0.08992 0.120417,-0.180623 0.210579,-0.372993 0.270785,-0.576193 0.0301,-0.08279 0.08287,-0.116339 0.158131,-0.101285 0.05268,0.0075 0.113133,-1.58e-4 0.180866,-0.02274 0.11289,-0.04516 0.225592,-0.09408 0.338482,-0.146761 0.112887,-0.06021 0.222265,-0.120144 0.327628,-0.180351 0.06009,-0.02828 0.116051,-0.05976 0.169497,-0.09302 0.0038,0.07233 0.0036,0.144711 0.01085,0.217042 0.01505,0.150518 0.0376,0.301133 0.0677,0.451652 0.01505,0.09031 0.03759,0.17663 0.0677,0.259415 0.0301,0.08279 0.07518,0.158093 0.135393,0.225826 0.2032,0.255884 0.421436,0.267411 0.65474,0.03411 0.05268,-0.06021 0.09443,-0.124503 0.12454,-0.192237 0.112889,-0.218252 0.214579,-0.440331 0.304889,-0.666109 0.09784,-0.225778 0.188,-0.451183 0.270786,-0.676961 0.01505,-0.03763 0.02606,-0.07554 0.03359,-0.113171 0.0075,-0.03763 0.02674,-0.07503 0.05685,-0.112655 v 0.372587 l 0.02222,0.338481 c 0.0075,0.105362 0.01521,0.214222 0.02274,0.327111 0.01505,0.105363 0.03375,0.210897 0.05633,0.31626 l 0.04547,0.180868 c 0.01505,0.06021 0.04144,0.120144 0.07907,0.180351 0.06021,0.09031 0.134998,0.154609 0.225311,0.192236 0.09031,0.03011 0.188158,0.02626 0.293521,-0.01137 0.06021,-0.01505 0.112977,-0.03759 0.158131,-0.0677 0.04515,-0.03011 0.08691,-0.06418 0.124539,-0.101803 0.08279,-0.06773 0.154249,-0.14304 0.214458,-0.225826 0.06773,-0.08278 0.131511,-0.165261 0.19172,-0.248047 0.09784,-0.142992 0.187997,-0.286438 0.270782,-0.429431 0.08279,-0.150518 0.169622,-0.29729 0.259935,-0.440283 0.04515,-0.07526 0.0787,-0.153893 0.101285,-0.236678 0.02258,-0.08278 0.01874,-0.165778 -0.01137,-0.248564 l -0.02222,-0.04496 c 2e-6,-0.02258 -0.01153,-0.03411 -0.03411,-0.03411 -0.03763,-0.0075 -0.06785,0.0078 -0.09043,0.04548 -0.03763,0.03763 -0.07118,0.07887 -0.101285,0.124023 -0.02257,0.04516 -0.04896,0.09024 -0.07906,0.135392 -0.06773,0.120415 -0.139198,0.240803 -0.214458,0.361219 -0.06773,0.112888 -0.143039,0.225591 -0.225825,0.33848 -0.04516,0.06021 -0.09408,0.120661 -0.146762,0.180868 -0.05268,0.05268 -0.113133,0.09776 -0.180866,0.135392 -0.173096,0.09031 -0.270426,0.04139 -0.293005,-0.146761 -0.02258,-0.218252 -0.03411,-0.432646 -0.03411,-0.643372 0,-0.210726 0.0038,-0.425118 0.01137,-0.643371 0.0075,-0.127941 0.0075,-0.256015 0,-0.383956 0,-0.135467 -0.0077,-0.267383 -0.02274,-0.395325 -0.01505,-0.07526 -0.03759,-0.153893 -0.0677,-0.236678 -0.03763,-0.08278 -0.09756,-0.101997 -0.180351,-0.05684 -0.03763,0.02258 -0.07554,0.05665 -0.11317,0.101803 -0.06774,0.07526 -0.124346,0.154409 -0.1695,0.237194 -0.04516,0.08279 -0.09408,0.165262 -0.146762,0.248047 -0.04515,0.08279 -0.08255,0.169622 -0.112654,0.259933 -0.0301,0.09031 -0.06417,0.17663 -0.101801,0.259416 -0.07526,0.180622 -0.146725,0.361463 -0.214458,0.542085 -0.06021,0.180623 -0.131672,0.357621 -0.214458,0.530717 -0.0301,0.04516 -0.05648,0.09408 -0.07906,0.146761 -0.02257,0.04516 -0.05228,0.0864 -0.08992,0.124024 -0.01505,0.01505 -0.03042,0.0299 -0.04547,0.04496 -0.0075,0.0075 -0.01854,0.01137 -0.03359,0.01137 -0.03763,-0.0075 -0.05684,-0.03775 -0.05684,-0.09043 -0.02258,-0.07526 -0.03743,-0.150566 -0.04496,-0.225826 -0.0075,-0.07526 -0.01521,-0.153893 -0.02274,-0.236678 -0.02257,-0.338667 -0.01105,-0.677292 0.03411,-1.015958 0.01505,-0.09031 0.02274,-0.18099 0.02274,-0.271302 0.0075,-0.09031 0.0037,-0.180473 -0.01137,-0.270784 -0.0075,-0.03763 -0.01521,-0.0717 -0.02274,-0.101803 -0.0075,-0.0301 -0.01905,-0.06365 -0.03411,-0.101286 -0.04515,-0.09783 -0.112776,-0.124218 -0.203089,-0.07906 -0.01505,0.01505 -0.0299,0.02606 -0.04496,0.03359 -0.01505,0.0075 -0.03042,0.01905 -0.04547,0.03411 -0.06021,0.08278 -0.116303,0.165778 -0.168984,0.248563 -0.04515,0.08279 -0.07922,0.172947 -0.101801,0.270785 -0.03763,0.165571 -0.06401,0.33104 -0.07907,0.49661 -0.0025,0.05524 -0.0019,0.113416 -0.0036,0.169499 -0.132188,0.06989 -0.266072,0.129175 -0.40256,0.168982 -0.180621,0.05268 -0.368631,0.101608 -0.564306,0.146761 -0.01505,-0.01505 -0.02274,-0.02606 -0.02274,-0.03359 0.0075,-0.01505 0.01137,-0.03042 0.01137,-0.04547 0,-0.09784 0.0038,-0.191842 0.01137,-0.282153 0.0075,-0.09784 0.0075,-0.195685 0,-0.293522 -0.01505,-0.127941 -0.03426,-0.252172 -0.05684,-0.372587 -0.02258,-0.120415 -0.05613,-0.240804 -0.101285,-0.361219 -0.01505,-0.03763 -0.03375,-0.07502 -0.05633,-0.112654 -0.01505,-0.03763 -0.03426,-0.07502 -0.05684,-0.112655 -0.105362,-0.142994 -0.229594,-0.240842 -0.372586,-0.293522 -0.1016,-0.04515 -0.213648,-0.06953 -0.336415,-0.07235 z m 8.15971,0.04961 c -0.346194,0 -0.628208,0.09016 -0.84646,0.270785 -0.210727,0.180622 -0.316259,0.440096 -0.316259,0.778764 0,0.24083 0.07146,0.459066 0.214455,0.65474 0.142994,0.195675 0.282081,0.368829 0.417547,0.519348 l -0.315743,0.248564 c -0.09784,0.08279 -0.188,0.17679 -0.270785,0.282153 -0.07526,0.09784 -0.139557,0.21054 -0.192236,0.338481 -0.04515,0.12794 -0.0677,0.274712 -0.0677,0.440283 0,0.255882 0.04124,0.48949 0.124023,0.700215 0.08279,0.218252 0.192162,0.406263 0.327629,0.564306 0.135466,0.158046 0.28608,0.282276 0.451651,0.372589 0.173099,0.09031 0.346253,0.135393 0.519348,0.135393 0.278461,0 0.496697,-0.108861 0.654741,-0.327113 0.150519,-0.210727 0.225827,-0.493257 0.225827,-0.846976 0,-0.376298 -0.07915,-0.707236 -0.237196,-0.993222 -0.158044,-0.293511 -0.320188,-0.538131 -0.485757,-0.733805 0.07526,-0.03763 0.150567,-0.06785 0.225825,-0.09043 0.08279,-0.03011 0.169621,-0.06366 0.259932,-0.101286 0.142994,-0.05268 0.285922,-0.101608 0.428916,-0.146761 0.142991,-0.05268 0.278236,-0.09828 0.406175,-0.135909 0.127942,-0.03763 0.245004,-0.07118 0.350366,-0.101286 0.105365,-0.0301 0.187841,-0.05264 0.248047,-0.0677 0.120415,-0.02258 0.188037,-0.09404 0.203089,-0.214457 l 0.02274,-0.135392 c 0.0075,-0.03763 -0.004,-0.06785 -0.03411,-0.09043 -0.02258,-0.02258 -0.05229,-0.03026 -0.08992,-0.02274 -0.105362,0.01505 -0.248293,0.04143 -0.428916,0.07906 -0.173096,0.03763 -0.368792,0.08655 -0.587044,0.146761 -0.218252,0.06021 -0.444172,0.135515 -0.677477,0.225826 -0.233304,0.08279 -0.459226,0.180634 -0.677478,0.293522 -0.11289,-0.12794 -0.206894,-0.256014 -0.282155,-0.383955 -0.07526,-0.127941 -0.112654,-0.27087 -0.112654,-0.428915 0,-0.142993 0.03355,-0.278236 0.101288,-0.406177 0.06773,-0.135466 0.214503,-0.203605 0.440282,-0.203605 0.158044,0 0.282276,0.02254 0.372587,0.0677 0.09031,0.04515 0.184316,0.08691 0.282154,0.124541 0.03763,0.01505 0.07169,0.01121 0.101801,-0.01137 0.03011,-0.03011 0.04112,-0.06418 0.03359,-0.101803 l -0.0677,-0.428914 c -0.01505,-0.06021 -0.04476,-0.101444 -0.08992,-0.124024 -0.06021,-0.03011 -0.147043,-0.06033 -0.259932,-0.09043 -0.105363,-0.03763 -0.229595,-0.05633 -0.372587,-0.05633 z m 16.095141,0.406177 c 0.01693,0 0.03301,0.01153 0.04806,0.03411 0.03763,0.09031 0.06017,0.184316 0.0677,0.282154 v 0.316259 c 0,0.105364 -0.01486,0.218066 -0.04496,0.338481 -0.09784,-0.112889 -0.169305,-0.225592 -0.214458,-0.338481 -0.04515,-0.120414 -0.04515,-0.252331 0,-0.395324 0.01505,-0.03763 0.02606,-0.0717 0.03359,-0.101803 0.01505,-0.03763 0.03375,-0.07118 0.05633,-0.101286 0.01881,-0.02258 0.03681,-0.03411 0.05374,-0.03411 z m -41.709598,0.15813 c 0.06773,0.06773 0.109487,0.161738 0.124539,0.282153 0.02258,0.112889 0.0259,0.226108 0.01085,0.338998 -0.0075,0.105362 -0.01854,0.218065 -0.03359,0.33848 -0.06021,-0.04516 -0.105285,-0.108934 -0.135392,-0.191719 -0.0301,-0.08279 -0.05264,-0.169622 -0.0677,-0.259933 -0.0075,-0.09031 -0.0037,-0.180473 0.01137,-0.270784 0.01505,-0.09031 0.04476,-0.169462 0.08992,-0.237195 z m 17.193265,0.135392 c 0.127942,0.0075 0.240644,0.03391 0.338481,0.07906 0.105363,0.03763 0.191683,0.11678 0.259416,0.237195 0.08278,0.142993 0.135549,0.293607 0.158128,0.451652 0.03011,0.150519 0.03779,0.304459 0.02274,0.462504 0,0.04515 -0.0077,0.07538 -0.02274,0.09043 -0.0075,0.0075 -0.03723,0.0075 -0.08992,0 -0.105362,-0.01505 -0.207052,-0.0299 -0.304889,-0.04496 -0.09784,-0.02258 -0.195686,-0.04127 -0.293524,-0.05633 -0.05268,-0.0075 -0.0719,-0.0416 -0.05684,-0.101803 0.01505,-0.05268 0.01889,-0.10545 0.01137,-0.158129 v -0.158131 c 0,-0.03763 -0.01485,-0.09372 -0.04496,-0.168981 -0.03763,-0.07526 -0.09424,-0.08679 -0.1695,-0.03411 -0.06773,0.06773 -0.116655,0.139198 -0.146762,0.214457 -0.01505,0.03763 -0.0299,0.0717 -0.04496,0.101803 -0.0075,0.0301 -0.01905,0.06365 -0.03411,0.101286 -0.0602,-0.02258 -0.109127,-0.05229 -0.146759,-0.08992 -0.0301,-0.04516 -0.05981,-0.09408 -0.08992,-0.146761 -0.0075,-0.01505 -0.01137,-0.04528 -0.01137,-0.09043 0.05268,-0.150519 0.124148,-0.286278 0.214458,-0.406694 0.09031,-0.120415 0.218385,-0.210577 0.383955,-0.270784 0.01505,-0.0075 0.03759,-0.01137 0.0677,-0.01137 z m -14.788761,0.293522 c 0.04516,0 0.09024,0.03407 0.135392,0.101803 0.05268,0.06773 0.07574,0.157896 0.06821,0.270784 -0.0075,0.105364 -0.05645,0.225752 -0.146762,0.361219 -0.09031,0.135466 -0.244769,0.271226 -0.463021,0.406693 -0.0075,-0.210726 0.0227,-0.428962 0.09043,-0.65474 0.02257,-0.06773 0.04512,-0.135872 0.0677,-0.203605 0.03011,-0.06773 0.06366,-0.131513 0.101285,-0.19172 0.01506,-0.01505 0.03427,-0.03375 0.05685,-0.05633 0.02258,-0.02258 0.05229,-0.03411 0.08992,-0.03411 z m 3.070614,0 c 0.04516,0 0.09024,0.03407 0.135392,0.101803 0.05268,0.06773 0.07522,0.157896 0.0677,0.270784 -0.0075,0.105364 -0.05645,0.225752 -0.146762,0.361219 -0.09031,0.135466 -0.24425,0.271226 -0.462505,0.406693 -0.0075,-0.210726 0.0227,-0.428962 0.09044,-0.65474 0.02257,-0.06773 0.04512,-0.135872 0.0677,-0.203605 0.03011,-0.06773 0.06366,-0.131513 0.101285,-0.19172 0.01506,-0.01505 0.03375,-0.03375 0.05633,-0.05633 0.02258,-0.02258 0.05281,-0.03411 0.09043,-0.03411 z m 29.723767,0 c 0.04516,0 0.09024,0.03407 0.135393,0.101803 0.05268,0.06773 0.07522,0.157896 0.06769,0.270784 -0.0075,0.105364 -0.05645,0.225752 -0.14676,0.361219 -0.09031,0.135466 -0.244768,0.271226 -0.46302,0.406693 -0.0075,-0.210726 0.0227,-0.428962 0.09043,-0.65474 0.02257,-0.06773 0.04512,-0.135872 0.0677,-0.203605 0.03011,-0.06773 0.06418,-0.131513 0.101804,-0.19172 l 0.05633,-0.05633 c 0.02258,-0.02258 0.05281,-0.03411 0.09043,-0.03411 z m 14.258044,0 c 0.04516,0 0.09024,0.03407 0.135393,0.101803 0.05268,0.06773 0.07522,0.157896 0.0677,0.270784 -0.0075,0.105364 -0.05645,0.225752 -0.146762,0.361219 -0.09031,0.135466 -0.244768,0.271226 -0.463021,0.406693 -0.0075,-0.210726 0.0227,-0.428962 0.09043,-0.65474 0.02257,-0.06773 0.04511,-0.135872 0.0677,-0.203605 0.03011,-0.06773 0.06418,-0.131513 0.101801,-0.19172 0.01505,-0.01505 0.03375,-0.03375 0.05633,-0.05633 0.02258,-0.02258 0.05281,-0.03411 0.09043,-0.03411 z m -24.000602,1.625741 c 0.150518,0.173096 0.263739,0.395176 0.338997,0.666109 0.08279,0.263408 0.124023,0.545423 0.124023,0.846461 0,0.150519 -0.01485,0.259895 -0.04496,0.327628 -0.02257,0.06773 -0.04179,0.116655 -0.05684,0.146759 -0.04516,0.05268 -0.09741,0.07907 -0.157615,0.07907 -0.165571,0 -0.334883,-0.09785 -0.507979,-0.293521 -0.2032,-0.248356 -0.304889,-0.534731 -0.304889,-0.858346 0,-0.195674 0.05994,-0.368313 0.18035,-0.518832 0.120415,-0.150518 0.263343,-0.282435 0.428914,-0.395324 z m 27.240197,0 c 0.150519,0.173096 0.263221,0.395176 0.338482,0.666109 0.08278,0.263408 0.124539,0.545423 0.124539,0.846461 0,0.150519 -0.01538,0.259895 -0.04548,0.327628 -0.02258,0.06773 -0.04127,0.116655 -0.05633,0.146759 -0.04515,0.05268 -0.09792,0.07907 -0.158129,0.07907 -0.165571,0 -0.334883,-0.09785 -0.507979,-0.293521 -0.2032,-0.248356 -0.304892,-0.534731 -0.304892,-0.858346 0,-0.195674 0.06046,-0.368313 0.180869,-0.518832 0.120415,-0.150518 0.263342,-0.282435 0.428913,-0.395324 z m -35.269164,0.02274 c 0.01693,0 0.033,0.0033 0.04806,0.01085 0.03011,0.0075 0.06366,0.01137 0.101285,0.01137 h 0.101804 c 0.03763,0 0.07887,0.0038 0.124023,0.01137 -0.03763,0.105363 -0.0904,0.15813 -0.15813,0.15813 -0.06773,0.0075 -0.119981,-0.0073 -0.157613,-0.04496 -0.03763,-0.03763 -0.07554,-0.08323 -0.113173,-0.13591 0.01882,-0.0075 0.03681,-0.01085 0.05374,-0.01085 z" />
    </g>
  </g>
</svg>
