<?xml version="1.0" encoding="UTF-8" standalone="no"?>
<svg
   xmlns:dc="http://purl.org/dc/elements/1.1/"
   xmlns:cc="http://creativecommons.org/ns#"
   xmlns:rdf="http://www.w3.org/1999/02/22-rdf-syntax-ns#"
   xmlns:svg="http://www.w3.org/2000/svg"
   xmlns="http://www.w3.org/2000/svg"
   xmlns:sodipodi="http://sodipodi.sourceforge.net/DTD/sodipodi-0.dtd"
   xmlns:inkscape="http://www.inkscape.org/namespaces/inkscape"
   width="10.854755in"
   height="11.250049in"
   viewBox="0 0 275.71079 285.75124"
   version="1.1"
   id="svg1714"
   inkscape:version="1.0.2 (1.0.2+r75+1)"
   sodipodi:docname="updated-logo.svg">
  <defs
     id="defs1708">
    <filter
       inkscape:collect="always"
       style="color-interpolation-filters:sRGB"
       id="filter869-7"
       x="-2.2035498e-05"
       width="1.0000441"
       y="-1.7011042e-05"
       height="1.000034">
      <feGaussianBlur
         inkscape:collect="always"
         stdDeviation="0.0042442765"
         id="feGaussianBlur871-6" />
    </filter>
    <filter
       inkscape:collect="always"
       style="color-interpolation-filters:sRGB"
       id="filter1150"
       x="-5.0648327e-05"
       width="1.0001013"
       y="-0.00025125372"
       height="1.0005025">
      <feGaussianBlur
         inkscape:collect="always"
         stdDeviation="0.0033876956"
         id="feGaussianBlur1152" />
    </filter>
    <filter
       inkscape:collect="always"
       style="color-interpolation-filters:sRGB"
       id="filter869-6-4"
       x="-2.2035498e-05"
       width="1.0000441"
       y="-1.7011042e-05"
       height="1.000034">
      <feGaussianBlur
         inkscape:collect="always"
         stdDeviation="0.0042442765"
         id="feGaussianBlur871-25-1" />
    </filter>
  </defs>
  <sodipodi:namedview
     id="base"
     pagecolor="#ffffff"
     bordercolor="#666666"
     borderopacity="1.0"
     inkscape:pageopacity="0.99607843"
     inkscape:pageshadow="2"
     inkscape:zoom="0.3189801"
     inkscape:cx="610.49417"
     inkscape:cy="866.97816"
     inkscape:document-units="mm"
     inkscape:current-layer="g2517"
     inkscape:document-rotation="0"
     showgrid="false"
     inkscape:showpageshadow="false"
     showborder="true"
     inkscape:pagecheckerboard="true"
     units="in"
     fit-margin-top="0"
     fit-margin-left="0"
     fit-margin-right="0"
     fit-margin-bottom="0"
     inkscape:window-width="1920"
     inkscape:window-height="1010"
     inkscape:window-x="0"
     inkscape:window-y="0"
     inkscape:window-maximized="1" />
  <metadata
     id="metadata1711">
    <rdf:RDF>
      <cc:Work
         rdf:about="">
        <dc:format>image/svg+xml</dc:format>
        <dc:type
           rdf:resource="http://purl.org/dc/dcmitype/StillImage" />
        <dc:title></dc:title>
      </cc:Work>
    </rdf:RDF>
  </metadata>
  <g
     inkscape:label="Layer 1"
     inkscape:groupmode="layer"
     id="layer1"
     transform="translate(248.22446,43.089903)">
    <g
       id="g2517">
      <g
         id="g2778"
         transform="translate(174.7388,-352.73532)"
         style="filter:url(#filter869-7)">
        <path
           id="rect2770"
           style="fill:#231f20;fill-opacity:1;stroke:none;stroke-width:3.79999;stroke-linecap:round;stroke-linejoin:round;stroke-miterlimit:4;stroke-dasharray:none;stroke-opacity:1"
           d="m -383.48889,399.01691 h 194.77646 v 6.96977 h -194.77646 z" />
        <path
           style="color:#000000;font-style:normal;font-variant:normal;font-weight:normal;font-stretch:normal;font-size:medium;line-height:normal;font-family:sans-serif;font-variant-ligatures:normal;font-variant-position:normal;font-variant-caps:normal;font-variant-numeric:normal;font-variant-alternates:normal;font-variant-east-asian:normal;font-feature-settings:normal;font-variation-settings:normal;text-indent:0;text-align:start;text-decoration:none;text-decoration-line:none;text-decoration-style:solid;text-decoration-color:#000000;letter-spacing:normal;word-spacing:normal;text-transform:none;writing-mode:lr-tb;direction:ltr;text-orientation:mixed;dominant-baseline:auto;baseline-shift:baseline;text-anchor:start;white-space:normal;shape-padding:0;shape-margin:0;inline-size:0;clip-rule:nonzero;display:inline;overflow:visible;visibility:visible;opacity:1;isolation:auto;mix-blend-mode:normal;color-interpolation:sRGB;color-interpolation-filters:linearRGB;solid-color:#000000;solid-opacity:1;vector-effect:none;fill:#231f20;fill-opacity:1;fill-rule:nonzero;stroke:none;stroke-linecap:butt;stroke-linejoin:round;stroke-miterlimit:4;stroke-dasharray:none;stroke-dashoffset:0;stroke-opacity:1;color-rendering:auto;image-rendering:auto;shape-rendering:auto;text-rendering:auto;enable-background:accumulate;stop-color:#000000;stop-opacity:1"
           d="m -286.7832,327.90625 a 2.50025,2.50025 0 0 0 -1.16016,0.27539 c -15.17228,7.76616 -27.96969,10.39415 -38.82617,10.92578 a 2.50025,2.50025 0 0 0 -0.72656,0 c -0.22928,0.0342 -0.46167,0.0481 -0.69336,0.041 -13.63432,-0.67039 -25.77314,-3.42388 -35.34766,-9.45508 a 2.50025,2.50025 0 0 0 -3.09375,0.3418 l -35.99609,35.77343 a 2.50025,2.50025 0 0 0 -0.28516,3.20703 c 3.51024,5.01021 6.12164,10.32805 8.57813,14.97266 4.3484,8.22172 10.29772,19.7492 9.14648,34.32813 a 2.50025,2.50025 0 0 0 -0.004,0.0723 c -0.54852,11.01529 -3.64636,22.3633 -10.62695,35.85547 a 2.50025,2.50025 0 0 0 -0.44336,0.74219 c -0.098,0.25728 -0.22301,0.50355 -0.37305,0.73437 l 0.0176,-0.0273 c -7.59736,11.34992 -10.2302,24.80881 -12.27148,39.92578 a 2.50025,2.50025 0 0 0 -0.0215,0.32031 c -0.0963,17.67877 4.6002,31.82235 20.01368,48.6875 7.15774,7.83187 17.09828,14.53067 43.19336,17.375 9.32804,1.01676 22.00159,1.30605 37.38085,4.73047 a 2.50025,2.50025 0 0 0 0.15625,0.0312 c 0.0494,0.008 0.0974,0.0157 0.14649,0.0254 0.004,7.7e-4 0.008,10e-4 0.0117,0.002 a 2.50025,2.50025 0 0 0 0.0469,0.0117 c 8.33118,1.88409 15.70972,6.1625 22.47656,10.9336 a 2.50025,2.50025 0 0 0 2.94532,-0.0469 c 6.35427,-4.78883 13.27675,-9.16041 21.55078,-11.1875 0.0818,-0.0197 0.16319,-0.0364 0.24609,-0.0508 a 2.50025,2.50025 0 0 0 0.16797,-0.0352 l 0.0137,-0.002 0.008,-0.002 c 15.27922,-3.68059 27.92159,-4.1999 37.21289,-5.38086 26.04033,-3.30978 35.85831,-10.18433 42.875,-18.14258 15.1126,-17.14058 19.55653,-31.37115 19.14257,-49.05078 a 2.50025,2.50025 0 0 0 -0.0293,-0.32031 c -2.25818,-14.73145 -5.12521,-27.83634 -12.5293,-38.88867 a 2.50025,2.50025 0 0 0 -0.56055,-1.08008 c -0.17876,-0.20161 -0.33548,-0.4221 -0.46875,-0.65625 -7.41136,-13.58298 -10.74828,-25 -11.50586,-36.13672 a 2.50025,2.50025 0 0 0 -0.006,-0.0723 c -1.41913,-14.56471 4.32006,-26.20301 8.52344,-34.50586 2.37345,-4.68824 4.89219,-10.05019 8.3125,-15.12109 a 2.50025,2.50025 0 0 0 -0.34179,-3.20312 L -206.5586,328.7264 a 2.50025,2.50025 0 0 0 -3.09961,-0.28711 c -9.46635,6.20158 -21.55386,9.17275 -35.17578,10.08594 -0.23105,0.0113 -0.46202,0.003 -0.69141,-0.0273 a 2.50025,2.50025 0 0 0 -0.73047,0.0137 c -10.92882,-0.34129 -24.04139,-2.8154 -39.45117,-10.35156 l 0.0351,0.0195 a 2.50025,2.50025 0 0 0 -1.11132,-0.27344 z m 0.002,5.22266 c 15.76048,7.51228 29.48113,10.11965 40.86523,10.41601 a 2.50025,2.50025 0 0 0 0.5918,-0.0566 c 0.25572,0.009 0.50984,0.0427 0.76563,0.0293 a 2.50025,2.50025 0 0 0 0.0371,-0.002 c 13.38794,-0.8952 25.63969,-3.81232 35.80859,-9.92773 l 33.89648,32.50586 c -3.07313,4.87415 -5.48392,9.75895 -7.54297,13.82617 -4.21717,8.33008 -10.59706,21.10919 -9.04101,37.20899 0.81456,11.89896 4.43432,24.11197 12.10937,38.17382 a 2.50025,2.50025 0 0 0 0.0156,0.0293 c 0.14871,0.26396 0.35076,0.49123 0.52539,0.73828 a 2.50025,2.50025 0 0 0 0.31055,0.61524 c 7.02602,10.10136 9.83942,22.60948 12.11718,37.42383 0.3668,16.74884 -3.38635,29.01981 -17.89257,45.47265 -6.4951,7.36667 -14.38152,13.26315 -39.75586,16.48828 -8.87162,1.12762 -21.89921,1.6823 -37.62305,5.45508 -0.0229,0.004 -0.0455,0.01 -0.0684,0.0137 l -0.01,0.002 c -0.0259,0.006 -0.0483,0.009 -0.0742,0.0156 a 2.50025,2.50025 0 0 0 -0.0195,0.004 l -0.008,0.002 c -0.129,0.0251 -0.25894,0.0493 -0.38672,0.0801 a 2.50025,2.50025 0 0 0 -0.0195,0.004 c -8.60161,2.10735 -15.67268,6.43586 -21.91211,11.01172 -6.13836,-4.20854 -13.00543,-8.03486 -20.83008,-10.15039 v 1.85157 a 2.50025,2.50025 0 0 0 -1.61132,-2.33594 c -0.11224,-0.0262 -0.21354,-0.0722 -0.32618,-0.0977 a 2.50025,2.50025 0 0 0 -0.1289,-0.0273 l 0.0293,0.004 c -0.1434,-0.0298 -0.28891,-0.0574 -0.4336,-0.0801 l 0.15625,0.0312 c -15.88899,-3.53792 -28.99241,-3.84679 -37.92383,-4.82032 -25.42766,-2.77158 -33.41927,-8.52964 -40.04492,-15.77929 -14.79801,-16.19172 -18.76867,-28.3902 -18.70117,-45.14258 2.01301,-14.85423 4.60081,-27.41153 11.44531,-37.63672 a 2.50025,2.50025 0 0 0 0.0176,-0.0273 c 0.16423,-0.25268 0.27066,-0.53703 0.4082,-0.80469 a 2.50025,2.50025 0 0 0 0.4043,-0.56446 c 7.42833,-14.20728 10.83178,-26.48944 11.42969,-38.4121 1.2579,-16.11355 -5.35163,-28.76764 -9.71289,-37.01368 -2.13067,-4.02857 -4.62749,-8.86955 -7.78711,-13.68945 l 33.31055,-33.10547 c 10.27727,5.93353 22.58019,8.6291 35.98242,9.28516 a 2.50025,2.50025 0 0 0 0.0391,0.002 c 0.25478,0.009 0.5074,-0.0296 0.76172,-0.043 a 2.50025,2.50025 0 0 0 0.59375,0.0449 c 11.30038,-0.49617 24.72462,-3.27674 40.23242,-11.01757 z m 119.24219,109.12304 c -1e-4,0 -1.13274,0.26754 -1.13282,0.26758 -7e-5,4e-5 -0.91401,0.78508 -0.91406,0.78516 -5e-5,7e-5 -0.3652,0.75575 -0.36523,0.75586 -2e-5,5e-5 -0.0238,0.12803 -0.0469,0.25586 -0.0276,0.0574 -0.0918,0.19322 -0.0918,0.19336 -1.6e-4,7.3e-4 -0.0603,0.47034 -0.0547,0.61914 0.0224,0.59517 0.11477,0.6696 0.15625,0.7832 0.16591,0.45439 0.19894,0.43958 0.28906,0.60156 0.0901,0.16198 0.20043,0.35434 0.3457,0.59961 0.28147,0.47518 0.70484,1.17075 1.28125,2.10742 8.5e-4,10e-4 0.006,0.009 0.008,0.0117 8.6e-4,0.001 0.003,0.006 0.004,0.008 0.0103,0.0168 0.013,0.0202 0.0234,0.0371 10e-4,0.002 5.2e-4,0.004 0.002,0.006 3e-5,6e-5 0.002,0.004 0.002,0.004 6.4e-4,10e-4 0.001,9.1e-4 0.002,0.002 a 2.50025,2.50025 0 0 0 0.0137,0.0254 c 0.0111,0.018 0.0144,0.0213 0.0254,0.0391 0.58622,0.95117 1.01724,1.64091 1.31836,2.11132 0.15338,0.23961 0.27482,0.42477 0.37891,0.57813 0.10408,0.15336 0.0858,0.18519 0.40039,0.52344 0.0786,0.0846 0.11695,0.19069 0.57226,0.46093 0.11383,0.0676 0.49338,0.22631 0.49415,0.22657 7.6e-4,2.5e-4 1.02871,0.11333 1.02929,0.11328 2.9e-4,-3e-5 0.74585,-0.1913 0.7461,-0.19141 2.4e-4,-1e-4 0.69706,-0.45099 0.69726,-0.45117 4e-4,-3.6e-4 0.69314,-1.0755 0.69336,-1.07617 2.2e-4,-6.7e-4 0.11479,-0.51343 0.12109,-0.67774 0.006,-0.16431 -0.003,-0.28065 -0.0137,-0.375 -0.021,-0.18869 -0.0486,-0.29291 -0.0703,-0.375 -0.0435,-0.16418 -0.0747,-0.23529 -0.0996,-0.29882 -0.0533,-0.13616 -0.0806,-0.17974 -0.11523,-0.25 -0.0362,-0.35563 -0.13632,-0.49001 -0.17383,-0.58399 -0.1141,-0.28588 -0.16437,-0.35317 -0.23242,-0.47461 -0.25924,-0.46259 -0.67974,-1.11759 -1.26563,-2.01562 a 2.50025,2.50025 0 0 0 -0.01,-0.0176 l -0.006,-0.01 c -0.007,-0.0126 -0.0142,-0.0226 -0.0215,-0.0351 -0.39547,-0.68187 -0.79513,-1.36116 -1.13086,-1.91993 -0.27043,-0.45008 -0.45003,-0.73325 -0.66211,-1.04687 a 2.50025,2.50025 0 0 0 -0.17968,-0.2832 c -0.036,-0.0491 -0.0623,-0.10049 -0.23047,-0.27344 -0.0421,-0.0432 -0.0942,-0.0953 -0.17774,-0.16602 -0.0835,-0.0707 -0.40598,-0.2811 -0.40625,-0.28125 -1.3e-4,-7e-5 -0.43152,-0.18746 -0.43164,-0.1875 -1.1e-4,-3e-5 -0.77139,-0.125 -0.77148,-0.125 z m -235.98828,1.97461 c -1e-4,0 -0.79481,0.12497 -0.79493,0.125 -1.1e-4,4e-5 -0.44322,0.19524 -0.44335,0.19532 -2.7e-4,1.4e-4 -0.32953,0.21593 -0.41407,0.28906 -0.0845,0.0731 -0.13749,0.12737 -0.17969,0.17187 -0.16878,0.178 -0.19492,0.2313 -0.23046,0.28125 a 2.50025,2.50025 0 0 0 -0.0645,0.0937 c -0.002,0.003 -0.004,0.007 -0.006,0.01 l -0.004,0.006 c -0.41046,0.63773 -0.98766,1.64045 -1.44141,2.43359 -0.22529,0.39379 -0.40583,0.71562 -0.50781,0.89844 -10e-4,0.002 -0.006,0.009 -0.008,0.0117 -0.52117,0.82674 -0.92744,1.48237 -1.16602,1.92383 -0.0664,0.12278 -0.11569,0.19007 -0.22656,0.48242 -0.0277,0.0731 -0.0632,0.16041 -0.10352,0.33008 -0.004,0.0188 0.004,0.0988 -0.002,0.11914 -0.0503,0.0996 -0.0915,0.17466 -0.16797,0.37695 -0.0237,0.0626 -0.053,0.13214 -0.0937,0.29101 -0.0204,0.0794 -0.0448,0.17937 -0.0645,0.35938 -0.01,0.09 -0.0188,0.2018 -0.0137,0.35742 0.005,0.15562 0.10526,0.64189 0.10546,0.64258 2.1e-4,6.9e-4 0.63243,1.0543 0.63282,1.05469 1.9e-4,1.9e-4 0.6814,0.48035 0.68164,0.48047 2.4e-4,1.1e-4 0.76339,0.22457 0.76367,0.22461 5.7e-4,7e-5 1.0891,-0.10132 1.08984,-0.10157 7.5e-4,-2.4e-4 0.4012,-0.1652 0.51953,-0.23632 0.47335,-0.28449 0.50362,-0.39372 0.58204,-0.48047 0.31367,-0.34701 0.29283,-0.37452 0.39453,-0.5293 0.10169,-0.15478 0.21914,-0.34181 0.36914,-0.58399 0.3,-0.48434 0.72558,-1.18645 1.3164,-2.17773 a 2.50025,2.50025 0 0 0 0.008,-0.0137 c 5.4e-4,-9.2e-4 0.003,-0.005 0.004,-0.006 a 2.50025,2.50025 0 0 0 0.002,-0.002 c 0.58903,-0.98872 1.00221,-1.6952 1.28515,-2.18946 0.14147,-0.24713 0.25002,-0.43991 0.33789,-0.60351 0.0879,-0.16361 0.12371,-0.1633 0.27735,-0.59766 0.0384,-0.10859 0.11497,-0.19254 0.14453,-0.71289 0.007,-0.13009 -0.0272,-0.53239 -0.0274,-0.5332 -4e-5,-2.7e-4 -0.0667,-0.17486 -0.11914,-0.31446 -0.0244,-0.13267 -0.0488,-0.26947 -0.0488,-0.26953 -4e-5,-1.1e-4 -0.34956,-0.73625 -0.34961,-0.73632 -6e-5,-8e-5 -0.89251,-0.78512 -0.89258,-0.78516 -7e-5,-4e-5 -1.14444,-0.28516 -1.14453,-0.28516 z m 237.3457,1.33594 c 0.062,0.003 0.11073,0.005 0.20117,0.01 -0.10414,-10e-4 -0.13542,-10e-4 -0.21484,-0.002 z m 2.29492,0.93945 0.01,0.0176 0.008,0.01 c -5.6e-4,-6.4e-4 -0.005,-0.003 -0.006,-0.004 -0.001,-0.001 -8.2e-4,-0.002 -0.002,-0.004 -1.5e-4,-1.7e-4 1.5e-4,-0.002 0,-0.002 h -0.002 c -5e-4,-9.4e-4 -0.008,-0.0175 -0.008,-0.0176 z m 0.0215,0.041 c 0.004,0.004 0.013,0.0144 0.0156,0.0176 0.001,0.001 0.005,0.007 0.006,0.008 9.1e-4,10e-4 0.005,0.007 0.006,0.008 l 0.004,0.008 c 0.009,0.0144 0.0125,0.0185 0.0234,0.0352 l 0.002,0.004 c 0.01,0.0204 0.0587,0.12173 0.11328,0.23633 -0.0841,-0.15738 -0.1495,-0.27824 -0.16992,-0.31641 z m -4.06836,0.0371 c -0.009,0.0128 -0.0112,0.0158 -0.0195,0.0273 5.8e-4,-10e-4 0.01,-0.021 0.01,-0.0215 z m 4.45117,1.18359 c 0.01,0.0763 0.0111,0.0867 0.0195,0.1543 0.0157,0.20063 0.0332,0.42386 0.0332,0.42383 0,0 -0.006,0.0133 -0.006,0.0137 -0.006,-0.0747 -0.0231,-0.29722 -0.0469,-0.5918 z m -243.48047,0.53711 c 6e-4,2e-4 0.005,0.002 0.006,0.002 -0.0606,0.0655 -0.0737,0.0797 -0.12109,0.13086 -0.008,0.007 -0.0454,0.0362 -0.0488,0.0391 0.0301,-0.0316 0.0827,-0.0864 0.16406,-0.17188 z m 238.67773,0.043 c 7.7e-4,10e-4 0.001,0.003 0.002,0.004 0.0314,0.25139 0.0557,0.45204 0.0625,0.50586 0.0228,0.0528 0.0284,0.0655 0.0566,0.13086 0.005,0.011 0.004,0.0121 0.01,0.0234 -0.0189,-0.0339 -0.0401,-0.0707 -0.0508,-0.0898 -0.005,-0.0118 -0.005,-0.014 -0.01,-0.0254 6e-5,4.8e-4 0.002,0.009 0.002,0.01 -0.007,-0.0123 -0.0391,-0.0684 -0.0391,-0.0684 0,10e-6 -0.004,-0.0385 -0.004,-0.041 -1.5e-4,-3.1e-4 1.5e-4,-0.002 0,-0.002 -1.4e-4,-0.002 -0.002,-0.0229 -0.002,-0.0254 0.002,0.004 0.006,0.0127 0.008,0.0176 -0.003,-0.0324 -0.0184,-0.23164 -0.0352,-0.43945 z m 4.72071,0.42773 c -0.0881,0.25121 -0.17494,0.49788 -0.17774,0.50586 l -0.0391,0.0254 c 0,0 -0.002,0.002 -0.002,0.002 -4.4e-4,0.001 -0.003,0.003 -0.004,0.004 l -0.0293,0.0176 c 0.0333,-0.0802 0.11553,-0.27884 0.21875,-0.52734 -0.0836,0.22793 -0.15043,0.41453 -0.16601,0.45703 0.0581,-0.14026 0.11015,-0.26926 0.19922,-0.48438 z m -4.59571,0.25977 c 0.0245,0.0519 0.0363,0.0772 0.0605,0.12695 l -0.0293,-0.0488 c -0.006,-0.0111 -0.0195,-0.0495 -0.0312,-0.0781 z m 0.17188,0.32422 a 2.50025,2.50025 0 0 0 0.004,0.006 c 5e-5,9e-5 0.002,0.006 0.002,0.006 z m 0.10156,0.12891 c 0.003,0.003 0.005,0.004 0.008,0.008 5.2e-4,4.3e-4 0.005,0.005 0.006,0.006 0.0561,0.0471 0.3492,0.29326 0.59766,0.50195 0.002,0.004 0.004,0.006 0.006,0.01 0.008,0.005 0.009,0.005 0.0176,0.01 0.002,0.002 0.003,0.004 0.006,0.006 -0.009,-0.005 -0.0126,-0.007 -0.0215,-0.0117 0.006,0.009 0.01,0.0146 0.0156,0.0234 -0.0291,-0.0224 -0.0342,-0.0279 -0.0664,-0.0527 -0.0866,-0.0473 -0.23833,-0.12895 -0.23828,-0.12891 2e-5,2e-5 -0.0308,-0.0339 -0.0371,-0.041 0.0158,0.01 0.14233,0.0842 0.24219,0.14453 -0.17677,-0.1362 -0.29911,-0.22895 -0.35938,-0.27539 -0.0659,-0.0741 -0.0861,-0.0973 -0.13672,-0.15429 0.0529,0.0631 0.0647,0.0788 0.11328,0.13672 -0.006,-0.005 -0.0489,-0.0391 -0.0488,-0.0391 2.2e-4,2.6e-4 -0.0493,-0.0628 -0.0899,-0.11523 -5.7e-4,-10e-4 -0.0104,-0.021 -0.0117,-0.0234 -2.2e-4,-4e-4 -0.002,-0.003 -0.002,-0.004 z m -234.81055,0.71289 c -0.0503,0.26422 -0.11429,0.60282 -0.13085,0.6875 -0.0117,0.0366 -0.0209,0.0788 -0.0293,0.0996 0.007,-0.015 0.0135,-0.03 0.0176,-0.0391 -3e-5,1.2e-4 -0.002,0.008 -0.002,0.008 2e-5,-3e-5 -0.0132,0.0264 -0.0156,0.0313 -3.5e-4,8.6e-4 -0.002,0.003 -0.002,0.004 -0.001,0.003 -0.003,0.0113 -0.004,0.0137 -0.0232,0.0524 -0.0246,0.0512 -0.0352,0.0723 0.0141,-0.031 0.0194,-0.0413 0.0332,-0.0723 -0.007,0.0139 -0.019,0.0357 -0.0312,0.0605 0.008,-0.0373 0.11794,-0.53472 0.1875,-0.84375 0.004,-0.008 0.007,-0.0139 0.0117,-0.0215 z m 236.23243,0.17382 c 0.18293,0.01 0.35997,0.0197 0.65429,0.0352 -0.31963,-0.004 -0.56759,-0.007 -0.6582,-0.008 0.002,-0.0114 0.002,-0.0165 0.004,-0.0274 z m -236.50977,0.84766 -0.01,0.0176 -0.0234,0.0371 c 0.005,-0.009 0.004,-0.012 0.01,-0.0215 0.009,-0.0146 0.017,-0.0229 0.0234,-0.0332 z m -0.0469,0.0723 c -0.0122,0.0206 -0.0166,0.03 -0.0254,0.0449 -0.008,0.014 -0.0221,0.0355 -0.0254,0.041 -0.002,0.003 -0.0117,0.0215 -0.0117,0.0215 0,-1e-5 -0.009,0.009 -0.01,0.01 0.002,-0.003 0.006,-0.008 0.008,-0.0117 0.0199,-0.0318 0.0322,-0.0539 0.0645,-0.10546 z m -1.7754,0.50976 c 0.10537,0.17516 0.2286,0.37916 0.22852,0.37891 -6e-5,-2.2e-4 0.0197,0.12965 0.0332,0.19922 -0.0298,0.0138 -0.13672,0.0625 -0.13672,0.0625 0,0 -0.077,-0.39355 -0.125,-0.64063 z m 1.13672,0.0488 c 0.002,0.003 0.0258,0.0332 0.0274,0.0352 -0.0478,0.0401 -0.0546,0.0439 -0.0977,0.0801 0.027,-0.0441 0.0415,-0.0684 0.0703,-0.11523 z m 0.041,0.0508 c 10e-4,0.002 0.0292,0.039 0.0293,0.0391 -0.002,0.001 -0.12568,0.0577 -0.17383,0.0801 0.004,-0.006 0.006,-0.01 0.01,-0.0156 0.0621,-0.0478 0.068,-0.0521 0.13477,-0.10352 z m 152.95312,118.26563 a 2.50025,2.50025 0 0 0 -0.82226,0.1621 c -2.3e-4,2e-5 -0.008,-0.0118 -0.008,-0.0117 -0.0913,0.0425 -0.0545,0.0263 -0.0645,0.0312 -0.008,0.004 -0.0204,0.0112 -0.0293,0.0156 -0.0146,0.007 -0.0273,0.0127 -0.0488,0.0234 -0.13898,0.0694 -0.44455,0.22343 -0.94922,0.47656 -1.00935,0.50627 -2.81088,1.41023 -5.62695,2.82422 a 2.50025,2.50025 0 0 0 -0.0332,0.0176 c -0.0209,0.0109 -0.0414,0.0208 -0.0625,0.0312 a 2.50025,2.50025 0 0 0 -0.01,0.004 c -4.39349,2.20997 -6.30648,3.1735 -6.69727,3.3711 -0.0163,0.008 -0.0273,0.0136 -0.0391,0.0195 -0.006,0.003 -0.0145,0.007 -0.0195,0.01 -0.008,0.004 -0.0123,0.007 -0.0215,0.0117 -0.005,0.002 -0.01,0.006 -0.0215,0.0117 -0.0117,0.006 -0.27335,0.16596 -0.27344,0.16602 -8e-5,6e-5 2.4883,4.31592 2.50781,4.30664 0.0195,-0.009 0.022,-0.013 0.0274,-0.0156 0.0107,-0.005 0.0182,-0.008 0.0254,-0.0117 0.005,-0.003 0.0133,-0.007 0.0195,-0.01 4.4e-4,-2.3e-4 0.003,-0.002 0.004,-0.002 0.009,-0.005 0.0171,-0.008 0.0293,-0.0137 0.003,-0.002 0.0141,-0.008 0.0176,-0.01 0.0256,-0.0129 0.42932,-0.21545 0.4707,-0.23633 0.46873,-0.23518 1.20678,-0.60423 2.09961,-1.05273 3.55911,-1.78788 9.53744,-4.7951 10.67579,-5.36914 a 2.50025,2.50025 0 0 0 0.0371,-0.0176 c 0.0691,-0.0348 0.0979,-0.0496 0.13477,-0.0684 0.0117,-0.006 0.0298,-0.0147 0.043,-0.0215 0.007,-0.004 0.003,-8.3e-4 0.0488,-0.0254 0.0676,-0.0366 0.19922,-0.12109 0.19922,-0.12109 0,0 -1.80842,-3.30835 -2.21875,-3.94727 l 3.16796,1.95118 a 2.50025,2.50025 0 0 0 -2.5625,-2.5 z m -67.07031,1.60937 c -3e-5,0 -1.40239,4.72068 -1.40234,4.7207 4e-5,3e-5 0.17723,0.0797 0.20312,0.0899 0.0518,0.0203 0.0594,0.0215 0.0703,0.0254 0.0217,0.008 0.0281,0.009 0.0351,0.0117 0.0146,0.005 0.0368,0.0128 0.0508,0.0176 10e-4,3.2e-4 0.003,0.002 0.0156,0.006 0.002,5.1e-4 0.008,10e-4 0.01,0.002 0.009,0.003 0.0108,0.004 0.0274,0.01 0.0294,0.01 0.0468,0.0175 0.0937,0.0332 1.18235,0.39608 7.58616,2.5263 11.3789,3.78711 0.94819,0.3152 1.7323,0.57698 2.23047,0.74218 0.24909,0.0826 0.42612,0.14051 0.52149,0.17188 0.0128,0.005 0.0185,0.005 0.0215,0.006 0.0131,0.004 0.026,0.0101 0.0371,0.0137 0.009,0.003 0.0156,0.005 0.0312,0.01 0.008,0.002 0.0142,0.005 0.0449,0.0137 0.0307,0.009 1.98837,-4.54682 1.98828,-4.54688 -9e-5,-5e-5 -0.40948,-0.19458 -0.42773,-0.20117 -0.0183,-0.007 -0.0247,-0.009 -0.0312,-0.0117 -0.013,-0.005 -0.0204,-0.007 -0.0293,-0.01 -0.009,-0.003 -0.0212,-0.006 -0.0312,-0.01 0.003,8.5e-4 0.004,10e-4 -0.006,-0.002 -0.005,-0.002 -0.0148,-0.006 -0.0273,-0.01 -4.5e-4,-1.5e-4 -0.007,-0.002 -0.008,-0.002 -0.42519,-0.1432 -2.44496,-0.81764 -7.10547,-2.3711 a 2.50025,2.50025 0 0 0 -0.002,-0.002 c -3.11137,-1.03362 -5.05796,-1.67811 -6.1289,-2.0332 -0.46889,-0.15547 -0.70525,-0.23372 -0.86719,-0.28711 -0.024,-0.008 -0.0185,-0.007 -0.0391,-0.0137 -0.0145,-0.005 -0.072,-0.0234 -0.084,-0.0274 -0.003,-10e-4 -0.0266,-0.008 -0.0254,-0.008 -0.0196,-0.006 -0.0383,-0.0136 -0.0566,-0.0195 -0.007,-0.002 -0.0139,-0.005 -0.0293,-0.01 -0.008,-0.002 -0.0153,-0.005 -0.0391,-0.0117 -0.0119,-0.004 -0.0604,-0.0176 -0.0605,-0.0176 -1.2e-4,-3e-5 -0.35934,-0.0664 -0.35938,-0.0664 z"
           id="path2772" />
        <path
           style="color:#000000;font-style:normal;font-variant:normal;font-weight:normal;font-stretch:normal;font-size:medium;line-height:normal;font-family:sans-serif;font-variant-ligatures:normal;font-variant-position:normal;font-variant-caps:normal;font-variant-numeric:normal;font-variant-alternates:normal;font-variant-east-asian:normal;font-feature-settings:normal;font-variation-settings:normal;text-indent:0;text-align:start;text-decoration:none;text-decoration-line:none;text-decoration-style:solid;text-decoration-color:#000000;letter-spacing:normal;word-spacing:normal;text-transform:none;writing-mode:lr-tb;direction:ltr;text-orientation:mixed;dominant-baseline:auto;baseline-shift:baseline;text-anchor:start;white-space:normal;shape-padding:0;shape-margin:0;inline-size:0;clip-rule:nonzero;display:inline;overflow:visible;visibility:visible;opacity:1;isolation:auto;mix-blend-mode:normal;color-interpolation:sRGB;color-interpolation-filters:linearRGB;solid-color:#000000;solid-opacity:1;vector-effect:none;fill:#fcfafb;fill-opacity:1;fill-rule:nonzero;stroke:none;stroke-linecap:butt;stroke-linejoin:round;stroke-miterlimit:4;stroke-dasharray:none;stroke-dashoffset:0;stroke-opacity:1;color-rendering:auto;image-rendering:auto;shape-rendering:auto;text-rendering:auto;enable-background:accumulate;stop-color:#000000;stop-opacity:1"
           d="m -207.71094,318.21289 a 4.000395,4.000395 0 0 0 -2.61914,0.94922 c -8.14319,6.90511 -20.17545,10.50715 -35.05273,11.50195 -0.0662,0.004 -0.13288,0.006 -0.19922,0.004 -10.83796,-0.28215 -23.50627,-2.48389 -39.42969,-10.83008 a 4.000395,4.000395 0 0 0 -3.7793,0.0352 c -15.71457,8.60534 -27.97674,10.92963 -38.7871,11.40429 -0.065,0.003 -0.13035,0.003 -0.19532,0 a 4.000395,4.000395 0 0 0 -0.004,-0.002 c -14.89311,-0.72905 -26.98856,-4.11223 -35.25391,-10.87109 a 4.000395,4.000395 0 0 0 -5.35156,0.25781 l -43.79883,43.5293 a 4.000395,4.000395 0 0 0 -0.1875,5.47461 c 4.45735,5.08616 7.7691,11.76603 11.07031,18.00781 4.30847,8.14622 9.24183,17.9284 8.25391,30.10351 a 4.000395,4.000395 0 0 0 -0.01,0.13086 c -0.48537,10.02408 -3.17987,20.17207 -9.99219,33.20118 -0.035,0.0662 -0.0735,0.13117 -0.11523,0.19335 a 4.000395,4.000395 0 0 0 -0.004,0.006 c -8.79662,13.14153 -11.51786,28.14305 -13.5996,43.68164 a 4.000395,4.000395 0 0 0 -0.0352,0.49415 c -0.17847,19.41282 5.54007,36.35675 22.08594,54.46093 8.26868,9.04744 20.86463,16.91761 48.1582,19.89258 9.97206,1.08695 22.12534,1.33421 36.83594,4.64649 a 4.000395,4.000395 0 0 0 0.0195,0.006 c 8.07327,1.82576 15.96142,6.76676 23.38476,12.33399 a 4.000395,4.000395 0 0 0 4.88868,-0.0684 c 7.10172,-5.64294 14.28819,-10.63127 22.31445,-12.59766 a 4.000395,4.000395 0 0 0 0.006,-0.002 c 14.65573,-3.57761 26.80597,-4.04147 36.75976,-5.30664 27.236,-3.46176 39.68893,-11.55625 47.79493,-20.75 16.22064,-18.39731 21.63485,-35.44003 21.10937,-54.84766 a 4.000395,4.000395 0 0 0 -0.043,-0.49414 c -2.35853,-15.49626 -5.34823,-30.44354 -14.375,-43.42383 l -0.004,-0.004 c -0.0428,-0.062 -0.0812,-0.12523 -0.11719,-0.19141 a 4.000395,4.000395 0 0 0 -0.002,-0.006 c -7.03898,-12.89647 -9.91314,-22.99273 -10.58007,-33 a 4.000395,4.000395 0 0 0 -0.0117,-0.13086 c -1.21239,-12.16501 3.54453,-22.03772 7.70898,-30.26367 3.18895,-6.29909 6.38364,-13.03803 10.75,-18.20312 a 4.000395,4.000395 0 0 0 -0.28515,-5.46875 l -44.57227,-42.74024 a 4.000395,4.000395 0 0 0 -2.73633,-1.11328 z m -0.34375,9.24219 39.56641,37.9414 c -4.00829,5.53697 -6.89572,11.55345 -9.51563,16.72852 -4.20087,8.29789 -9.96762,19.9762 -8.53711,34.58984 0.75309,11.18443 4.09466,22.61771 11.53125,36.24414 0.17443,0.32078 0.36624,0.63349 0.57422,0.9336 a 4.000395,4.000395 0 0 0 0.004,0.004 c 7.80252,11.21773 10.67736,24.66962 12.99023,39.80274 0.43931,17.77812 -3.94545,31.91032 -19.11132,49.11133 -7.06563,8.01377 -16.74469,14.78952 -42.80274,18.10156 -9.36011,1.18971 -22.16508,1.69107 -37.6543,5.47266 a 4.000395,4.000395 0 0 0 -0.65625,0.22265 c -8.59288,2.2564 -15.78731,7.00469 -22.32812,12.04883 -7.12829,-5.15333 -15.00394,-9.94562 -23.92578,-11.9668 a 4.000395,4.000395 0 0 0 -0.0254,-0.006 c -15.55418,-3.50442 -28.3642,-3.77641 -37.74414,-4.79882 -26.11289,-2.84628 -35.91153,-9.45147 -43.11914,-17.33789 -15.47192,-16.92909 -20.10881,-30.97716 -19.98633,-48.76172 2.04193,-15.1686 4.67603,-28.66821 12.27344,-40.02149 l 0.004,-0.006 c 0.20237,-0.30174 0.38779,-0.61384 0.55664,-0.93554 a 4.000395,4.000395 0 0 0 0.004,-0.006 c 7.19292,-13.75705 10.33269,-25.24613 10.88672,-36.44336 1.17093,-14.6405 -4.81002,-26.21815 -9.15821,-34.43946 -2.71106,-5.12595 -5.70296,-11.08963 -9.80859,-16.55468 l 38.88086,-38.64258 c 9.84723,6.77771 22.57616,9.82574 36.98828,10.53125 l -0.004,-0.002 c 0.31369,0.0157 0.62763,0.0174 0.94141,0.004 a 4.000395,4.000395 0 0 0 0.004,0 c 11.2668,-0.4947 24.53134,-3.15567 40.39844,-11.48437 16.10628,8.08233 29.7081,10.58392 41.03906,10.8789 0.31403,0.008 0.62797,10e-4 0.9414,-0.0195 14.39698,-0.96268 27.06871,-4.23739 36.79297,-11.18945 z m -99.82812,239.24414 0.32422,0.0918 a 4.000395,4.000395 0 0 0 -0.32422,-0.0918 z"
           id="path2774" />
        <path
           style="color:#000000;font-style:normal;font-variant:normal;font-weight:normal;font-stretch:normal;font-size:medium;line-height:normal;font-family:sans-serif;font-variant-ligatures:normal;font-variant-position:normal;font-variant-caps:normal;font-variant-numeric:normal;font-variant-alternates:normal;font-variant-east-asian:normal;font-feature-settings:normal;font-variation-settings:normal;text-indent:0;text-align:start;text-decoration:none;text-decoration-line:none;text-decoration-style:solid;text-decoration-color:#000000;letter-spacing:normal;word-spacing:normal;text-transform:none;writing-mode:lr-tb;direction:ltr;text-orientation:mixed;dominant-baseline:auto;baseline-shift:baseline;text-anchor:start;white-space:normal;shape-padding:0;shape-margin:0;inline-size:0;clip-rule:nonzero;display:inline;overflow:visible;visibility:visible;opacity:1;isolation:auto;mix-blend-mode:normal;color-interpolation:sRGB;color-interpolation-filters:linearRGB;solid-color:#000000;solid-opacity:1;vector-effect:none;fill:#231f20;fill-opacity:1;fill-rule:nonzero;stroke:none;stroke-linecap:butt;stroke-linejoin:round;stroke-miterlimit:4;stroke-dasharray:none;stroke-dashoffset:0;stroke-opacity:1;color-rendering:auto;image-rendering:auto;shape-rendering:auto;text-rendering:auto;enable-background:accumulate;stop-color:#000000;stop-opacity:1"
           d="m -207.76562,309.65039 a 4.000395,4.000395 0 0 0 -3.1211,1.46094 c -6.39601,7.79304 -18.08067,12.25942 -34.73242,13.40039 -10.95329,-0.30339 -22.86979,-2.19996 -39.35547,-11.46289 a 4.000395,4.000395 0 0 0 -3.98047,0.0351 c -16.33184,9.56407 -27.73264,11.54069 -38.69726,12.03907 -16.66857,-0.84373 -28.43106,-5.10012 -34.96485,-12.77735 a 4.000395,4.000395 0 0 0 -5.86523,-0.24414 l -52.49024,52.16797 a 4.000395,4.000395 0 0 0 0.41211,6.0332 c 4.86241,3.66358 9.53003,12.10818 13.83203,20.24219 4.26671,8.06726 8.4277,16.5174 7.5586,26.83399 a 4.000395,4.000395 0 0 0 -0.01,0.14648 c -0.43273,9.19712 -2.76013,18.20056 -9.29883,30.71289 -9.5654,14.47713 -12.34272,30.62433 -14.43554,46.3457 a 4.000395,4.000395 0 0 0 -0.0352,0.47852 c -0.26316,20.88087 6.19769,39.87535 23.70117,59.02734 9.25656,10.12832 23.72557,18.76888 52.02539,21.85352 10.37858,1.13127 22.10065,1.36724 36.16993,4.53711 7.55767,1.70992 16.57631,7.62928 24.77148,14.05859 a 4.000395,4.000395 0 0 0 4.99414,-0.0449 c 8.16926,-6.64802 16.13326,-12.53327 23.63477,-14.37109 14.00873,-3.4197 25.72434,-3.86538 36.08007,-5.18164 28.24029,-3.58941 42.55272,-12.48736 51.62696,-22.7793 17.15884,-19.4614 23.27848,-38.5685 22.64258,-59.44141 a 4.000395,4.000395 0 0 0 -0.043,-0.47656 c -2.3731,-15.68085 -5.43835,-31.77649 -15.25977,-46.08008 -6.76106,-12.39361 -9.24882,-21.35508 -9.8457,-30.54297 a 4.000395,4.000395 0 0 0 -0.0137,-0.14648 c -1.05317,-10.29947 2.95611,-18.82079 7.07812,-26.96289 4.15609,-8.20947 8.6724,-16.7384 13.46875,-20.48828 a 4.000395,4.000395 0 0 0 0.30469,-6.03711 l -53.41406,-51.22461 a 4.000395,4.000395 0 0 0 -2.73828,-1.11133 z m 0.0918,9.6582 47.57617,45.625 c -5.27182,5.6165 -8.97842,13.15533 -12.42578,19.96485 -4.1757,8.24815 -9.18737,18.56659 -7.90039,31.33203 0.68289,10.30782 3.66338,20.69991 10.8086,33.79101 a 4.000395,4.000395 0 0 0 0.22656,0.36719 c 8.7792,12.6219 11.73572,27.301 14.08789,42.78906 0.54099,19.14196 -4.60336,35.4974 -20.64649,53.69336 -7.90012,8.96026 -19.65118,16.70509 -46.63476,20.13477 -9.80514,1.24628 -22.12178,1.72043 -36.9707,5.3457 a 4.000395,4.000395 0 0 0 -0.004,0.002 c -8.94533,2.19155 -16.78279,7.93043 -24.32422,13.98437 -7.85167,-5.98478 -16.44058,-11.63366 -25.41016,-13.66211 a 4.000395,4.000395 0 0 0 -0.004,0 c -14.91129,-3.35957 -27.23475,-3.61453 -37.06055,-4.68555 -27.04047,-2.94737 -38.92758,-10.47917 -46.98633,-19.29687 -16.36583,-17.9072 -21.80111,-34.17083 -21.60156,-53.32031 2.07521,-15.52643 4.77051,-30.25555 13.32227,-43.03125 a 4.000395,4.000395 0 0 0 0.2207,-0.3711 c 6.91388,-13.22334 9.70649,-23.67071 10.20312,-33.99414 1.05251,-12.77805 -4.13874,-23.00339 -8.45898,-31.17187 -3.56838,-6.74692 -7.40988,-14.2167 -12.78125,-19.73828 l 46.75391,-46.4668 c 8.77278,8.00124 21.82533,11.7504 37.8164,12.5332 a 4.000395,4.000395 0 0 0 0.3711,0 c 11.31512,-0.49682 24.16194,-2.91777 40.60547,-12.13867 16.65133,8.94359 29.91274,11.2339 41.25976,11.5293 a 4.000395,4.000395 0 0 0 0.37109,-0.008 c 15.97417,-1.06813 28.95752,-5.05089 37.58594,-13.20703 z"
           id="path2776" />
      </g>
      <path
         style="fill:#5ccace;fill-opacity:1;stroke:#5ccace;stroke-width:4.5;stroke-linecap:round;stroke-linejoin:miter;stroke-miterlimit:4;stroke-dasharray:none;stroke-opacity:1"
         d="m -111.2736,55.45666 c -30.8538,0 -61.7076,0.003 -92.56135,0.003 0.32038,11.18481 -0.14711,22.56615 -4.2871,33.11054 -3.70678,12.78959 -12.51529,23.38316 -15.58187,36.3969 -4.36599,14.70404 -5.05076,31.3649 2.4233,45.20277 5.31643,9.79731 12.42163,19.16356 22.21269,24.89859 16.28483,7.9172 34.71643,7.10186 52.22513,9.68906 13.2174,1.55438 26.4246,5.15787 37.4593,12.85812 14.3955,-11.31829 33.1756,-13.16622 50.7128,-15.19515 15.8208,-1.99221 34.0255,-3.12423 45.9233,-15.00886 C -0.172,174.73097 8.7954,156.95851 5.9913,138.81116 4.4979,124.21159 -1.7187,110.61211 -8.9528,97.9736 -15.4864,84.83778 -19.1257,70.16547 -18.6995,55.4558 c -30.858,0 -61.7161,0 -92.5741,0 z"
         id="path2903" />
      <path
         style="fill:#5ccace;fill-opacity:1;stroke:#5ccace;stroke-width:4.3;stroke-linecap:round;stroke-linejoin:miter;stroke-miterlimit:4;stroke-dasharray:none;stroke-opacity:1"
         d="m -114.6125,-16.31373 c -13.0386,5.90986 -27.3922,9.93608 -41.8073,9.36635 -11.3668,-0.64402 -22.5745,-3.5506 -32.86574,-8.41166 -10.34431,10.26467 -20.80564,20.4437 -31.00046,30.82031 4.94278,9.40787 10.46279,18.64241 13.93052,28.72822 63.17948,0 126.35888,0 189.53838,0 3.568,-10.7932 9.2431,-20.71389 14.2856,-30.85375 -10.8311,-9.71524 -21.0818,-20.0601 -31.618,-30.09209 -13.1344,6.5201 -28.072,10.19415 -42.7673,9.12656 -12.2203,-1.18253 -24.0701,-4.86952 -35.2125,-9.94101 -0.8277,0.41903 -1.6554,0.83805 -2.4832,1.25707 z"
         id="path2905" />
      <g
         aria-label="Auto"
         id="text2786"
         style="font-style:normal;font-variant:normal;font-weight:normal;font-stretch:normal;font-size:50.8px;line-height:1.25;font-family:'Faster One';-inkscape-font-specification:'Faster One, Normal';font-variant-ligatures:normal;font-variant-caps:normal;font-variant-numeric:normal;font-variant-east-asian:normal;fill:#231f20;fill-opacity:1;stroke:none;stroke-width:0.264583;filter:url(#filter1150)"
         transform="translate(-1240.8883,-706.44559)">
        <path
           d="m 1073.6817,821.55066 h -10.16 l 13.3604,-31.75 h 14.9352 l 2.2352,31.75 h -10.2108 l -0.2032,-5.0292 h -7.9756 z m 9.1948,-13.1064 v -8.89 h -0.508 l -3.556,8.89 z m -20.9804,12.9032 -20.828,-2.2352 h 21.7932 z m 2.0828,-4.9276 -20.828,-2.2352 h 21.7932 z m 2.0828,-4.8768 -20.828,-2.2352 h 21.7424 z m 2.032,-4.8768 -20.7772,-2.2352 h 21.7424 z m 2.0828,-4.8768 -20.7772,-2.2352 h 21.6916 z m 4.1148,-9.8044 -20.7264,-2.1844 h 21.6408 z m -2.0828,4.8768 -20.7264,-2.1844 h 21.6408 z m 2.0828,-4.8768 0.9144,-2.1844 h -21.6408 z"
           style="font-style:normal;font-variant:normal;font-weight:normal;font-stretch:normal;font-size:50.8px;font-family:'Faster One';-inkscape-font-specification:'Faster One, Normal';font-variant-ligatures:normal;font-variant-caps:normal;font-variant-numeric:normal;font-variant-east-asian:normal;fill:#231f20;fill-opacity:1;stroke-width:0.264583"
           id="path2810" />
        <path
           d="m 1107.4129,811.59386 -21.5392,-2.286 h 21.9456 z m 0.8636,-4.8768 -21.5392,-2.286 h 21.9456 z m 0.8636,-4.8768 -21.5392,-2.286 h 21.9456 z m 0.8636,-4.8768 -21.5392,-2.286 h 21.8948 z m -2.794,17.2212 v 1.016 q 0,0.8636 0.051,1.27 l -21.5392,-2.286 z m 1.9812,7.2136 -21.5392,-2.286 h 20.066 q 0.5588,1.4224 1.4732,2.286 z m 10.414,-6.9596 q 1.3716,0 1.8796,-0.3048 0.5588,-0.3556 0.762,-1.6256 l 3.2004,-17.8308 h 8.5344 l -2.6416,15.1384 q -1.2192,7.112 -3.9624,9.7536 -2.6924,2.5908 -9.2456,2.5908 -5.2324,0 -7.3152,-1.524 -2.0828,-1.5748 -2.0828,-5.4356 0,-2.1336 0.5588,-5.3848 l 2.6924,-15.1384 h 8.5344 l -3.4544,19.7612 z"
           style="font-style:normal;font-variant:normal;font-weight:normal;font-stretch:normal;font-size:50.8px;font-family:'Faster One';-inkscape-font-specification:'Faster One, Normal';font-variant-ligatures:normal;font-variant-caps:normal;font-variant-numeric:normal;font-variant-east-asian:normal;fill:#231f20;fill-opacity:1;stroke-width:0.264583"
           id="path2812" />
        <path
           d="m 1165.782,802.29746 h -5.4864 l -3.3528,19.2532 h -8.9408 l 3.3528,-19.2532 h -5.6388 l 1.3716,-7.62 h 20.066 z m -19.304,19.1008 -21.5392,-2.286 h 21.9456 z m 1.7272,-9.8044 -21.5392,-2.286 h 21.9456 z m 0.8636,-4.8768 -21.5392,-2.286 h 21.9456 z m -4.8768,-4.8768 -21.5392,-2.286 h 21.9456 z m 0.8636,-4.8768 -21.5392,-2.286 h 21.8948 z m 2.286,19.5072 -21.5392,-2.286 h 21.9456 z"
           style="font-style:normal;font-variant:normal;font-weight:normal;font-stretch:normal;font-size:50.8px;font-family:'Faster One';-inkscape-font-specification:'Faster One, Normal';font-variant-ligatures:normal;font-variant-caps:normal;font-variant-numeric:normal;font-variant-east-asian:normal;fill:#231f20;fill-opacity:1;stroke-width:0.264583"
           id="path2814" />
        <path
           d="m 1191.436,794.16946 q 5.4864,0 7.8232,2.1336 2.3368,2.0828 2.3368,6.5532 0,2.1844 -0.5588,5.2832 -1.27,7.3152 -4.4704,10.668 -3.2004,3.3528 -10.0584,3.3528 -5.3848,0 -7.6708,-2.0828 -2.286,-2.1336 -2.286,-6.5532 0,-2.286 0.5588,-5.3848 1.27,-7.3152 4.4196,-10.6172 3.1496,-3.3528 9.906,-3.3528 z m -3.4544,20.2692 q 1.4732,0 2.1844,-0.3556 0.762,-0.3556 1.016,-1.5748 l 1.9304,-10.6172 h -3.0988 q -1.4224,0 -2.2352,0.3556 -0.762,0.3556 -0.9144,1.524 l -1.8796,10.668 z m -12.6492,-5.1308 q -0.2032,1.5748 -0.254,2.1336 l -20.0152,-2.1336 z m 0.9652,-4.8768 -0.4572,2.1336 -19.8628,-2.1336 z m -1.27,9.7536 q 0,0.8128 0.2032,2.1336 l -19.9644,-2.1336 z m 3.048,-14.6304 q -0.6096,1.3208 -0.8636,2.032 l -19.2024,-2.032 z m -1.9812,19.558 q 0.6096,1.2192 1.3208,1.8796 l -17.7292,-1.8796 z m 6.4008,-24.4348 q -1.2192,0.7112 -2.0828,1.6764 l -15.5956,-1.6764 z"
           style="font-style:normal;font-variant:normal;font-weight:normal;font-stretch:normal;font-size:50.8px;font-family:'Faster One';-inkscape-font-specification:'Faster One, Normal';font-variant-ligatures:normal;font-variant-caps:normal;font-variant-numeric:normal;font-variant-east-asian:normal;fill:#231f20;fill-opacity:1;stroke-width:0.264583"
           id="path2816" />
      </g>
      <g
         aria-label="Repair"
         id="text2790"
         style="font-style:normal;font-variant:normal;font-weight:normal;font-stretch:normal;font-size:50.8px;line-height:1.25;font-family:'Faster One';-inkscape-font-specification:'Faster One, Normal';font-variant-ligatures:normal;font-variant-caps:normal;font-variant-numeric:normal;font-variant-east-asian:normal;fill:#231f20;fill-opacity:1;stroke:none;stroke-width:0.264583;filter:url(#filter869-7)"
         transform="translate(-1239.3008,-706.44559)">
        <path
           d="m 1058.9499,839.10175 q 8.6868,0 8.6868,7.7724 0,3.2004 -0.9652,6.096 -1.778,5.4864 -5.588,7.3152 l 3.3528,10.5664 h -10.6172 l -2.3368,-9.4488 h -2.0828 l -1.6256,9.4488 h -9.652 l 5.588,-31.75 z m -5.9436,14.478 q 1.7272,0 2.5908,-0.3556 0.9144,-0.4064 1.2192,-2.1844 0.3556,-1.8288 0.3556,-2.2352 0,-1.016 -0.8128,-1.27 -0.762,-0.3048 -2.54,-0.3048 h -1.9304 l -1.1176,6.35 z m -16.4084,17.1196 -21.5392,-2.286 h 21.9456 z m 1.7272,-9.8044 -21.5392,-2.286 h 21.9456 z m 1.6764,-9.7536 -21.4884,-2.286 h 21.8948 z m 0.8636,-4.8768 -21.4884,-2.286 h 21.8948 z m -3.4036,19.5072 -21.5392,-2.286 h 21.9456 z m 4.2672,-24.384 -21.4884,-2.286 h 21.8948 z m -2.5908,14.6304 -21.4884,-2.286 h 21.8948 z"
           style="font-style:normal;font-variant:normal;font-weight:normal;font-stretch:normal;font-size:50.8px;font-family:'Faster One';-inkscape-font-specification:'Faster One, Normal';font-variant-ligatures:normal;font-variant-caps:normal;font-variant-numeric:normal;font-variant-east-asian:normal;fill:#231f20;fill-opacity:1;stroke-width:0.264583"
           id="path2819" />
        <path
           d="m 1096.5418,859.92975 h -7.5692 l -0.6096,3.4544 h 9.398 l -1.3208,7.4676 h -17.9324 l 4.6736,-26.8732 h 17.8816 l -2.3876,7.62 h -8.2804 l -0.6096,3.4544 h 7.62 z m -19.7104,10.7696 -21.5392,-2.286 h 21.9456 z m 1.7272,-9.8044 -21.5392,-2.286 h 21.9456 z m 0.8636,-4.8768 -21.5392,-2.286 h 21.9456 z m 0.8636,-4.8768 -21.5392,-2.286 h 21.9456 z m 0.8636,-4.8768 -21.5392,-2.286 h 21.8948 z m -3.4544,19.5072 -21.5392,-2.286 h 21.9456 z"
           style="font-style:normal;font-variant:normal;font-weight:normal;font-stretch:normal;font-size:50.8px;font-family:'Faster One';-inkscape-font-specification:'Faster One, Normal';font-variant-ligatures:normal;font-variant-caps:normal;font-variant-numeric:normal;font-variant-east-asian:normal;fill:#231f20;fill-opacity:1;stroke-width:0.264583"
           id="path2821" />
        <path
           d="m 1126.4121,864.55255 h -4.9276 l -1.1176,6.2992 h -8.5344 l 4.6736,-26.8732 h 12.9032 q 7.366,0 7.366,6.9596 0,3.1496 -0.9144,5.7912 -0.9144,2.6416 -1.9812,4.1656 -1.0668,1.524 -3.048,2.5908 -1.9304,1.0668 -4.4196,1.0668 z m 1.1176,-11.7856 q 0,-0.0508 0.051,-0.3048 0,-1.0668 -2.1844,-1.0668 h -1.6256 l -1.0668,6.2992 h 1.5748 q 1.1684,0 1.8288,-0.254 0.6604,-0.3048 0.8128,-1.2192 z m -17.3736,17.9324 -21.5392,-2.286 h 21.9456 z m 1.7272,-9.8044 -21.5392,-2.286 h 21.9456 z m 0.8636,-4.8768 -21.5392,-2.286 h 21.9456 z m 0.8636,-4.8768 -21.5392,-2.286 h 21.9456 z m 0.8636,-4.8768 -21.5392,-2.286 h 21.8948 z m -3.4544,19.5072 -21.5392,-2.286 h 21.9456 z"
           style="font-style:normal;font-variant:normal;font-weight:normal;font-stretch:normal;font-size:50.8px;font-family:'Faster One';-inkscape-font-specification:'Faster One, Normal';font-variant-ligatures:normal;font-variant-caps:normal;font-variant-numeric:normal;font-variant-east-asian:normal;fill:#231f20;fill-opacity:1;stroke-width:0.264583"
           id="path2823" />
        <path
           d="m 1161.972,870.85175 -0.2032,-4.1148 h -6.4008 l -1.5748,4.1148 h -8.7884 l 11.2776,-26.8732 h 12.5984 l 1.9812,26.8732 z m -0.2032,-11.3792 v -7.7216 h -0.7112 l -2.9972,7.7216 z m -18.3896,11.176 -20.828,-2.2352 h 21.7932 z m 2.0828,-4.9276 -20.828,-2.2352 h 21.7932 z m 2.0828,-4.8768 -20.828,-2.2352 h 21.7424 z m 2.032,-4.8768 -20.7772,-2.2352 h 21.7424 z m 2.0828,-4.8768 -20.7772,-2.2352 h 21.6916 z m 2.032,-4.9276 -20.7264,-2.1844 h 21.6408 z"
           style="font-style:normal;font-variant:normal;font-weight:normal;font-stretch:normal;font-size:50.8px;font-family:'Faster One';-inkscape-font-specification:'Faster One, Normal';font-variant-ligatures:normal;font-variant-caps:normal;font-variant-numeric:normal;font-variant-east-asian:normal;fill:#231f20;fill-opacity:1;stroke-width:0.264583"
           id="path2825" />
        <path
           d="m 1184.1208,870.85175 4.6736,-26.8732 h 8.9408 l -4.7244,26.8732 z m -1.6764,-0.1524 -21.5392,-2.286 h 21.9456 z m 1.7272,-9.8044 -21.5392,-2.286 h 21.9456 z m 0.8636,-4.8768 -21.5392,-2.286 h 21.9456 z m 0.8636,-4.8768 -21.5392,-2.286 h 21.9456 z m 0.8636,-4.8768 -21.5392,-2.286 h 21.8948 z m -3.4544,19.5072 -21.5392,-2.286 h 21.9456 z"
           style="font-style:normal;font-variant:normal;font-weight:normal;font-stretch:normal;font-size:50.8px;font-family:'Faster One';-inkscape-font-specification:'Faster One, Normal';font-variant-ligatures:normal;font-variant-caps:normal;font-variant-numeric:normal;font-variant-east-asian:normal;fill:#231f20;fill-opacity:1;stroke-width:0.264583"
           id="path2827" />
        <path
           d="m 1226.5387,843.97855 q 7.4168,0 7.4168,6.7056 0,3.048 -1.2192,6.35 -1.2192,3.2512 -4.1148,4.8768 l 2.8956,8.9408 h -9.4996 l -1.9304,-7.8232 h -1.2192 l -1.3716,7.8232 h -8.5344 l 4.6736,-26.8732 z m -1.8796,8.7884 q 0,-0.0508 0.051,-0.508 0,-0.8636 -2.6924,-0.8636 h -1.1176 l -0.8128,4.6736 h 1.6256 q 2.3368,0 2.6416,-1.524 z m -17.3736,17.9324 -21.5392,-2.286 h 21.9456 z m 1.7272,-9.8044 -21.5392,-2.286 h 21.9456 z m 0.8636,-4.8768 -21.5392,-2.286 h 21.9456 z m 0.8636,-4.8768 -21.5392,-2.286 h 21.9456 z m 0.8636,-4.8768 -21.5392,-2.286 h 21.8948 z m -3.4544,19.5072 -21.5392,-2.286 h 21.9456 z"
           style="font-style:normal;font-variant:normal;font-weight:normal;font-stretch:normal;font-size:50.8px;font-family:'Faster One';-inkscape-font-specification:'Faster One, Normal';font-variant-ligatures:normal;font-variant-caps:normal;font-variant-numeric:normal;font-variant-east-asian:normal;fill:#231f20;fill-opacity:1;stroke-width:0.264583"
           id="path2829" />
      </g>
      <path
         style="fill:#eb882c;fill-opacity:1;stroke:#ba6211;stroke-width:4.5;stroke-linecap:round;stroke-linejoin:miter;stroke-miterlimit:4;stroke-dasharray:none;stroke-opacity:1"
         d="m -34.826291,-29.414365 c -14.750441,10.159206 -34.002054,12.926748 -51.377717,9.364398 -9.047692,-1.880077 -17.556582,-5.601706 -25.938112,-9.388846 -16.64287,8.730562 -35.97058,14.361398 -54.75451,10.070571 -8.56195,-1.68058 -17.16627,-4.572926 -23.97535,-10.20953 -14.72952,14.709801 -29.45905,29.4196027 -44.18857,44.129378 8.59589,10.621353 14.8476,23.14485 19.05143,36.10639 2.50907,10.136822 1.04484,20.909439 -1.35527,30.927251 -3.49653,14.14272 -13.55323,25.536603 -16.76459,39.775873 -2.86578,11.31363 -5.60482,22.93429 -3.09366,34.6108 2.67919,17.61506 13.22083,33.25702 26.70484,44.43056 14.83664,11.36994 34.38536,12.26082 52.16438,14.14801 15.18721,1.47828 31.3377,3.24916 43.79134,12.98091 2.31974,1.09733 4.7711,5.03962 7.18434,2.21877 8.285322,-6.47851 17.680703,-11.8576 28.274725,-13.23803 22.135121,-4.68805 46.464193,-2.71772 66.311118,-15.19349 11.82208581,-7.64432 19.999404,-20.02356 25.567163,-32.63612 3.563541,-9.74688 5.723573,-20.30706 4.29014,-30.68439 C 14.914396,123.96269 11.439623,109.95498 3.5093465,98.015052 -5.0326205,82.534705 -10.712166,63.732328 -5.7352215,46.17995 -1.4673072,34.15387 4.3152408,22.514982 12.032078,12.317993 -2.9697966,-2.0645716 -17.972042,-16.446766 -32.97479,-30.828404 c -0.617167,0.471355 -1.234334,0.942684 -1.851501,1.414039 z m 1.908122,3.230774 c 5.728123,3.502898 10.144654,9.068832 15.268998,13.450914 8.2909041,8.2040409 17.23834501,15.8908745 24.8357495,24.719994 -0.4457965,4.73366 -4.3243235,8.565038 -6.1669083,12.894759 -7.5169711,13.515367 -13.4148242,29.193437 -10.2800677,44.806552 1.821471,14.543961 9.489969,27.142784 16.1845093,39.868922 4.7858362,11.49829 7.7487722,23.93826 8.2051522,36.39524 -0.587904,21.05856 -12.3072257,41.07934 -29.147902,53.38434 -16.661368,10.58516 -37.229441,10.34037 -56.104207,13.20999 -12.07553,1.41999 -24.307429,4.48365 -34.126985,12.00054 -2.34487,1.55507 -5.41346,4.21873 -8.00294,1.51181 -10.92599,-8.57996 -24.82379,-11.64699 -38.29465,-13.07174 -18.81013,-2.56162 -39.33986,-1.97792 -55.97147,-12.49392 -11.71101,-8.26646 -20.43805,-20.56574 -25.57809,-33.85809 -6.47422,-17.28785 -3.1746,-36.54206 3.14929,-53.36233 5.00827,-11.37031 12.0609,-21.954386 14.68061,-34.145011 3.87419,-14.524328 2.30453,-30.647269 -5.29968,-43.908079 -3.16344,-6.77373 -7.22275,-13.030835 -10.60582,-19.627797 -0.45712,-4.357158 4.78292,-6.5186191 6.917,-9.6652822 10.65268,-10.3556592 20.91822,-21.2465438 32.2948,-30.7804338 4.90958,0.331073 9.01634,4.103238 13.81215,5.298413 18.28012,6.445303 38.80411,4.713896 56.37935,-3.357853 4.20653,-1.716246 9.07918,-4.893257 13.48811,-1.754002 16.762231,7.288582 35.79498,11.37023 53.77355,6.217628 7.161344,-1.396656 13.302535,-5.616045 20.164848,-7.738427 l 0.303636,-0.005 z"
         id="path2929" />
      <text
         xml:space="preserve"
         style="font-style:normal;font-variant:normal;font-weight:normal;font-stretch:normal;font-size:54.8602px;line-height:1.25;font-family:'Pinyon Script';-inkscape-font-specification:'Pinyon Script, Normal';font-variant-ligatures:normal;font-variant-caps:normal;font-variant-numeric:normal;font-variant-east-asian:normal;fill:#000000;fill-opacity:1;stroke:none;stroke-width:0.264583;filter:url(#filter869-6-4)"
         x="-181.8519"
         y="39.173561"
         id="text860-6-0-8"
         inkscape:transform-center-x="51.037713"
         inkscape:transform-center-y="-117.4902"><tspan
           sodipodi:role="line"
           id="tspan858-0-29-5"
           x="-181.8519"
           y="39.173561"
           style="font-style:normal;font-variant:normal;font-weight:normal;font-stretch:normal;font-size:54.8602px;font-family:'Pinyon Script';-inkscape-font-specification:'Pinyon Script, Normal';font-variant-ligatures:normal;font-variant-caps:normal;font-variant-numeric:normal;font-variant-east-asian:normal;stroke-width:0.264583">Classic</tspan></text>
      <g
         id="g867"
         transform="translate(558.08491,-351.88269)"
         style="filter:url(#filter869-7)">
        <path
           id="path859"
           style="fill:#231f20;fill-opacity:1;stroke:none;stroke-width:3.79999;stroke-linecap:round;stroke-linejoin:round;stroke-miterlimit:4;stroke-dasharray:none;stroke-opacity:1"
           d="m -383.48889,399.01691 h 194.77646 v 6.96977 h -194.77646 z" />
        <path
           style="color:#000000;font-style:normal;font-variant:normal;font-weight:normal;font-stretch:normal;font-size:medium;line-height:normal;font-family:sans-serif;font-variant-ligatures:normal;font-variant-position:normal;font-variant-caps:normal;font-variant-numeric:normal;font-variant-alternates:normal;font-variant-east-asian:normal;font-feature-settings:normal;font-variation-settings:normal;text-indent:0;text-align:start;text-decoration:none;text-decoration-line:none;text-decoration-style:solid;text-decoration-color:#000000;letter-spacing:normal;word-spacing:normal;text-transform:none;writing-mode:lr-tb;direction:ltr;text-orientation:mixed;dominant-baseline:auto;baseline-shift:baseline;text-anchor:start;white-space:normal;shape-padding:0;shape-margin:0;inline-size:0;clip-rule:nonzero;display:inline;overflow:visible;visibility:visible;opacity:1;isolation:auto;mix-blend-mode:normal;color-interpolation:sRGB;color-interpolation-filters:linearRGB;solid-color:#000000;solid-opacity:1;vector-effect:none;fill:#231f20;fill-opacity:1;fill-rule:nonzero;stroke:none;stroke-linecap:butt;stroke-linejoin:round;stroke-miterlimit:4;stroke-dasharray:none;stroke-dashoffset:0;stroke-opacity:1;color-rendering:auto;image-rendering:auto;shape-rendering:auto;text-rendering:auto;enable-background:accumulate;stop-color:#000000;stop-opacity:1"
           d="m -286.7832,327.90625 a 2.50025,2.50025 0 0 0 -1.16016,0.27539 c -15.17228,7.76616 -27.96969,10.39415 -38.82617,10.92578 a 2.50025,2.50025 0 0 0 -0.72656,0 c -0.22928,0.0342 -0.46167,0.0481 -0.69336,0.041 -13.63432,-0.67039 -25.77314,-3.42388 -35.34766,-9.45508 a 2.50025,2.50025 0 0 0 -3.09375,0.3418 l -35.99609,35.77343 a 2.50025,2.50025 0 0 0 -0.28516,3.20703 c 3.51024,5.01021 6.12164,10.32805 8.57813,14.97266 4.3484,8.22172 10.29772,19.7492 9.14648,34.32813 a 2.50025,2.50025 0 0 0 -0.004,0.0723 c -0.54852,11.01529 -3.64636,22.3633 -10.62695,35.85547 a 2.50025,2.50025 0 0 0 -0.44336,0.74219 c -0.098,0.25728 -0.22301,0.50355 -0.37305,0.73437 l 0.0176,-0.0273 c -7.59736,11.34992 -10.2302,24.80881 -12.27148,39.92578 a 2.50025,2.50025 0 0 0 -0.0215,0.32031 c -0.0963,17.67877 4.6002,31.82235 20.01368,48.6875 7.15774,7.83187 17.09828,14.53067 43.19336,17.375 9.32804,1.01676 22.00159,1.30605 37.38085,4.73047 a 2.50025,2.50025 0 0 0 0.15625,0.0312 c 0.0494,0.008 0.0974,0.0157 0.14649,0.0254 0.004,7.7e-4 0.008,10e-4 0.0117,0.002 a 2.50025,2.50025 0 0 0 0.0469,0.0117 c 8.33118,1.88409 15.70972,6.1625 22.47656,10.9336 a 2.50025,2.50025 0 0 0 2.94532,-0.0469 c 6.35427,-4.78883 13.27675,-9.16041 21.55078,-11.1875 0.0818,-0.0197 0.16319,-0.0364 0.24609,-0.0508 a 2.50025,2.50025 0 0 0 0.16797,-0.0352 l 0.0137,-0.002 0.008,-0.002 c 15.27922,-3.68059 27.92159,-4.1999 37.21289,-5.38086 26.04033,-3.30978 35.85831,-10.18433 42.875,-18.14258 15.1126,-17.14058 19.55653,-31.37115 19.14257,-49.05078 a 2.50025,2.50025 0 0 0 -0.0293,-0.32031 c -2.25818,-14.73145 -5.12521,-27.83634 -12.5293,-38.88867 a 2.50025,2.50025 0 0 0 -0.56055,-1.08008 c -0.17876,-0.20161 -0.33548,-0.4221 -0.46875,-0.65625 -7.41136,-13.58298 -10.74828,-25 -11.50586,-36.13672 a 2.50025,2.50025 0 0 0 -0.006,-0.0723 c -1.41913,-14.56471 4.32006,-26.20301 8.52344,-34.50586 2.37345,-4.68824 4.89219,-10.05019 8.3125,-15.12109 a 2.50025,2.50025 0 0 0 -0.34179,-3.20312 L -206.5586,328.7264 a 2.50025,2.50025 0 0 0 -3.09961,-0.28711 c -9.46635,6.20158 -21.55386,9.17275 -35.17578,10.08594 -0.23105,0.0113 -0.46202,0.003 -0.69141,-0.0273 a 2.50025,2.50025 0 0 0 -0.73047,0.0137 c -10.92882,-0.34129 -24.04139,-2.8154 -39.45117,-10.35156 l 0.0351,0.0195 a 2.50025,2.50025 0 0 0 -1.11132,-0.27344 z m 0.002,5.22266 c 15.76048,7.51228 29.48113,10.11965 40.86523,10.41601 a 2.50025,2.50025 0 0 0 0.5918,-0.0566 c 0.25572,0.009 0.50984,0.0427 0.76563,0.0293 a 2.50025,2.50025 0 0 0 0.0371,-0.002 c 13.38794,-0.8952 25.63969,-3.81232 35.80859,-9.92773 l 33.89648,32.50586 c -3.07313,4.87415 -5.48392,9.75895 -7.54297,13.82617 -4.21717,8.33008 -10.59706,21.10919 -9.04101,37.20899 0.81456,11.89896 4.43432,24.11197 12.10937,38.17382 a 2.50025,2.50025 0 0 0 0.0156,0.0293 c 0.14871,0.26396 0.35076,0.49123 0.52539,0.73828 a 2.50025,2.50025 0 0 0 0.31055,0.61524 c 7.02602,10.10136 9.83942,22.60948 12.11718,37.42383 0.3668,16.74884 -3.38635,29.01981 -17.89257,45.47265 -6.4951,7.36667 -14.38152,13.26315 -39.75586,16.48828 -8.87162,1.12762 -21.89921,1.6823 -37.62305,5.45508 -0.0229,0.004 -0.0455,0.01 -0.0684,0.0137 l -0.01,0.002 c -0.0259,0.006 -0.0483,0.009 -0.0742,0.0156 a 2.50025,2.50025 0 0 0 -0.0195,0.004 l -0.008,0.002 c -0.129,0.0251 -0.25894,0.0493 -0.38672,0.0801 a 2.50025,2.50025 0 0 0 -0.0195,0.004 c -8.60161,2.10735 -15.67268,6.43586 -21.91211,11.01172 -6.13836,-4.20854 -13.00543,-8.03486 -20.83008,-10.15039 v 1.85157 a 2.50025,2.50025 0 0 0 -1.61132,-2.33594 c -0.11224,-0.0262 -0.21354,-0.0722 -0.32618,-0.0977 a 2.50025,2.50025 0 0 0 -0.1289,-0.0273 l 0.0293,0.004 c -0.1434,-0.0298 -0.28891,-0.0574 -0.4336,-0.0801 l 0.15625,0.0312 c -15.88899,-3.53792 -28.99241,-3.84679 -37.92383,-4.82032 -25.42766,-2.77158 -33.41927,-8.52964 -40.04492,-15.77929 -14.79801,-16.19172 -18.76867,-28.3902 -18.70117,-45.14258 2.01301,-14.85423 4.60081,-27.41153 11.44531,-37.63672 a 2.50025,2.50025 0 0 0 0.0176,-0.0273 c 0.16423,-0.25268 0.27066,-0.53703 0.4082,-0.80469 a 2.50025,2.50025 0 0 0 0.4043,-0.56446 c 7.42833,-14.20728 10.83178,-26.48944 11.42969,-38.4121 1.2579,-16.11355 -5.35163,-28.76764 -9.71289,-37.01368 -2.13067,-4.02857 -4.62749,-8.86955 -7.78711,-13.68945 l 33.31055,-33.10547 c 10.27727,5.93353 22.58019,8.6291 35.98242,9.28516 a 2.50025,2.50025 0 0 0 0.0391,0.002 c 0.25478,0.009 0.5074,-0.0296 0.76172,-0.043 a 2.50025,2.50025 0 0 0 0.59375,0.0449 c 11.30038,-0.49617 24.72462,-3.27674 40.23242,-11.01757 z m 119.24219,109.12304 c -1e-4,0 -1.13274,0.26754 -1.13282,0.26758 -7e-5,4e-5 -0.91401,0.78508 -0.91406,0.78516 -5e-5,7e-5 -0.3652,0.75575 -0.36523,0.75586 -2e-5,5e-5 -0.0238,0.12803 -0.0469,0.25586 -0.0276,0.0574 -0.0918,0.19322 -0.0918,0.19336 -1.6e-4,7.3e-4 -0.0603,0.47034 -0.0547,0.61914 0.0224,0.59517 0.11477,0.6696 0.15625,0.7832 0.16591,0.45439 0.19894,0.43958 0.28906,0.60156 0.0901,0.16198 0.20043,0.35434 0.3457,0.59961 0.28147,0.47518 0.70484,1.17075 1.28125,2.10742 8.5e-4,10e-4 0.006,0.009 0.008,0.0117 8.6e-4,0.001 0.003,0.006 0.004,0.008 0.0103,0.0168 0.013,0.0202 0.0234,0.0371 10e-4,0.002 5.2e-4,0.004 0.002,0.006 3e-5,6e-5 0.002,0.004 0.002,0.004 6.4e-4,10e-4 0.001,9.1e-4 0.002,0.002 a 2.50025,2.50025 0 0 0 0.0137,0.0254 c 0.0111,0.018 0.0144,0.0213 0.0254,0.0391 0.58622,0.95117 1.01724,1.64091 1.31836,2.11132 0.15338,0.23961 0.27482,0.42477 0.37891,0.57813 0.10408,0.15336 0.0858,0.18519 0.40039,0.52344 0.0786,0.0846 0.11695,0.19069 0.57226,0.46093 0.11383,0.0676 0.49338,0.22631 0.49415,0.22657 7.6e-4,2.5e-4 1.02871,0.11333 1.02929,0.11328 2.9e-4,-3e-5 0.74585,-0.1913 0.7461,-0.19141 2.4e-4,-1e-4 0.69706,-0.45099 0.69726,-0.45117 4e-4,-3.6e-4 0.69314,-1.0755 0.69336,-1.07617 2.2e-4,-6.7e-4 0.11479,-0.51343 0.12109,-0.67774 0.006,-0.16431 -0.003,-0.28065 -0.0137,-0.375 -0.021,-0.18869 -0.0486,-0.29291 -0.0703,-0.375 -0.0435,-0.16418 -0.0747,-0.23529 -0.0996,-0.29882 -0.0533,-0.13616 -0.0806,-0.17974 -0.11523,-0.25 -0.0362,-0.35563 -0.13632,-0.49001 -0.17383,-0.58399 -0.1141,-0.28588 -0.16437,-0.35317 -0.23242,-0.47461 -0.25924,-0.46259 -0.67974,-1.11759 -1.26563,-2.01562 a 2.50025,2.50025 0 0 0 -0.01,-0.0176 l -0.006,-0.01 c -0.007,-0.0126 -0.0142,-0.0226 -0.0215,-0.0351 -0.39547,-0.68187 -0.79513,-1.36116 -1.13086,-1.91993 -0.27043,-0.45008 -0.45003,-0.73325 -0.66211,-1.04687 a 2.50025,2.50025 0 0 0 -0.17968,-0.2832 c -0.036,-0.0491 -0.0623,-0.10049 -0.23047,-0.27344 -0.0421,-0.0432 -0.0942,-0.0953 -0.17774,-0.16602 -0.0835,-0.0707 -0.40598,-0.2811 -0.40625,-0.28125 -1.3e-4,-7e-5 -0.43152,-0.18746 -0.43164,-0.1875 -1.1e-4,-3e-5 -0.77139,-0.125 -0.77148,-0.125 z m -235.98828,1.97461 c -1e-4,0 -0.79481,0.12497 -0.79493,0.125 -1.1e-4,4e-5 -0.44322,0.19524 -0.44335,0.19532 -2.7e-4,1.4e-4 -0.32953,0.21593 -0.41407,0.28906 -0.0845,0.0731 -0.13749,0.12737 -0.17969,0.17187 -0.16878,0.178 -0.19492,0.2313 -0.23046,0.28125 a 2.50025,2.50025 0 0 0 -0.0645,0.0937 c -0.002,0.003 -0.004,0.007 -0.006,0.01 l -0.004,0.006 c -0.41046,0.63773 -0.98766,1.64045 -1.44141,2.43359 -0.22529,0.39379 -0.40583,0.71562 -0.50781,0.89844 -10e-4,0.002 -0.006,0.009 -0.008,0.0117 -0.52117,0.82674 -0.92744,1.48237 -1.16602,1.92383 -0.0664,0.12278 -0.11569,0.19007 -0.22656,0.48242 -0.0277,0.0731 -0.0632,0.16041 -0.10352,0.33008 -0.004,0.0188 0.004,0.0988 -0.002,0.11914 -0.0503,0.0996 -0.0915,0.17466 -0.16797,0.37695 -0.0237,0.0626 -0.053,0.13214 -0.0937,0.29101 -0.0204,0.0794 -0.0448,0.17937 -0.0645,0.35938 -0.01,0.09 -0.0188,0.2018 -0.0137,0.35742 0.005,0.15562 0.10526,0.64189 0.10546,0.64258 2.1e-4,6.9e-4 0.63243,1.0543 0.63282,1.05469 1.9e-4,1.9e-4 0.6814,0.48035 0.68164,0.48047 2.4e-4,1.1e-4 0.76339,0.22457 0.76367,0.22461 5.7e-4,7e-5 1.0891,-0.10132 1.08984,-0.10157 7.5e-4,-2.4e-4 0.4012,-0.1652 0.51953,-0.23632 0.47335,-0.28449 0.50362,-0.39372 0.58204,-0.48047 0.31367,-0.34701 0.29283,-0.37452 0.39453,-0.5293 0.10169,-0.15478 0.21914,-0.34181 0.36914,-0.58399 0.3,-0.48434 0.72558,-1.18645 1.3164,-2.17773 a 2.50025,2.50025 0 0 0 0.008,-0.0137 c 5.4e-4,-9.2e-4 0.003,-0.005 0.004,-0.006 a 2.50025,2.50025 0 0 0 0.002,-0.002 c 0.58903,-0.98872 1.00221,-1.6952 1.28515,-2.18946 0.14147,-0.24713 0.25002,-0.43991 0.33789,-0.60351 0.0879,-0.16361 0.12371,-0.1633 0.27735,-0.59766 0.0384,-0.10859 0.11497,-0.19254 0.14453,-0.71289 0.007,-0.13009 -0.0272,-0.53239 -0.0274,-0.5332 -4e-5,-2.7e-4 -0.0667,-0.17486 -0.11914,-0.31446 -0.0244,-0.13267 -0.0488,-0.26947 -0.0488,-0.26953 -4e-5,-1.1e-4 -0.34956,-0.73625 -0.34961,-0.73632 -6e-5,-8e-5 -0.89251,-0.78512 -0.89258,-0.78516 -7e-5,-4e-5 -1.14444,-0.28516 -1.14453,-0.28516 z m 237.3457,1.33594 c 0.062,0.003 0.11073,0.005 0.20117,0.01 -0.10414,-10e-4 -0.13542,-10e-4 -0.21484,-0.002 z m 2.29492,0.93945 0.01,0.0176 0.008,0.01 c -5.6e-4,-6.4e-4 -0.005,-0.003 -0.006,-0.004 -0.001,-0.001 -8.2e-4,-0.002 -0.002,-0.004 -1.5e-4,-1.7e-4 1.5e-4,-0.002 0,-0.002 h -0.002 c -5e-4,-9.4e-4 -0.008,-0.0175 -0.008,-0.0176 z m 0.0215,0.041 c 0.004,0.004 0.013,0.0144 0.0156,0.0176 0.001,0.001 0.005,0.007 0.006,0.008 9.1e-4,10e-4 0.005,0.007 0.006,0.008 l 0.004,0.008 c 0.009,0.0144 0.0125,0.0185 0.0234,0.0352 l 0.002,0.004 c 0.01,0.0204 0.0587,0.12173 0.11328,0.23633 -0.0841,-0.15738 -0.1495,-0.27824 -0.16992,-0.31641 z m -4.06836,0.0371 c -0.009,0.0128 -0.0112,0.0158 -0.0195,0.0273 5.8e-4,-10e-4 0.01,-0.021 0.01,-0.0215 z m 4.45117,1.18359 c 0.01,0.0763 0.0111,0.0867 0.0195,0.1543 0.0157,0.20063 0.0332,0.42386 0.0332,0.42383 0,0 -0.006,0.0133 -0.006,0.0137 -0.006,-0.0747 -0.0231,-0.29722 -0.0469,-0.5918 z m -243.48047,0.53711 c 6e-4,2e-4 0.005,0.002 0.006,0.002 -0.0606,0.0655 -0.0737,0.0797 -0.12109,0.13086 -0.008,0.007 -0.0454,0.0362 -0.0488,0.0391 0.0301,-0.0316 0.0827,-0.0864 0.16406,-0.17188 z m 238.67773,0.043 c 7.7e-4,10e-4 0.001,0.003 0.002,0.004 0.0314,0.25139 0.0557,0.45204 0.0625,0.50586 0.0228,0.0528 0.0284,0.0655 0.0566,0.13086 0.005,0.011 0.004,0.0121 0.01,0.0234 -0.0189,-0.0339 -0.0401,-0.0707 -0.0508,-0.0898 -0.005,-0.0118 -0.005,-0.014 -0.01,-0.0254 6e-5,4.8e-4 0.002,0.009 0.002,0.01 -0.007,-0.0123 -0.0391,-0.0684 -0.0391,-0.0684 0,10e-6 -0.004,-0.0385 -0.004,-0.041 -1.5e-4,-3.1e-4 1.5e-4,-0.002 0,-0.002 -1.4e-4,-0.002 -0.002,-0.0229 -0.002,-0.0254 0.002,0.004 0.006,0.0127 0.008,0.0176 -0.003,-0.0324 -0.0184,-0.23164 -0.0352,-0.43945 z m 4.72071,0.42773 c -0.0881,0.25121 -0.17494,0.49788 -0.17774,0.50586 l -0.0391,0.0254 c 0,0 -0.002,0.002 -0.002,0.002 -4.4e-4,0.001 -0.003,0.003 -0.004,0.004 l -0.0293,0.0176 c 0.0333,-0.0802 0.11553,-0.27884 0.21875,-0.52734 -0.0836,0.22793 -0.15043,0.41453 -0.16601,0.45703 0.0581,-0.14026 0.11015,-0.26926 0.19922,-0.48438 z m -4.59571,0.25977 c 0.0245,0.0519 0.0363,0.0772 0.0605,0.12695 l -0.0293,-0.0488 c -0.006,-0.0111 -0.0195,-0.0495 -0.0312,-0.0781 z m 0.17188,0.32422 a 2.50025,2.50025 0 0 0 0.004,0.006 c 5e-5,9e-5 0.002,0.006 0.002,0.006 z m 0.10156,0.12891 c 0.003,0.003 0.005,0.004 0.008,0.008 5.2e-4,4.3e-4 0.005,0.005 0.006,0.006 0.0561,0.0471 0.3492,0.29326 0.59766,0.50195 0.002,0.004 0.004,0.006 0.006,0.01 0.008,0.005 0.009,0.005 0.0176,0.01 0.002,0.002 0.003,0.004 0.006,0.006 -0.009,-0.005 -0.0126,-0.007 -0.0215,-0.0117 0.006,0.009 0.01,0.0146 0.0156,0.0234 -0.0291,-0.0224 -0.0342,-0.0279 -0.0664,-0.0527 -0.0866,-0.0473 -0.23833,-0.12895 -0.23828,-0.12891 2e-5,2e-5 -0.0308,-0.0339 -0.0371,-0.041 0.0158,0.01 0.14233,0.0842 0.24219,0.14453 -0.17677,-0.1362 -0.29911,-0.22895 -0.35938,-0.27539 -0.0659,-0.0741 -0.0861,-0.0973 -0.13672,-0.15429 0.0529,0.0631 0.0647,0.0788 0.11328,0.13672 -0.006,-0.005 -0.0489,-0.0391 -0.0488,-0.0391 2.2e-4,2.6e-4 -0.0493,-0.0628 -0.0899,-0.11523 -5.7e-4,-10e-4 -0.0104,-0.021 -0.0117,-0.0234 -2.2e-4,-4e-4 -0.002,-0.003 -0.002,-0.004 z m -234.81055,0.71289 c -0.0503,0.26422 -0.11429,0.60282 -0.13085,0.6875 -0.0117,0.0366 -0.0209,0.0788 -0.0293,0.0996 0.007,-0.015 0.0135,-0.03 0.0176,-0.0391 -3e-5,1.2e-4 -0.002,0.008 -0.002,0.008 2e-5,-3e-5 -0.0132,0.0264 -0.0156,0.0313 -3.5e-4,8.6e-4 -0.002,0.003 -0.002,0.004 -0.001,0.003 -0.003,0.0113 -0.004,0.0137 -0.0232,0.0524 -0.0246,0.0512 -0.0352,0.0723 0.0141,-0.031 0.0194,-0.0413 0.0332,-0.0723 -0.007,0.0139 -0.019,0.0357 -0.0312,0.0605 0.008,-0.0373 0.11794,-0.53472 0.1875,-0.84375 0.004,-0.008 0.007,-0.0139 0.0117,-0.0215 z m 236.23243,0.17382 c 0.18293,0.01 0.35997,0.0197 0.65429,0.0352 -0.31963,-0.004 -0.56759,-0.007 -0.6582,-0.008 0.002,-0.0114 0.002,-0.0165 0.004,-0.0274 z m -236.50977,0.84766 -0.01,0.0176 -0.0234,0.0371 c 0.005,-0.009 0.004,-0.012 0.01,-0.0215 0.009,-0.0146 0.017,-0.0229 0.0234,-0.0332 z m -0.0469,0.0723 c -0.0122,0.0206 -0.0166,0.03 -0.0254,0.0449 -0.008,0.014 -0.0221,0.0355 -0.0254,0.041 -0.002,0.003 -0.0117,0.0215 -0.0117,0.0215 0,-1e-5 -0.009,0.009 -0.01,0.01 0.002,-0.003 0.006,-0.008 0.008,-0.0117 0.0199,-0.0318 0.0322,-0.0539 0.0645,-0.10546 z m -1.7754,0.50976 c 0.10537,0.17516 0.2286,0.37916 0.22852,0.37891 -6e-5,-2.2e-4 0.0197,0.12965 0.0332,0.19922 -0.0298,0.0138 -0.13672,0.0625 -0.13672,0.0625 0,0 -0.077,-0.39355 -0.125,-0.64063 z m 1.13672,0.0488 c 0.002,0.003 0.0258,0.0332 0.0274,0.0352 -0.0478,0.0401 -0.0546,0.0439 -0.0977,0.0801 0.027,-0.0441 0.0415,-0.0684 0.0703,-0.11523 z m 0.041,0.0508 c 10e-4,0.002 0.0292,0.039 0.0293,0.0391 -0.002,0.001 -0.12568,0.0577 -0.17383,0.0801 0.004,-0.006 0.006,-0.01 0.01,-0.0156 0.0621,-0.0478 0.068,-0.0521 0.13477,-0.10352 z m 152.95312,118.26563 a 2.50025,2.50025 0 0 0 -0.82226,0.1621 c -2.3e-4,2e-5 -0.008,-0.0118 -0.008,-0.0117 -0.0913,0.0425 -0.0545,0.0263 -0.0645,0.0312 -0.008,0.004 -0.0204,0.0112 -0.0293,0.0156 -0.0146,0.007 -0.0273,0.0127 -0.0488,0.0234 -0.13898,0.0694 -0.44455,0.22343 -0.94922,0.47656 -1.00935,0.50627 -2.81088,1.41023 -5.62695,2.82422 a 2.50025,2.50025 0 0 0 -0.0332,0.0176 c -0.0209,0.0109 -0.0414,0.0208 -0.0625,0.0312 a 2.50025,2.50025 0 0 0 -0.01,0.004 c -4.39349,2.20997 -6.30648,3.1735 -6.69727,3.3711 -0.0163,0.008 -0.0273,0.0136 -0.0391,0.0195 -0.006,0.003 -0.0145,0.007 -0.0195,0.01 -0.008,0.004 -0.0123,0.007 -0.0215,0.0117 -0.005,0.002 -0.01,0.006 -0.0215,0.0117 -0.0117,0.006 -0.27335,0.16596 -0.27344,0.16602 -8e-5,6e-5 2.4883,4.31592 2.50781,4.30664 0.0195,-0.009 0.022,-0.013 0.0274,-0.0156 0.0107,-0.005 0.0182,-0.008 0.0254,-0.0117 0.005,-0.003 0.0133,-0.007 0.0195,-0.01 4.4e-4,-2.3e-4 0.003,-0.002 0.004,-0.002 0.009,-0.005 0.0171,-0.008 0.0293,-0.0137 0.003,-0.002 0.0141,-0.008 0.0176,-0.01 0.0256,-0.0129 0.42932,-0.21545 0.4707,-0.23633 0.46873,-0.23518 1.20678,-0.60423 2.09961,-1.05273 3.55911,-1.78788 9.53744,-4.7951 10.67579,-5.36914 a 2.50025,2.50025 0 0 0 0.0371,-0.0176 c 0.0691,-0.0348 0.0979,-0.0496 0.13477,-0.0684 0.0117,-0.006 0.0298,-0.0147 0.043,-0.0215 0.007,-0.004 0.003,-8.3e-4 0.0488,-0.0254 0.0676,-0.0366 0.19922,-0.12109 0.19922,-0.12109 0,0 -1.80842,-3.30835 -2.21875,-3.94727 l 3.16796,1.95118 a 2.50025,2.50025 0 0 0 -2.5625,-2.5 z m -67.07031,1.60937 c -3e-5,0 -1.40239,4.72068 -1.40234,4.7207 4e-5,3e-5 0.17723,0.0797 0.20312,0.0899 0.0518,0.0203 0.0594,0.0215 0.0703,0.0254 0.0217,0.008 0.0281,0.009 0.0351,0.0117 0.0146,0.005 0.0368,0.0128 0.0508,0.0176 10e-4,3.2e-4 0.003,0.002 0.0156,0.006 0.002,5.1e-4 0.008,10e-4 0.01,0.002 0.009,0.003 0.0108,0.004 0.0274,0.01 0.0294,0.01 0.0468,0.0175 0.0937,0.0332 1.18235,0.39608 7.58616,2.5263 11.3789,3.78711 0.94819,0.3152 1.7323,0.57698 2.23047,0.74218 0.24909,0.0826 0.42612,0.14051 0.52149,0.17188 0.0128,0.005 0.0185,0.005 0.0215,0.006 0.0131,0.004 0.026,0.0101 0.0371,0.0137 0.009,0.003 0.0156,0.005 0.0312,0.01 0.008,0.002 0.0142,0.005 0.0449,0.0137 0.0307,0.009 1.98837,-4.54682 1.98828,-4.54688 -9e-5,-5e-5 -0.40948,-0.19458 -0.42773,-0.20117 -0.0183,-0.007 -0.0247,-0.009 -0.0312,-0.0117 -0.013,-0.005 -0.0204,-0.007 -0.0293,-0.01 -0.009,-0.003 -0.0212,-0.006 -0.0312,-0.01 0.003,8.5e-4 0.004,10e-4 -0.006,-0.002 -0.005,-0.002 -0.0148,-0.006 -0.0273,-0.01 -4.5e-4,-1.5e-4 -0.007,-0.002 -0.008,-0.002 -0.42519,-0.1432 -2.44496,-0.81764 -7.10547,-2.3711 a 2.50025,2.50025 0 0 0 -0.002,-0.002 c -3.11137,-1.03362 -5.05796,-1.67811 -6.1289,-2.0332 -0.46889,-0.15547 -0.70525,-0.23372 -0.86719,-0.28711 -0.024,-0.008 -0.0185,-0.007 -0.0391,-0.0137 -0.0145,-0.005 -0.072,-0.0234 -0.084,-0.0274 -0.003,-10e-4 -0.0266,-0.008 -0.0254,-0.008 -0.0196,-0.006 -0.0383,-0.0136 -0.0566,-0.0195 -0.007,-0.002 -0.0139,-0.005 -0.0293,-0.01 -0.008,-0.002 -0.0153,-0.005 -0.0391,-0.0117 -0.0119,-0.004 -0.0604,-0.0176 -0.0605,-0.0176 -1.2e-4,-3e-5 -0.35934,-0.0664 -0.35938,-0.0664 z"
           id="path861" />
        <path
           style="color:#000000;font-style:normal;font-variant:normal;font-weight:normal;font-stretch:normal;font-size:medium;line-height:normal;font-family:sans-serif;font-variant-ligatures:normal;font-variant-position:normal;font-variant-caps:normal;font-variant-numeric:normal;font-variant-alternates:normal;font-variant-east-asian:normal;font-feature-settings:normal;font-variation-settings:normal;text-indent:0;text-align:start;text-decoration:none;text-decoration-line:none;text-decoration-style:solid;text-decoration-color:#000000;letter-spacing:normal;word-spacing:normal;text-transform:none;writing-mode:lr-tb;direction:ltr;text-orientation:mixed;dominant-baseline:auto;baseline-shift:baseline;text-anchor:start;white-space:normal;shape-padding:0;shape-margin:0;inline-size:0;clip-rule:nonzero;display:inline;overflow:visible;visibility:visible;opacity:1;isolation:auto;mix-blend-mode:normal;color-interpolation:sRGB;color-interpolation-filters:linearRGB;solid-color:#000000;solid-opacity:1;vector-effect:none;fill:#fcfafb;fill-opacity:1;fill-rule:nonzero;stroke:none;stroke-linecap:butt;stroke-linejoin:round;stroke-miterlimit:4;stroke-dasharray:none;stroke-dashoffset:0;stroke-opacity:1;color-rendering:auto;image-rendering:auto;shape-rendering:auto;text-rendering:auto;enable-background:accumulate;stop-color:#000000;stop-opacity:1"
           d="m -207.71094,318.21289 a 4.000395,4.000395 0 0 0 -2.61914,0.94922 c -8.14319,6.90511 -20.17545,10.50715 -35.05273,11.50195 -0.0662,0.004 -0.13288,0.006 -0.19922,0.004 -10.83796,-0.28215 -23.50627,-2.48389 -39.42969,-10.83008 a 4.000395,4.000395 0 0 0 -3.7793,0.0352 c -15.71457,8.60534 -27.97674,10.92963 -38.7871,11.40429 -0.065,0.003 -0.13035,0.003 -0.19532,0 a 4.000395,4.000395 0 0 0 -0.004,-0.002 c -14.89311,-0.72905 -26.98856,-4.11223 -35.25391,-10.87109 a 4.000395,4.000395 0 0 0 -5.35156,0.25781 l -43.79883,43.5293 a 4.000395,4.000395 0 0 0 -0.1875,5.47461 c 4.45735,5.08616 7.7691,11.76603 11.07031,18.00781 4.30847,8.14622 9.24183,17.9284 8.25391,30.10351 a 4.000395,4.000395 0 0 0 -0.01,0.13086 c -0.48537,10.02408 -3.17987,20.17207 -9.99219,33.20118 -0.035,0.0662 -0.0735,0.13117 -0.11523,0.19335 a 4.000395,4.000395 0 0 0 -0.004,0.006 c -8.79662,13.14153 -11.51786,28.14305 -13.5996,43.68164 a 4.000395,4.000395 0 0 0 -0.0352,0.49415 c -0.17847,19.41282 5.54007,36.35675 22.08594,54.46093 8.26868,9.04744 20.86463,16.91761 48.1582,19.89258 9.97206,1.08695 22.12534,1.33421 36.83594,4.64649 a 4.000395,4.000395 0 0 0 0.0195,0.006 c 8.07327,1.82576 15.96142,6.76676 23.38476,12.33399 a 4.000395,4.000395 0 0 0 4.88868,-0.0684 c 7.10172,-5.64294 14.28819,-10.63127 22.31445,-12.59766 a 4.000395,4.000395 0 0 0 0.006,-0.002 c 14.65573,-3.57761 26.80597,-4.04147 36.75976,-5.30664 27.236,-3.46176 39.68893,-11.55625 47.79493,-20.75 16.22064,-18.39731 21.63485,-35.44003 21.10937,-54.84766 a 4.000395,4.000395 0 0 0 -0.043,-0.49414 c -2.35853,-15.49626 -5.34823,-30.44354 -14.375,-43.42383 l -0.004,-0.004 c -0.0428,-0.062 -0.0812,-0.12523 -0.11719,-0.19141 a 4.000395,4.000395 0 0 0 -0.002,-0.006 c -7.03898,-12.89647 -9.91314,-22.99273 -10.58007,-33 a 4.000395,4.000395 0 0 0 -0.0117,-0.13086 c -1.21239,-12.16501 3.54453,-22.03772 7.70898,-30.26367 3.18895,-6.29909 6.38364,-13.03803 10.75,-18.20312 a 4.000395,4.000395 0 0 0 -0.28515,-5.46875 l -44.57227,-42.74024 a 4.000395,4.000395 0 0 0 -2.73633,-1.11328 z m -0.34375,9.24219 39.56641,37.9414 c -4.00829,5.53697 -6.89572,11.55345 -9.51563,16.72852 -4.20087,8.29789 -9.96762,19.9762 -8.53711,34.58984 0.75309,11.18443 4.09466,22.61771 11.53125,36.24414 0.17443,0.32078 0.36624,0.63349 0.57422,0.9336 a 4.000395,4.000395 0 0 0 0.004,0.004 c 7.80252,11.21773 10.67736,24.66962 12.99023,39.80274 0.43931,17.77812 -3.94545,31.91032 -19.11132,49.11133 -7.06563,8.01377 -16.74469,14.78952 -42.80274,18.10156 -9.36011,1.18971 -22.16508,1.69107 -37.6543,5.47266 a 4.000395,4.000395 0 0 0 -0.65625,0.22265 c -8.59288,2.2564 -15.78731,7.00469 -22.32812,12.04883 -7.12829,-5.15333 -15.00394,-9.94562 -23.92578,-11.9668 a 4.000395,4.000395 0 0 0 -0.0254,-0.006 c -15.55418,-3.50442 -28.3642,-3.77641 -37.74414,-4.79882 -26.11289,-2.84628 -35.91153,-9.45147 -43.11914,-17.33789 -15.47192,-16.92909 -20.10881,-30.97716 -19.98633,-48.76172 2.04193,-15.1686 4.67603,-28.66821 12.27344,-40.02149 l 0.004,-0.006 c 0.20237,-0.30174 0.38779,-0.61384 0.55664,-0.93554 a 4.000395,4.000395 0 0 0 0.004,-0.006 c 7.19292,-13.75705 10.33269,-25.24613 10.88672,-36.44336 1.17093,-14.6405 -4.81002,-26.21815 -9.15821,-34.43946 -2.71106,-5.12595 -5.70296,-11.08963 -9.80859,-16.55468 l 38.88086,-38.64258 c 9.84723,6.77771 22.57616,9.82574 36.98828,10.53125 l -0.004,-0.002 c 0.31369,0.0157 0.62763,0.0174 0.94141,0.004 a 4.000395,4.000395 0 0 0 0.004,0 c 11.2668,-0.4947 24.53134,-3.15567 40.39844,-11.48437 16.10628,8.08233 29.7081,10.58392 41.03906,10.8789 0.31403,0.008 0.62797,10e-4 0.9414,-0.0195 14.39698,-0.96268 27.06871,-4.23739 36.79297,-11.18945 z m -99.82812,239.24414 0.32422,0.0918 a 4.000395,4.000395 0 0 0 -0.32422,-0.0918 z"
           id="path863" />
        <path
           style="color:#000000;font-style:normal;font-variant:normal;font-weight:normal;font-stretch:normal;font-size:medium;line-height:normal;font-family:sans-serif;font-variant-ligatures:normal;font-variant-position:normal;font-variant-caps:normal;font-variant-numeric:normal;font-variant-alternates:normal;font-variant-east-asian:normal;font-feature-settings:normal;font-variation-settings:normal;text-indent:0;text-align:start;text-decoration:none;text-decoration-line:none;text-decoration-style:solid;text-decoration-color:#000000;letter-spacing:normal;word-spacing:normal;text-transform:none;writing-mode:lr-tb;direction:ltr;text-orientation:mixed;dominant-baseline:auto;baseline-shift:baseline;text-anchor:start;white-space:normal;shape-padding:0;shape-margin:0;inline-size:0;clip-rule:nonzero;display:inline;overflow:visible;visibility:visible;opacity:1;isolation:auto;mix-blend-mode:normal;color-interpolation:sRGB;color-interpolation-filters:linearRGB;solid-color:#000000;solid-opacity:1;vector-effect:none;fill:#231f20;fill-opacity:1;fill-rule:nonzero;stroke:none;stroke-linecap:butt;stroke-linejoin:round;stroke-miterlimit:4;stroke-dasharray:none;stroke-dashoffset:0;stroke-opacity:1;color-rendering:auto;image-rendering:auto;shape-rendering:auto;text-rendering:auto;enable-background:accumulate;stop-color:#000000;stop-opacity:1"
           d="m -207.76562,309.65039 a 4.000395,4.000395 0 0 0 -3.1211,1.46094 c -6.39601,7.79304 -18.08067,12.25942 -34.73242,13.40039 -10.95329,-0.30339 -22.86979,-2.19996 -39.35547,-11.46289 a 4.000395,4.000395 0 0 0 -3.98047,0.0351 c -16.33184,9.56407 -27.73264,11.54069 -38.69726,12.03907 -16.66857,-0.84373 -28.43106,-5.10012 -34.96485,-12.77735 a 4.000395,4.000395 0 0 0 -5.86523,-0.24414 l -52.49024,52.16797 a 4.000395,4.000395 0 0 0 0.41211,6.0332 c 4.86241,3.66358 9.53003,12.10818 13.83203,20.24219 4.26671,8.06726 8.4277,16.5174 7.5586,26.83399 a 4.000395,4.000395 0 0 0 -0.01,0.14648 c -0.43273,9.19712 -2.76013,18.20056 -9.29883,30.71289 -9.5654,14.47713 -12.34272,30.62433 -14.43554,46.3457 a 4.000395,4.000395 0 0 0 -0.0352,0.47852 c -0.26316,20.88087 6.19769,39.87535 23.70117,59.02734 9.25656,10.12832 23.72557,18.76888 52.02539,21.85352 10.37858,1.13127 22.10065,1.36724 36.16993,4.53711 7.55767,1.70992 16.57631,7.62928 24.77148,14.05859 a 4.000395,4.000395 0 0 0 4.99414,-0.0449 c 8.16926,-6.64802 16.13326,-12.53327 23.63477,-14.37109 14.00873,-3.4197 25.72434,-3.86538 36.08007,-5.18164 28.24029,-3.58941 42.55272,-12.48736 51.62696,-22.7793 17.15884,-19.4614 23.27848,-38.5685 22.64258,-59.44141 a 4.000395,4.000395 0 0 0 -0.043,-0.47656 c -2.3731,-15.68085 -5.43835,-31.77649 -15.25977,-46.08008 -6.76106,-12.39361 -9.24882,-21.35508 -9.8457,-30.54297 a 4.000395,4.000395 0 0 0 -0.0137,-0.14648 c -1.05317,-10.29947 2.95611,-18.82079 7.07812,-26.96289 4.15609,-8.20947 8.6724,-16.7384 13.46875,-20.48828 a 4.000395,4.000395 0 0 0 0.30469,-6.03711 l -53.41406,-51.22461 a 4.000395,4.000395 0 0 0 -2.73828,-1.11133 z m 0.0918,9.6582 47.57617,45.625 c -5.27182,5.6165 -8.97842,13.15533 -12.42578,19.96485 -4.1757,8.24815 -9.18737,18.56659 -7.90039,31.33203 0.68289,10.30782 3.66338,20.69991 10.8086,33.79101 a 4.000395,4.000395 0 0 0 0.22656,0.36719 c 8.7792,12.6219 11.73572,27.301 14.08789,42.78906 0.54099,19.14196 -4.60336,35.4974 -20.64649,53.69336 -7.90012,8.96026 -19.65118,16.70509 -46.63476,20.13477 -9.80514,1.24628 -22.12178,1.72043 -36.9707,5.3457 a 4.000395,4.000395 0 0 0 -0.004,0.002 c -8.94533,2.19155 -16.78279,7.93043 -24.32422,13.98437 -7.85167,-5.98478 -16.44058,-11.63366 -25.41016,-13.66211 a 4.000395,4.000395 0 0 0 -0.004,0 c -14.91129,-3.35957 -27.23475,-3.61453 -37.06055,-4.68555 -27.04047,-2.94737 -38.92758,-10.47917 -46.98633,-19.29687 -16.36583,-17.9072 -21.80111,-34.17083 -21.60156,-53.32031 2.07521,-15.52643 4.77051,-30.25555 13.32227,-43.03125 a 4.000395,4.000395 0 0 0 0.2207,-0.3711 c 6.91388,-13.22334 9.70649,-23.67071 10.20312,-33.99414 1.05251,-12.77805 -4.13874,-23.00339 -8.45898,-31.17187 -3.56838,-6.74692 -7.40988,-14.2167 -12.78125,-19.73828 l 46.75391,-46.4668 c 8.77278,8.00124 21.82533,11.7504 37.8164,12.5332 a 4.000395,4.000395 0 0 0 0.3711,0 c 11.31512,-0.49682 24.16194,-2.91777 40.60547,-12.13867 16.65133,8.94359 29.91274,11.2339 41.25976,11.5293 a 4.000395,4.000395 0 0 0 0.37109,-0.008 c 15.97417,-1.06813 28.95752,-5.05089 37.58594,-13.20703 z"
           id="path865" />
      </g>
      <path
         style="fill:#5ccace;fill-opacity:1;stroke:#5ccace;stroke-width:4.5;stroke-linecap:round;stroke-linejoin:miter;stroke-miterlimit:4;stroke-dasharray:none;stroke-opacity:1"
         d="m 272.07251,56.309288 c -30.8538,0 -61.7076,0.003 -92.56135,0.003 0.32038,11.18481 -0.14711,22.56615 -4.2871,33.11054 -3.70678,12.789592 -12.51529,23.383162 -15.58187,36.396902 -4.36599,14.70404 -5.05076,31.3649 2.4233,45.20277 5.31643,9.79731 12.42163,19.16356 22.21269,24.89859 16.28483,7.9172 34.71643,7.10186 52.22513,9.68906 13.2174,1.55438 26.4246,5.15787 37.4593,12.85812 14.3955,-11.31829 33.1756,-13.16622 50.7128,-15.19515 15.8208,-1.99221 34.0255,-3.12423 45.9233,-15.00886 12.5754,-12.68066 21.5428,-30.45312 18.7387,-48.60047 -1.4934,-14.59957 -7.71,-28.19905 -14.9441,-40.837562 -6.5336,-13.13582 -10.1729,-27.80813 -9.7467,-42.5178 -30.858,0 -61.7161,0 -92.5741,0 z"
         id="path869" />
      <path
         style="fill:#5ccace;fill-opacity:1;stroke:#5ccace;stroke-width:4.3;stroke-linecap:round;stroke-linejoin:miter;stroke-miterlimit:4;stroke-dasharray:none;stroke-opacity:1"
         d="m 268.73361,-15.461102 c -13.0386,5.9098603 -27.3922,9.9360803 -41.8073,9.3663503 -11.3668,-0.64402 -22.5745,-3.5506 -32.86574,-8.4116603 -10.34431,10.2646703 -20.80564,20.4437003 -31.00046,30.82031 4.94278,9.40787 10.46279,18.64241 13.93052,28.72822 63.17948,0 126.35888,0 189.53838,0 3.568,-10.7932 9.2431,-20.71389 14.2856,-30.85375 -10.8311,-9.7152397 -21.0818,-20.0600997 -31.618,-30.09209 -13.1344,6.5201003 -28.072,10.1941503 -42.7673,9.1265603 -12.2203,-1.18253 -24.0701,-4.8695203 -35.2125,-9.9410103 -0.8277,0.41903 -1.6554,0.83805 -2.4832,1.25707 z"
         id="path871" />
      <g
         aria-label="Auto"
         id="g881"
         style="font-style:normal;font-variant:normal;font-weight:normal;font-stretch:normal;font-size:50.8px;line-height:1.25;font-family:'Faster One';-inkscape-font-specification:'Faster One, Normal';font-variant-ligatures:normal;font-variant-caps:normal;font-variant-numeric:normal;font-variant-east-asian:normal;fill:#231f20;fill-opacity:1;stroke:none;stroke-width:0.264583;filter:url(#filter1150)"
         transform="translate(-857.54219,-705.59296)">
        <path
           d="m 1073.6817,821.55066 h -10.16 l 13.3604,-31.75 h 14.9352 l 2.2352,31.75 h -10.2108 l -0.2032,-5.0292 h -7.9756 z m 9.1948,-13.1064 v -8.89 h -0.508 l -3.556,8.89 z m -20.9804,12.9032 -20.828,-2.2352 h 21.7932 z m 2.0828,-4.9276 -20.828,-2.2352 h 21.7932 z m 2.0828,-4.8768 -20.828,-2.2352 h 21.7424 z m 2.032,-4.8768 -20.7772,-2.2352 h 21.7424 z m 2.0828,-4.8768 -20.7772,-2.2352 h 21.6916 z m 4.1148,-9.8044 -20.7264,-2.1844 h 21.6408 z m -2.0828,4.8768 -20.7264,-2.1844 h 21.6408 z m 2.0828,-4.8768 0.9144,-2.1844 h -21.6408 z"
           style="font-style:normal;font-variant:normal;font-weight:normal;font-stretch:normal;font-size:50.8px;font-family:'Faster One';-inkscape-font-specification:'Faster One, Normal';font-variant-ligatures:normal;font-variant-caps:normal;font-variant-numeric:normal;font-variant-east-asian:normal;fill:#231f20;fill-opacity:1;stroke-width:0.264583"
           id="path873" />
        <path
           d="m 1107.4129,811.59386 -21.5392,-2.286 h 21.9456 z m 0.8636,-4.8768 -21.5392,-2.286 h 21.9456 z m 0.8636,-4.8768 -21.5392,-2.286 h 21.9456 z m 0.8636,-4.8768 -21.5392,-2.286 h 21.8948 z m -2.794,17.2212 v 1.016 q 0,0.8636 0.051,1.27 l -21.5392,-2.286 z m 1.9812,7.2136 -21.5392,-2.286 h 20.066 q 0.5588,1.4224 1.4732,2.286 z m 10.414,-6.9596 q 1.3716,0 1.8796,-0.3048 0.5588,-0.3556 0.762,-1.6256 l 3.2004,-17.8308 h 8.5344 l -2.6416,15.1384 q -1.2192,7.112 -3.9624,9.7536 -2.6924,2.5908 -9.2456,2.5908 -5.2324,0 -7.3152,-1.524 -2.0828,-1.5748 -2.0828,-5.4356 0,-2.1336 0.5588,-5.3848 l 2.6924,-15.1384 h 8.5344 l -3.4544,19.7612 z"
           style="font-style:normal;font-variant:normal;font-weight:normal;font-stretch:normal;font-size:50.8px;font-family:'Faster One';-inkscape-font-specification:'Faster One, Normal';font-variant-ligatures:normal;font-variant-caps:normal;font-variant-numeric:normal;font-variant-east-asian:normal;fill:#231f20;fill-opacity:1;stroke-width:0.264583"
           id="path875" />
        <path
           d="m 1165.782,802.29746 h -5.4864 l -3.3528,19.2532 h -8.9408 l 3.3528,-19.2532 h -5.6388 l 1.3716,-7.62 h 20.066 z m -19.304,19.1008 -21.5392,-2.286 h 21.9456 z m 1.7272,-9.8044 -21.5392,-2.286 h 21.9456 z m 0.8636,-4.8768 -21.5392,-2.286 h 21.9456 z m -4.8768,-4.8768 -21.5392,-2.286 h 21.9456 z m 0.8636,-4.8768 -21.5392,-2.286 h 21.8948 z m 2.286,19.5072 -21.5392,-2.286 h 21.9456 z"
           style="font-style:normal;font-variant:normal;font-weight:normal;font-stretch:normal;font-size:50.8px;font-family:'Faster One';-inkscape-font-specification:'Faster One, Normal';font-variant-ligatures:normal;font-variant-caps:normal;font-variant-numeric:normal;font-variant-east-asian:normal;fill:#231f20;fill-opacity:1;stroke-width:0.264583"
           id="path877" />
        <path
           d="m 1191.436,794.16946 q 5.4864,0 7.8232,2.1336 2.3368,2.0828 2.3368,6.5532 0,2.1844 -0.5588,5.2832 -1.27,7.3152 -4.4704,10.668 -3.2004,3.3528 -10.0584,3.3528 -5.3848,0 -7.6708,-2.0828 -2.286,-2.1336 -2.286,-6.5532 0,-2.286 0.5588,-5.3848 1.27,-7.3152 4.4196,-10.6172 3.1496,-3.3528 9.906,-3.3528 z m -3.4544,20.2692 q 1.4732,0 2.1844,-0.3556 0.762,-0.3556 1.016,-1.5748 l 1.9304,-10.6172 h -3.0988 q -1.4224,0 -2.2352,0.3556 -0.762,0.3556 -0.9144,1.524 l -1.8796,10.668 z m -12.6492,-5.1308 q -0.2032,1.5748 -0.254,2.1336 l -20.0152,-2.1336 z m 0.9652,-4.8768 -0.4572,2.1336 -19.8628,-2.1336 z m -1.27,9.7536 q 0,0.8128 0.2032,2.1336 l -19.9644,-2.1336 z m 3.048,-14.6304 q -0.6096,1.3208 -0.8636,2.032 l -19.2024,-2.032 z m -1.9812,19.558 q 0.6096,1.2192 1.3208,1.8796 l -17.7292,-1.8796 z m 6.4008,-24.4348 q -1.2192,0.7112 -2.0828,1.6764 l -15.5956,-1.6764 z"
           style="font-style:normal;font-variant:normal;font-weight:normal;font-stretch:normal;font-size:50.8px;font-family:'Faster One';-inkscape-font-specification:'Faster One, Normal';font-variant-ligatures:normal;font-variant-caps:normal;font-variant-numeric:normal;font-variant-east-asian:normal;fill:#231f20;fill-opacity:1;stroke-width:0.264583"
           id="path879" />
      </g>
      <g
         aria-label="Repair"
         id="g895"
         style="font-style:normal;font-variant:normal;font-weight:normal;font-stretch:normal;font-size:50.8px;line-height:1.25;font-family:'Faster One';-inkscape-font-specification:'Faster One, Normal';font-variant-ligatures:normal;font-variant-caps:normal;font-variant-numeric:normal;font-variant-east-asian:normal;fill:#231f20;fill-opacity:1;stroke:none;stroke-width:0.264583;filter:url(#filter869-7)"
         transform="translate(-855.95469,-705.59296)">
        <path
           d="m 1058.9499,839.10175 q 8.6868,0 8.6868,7.7724 0,3.2004 -0.9652,6.096 -1.778,5.4864 -5.588,7.3152 l 3.3528,10.5664 h -10.6172 l -2.3368,-9.4488 h -2.0828 l -1.6256,9.4488 h -9.652 l 5.588,-31.75 z m -5.9436,14.478 q 1.7272,0 2.5908,-0.3556 0.9144,-0.4064 1.2192,-2.1844 0.3556,-1.8288 0.3556,-2.2352 0,-1.016 -0.8128,-1.27 -0.762,-0.3048 -2.54,-0.3048 h -1.9304 l -1.1176,6.35 z m -16.4084,17.1196 -21.5392,-2.286 h 21.9456 z m 1.7272,-9.8044 -21.5392,-2.286 h 21.9456 z m 1.6764,-9.7536 -21.4884,-2.286 h 21.8948 z m 0.8636,-4.8768 -21.4884,-2.286 h 21.8948 z m -3.4036,19.5072 -21.5392,-2.286 h 21.9456 z m 4.2672,-24.384 -21.4884,-2.286 h 21.8948 z m -2.5908,14.6304 -21.4884,-2.286 h 21.8948 z"
           style="font-style:normal;font-variant:normal;font-weight:normal;font-stretch:normal;font-size:50.8px;font-family:'Faster One';-inkscape-font-specification:'Faster One, Normal';font-variant-ligatures:normal;font-variant-caps:normal;font-variant-numeric:normal;font-variant-east-asian:normal;fill:#231f20;fill-opacity:1;stroke-width:0.264583"
           id="path883" />
        <path
           d="m 1096.5418,859.92975 h -7.5692 l -0.6096,3.4544 h 9.398 l -1.3208,7.4676 h -17.9324 l 4.6736,-26.8732 h 17.8816 l -2.3876,7.62 h -8.2804 l -0.6096,3.4544 h 7.62 z m -19.7104,10.7696 -21.5392,-2.286 h 21.9456 z m 1.7272,-9.8044 -21.5392,-2.286 h 21.9456 z m 0.8636,-4.8768 -21.5392,-2.286 h 21.9456 z m 0.8636,-4.8768 -21.5392,-2.286 h 21.9456 z m 0.8636,-4.8768 -21.5392,-2.286 h 21.8948 z m -3.4544,19.5072 -21.5392,-2.286 h 21.9456 z"
           style="font-style:normal;font-variant:normal;font-weight:normal;font-stretch:normal;font-size:50.8px;font-family:'Faster One';-inkscape-font-specification:'Faster One, Normal';font-variant-ligatures:normal;font-variant-caps:normal;font-variant-numeric:normal;font-variant-east-asian:normal;fill:#231f20;fill-opacity:1;stroke-width:0.264583"
           id="path885" />
        <path
           d="m 1126.4121,864.55255 h -4.9276 l -1.1176,6.2992 h -8.5344 l 4.6736,-26.8732 h 12.9032 q 7.366,0 7.366,6.9596 0,3.1496 -0.9144,5.7912 -0.9144,2.6416 -1.9812,4.1656 -1.0668,1.524 -3.048,2.5908 -1.9304,1.0668 -4.4196,1.0668 z m 1.1176,-11.7856 q 0,-0.0508 0.051,-0.3048 0,-1.0668 -2.1844,-1.0668 h -1.6256 l -1.0668,6.2992 h 1.5748 q 1.1684,0 1.8288,-0.254 0.6604,-0.3048 0.8128,-1.2192 z m -17.3736,17.9324 -21.5392,-2.286 h 21.9456 z m 1.7272,-9.8044 -21.5392,-2.286 h 21.9456 z m 0.8636,-4.8768 -21.5392,-2.286 h 21.9456 z m 0.8636,-4.8768 -21.5392,-2.286 h 21.9456 z m 0.8636,-4.8768 -21.5392,-2.286 h 21.8948 z m -3.4544,19.5072 -21.5392,-2.286 h 21.9456 z"
           style="font-style:normal;font-variant:normal;font-weight:normal;font-stretch:normal;font-size:50.8px;font-family:'Faster One';-inkscape-font-specification:'Faster One, Normal';font-variant-ligatures:normal;font-variant-caps:normal;font-variant-numeric:normal;font-variant-east-asian:normal;fill:#231f20;fill-opacity:1;stroke-width:0.264583"
           id="path887" />
        <path
           d="m 1161.972,870.85175 -0.2032,-4.1148 h -6.4008 l -1.5748,4.1148 h -8.7884 l 11.2776,-26.8732 h 12.5984 l 1.9812,26.8732 z m -0.2032,-11.3792 v -7.7216 h -0.7112 l -2.9972,7.7216 z m -18.3896,11.176 -20.828,-2.2352 h 21.7932 z m 2.0828,-4.9276 -20.828,-2.2352 h 21.7932 z m 2.0828,-4.8768 -20.828,-2.2352 h 21.7424 z m 2.032,-4.8768 -20.7772,-2.2352 h 21.7424 z m 2.0828,-4.8768 -20.7772,-2.2352 h 21.6916 z m 2.032,-4.9276 -20.7264,-2.1844 h 21.6408 z"
           style="font-style:normal;font-variant:normal;font-weight:normal;font-stretch:normal;font-size:50.8px;font-family:'Faster One';-inkscape-font-specification:'Faster One, Normal';font-variant-ligatures:normal;font-variant-caps:normal;font-variant-numeric:normal;font-variant-east-asian:normal;fill:#231f20;fill-opacity:1;stroke-width:0.264583"
           id="path889" />
        <path
           d="m 1184.1208,870.85175 4.6736,-26.8732 h 8.9408 l -4.7244,26.8732 z m -1.6764,-0.1524 -21.5392,-2.286 h 21.9456 z m 1.7272,-9.8044 -21.5392,-2.286 h 21.9456 z m 0.8636,-4.8768 -21.5392,-2.286 h 21.9456 z m 0.8636,-4.8768 -21.5392,-2.286 h 21.9456 z m 0.8636,-4.8768 -21.5392,-2.286 h 21.8948 z m -3.4544,19.5072 -21.5392,-2.286 h 21.9456 z"
           style="font-style:normal;font-variant:normal;font-weight:normal;font-stretch:normal;font-size:50.8px;font-family:'Faster One';-inkscape-font-specification:'Faster One, Normal';font-variant-ligatures:normal;font-variant-caps:normal;font-variant-numeric:normal;font-variant-east-asian:normal;fill:#231f20;fill-opacity:1;stroke-width:0.264583"
           id="path891" />
        <path
           d="m 1226.5387,843.97855 q 7.4168,0 7.4168,6.7056 0,3.048 -1.2192,6.35 -1.2192,3.2512 -4.1148,4.8768 l 2.8956,8.9408 h -9.4996 l -1.9304,-7.8232 h -1.2192 l -1.3716,7.8232 h -8.5344 l 4.6736,-26.8732 z m -1.8796,8.7884 q 0,-0.0508 0.051,-0.508 0,-0.8636 -2.6924,-0.8636 h -1.1176 l -0.8128,4.6736 h 1.6256 q 2.3368,0 2.6416,-1.524 z m -17.3736,17.9324 -21.5392,-2.286 h 21.9456 z m 1.7272,-9.8044 -21.5392,-2.286 h 21.9456 z m 0.8636,-4.8768 -21.5392,-2.286 h 21.9456 z m 0.8636,-4.8768 -21.5392,-2.286 h 21.9456 z m 0.8636,-4.8768 -21.5392,-2.286 h 21.8948 z m -3.4544,19.5072 -21.5392,-2.286 h 21.9456 z"
           style="font-style:normal;font-variant:normal;font-weight:normal;font-stretch:normal;font-size:50.8px;font-family:'Faster One';-inkscape-font-specification:'Faster One, Normal';font-variant-ligatures:normal;font-variant-caps:normal;font-variant-numeric:normal;font-variant-east-asian:normal;fill:#231f20;fill-opacity:1;stroke-width:0.264583"
           id="path893" />
      </g>
      <path
         style="fill:#eb882c;fill-opacity:1;stroke:#ba6211;stroke-width:4.5;stroke-linecap:round;stroke-linejoin:miter;stroke-miterlimit:4;stroke-dasharray:none;stroke-opacity:1"
         d="m 348.51982,-28.561737 c -14.75044,10.159206 -34.00206,12.926748 -51.37772,9.364398 -9.04769,-1.880077 -17.55658,-5.601706 -25.93811,-9.388846 -16.64287,8.730562 -35.97058,14.361398 -54.75451,10.070571 -8.56195,-1.68058 -17.16627,-4.572926 -23.97535,-10.20953 -14.72952,14.709801 -29.45905,29.41960297 -44.18857,44.129378 8.59589,10.621353 14.8476,23.14485 19.05143,36.10639 2.50907,10.136822 1.04484,20.909439 -1.35527,30.927251 -3.49653,14.14272 -13.55323,25.536605 -16.76459,39.775875 -2.86578,11.31363 -5.60482,22.93429 -3.09366,34.6108 2.67919,17.61506 13.22083,33.25702 26.70484,44.43056 14.83664,11.36994 34.38536,12.26082 52.16438,14.14801 15.18721,1.47828 31.3377,3.24916 43.79134,12.98091 2.31974,1.09733 4.7711,5.03962 7.18434,2.21877 8.28532,-6.47851 17.6807,-11.8576 28.27472,-13.23803 22.13512,-4.68805 46.4642,-2.71772 66.31112,-15.19349 11.82209,-7.64432 19.9994,-20.02356 25.56716,-32.63612 3.56354,-9.74688 5.72358,-20.30706 4.29014,-30.68439 -2.15101,-14.03545 -5.62578,-28.04316 -13.55606,-39.98309 -8.54196,-15.480347 -14.22151,-34.282724 -9.24456,-51.835102 4.26791,-12.02608 10.05046,-23.664968 17.7673,-33.861957 -15.00188,-14.3825643 -30.00412,-28.764759 -45.00687,-43.146397 -0.61717,0.471355 -1.23434,0.942684 -1.8515,1.414039 z m 1.90812,3.230774 c 5.72812,3.502898 10.14465,9.068832 15.269,13.450914 8.2909,8.2040412 17.23834,15.8908748 24.83575,24.719994 -0.4458,4.73366 -4.32433,8.565038 -6.16691,12.894759 -7.51697,13.515367 -13.41483,29.193437 -10.28007,44.806552 1.82147,14.543961 9.48997,27.142784 16.18451,39.868924 4.78584,11.49829 7.74877,23.93826 8.20515,36.39524 -0.5879,21.05856 -12.30722,41.07934 -29.1479,53.38434 -16.66137,10.58516 -37.22944,10.34037 -56.10421,13.20999 -12.07553,1.41999 -24.30743,4.48365 -34.12698,12.00054 -2.34487,1.55507 -5.41346,4.21873 -8.00294,1.51181 -10.92599,-8.57996 -24.82379,-11.64699 -38.29465,-13.07174 -18.81013,-2.56162 -39.33986,-1.97792 -55.97147,-12.49392 -11.71101,-8.26646 -20.43805,-20.56574 -25.57809,-33.85809 -6.47422,-17.28785 -3.1746,-36.54206 3.14929,-53.36233 5.00827,-11.37031 12.0609,-21.954388 14.68061,-34.145013 3.87419,-14.524328 2.30453,-30.647269 -5.29968,-43.908079 -3.16344,-6.77373 -7.22275,-13.030835 -10.60582,-19.627797 -0.45712,-4.357158 4.78292,-6.5186188 6.917,-9.6652819 10.65268,-10.3556592 20.91822,-21.2465441 32.2948,-30.7804341 4.90958,0.331073 9.01634,4.103238 13.81215,5.298413 18.28012,6.445303 38.80411,4.713896 56.37935,-3.357853 4.20653,-1.716246 9.07918,-4.893257 13.48811,-1.754002 16.76223,7.288582 35.79498,11.37023 53.77355,6.217628 7.16134,-1.396656 13.30253,-5.616045 20.16485,-7.738427 l 0.30363,-0.005 z"
         id="path897" />
      <text
         xml:space="preserve"
         style="font-style:normal;font-variant:normal;font-weight:normal;font-stretch:normal;font-size:54.8602px;line-height:1.25;font-family:'Mr De Haviland';-inkscape-font-specification:'Mr De Haviland, Normal';font-variant-ligatures:normal;font-variant-caps:normal;font-variant-numeric:normal;font-variant-east-asian:normal;fill:#000000;fill-opacity:1;stroke:none;stroke-width:0.264583;filter:url(#filter869-6-4)"
         x="144.65903"
         y="34.050476"
         id="text901"
         inkscape:transform-center-x="45.281712"
         inkscape:transform-center-y="-104.23973"
         transform="matrix(0.88722066,0,0,0.88722066,78.197287,4.2373515)"><tspan
           sodipodi:role="line"
           id="tspan899"
           x="144.65903"
           y="34.050476"
           style="font-style:normal;font-variant:normal;font-weight:normal;font-stretch:normal;font-size:54.8602px;font-family:'Mr De Haviland';-inkscape-font-specification:'Mr De Haviland, Normal';font-variant-ligatures:normal;font-variant-caps:normal;font-variant-numeric:normal;font-variant-east-asian:normal;stroke-width:0.264583">Sweet Lou's</tspan></text>
    </g>
  </g>
</svg>
