<svg version="1" xmlns="http://www.w3.org/2000/svg" width="933.333" height="933.333" viewBox="0 0 700.000000 700.000000"><path d="M340.7 47.7c-21.5 10.7-44.3 18.4-67 22.3-11.6 2-15 2.2-34.5 1.7-16.8-.4-23.9-1-31.2-2.6-19.2-4.3-37.6-11-52.6-19.2l-7.2-3.9-37.9 39.7C54.2 144.6 43.5 156 43.5 157c0 .5 4.8 7.8 10.6 16.2C87.2 220.8 97.7 250.6 94 287c-1.9 19.4-6 31.9-22.1 66.6-16.2 35.2-22 51.4-25.6 70.9-2.2 11.4-2.4 45.3-.4 57 3.8 23.3 15.5 51.4 28.5 68.5 22.2 29.5 54.4 49.5 91.5 56.9 13.4 2.7 21.7 3.7 53 6.6 27.2 2.5 40.1 4.3 51.6 7.1 20 5 41.2 14.2 64 27.8 7.2 4.3 13.9 7.8 15 7.8 1.1 0 6.3-2.5 11.5-5.7 32.6-19.8 58.7-29.6 90-33.9 6.3-.9 22.1-2.5 35-3.6 36.6-3.2 49.7-5.5 67.5-11.4 77.7-26 118.8-108.9 95.9-193.6-3.4-12.5-9.6-28-21.1-53-18.7-40.3-22.2-51.9-23-75.6-.7-18.2.5-27.7 5.3-42.3 6.1-18.7 17.6-39.6 36.2-65.7l9.9-13.9-1.9-2.5c-1.1-1.3-22-23.6-46.6-49.4-24.6-25.8-47.3-49.8-50.5-53.2l-5.7-6.2-14.3 6.8c-16 7.7-26.8 11.5-44.2 15.6-11.5 2.7-13.1 2.9-36.5 2.9-16.6 0-26.8-.4-31.5-1.4-21.8-4.2-44.2-11.5-61.8-20.2-5.6-2.8-11.1-5.4-12.2-5.9-1.5-.5-4.4.4-10.8 3.7zm16.6 51.2c17.5 7.9 42.9 15.3 64.2 18.8 15.2 2.5 55.6 2.5 69.5 0 13.4-2.4 27.1-6.1 39.1-10.4l10.3-3.7 14 14.6c7.8 7.9 20.3 21 27.9 29.1l13.8 14.5-7.7 12.9c-12.7 20.9-21.5 41.2-28 64-.3 1-43.3 1.3-210.7 1.3H139.3l-2.1-8c-4.9-18.4-14-38.7-26.7-59.4l-6.6-10.9 4.8-5.1c10.6-11.2 25.5-26.8 37.7-39.5l12.9-13.4 12.1 4.1c28.3 9.7 40.7 11.7 72.6 11.7 22.3 0 27-.3 37.5-2.3 20.8-3.9 42.4-10.4 59.5-17.8 4.1-1.7 8-3.2 8.7-3.3.6-.1 4 1.2 7.6 2.8zm200 167.3c-.8 21.6 2 41.8 8.8 62.7 4.4 13.7 7.7 21.7 19 45.9 5.6 11.9 11.7 25.5 13.6 30.2 13.2 32.8 12.3 70.8-2.7 101.5-13.9 28.6-35.2 45.1-68.4 53-11.9 2.8-19 3.8-50.6 6.5-52.7 4.6-73.8 9.9-108.9 27.2l-18.4 9-14.6-7.5C300.7 577 273.7 570.1 223 566c-43.3-3.5-58.4-6.6-77-16-24.4-12.3-41.3-33.2-49.4-61.3-4.2-14.6-4.9-20.5-4.3-40 .7-25.5 2-29.9 21.4-71.7 15-32.3 21-48.5 25.4-69 2-9.1 2.3-13.5 2.4-33.2V252H557.8l-.5 14.2z"/><path d="M246.2 137c-6 2.1-13.7 7.5-16.8 11.7-6.7 9.1-7.2 16.1-2.4 31.7 3.2 10.4 3.9 17.4 1.8 18-20.5 5.5-29.9 9.7-37.5 17.1-5.3 5.2-7.3 9.6-5.6 12.4.8 1.2 2.7 1.6 8.4 1.6 6.5-.1 8.4-.6 15.4-3.9 9.5-4.6 18.2-12.8 21.1-19.8 1.6-3.9 2.4-4.9 4.9-5.3 7.4-1.2 13.2 2.8 8.8 6-2.4 1.8-1 3 1.6 1.3 3.2-1.9 3.8-5.6 1.3-8.1-1.7-1.6-3.3-2-8-2l-5.9.1V192c-.1-3.4-1.4-10.5-3.2-16.9-2.4-8.2-3-12.1-2.5-14.9 2.3-12.5 13.5-21.2 27.5-21.2 4.7 0 6.3.5 8.6 2.4 1.5 1.3 2.6 2.6 2.3 2.8-.3.1-3.2 1.6-6.5 3.3-3.3 1.6-7.7 4.7-9.8 6.8-3.2 3.3-3.8 4.4-3.5 7.5.3 3.4.6 3.7 3.6 4 7 .7 16.5-7.9 17.8-16 .6-3.5.8-3.7 5.5-4.3 3.2-.5 4.9-1.2 4.9-2.1 0-1.6-2.2-1.8-6.7-.5-2.8.8-3.2.7-3.7-1.5-1.5-6-11.4-8-21.4-4.4zm17.4 17.5c-1.6 2.7-4.4 5.5-7.1 7.1-5.4 3.1-8 2.6-7-1.4.9-3.8 5-7.8 10.9-10.7 4.3-2.2 5.1-2.3 5.4-1 .2.9-.8 3.6-2.2 6zm-36.5 51.9c-4.8 9.8-17.8 18.4-29.5 19.3-7.8.7-9.4-.7-6.8-5.8 2.2-4.4 10.6-10 20-13.5 7.3-2.7 17.4-5.4 18.1-4.8.2.2-.6 2.3-1.8 4.8zM442.3 140c-13.8 2.8-23.6 13.3-39.8 42.5-4.2 7.7-9.7 17-12 20.6l-4.3 6.6-8.8.7c-17.1 1.4-28.5 5-35 11.1-2.4 2.3-3.4 4.1-3.4 6.3 0 4.3 3.1 6.2 10 6.2 11.1 0 22.5-4.8 31.8-13.5l6-5.5h16.5c13.5 0 16.7-.3 17.7-1.5.7-.9 1.1-1.7.9-2-.3-.2-7.2-.7-15.6-1.1l-15.1-.7 5.3-8.1c2.9-4.5 8.8-14.4 13-22.1 13.9-24.9 18.7-31.1 27.5-35.6 7.5-3.9 19-2.9 19 1.6 0 .7-1.7 1.6-3.7 2-9.3 1.7-18 9.3-17.4 15.2.1.8 1.7 1.3 4.4 1.3 5.4 0 12.5-4.3 16.4-9.9 2.1-3 3.5-4 5.6-4.1 1.7 0 2.7-.5 2.7-1.5 0-.8-.9-1.5-2-1.5s-2.6-1.2-3.5-3c-1-2-2.7-3.2-5.3-3.9-4.2-1.2-5-1.2-10.9-.1zm11.8 11.7c-3 5.1-9.8 10.3-13.4 10.3-6.2 0 .2-7.7 8.8-10.8 4.6-1.6 5.7-1.5 4.6.5zm-73.8 64.7c-.4.8-2.8 3.1-5.3 5.1-10.2 8.6-26.6 13.1-32 8.7-2.1-1.7-2.3-2.3-1.3-4.5 2.5-5.4 17.7-10.5 32.1-10.6 6-.1 7.2.2 6.5 1.3zM495 164.7c-2.7 4.3-3.7 7.3-2.6 7.3s8.5-10.3 8-11.1c-1.1-1.8-2.5-.8-5.4 3.8z"/><path d="M354.5 173.4l-7.3 7.6h-7.6c-6 0-7.6.3-7.6 1.5 0 1 1.6 1.5 6.5 1.7l6.5.3-3.6 5c-2 2.7-5.3 8.2-7.5 12-3.4 6.3-4.5 7.4-9.5 9.8-13.6 6.7-20.8 3.2-9.5-4.6l4.6-3.2-3-.3c-1.6-.2-3.4-.8-3.9-1.3-1.3-1.2 2-4.6 6.6-7 5.5-2.8 8.8-2.3 5.6.9-2 2 1.7 1.5 4.3-.6 3.5-2.9 1.9-5.6-2.9-4.8-12.1 2.2-25.4 14.6-15.6 14.6 2.6 0 2.6 1.4.1 1.5-.7.1-5 2-9.6 4.3-8.4 4.2-14.5 5.3-15.4 2.9-.8-2.1 1.2-4.6 6.1-7.4l4.7-2.8-3.9-.5c-2.2-.3-4.1-1-4.3-1.7-.5-1.4 7-7.1 10.4-7.9 3-.8 4 .1 2.3 2.1-2 2.4 1.2 1.9 4.4-.6 2.1-1.7 2.4-2.4 1.5-3.5-.6-.8-1.7-1.4-2.3-1.4-3.7 0-12.1 3.5-16.7 7-3 2.2-5.7 4-6.2 4-.4 0 .6-2 2.3-4.4 5.6-7.7 2-10.8-4.8-4.3-4.1 3.9-5.6 7.2-4.3 9.6.8 1.4.1 2.7-3.4 6.1-2.5 2.5-4.5 3.9-4.5 3.4 0-.6.9-3.7 2-6.9 3.6-10.6 2.6-10.9-7.1-2.3-3.8 3.3-7.2 5.9-7.4 5.6-.3-.3-.1-2.7.5-5.3.6-2.7.9-5.4.6-6.2-.7-1.7-3.6-1.6-5.8.1-2.2 1.6-2.3 2.7-.3 2 2.5-1 1.4 5-3 15.8-1.3 3.3 1.5 1.9 9.5-4.8 4.4-3.6 8-6.2 8-5.6 0 .5-.9 3.5-2 6.7-3.3 9.6-1.2 9.4 9.8-.9 7-6.5 10.9-8.5 11.9-6 .3.8 1.7 1.4 3.1 1.4 2.4 0 2.4.2-1.7 3.6-3.3 2.8-4.1 4.2-3.9 6.3.3 2.3.8 2.6 4.7 2.9 4.8.4 10.1-1.4 17.5-5.9l4.9-3-2.2 2.6c-1.6 2.2-1.8 3.1-1 4.7 1.6 3 10.1 2.1 17.9-2 4.5-2.4 6-2.8 6-1.7 0 .8 1.1 2.2 2.5 3.1 2.3 1.5 2.9 1.5 8-.1 5.4-1.8 17-8.3 16.2-9.2-.3-.2-3.6 1.2-7.5 3.2-8.2 4.3-13.5 5.1-14 2-.2-1.2 1.5-5.7 3.8-10 3.4-6.7 5-8.8 10.4-12.8l6.4-4.8 10.8-.7c7.1-.5 10.9-1.1 11.2-2 .3-.9-1.9-1.2-8.7-1.2h-9l3-4.9c3.1-5 3.5-8.1 1-8.9-.8-.3-4.5 2.8-8.6 7.2zm4.3 3.2c-1.5 2.1-3.1 3.4-4.5 3.4-3.2 0-2.9-.8 2-5.8 3.1-3.2 4.3-3.9 4.5-2.7.2.9-.7 3.2-2 5.1zm-9.6 9.9c-1.7 1.4-3.3 2.5-3.6 2.5-.4 0 .1-1.1 1-2.5s2.5-2.5 3.6-2.5c1.7 0 1.5.4-1 2.5zm-66.2 6.6c0 .6-.8 2.4-1.7 4-1.9 3.2-4 3.3-3.5.3.7-3.4 5.2-7.2 5.2-4.3zM509.3 192c-3.5 2.1-6.8 7.4-5.9 9.5.3.8-.9 2.6-2.6 4-3.6 3.1-3.2 4.4.5 1.5 3.1-2.5 3.9-2.5 6.1-.1 1.6 1.7 1.5 1.9-1.1 2.4-4.1.8-9.8 5-9.8 7.1 0 4.4 7.3 4.6 13.6.3 4.7-3.2 5.1-7.3.9-12l-3-3.5 3.5-4.2c5-6 3.8-8.7-2.2-5zm2.7 1.5c0 1.4-4.4 6.4-5.2 5.9-1.3-.9-.9-2.2 1.4-4.4 2.1-1.9 3.8-2.6 3.8-1.5zm-2 19c0 2.7-2.5 4.5-6.4 4.5-4.2 0-3.4-3.5 1.2-5.3 5-2.1 5.2-2.1 5.2.8zM429.9 194.9c-1.7 1.7-2.9 4-2.9 5.5 0 1.4-.9 4.3-2 6.3-2.4 4.5-2.6 8.6-.5 10.3 1.9 1.5 4.9.4 10.4-3.9 2-1.5 5.3-3.1 7.4-3.4 3.5-.5 3.6-.5 2.6 1.4-.6 1.1-.8 2.7-.5 3.5 1 2.6 5.3 1.4 11.4-3.1l6.1-4.4-2.1 3.5c-5.2 8.9 3.9 8.2 18.4-1.4 6.1-4 3.8-3.6-4.8.8-12.6 6.4-13.1 5.5-4.4-6.7 7.7-10.7 6-12.3-3.1-2.8-5.8 6-14.1 12.5-16.1 12.5-1.7 0-.6-2.7 3.8-9.2 4.1-5.9 4.9-8.8 2.5-8.8-.5 0-2.6 2.7-4.7 6-3.1 4.7-4.6 6-7.2 6.6-4.2.8-4.7.3-2.8-3.5 5-9.5-4-16.7-11.5-9.2zm9.9 1.3c1.6 1.6 1.5 4.4-.4 8.4s-3.1 4.2-6.9 1.2l-2.8-2.2 4.4-3.8c4.9-4.2 3.5-5.2-1.8-1.2-3.4 2.6-4.6 1.5-1.6-1.8 1.8-2 7.3-2.4 9.1-.6zm-8 12.4c1.8.8 3.2 1.7 3.2 1.9 0 .3-1.4 1.2-3.1 2.1-3.7 1.9-5.5.8-4.5-3 .8-3.1.5-3 4.4-1zM234.6 322.9c-.4.5-6.7 15.4-14.1 33.2-7.5 17.7-13.8 32.6-14.1 33.1-.3.4 4.6.8 10.8.8h11.3l2-5.3 2-5.2h17l.3 5.2.3 5.3h11c9 0 10.9-.3 10.9-1.5 0-1.9 2.9-1.9 18.9 0 6.9.8 12.7 1.3 12.9 1.1.2-.2-.3-1.3-1-2.5-1.2-2-2.1-2.1-16-2.1h-14.6l-.7-4.1c-.4-2.2-.5-4.2-.3-4.4.1-.1 5.9.3 12.8 1.1 16.8 1.8 16 1.8 16-1.1V374h-28.8l-.4-4c-.3-3.9-.3-4 2.7-4 2.8 0 15 1.3 23.6 2.5 3.3.4 3.7.2 4.1-2l.5-2.5H270v-4.5c0-5.3-1.4-5 16.5-3 17.1 1.9 16.5 2 16.5-1V353h-34v-4.5c0-3 .4-4.5 1.3-4.5.6.1 8.4.9 17.2 1.9 8.8 1 16.3 1.7 16.8 1.4.4-.2.7-1.3.7-2.4 0-1.8-.8-1.9-17.9-1.9h-18l-.7-4.5c-.3-2.5-.5-4.8-.3-5 .2-.2 8.3.5 17.9 1.6 22.3 2.4 21 2.4 21-.6V332h-39v-3.4c0-6.8.4-6.6-17-6.6-8.8 0-16.1.4-16.4.9zm13.4 29.6v9.5h-4c-2.2 0-4-.4-4-1 0-.9 5.7-15.7 6.6-17.2 1.2-1.8 1.4-.3 1.4 8.7zM470.7 332.4c-2.6.7-6.4 2.7-8.5 4.3-7.2 5.8-12.3 20.4-12.4 35.5 0 12.1 3.8 17 14.7 18.8 10.4 1.7 22-.9 27.4-6.2 6.7-6.6 11.1-19.7 11.4-33.8.2-8.3-1.5-12.6-6.4-16.2-5-3.8-17-4.9-26.2-2.4zm14 17.8c-.3 1.3-1.3 6.6-2.2 11.9-.9 5.3-2 10.2-2.5 10.9-.8 1.3-12 2.8-12 1.6 0-3 4.4-24.4 5.2-25.4.6-.7 3.4-1.2 6.5-1.2 5.2 0 5.5.1 5 2.2zM185 332.6c.8.2 10 1.3 20.5 2.4 18 2 19 2 20.2.4.7-1 1.3-2.1 1.3-2.6 0-.4-9.8-.7-21.7-.7-12 .1-21.1.3-20.3.5z"/><path d="M307.1 350.9c-4.6 26.6-4.2 34.8 2.1 38.2 6.6 3.5 24.7 2.8 32-1.3l3.7-2.1 19.8 2.1c10.9 1.1 19.8 2 19.9 1.9.1-.1.5-1.2.8-2.5l.7-2.2h-40.8l2.4-4.8c1.9-3.6 2.9-4.7 4.6-4.5 1.2.1 9.3 1 18 1.9 8.7.9 15.9 1.5 16.1 1.3.2-.2.7-1.4 1-2.7l.7-2.2h-37.9l1.1-4.3c.5-2.3 1.1-4.3 1.2-4.5.3-.3 27.8 2.5 33.1 3.3 2.8.5 3.2.2 3.6-2l.5-2.5h-18.3c-20.4 0-19.2.4-17.8-6.7l.6-2.9 15.6 1.8c21.5 2.3 21.2 2.3 21.2-.7V353h-36v-2.8c0-5 .5-5.1 13-3.7 8.7 1 11.7 1 12.2.2 2.1-3.2.8-3.6-11.4-3.9l-12.3-.3.3-3.5c.2-1.9.6-3.7.7-3.9.2-.2 5.6.2 12 .9 6.4.6 11.8 1 12 .8.1-.2.6-1.3.9-2.6l.7-2.2h-43.8l-1.2 7.2c-3.1 18.3-6.1 34.2-6.6 34.6-.2.2-2.4.7-5 .9-3.4.4-4.5.2-4.5-.8 0-.8 1.6-10.4 3.5-21.4 1.9-11 3.5-20.1 3.5-20.2 0-.2-4.2-.3-9.3-.3h-9.3l-3.3 18.9z"/><path d="M385 338.7c-.6 3.8-1.4 7.6-1.7 8.5-.4 1.6.3 1.8 5.6 1.8 3.4 0 6.1.3 6.1.8 0 .9-5.8 34.9-6.5 37.9-.5 2.3-.4 2.3 9.3 2.3h9.9l1.2-7.5 1.3-7.6 4.1.6c10.5 1.4 32.1 3.5 32.5 3.1.2-.3.1-1.4-.3-2.5-.6-2-1.3-2.1-18.5-2.1h-17.8l1-4.2c.5-2.3 1.1-4.4 1.3-4.6.1-.2 6.7.4 14.5 1.2 18.9 2.1 20 2.1 20-.4 0-1.9-.7-2-17.5-2H412l.5-2.5c.3-1.4.7-3.6 1-4.9.4-2.1.9-2.4 3.8-2 17.5 2.4 30.1 3.3 30.9 2.2 2.2-3.6 1.1-3.8-16.8-3.8-16.2 0-17.5-.1-17.2-1.8.3-1.4 1.6-1.8 6.6-2 5.5-.3 6.2-.5 6.2-2.4s.4-2 6.3-1.4c18.8 2 17.4 2 18.6-.3 1.2-2.1 1.1-2.1-11.5-2.1h-12.6l.7-4.8c.4-2.6.8-4.8 1-5 .1-.1 6.4.4 14 1.3 12.4 1.4 14.1 1.4 16.2 0 1.2-.9 2.3-1.8 2.3-2 0-.3-17-.5-37.9-.5h-37.9l-1.2 6.7zM200.5 345.4c18.8 2.2 21.5 2 21.5-1 0-1.2-3.7-1.4-20.2-1.3l-20.3.2 19 2.1zM175.1 353.4c.2.2 9.4 1.4 20.4 2.6 18.9 2 20 2 21.2.4.7-1 1.3-2.1 1.3-2.6 0-.4-9.7-.8-21.7-.8-11.9 0-21.4.2-21.2.4zM192 366.4c19.5 2.3 20.9 2.2 21-1.2 0-.9-4.7-1.2-20.2-1.1l-20.3.1 19.5 2.2zM166.1 374.4c.5.5 41 4.9 41.4 4.4.1-.1.6-1.3.9-2.6l.7-2.2h-21.7c-12 0-21.5.2-21.3.4zM178.5 387c8.8 1 17.8 2.1 20.1 2.4 3.7.5 4.2.2 5.2-1.9l1.2-2.5-21.3.1-21.2.1 16 1.8z"/><path d="M433 387.1c19.9 2.3 18.3 2.3 17-.1-1-1.9-2-2-16.8-1.9l-15.7.2 15.5 1.8zM135.5 430c30.5 3.5 27.2 3.4 27.7.5l.5-2.5-22.1.1-22.1.1 16 1.8zM166.5 429.2c-.4 1.4-11.5 65.1-11.5 66.2 0 .3 4.7.6 10.4.6h10.4l1.1-6.8c2.4-13.8 2.2-13.2 4.5-13.2 2 0 2.5 1.1 4.6 10l2.4 10h11.3c9.5 0 11.3-.2 11.3-1.5 0-1.2.8-1.5 3.3-1.1 7.4 1.3 22.9 2.6 23.8 2.1.5-.4.9-1.5.9-2.5 0-1.8-1-2-14.6-2.2l-14.7-.3-1.3-4.4-1.2-4.3 4.1.6c12.3 1.6 26.8 2.8 28.2 2.3.8-.4 1.5-1.6 1.5-2.7 0-1.9-.6-2-17.4-2h-17.4l-.7-3.2c-1.2-5.4.2-5.6 19.1-3.6 13.3 1.4 17 1.5 17.6.5 2.2-3.4 1.1-3.7-15.7-3.7h-16.4l2.6-4.3 2.7-4.2 13.8 1.4c7.6.8 14 1.2 14.2 1 .2-.2.7-1.4 1-2.7l.7-2.2h-28.9l1-4c.6-2.2 1.3-4 1.7-4 .3 0 6.2.7 13.1 1.5 6.9.8 12.8 1.5 13.1 1.5.4 0 .9-1.1 1.1-2.5l.5-2.5h-28.4l-.1-4.5c0-4.2.1-4.4 2.6-4 4.1.7 21.8 2.5 24.7 2.5 2 0 2.5-.5 2.5-2.5V438h-15.2l-15.3-.1-2-3.2c-3.8-6-6.7-6.7-28.8-6.7-14.9 0-19.9.3-20.2 1.2zm28.8 18c.9 2.6-.6 8.3-2.5 10-2.6 2.3-11.3 2.6-10.4.3.3-.8.8-3.7 1.2-6.5l.7-5h5.2c3.4 0 5.5.5 5.8 1.2zM118.1 438.4c.7.7 41.8 5 42.3 4.5.2-.2.6-1.3.8-2.4.3-1.9-.3-2-21.6-2.3-12.1-.1-21.8 0-21.5.2zM251.5 440.2c-.6 3-9.5 54.2-9.5 55.1 0 .4 8.8.7 19.5.7 16.7 0 19.5-.2 19.5-1.5 0-.8.2-1.5.4-1.5s6.6.7 14.2 1.5c11.1 1.3 13.9 1.3 14.6.3 2.2-3.5 1.1-3.8-13.7-3.8-15.7 0-15.1.2-13.9-5.7l.6-2.9 14 1.5c12 1.2 14.1 1.2 14.9 0 2.4-3.8 1.7-3.9-24.2-3.9-22.5 0-25.1-.2-24.5-1.6.3-.9.6-2.4.6-3.3 0-2.7 19.9-3.5 36.7-1.5 6.9.8 12.7 1.3 12.8 1.2.1-.2.6-1.3.9-2.6l.7-2.2h-33.7l.4-4 .4-4h-15.8l.4-3.5.4-3.5h9c8.1 0 9-.2 9.5-2 .6-2.4 1-2.4 17.8-.5 7.2.8 13.3 1.5 13.8 1.5.4 0 .7-1.1.7-2.5V449h-30.9l1.5-4.3 1.5-4.3 11.2 1.2c6.2.7 12.9 1.3 15 1.3 3.3.1 3.7-.2 3.7-2.4V438h-68l-.5 2.2zM323.6 439.1c-.6 1.8-9.6 54.2-9.6 55.7 0 .9 2.5 1.2 9.3 1l9.2-.3.9-6.1.8-6.1 10.7-.6c7.1-.5 15.6-.1 25.9 1 13.3 1.4 15.5 1.5 16.3.2 2.3-3.6 1.3-3.9-14.9-3.9h-15.9l3.9-4.1 3.8-4 9.8 1.1c5.3.6 11.3 1.3 13.3 1.6 3.1.4 3.7.2 4.7-2l1.2-2.6h-28.9l1.6-4.5c1.1-3.4 1.9-4.4 3.2-4.1 2.6.7 26.1 2.9 26.5 2.5.2-.2.7-1.4 1-2.7l.7-2.2h-30.2l.3-4.3c.4-4.9-1.8-4.6 19.8-2.2 9.8 1.2 12.6 1.2 13.2.2 2.2-3.4 1.1-3.7-16-3.7h-16.8l-1.7-3.5c-2.8-6-6-6.9-24.9-7.3-13.5-.3-16.9-.1-17.2.9zm23.1 21c-.8 6.4-2 7.9-6.4 7.9-2.8 0-3.3-.3-2.9-1.8.3-.9.8-3.8 1.2-6.5l.6-4.7h8.1l-.6 5.1zM363.1 438.4c.3.3 9.4 1.5 20.4 2.6 19.1 2.1 19.9 2.1 21.2.4.7-1 1.3-2.1 1.3-2.6 0-.4-9.7-.8-21.7-.8-11.9 0-21.4.2-21.2.4zM408.9 440.2c-.6 1.1-6.2 14.2-12.4 29L385.2 496h19.5l1.2-4 1.2-4h13.6l.7 4 .6 4h9.5c6.5 0 9.5-.4 9.5-1.1 0-1.2 9.1-.8 20.4.7 4.1.6 4.4.5 4.8-2l.5-2.6H454c-13.8 0-14-.1-14-5.7v-2.6l7.3.6c3.9.4 10.2 1 14 1.3l6.7.7V480H440.3l-.6-3.7c-.4-2-.5-3.9-.2-4.1.3-.4 17.3 1.2 26.3 2.4 4 .6 4.2.5 4.2-2V470h-30.8l-.4-4.5c-.2-2.6.1-4.5.7-4.5.5 0 6.9.7 14 1.5 18.1 2.1 18.5 2 18.5-1V459h-34v-9l3.8.5c11.7 1.7 30.5 3.4 31.3 2.9.5-.3.9-1.4.9-2.5 0-1.8-.8-1.9-18-1.9-19.8 0-19.4.1-18.8-6.2l.3-3.3 18.3 1.9c15.7 1.6 18.5 1.7 19.3.5 2.4-3.9 2-3.9-32.1-3.9-32.7 0-32.9 0-34.1 2.2zm12.1 23.3v8.5h-3.5c-1.9 0-3.5-.3-3.5-.8 0-.6.9-3.1 4.9-13.5.6-1.5 1.3-2.7 1.6-2.7.3 0 .5 3.8.5 8.5zM479.6 438.8c-.2.4-2.5 12.7-5 27.2-2.6 14.6-4.8 27.3-5 28.2-.4 1.6.6 1.8 9.5 1.8 8.1 0 9.9-.3 9.9-1.5 0-1.8-1.1-1.8 15.5 0 7.5.8 14.1 1.3 14.6 1 .5-.4.9-1.5.9-2.6 0-1.8-.8-1.9-15.1-1.9h-15.2l.7-4.2c.4-2.3.8-4.3.9-4.4.1-.1 6.4.5 13.9 1.3 7.6.9 14.5 1.3 15.3.9.8-.3 1.5-1.5 1.5-2.6 0-1.9-.6-2-15-2h-15v-2.8c0-5.4.4-5.5 16-3.8 7.9.9 14.4 1.5 14.5 1.4.2-.2.6-1.3.9-2.6l.7-2.2h-30.8l.7-4c.4-2.3.9-4.2 1.1-4.4.2-.1 6.8.4 14.7 1.2 7.8.8 14.4 1.3 14.6 1.1.2-.2.6-1.3.8-2.4.3-1.9-.3-2-14.9-2.3l-15.2-.3.6-3.2c.3-1.7.9-3.6 1.3-4 .5-.5 7.1-.2 14.7.7 7.7.9 14.2 1.6 14.5 1.6.3 0 .8-1.1 1-2.5l.5-2.5h-30.8l.7-3.8c.4-2 .8-4 1-4.3.2-.3 5.4 0 11.6.7 6.2.7 13 1.3 15.1 1.3 3.3.1 3.7-.2 3.7-2.4V438h-24.4c-13.5 0-24.7.4-25 .8zM532.5 440.2c-.6 2.9-9.5 54-9.5 55.1 0 .4 4.2.6 9.3.5l9.2-.3 1.4-7.8c.8-4.9 1.8-7.7 2.6-7.7s2 3.1 3.2 7.7l1.9 7.8 10.2.3c5.6.1 10.2-.1 10.2-.6 0-.4-1.3-4.7-2.9-9.4l-2.9-8.5 3.3-2.6c7-5.6 10.6-24.1 5.9-30.4-3.7-5-6.4-5.7-24.6-6.1l-16.7-.4-.6 2.4zm23.7 18.3c-.5 4.2-1.9 5.5-5.9 5.5-3.2 0-3.5-.2-2.9-2.3.3-1.2.6-3.2.6-4.5 0-2.1.4-2.3 4.3-2 4 .3 4.2.4 3.9 3.3zM137.4 451.6c11.5 1.3 21 2.3 21.2 2.1.1-.1.5-1.2.8-2.5l.7-2.2-21.8.1-21.8.1 20.9 2.4zM114.1 459.4c.2.3 9.8 1.5 21.3 2.7 17.8 1.9 20.9 2 21.7.8 2.4-3.8 1.6-3.9-21.3-3.9-12.2 0-21.9.2-21.7.4z"/><path d="M273.1 459.4c.5.5 36.4 4.6 40.3 4.6 2.1 0 2.6-.5 2.6-2.5V459h-21.7c-11.9 0-21.4.2-21.2.4zM133 472.6c11.3 1.3 21.1 2.1 21.8 1.9.6-.2 1.2-1.4 1.2-2.5 0-2-.5-2-21.7-1.9l-21.8.1 20.5 2.4zM110.1 480.4c.5.5 37.6 4.6 41.5 4.6 1.9 0 2.4-.5 2.4-2.5V480h-22.2c-12.2 0-21.9.2-21.7.4zM128 493.5c26 3 24 3 24 0V491l-22.2.1-22.3.1 20.5 2.3zM359.5 493.6c11 1.2 20.5 2.3 21.1 2.3.6.1 1.6-1 2.2-2.4l1.2-2.5-22.3.1-22.2.1 20 2.4z"/></svg>