<?xml version="1.0" standalone="no"?>
<!DOCTYPE svg PUBLIC "-//W3C//DTD SVG 20010904//EN"
 "http://www.w3.org/TR/2001/REC-SVG-20010904/DTD/svg10.dtd">
<svg version="1.0" xmlns="http://www.w3.org/2000/svg"
 width="1080.000000pt" height="1080.000000pt" viewBox="0 0 1080.000000 1080.000000"
 preserveAspectRatio="xMidYMid meet">
<metadata>
Created by potrace 1.11, written by Peter Selinger 2001-2013
</metadata>
<g transform="translate(0.000000,1080.000000) scale(0.100000,-0.100000)"
fill="#000000" stroke="none">
<path d="M8270 10789 c-14 -6 -65 -50 -115 -98 -211 -205 -450 -320 -818 -395
-364 -74 -655 -71 -1014 10 -255 57 -432 122 -729 270 -153 75 -243 114 -265
114 -22 0 -86 -29 -198 -89 -403 -217 -710 -320 -1089 -367 -451 -55 -1023 59
-1345 269 -47 30 -128 96 -180 146 -100 95 -131 110 -199 96 -38 -8 -118 -86
-1301 -1265 -630 -628 -780 -782 -789 -813 -20 -66 0 -104 115 -219 141 -140
253 -311 451 -688 172 -326 249 -522 281 -719 23 -137 16 -411 -14 -586 -56
-316 -186 -657 -371 -970 -242 -409 -373 -819 -469 -1478 -33 -224 -37 -301
-21 -508 53 -692 319 -1291 836 -1880 332 -378 725 -607 1298 -754 304 -78
559 -117 1056 -160 592 -51 948 -106 1150 -177 188 -66 443 -214 698 -406 75
-56 154 -108 175 -114 53 -16 98 1 182 68 339 273 594 429 798 488 127 37 345
81 547 110 159 23 276 37 695 82 880 93 1475 305 1913 678 197 169 445 474
622 766 255 422 392 847 430 1334 17 218 13 325 -20 527 -112 685 -255 1111
-505 1509 -128 202 -273 527 -335 747 -69 245 -102 542 -82 735 24 233 86 407
281 793 202 399 320 584 451 710 98 93 116 136 89 213 -7 22 -300 309 -947
929 -516 494 -977 936 -1025 983 -122 117 -166 137 -237 109z m-2775 -948
c380 -164 752 -265 1122 -305 250 -28 462 -17 778 40 284 50 492 117 733 235
l163 79 467 -447 c705 -676 797 -765 800 -773 2 -4 -29 -63 -68 -131 -109
-190 -331 -639 -388 -784 -28 -71 -64 -175 -80 -230 l-30 -100 -3633 0 -3633
0 -33 95 c-18 52 -47 129 -64 170 -68 163 -317 641 -431 824 l-49 80 625 625
625 625 128 -62 c218 -105 403 -166 653 -216 256 -51 351 -60 610 -60 222 0
260 2 405 27 360 62 733 180 1030 326 55 27 102 50 105 50 3 1 77 -30 165 -68z
m3439 -2818 c-10 -215 21 -515 81 -767 76 -324 262 -770 436 -1046 205 -326
312 -647 415 -1245 23 -133 25 -167 20 -305 -16 -420 -101 -719 -302 -1051
-124 -206 -344 -483 -500 -628 -315 -294 -762 -433 -1684 -526 -650 -66 -1118
-153 -1378 -258 -143 -57 -315 -151 -465 -253 l-120 -82 -82 54 c-301 196
-691 338 -1150 419 -205 36 -340 52 -725 85 -530 47 -742 77 -1021 149 -364
93 -588 217 -813 452 -213 222 -405 486 -515 706 -134 268 -190 487 -213 828
-10 164 -10 177 16 350 56 378 129 676 219 900 54 134 79 185 163 325 271 457
442 971 485 1460 11 129 7 443 -7 533 l-6 37 3576 0 3577 0 -7 -137z"/>
<path d="M3550 9225 c-115 -26 -224 -88 -315 -179 -173 -175 -189 -284 -90
-611 47 -152 60 -234 48 -279 -8 -26 -16 -30 -118 -56 -255 -64 -472 -175
-590 -301 -80 -85 -99 -169 -47 -209 25 -20 35 -22 122 -17 254 14 538 198
641 417 17 36 34 72 39 80 5 11 28 16 88 18 141 5 191 -37 122 -103 -18 -17
-26 -33 -21 -38 21 -21 101 56 101 97 0 35 -36 74 -78 86 -20 5 -75 10 -120
10 l-84 0 7 39 c10 60 -12 187 -61 359 -40 138 -45 166 -41 232 7 128 78 242
200 321 167 108 407 114 461 11 l14 -27 -86 -41 c-164 -77 -259 -169 -270
-259 -7 -62 14 -85 78 -85 129 0 290 158 307 300 l6 49 51 10 c28 6 67 12 86
13 28 2 36 8 38 26 3 20 -1 22 -41 22 -24 0 -65 -6 -90 -14 -42 -12 -47 -12
-47 1 0 31 -43 91 -81 112 -50 28 -145 35 -229 16z m276 -237 c-9 -57 -44
-114 -104 -170 -59 -56 -124 -90 -160 -86 -25 3 -27 7 -26 46 2 80 88 165 229
226 33 14 62 25 64 26 2 0 0 -19 -3 -42z m-666 -972 c-25 -65 -93 -160 -153
-212 -59 -50 -155 -102 -251 -135 -102 -36 -220 -40 -257 -10 -21 17 -22 21
-11 60 7 23 26 57 43 75 43 50 179 134 289 179 82 34 350 111 358 102 1 -1 -7
-28 -18 -59z"/>
<path d="M6898 9144 c-231 -56 -408 -247 -660 -714 -108 -200 -201 -357 -264
-446 l-43 -61 -118 -7 c-322 -20 -550 -92 -659 -211 -63 -67 -66 -122 -10
-175 22 -20 40 -25 98 -28 226 -13 479 98 668 293 l45 46 283 -2 c275 -2 283
-2 304 18 12 13 18 28 15 37 -5 13 -28 16 -144 17 -76 1 -195 4 -264 8 l-126
6 76 116 c42 63 114 183 160 265 300 534 332 584 435 682 84 80 157 119 250
135 114 19 216 -15 216 -73 0 -13 -14 -20 -57 -29 -86 -17 -171 -61 -240 -125
-67 -62 -92 -111 -73 -145 15 -28 49 -35 110 -22 106 23 220 105 272 197 30
54 30 54 78 54 27 0 51 4 54 9 12 19 -7 41 -34 41 -41 0 -60 10 -60 30 0 30
-46 76 -88 88 -51 16 -152 14 -224 -4z m237 -195 c-44 -85 -180 -189 -246
-189 -47 0 -57 16 -35 58 29 56 129 120 229 147 71 19 70 19 52 -16z m-1295
-1136 c-39 -52 -163 -151 -240 -192 -96 -51 -210 -81 -306 -81 -86 0 -117 10
-140 45 -14 21 -14 30 -4 55 45 110 311 196 613 199 l98 1 -21 -27z"/>
<path d="M7882 8773 c-72 -105 -107 -183 -83 -183 17 0 141 167 141 189 0 31
-35 27 -58 -6z"/>
<path d="M5479 8661 c-26 -16 -84 -72 -129 -125 -70 -81 -88 -96 -114 -97 -17
-1 -80 -4 -141 -8 -104 -6 -110 -7 -113 -28 -3 -23 -2 -23 117 -23 l120 0 -92
-137 c-51 -76 -110 -173 -131 -215 l-39 -76 -92 -46 c-164 -81 -275 -96 -275
-36 0 36 16 55 94 109 42 29 76 56 76 62 0 5 -24 9 -54 9 -75 0 -88 18 -44 64
50 53 144 106 190 106 43 0 47 -9 18 -35 -18 -17 -28 -45 -15 -45 13 0 72 34
93 53 12 11 22 29 22 39 0 52 -113 43 -239 -19 -79 -39 -181 -127 -181 -155 0
-20 26 -48 46 -48 30 0 10 -17 -79 -66 -204 -114 -347 -144 -347 -73 0 35 17
54 94 108 42 29 76 56 76 62 0 5 -24 9 -54 9 -75 0 -88 18 -44 64 50 53 144
106 190 106 43 0 47 -9 18 -35 -18 -17 -28 -45 -15 -45 18 0 87 44 105 67 l21
28 -22 18 c-19 15 -32 17 -69 12 -96 -14 -209 -69 -300 -145 -19 -16 -48 -32
-64 -36 l-29 -7 44 54 c51 63 84 131 75 155 -16 40 -139 -30 -192 -109 -30
-46 -36 -104 -12 -121 15 -11 7 -22 -65 -94 -45 -45 -85 -82 -89 -82 -4 0 11
53 33 117 41 124 48 173 25 173 -8 0 -67 -46 -131 -102 -65 -57 -127 -109
-138 -117 -19 -13 -20 -13 -14 10 4 13 14 63 23 111 17 91 12 118 -23 118 -18
0 -90 -37 -98 -51 -11 -17 3 -23 30 -11 23 11 25 10 25 -13 0 -27 -42 -164
-71 -232 -23 -54 -19 -79 9 -64 11 6 79 60 152 121 73 61 135 109 137 107 2
-3 -12 -54 -32 -114 -38 -120 -42 -143 -22 -143 25 0 105 61 211 160 58 55
111 100 118 100 7 0 23 3 35 6 16 4 23 0 28 -15 4 -15 21 -25 49 -33 l43 -11
-46 -37 c-60 -48 -101 -96 -101 -121 0 -10 10 -29 21 -40 19 -19 30 -21 98
-17 64 4 91 11 172 50 52 25 122 62 155 83 l59 37 -38 -38 c-43 -43 -54 -73
-38 -103 15 -27 48 -35 128 -28 54 4 86 15 184 65 l119 60 0 -34 c0 -102 171
-80 378 49 103 65 112 95 10 37 -140 -79 -234 -114 -278 -103 -49 13 -32 87
53 245 50 94 57 101 167 189 l115 92 185 9 c152 7 187 11 197 25 7 9 10 19 8
24 -3 4 -80 5 -172 2 l-167 -6 41 49 c57 67 85 126 81 166 -4 43 -22 45 -79 9z
m1 -112 c-11 -23 -33 -56 -48 -75 -23 -29 -33 -34 -70 -34 -40 0 -42 1 -32 20
6 12 45 55 87 98 69 69 77 75 81 54 2 -13 -6 -41 -18 -63z m-145 -178 c-26
-23 -126 -101 -130 -101 -3 0 11 25 31 55 33 50 40 55 72 55 21 0 32 -4 27 -9z
m-1205 -149 c0 -26 -69 -132 -86 -132 -9 0 -14 11 -14 35 0 26 9 45 36 75 39
43 64 51 64 22z m520 -226 c0 -2 -7 -6 -15 -10 -8 -3 -15 -1 -15 4 0 6 7 10
15 10 8 0 15 -2 15 -4z"/>
<path d="M8131 8259 c-77 -31 -149 -130 -136 -188 6 -27 2 -34 -49 -73 -30
-23 -52 -46 -50 -50 7 -10 41 8 82 44 l33 28 39 -32 c22 -17 38 -33 36 -36 -3
-2 -35 -15 -71 -27 -110 -39 -170 -98 -146 -143 32 -60 212 -24 281 55 51 58
39 122 -38 197 l-40 38 59 76 c75 94 75 142 0 111z m19 -46 c0 -5 -21 -34 -47
-66 -37 -45 -49 -54 -55 -43 -13 24 2 64 34 91 28 24 68 34 68 18z m-36 -318
c11 -45 -24 -81 -96 -99 -36 -8 -78 9 -78 32 0 26 29 49 86 72 66 26 81 25 88
-5z"/>
<path d="M6733 8215 c-55 -33 -83 -80 -83 -138 0 -34 -8 -59 -32 -97 -39 -62
-50 -146 -23 -173 36 -36 113 -10 202 68 40 36 59 45 87 45 20 0 52 7 71 14
l35 15 -21 -40 c-26 -51 -22 -81 13 -93 36 -13 109 24 217 110 67 53 79 59 59
33 -83 -110 -76 -177 16 -162 73 12 336 161 336 190 0 10 -12 7 -42 -12 -129
-79 -254 -130 -279 -115 -18 12 -7 33 98 180 49 69 92 131 97 138 4 7 -2 14
-16 17 -19 5 -46 -17 -163 -132 -170 -168 -265 -226 -265 -164 0 15 85 149
139 217 26 34 27 51 1 59 -28 9 -40 -2 -107 -101 -46 -69 -66 -89 -101 -104
-39 -17 -102 -27 -102 -16 0 2 12 24 26 49 48 87 41 197 -15 227 -35 18 -103
11 -148 -15z m128 -36 c48 -25 47 -106 -2 -183 l-29 -46 -37 15 c-21 9 -49 26
-61 39 -29 29 -23 42 54 106 30 24 54 48 54 52 0 18 -32 5 -90 -37 l-61 -46 3
33 c6 60 107 100 169 67z m-98 -245 c37 -8 30 -23 -27 -58 -37 -24 -51 -28
-64 -19 -19 12 -21 78 -2 112 11 21 11 21 37 -4 15 -13 40 -27 56 -31z"/>
<path d="M3527 5928 c-308 -728 -487 -1158 -487 -1167 0 -8 57 -11 189 -11
l189 0 37 95 37 95 148 0 147 0 7 -46 c3 -26 6 -69 6 -95 l0 -49 196 0 196 0
-4 36 -4 36 40 -6 c54 -8 503 -56 521 -56 10 0 5 14 -17 45 l-32 45 -257 0
-256 0 -6 73 c-3 39 -4 73 -3 74 2 3 174 -15 357 -37 47 -5 102 -10 122 -10
36 0 37 1 37 40 l0 40 -259 0 -258 0 -7 53 c-3 28 -6 63 -6 77 l0 26 266 -29
c146 -16 267 -27 268 -25 2 2 6 22 10 46 l6 42 -274 0 c-311 0 -286 -8 -286
91 0 54 2 59 22 59 31 0 498 -49 525 -55 26 -6 29 -2 38 48 l7 37 -300 0 -299
0 -6 78 c-2 42 -3 79 -1 81 2 2 142 -10 310 -28 168 -18 308 -31 311 -28 2 3
7 24 10 46 l6 41 -321 0 -320 0 -7 76 c-4 41 -4 78 -1 81 3 3 153 -10 333 -30
241 -25 330 -32 335 -23 4 6 8 26 8 44 l0 32 -339 0 -340 0 -5 43 c-4 23 -7
65 -9 92 l-2 50 -282 3 -283 2 -13 -32z m233 -513 l0 -165 -70 0 c-38 0 -70 3
-70 7 0 17 126 323 133 323 4 0 7 -74 7 -165z"/>
<path d="M7733 5780 c-207 -38 -324 -168 -387 -430 -49 -201 -52 -378 -10
-463 51 -101 141 -146 304 -154 191 -10 340 36 428 131 110 119 191 400 180
623 -4 80 -10 107 -32 151 -31 61 -86 105 -160 128 -61 19 -250 27 -323 14z
m192 -312 c-45 -253 -76 -402 -85 -413 -18 -21 -76 -35 -147 -35 -44 0 -63 4
-63 13 0 33 70 408 80 426 14 26 56 36 168 40 l53 1 -6 -32z"/>
<path d="M2625 5764 c36 -7 691 -74 717 -74 20 0 28 8 41 40 l15 40 -396 -1
c-218 -1 -388 -3 -377 -5z"/>
<path d="M4816 5499 c-83 -467 -88 -515 -61 -607 21 -69 55 -107 123 -133 50
-20 75 -23 212 -24 176 0 250 15 323 68 l42 31 354 -38 c386 -40 371 -41 371
22 l0 32 -355 0 -355 0 30 47 c16 25 34 61 41 80 7 21 17 33 28 33 25 0 592
-59 614 -64 12 -3 19 4 23 22 3 15 8 35 11 45 4 16 -16 17 -327 17 -311 0
-331 1 -326 18 3 9 12 46 20 81 8 34 16 64 18 65 2 1 144 -13 317 -31 172 -19
315 -33 316 -31 2 2 6 22 10 46 l7 42 -327 0 c-306 0 -326 1 -321 18 3 9 10
44 15 76 6 33 13 61 15 63 2 2 144 -12 317 -30 173 -19 315 -34 316 -33 1 1 5
21 9 44 l7 42 -322 0 -321 0 0 23 c1 30 16 106 23 113 3 3 98 -4 212 -16 113
-13 207 -21 209 -19 2 2 6 23 10 47 l6 42 -215 0 c-172 0 -215 3 -215 13 0 8
5 39 11 70 11 55 12 55 43 51 57 -8 390 -43 392 -41 1 1 4 21 8 45 l6 42 -402
-1 c-222 -1 -393 -4 -380 -6 19 -4 22 -9 18 -31 -27 -140 -27 -141 -49 -145
-22 -4 -22 -4 1 -6 18 -1 21 -5 17 -23 -3 -13 -23 -126 -46 -253 -22 -126 -47
-240 -54 -251 -8 -12 -28 -24 -46 -28 -36 -7 -129 -8 -129 -1 0 6 119 686 126
718 l6 27 -164 0 -164 0 -48 -271z"/>
<path d="M6190 5767 c0 -2 -11 -64 -25 -138 -14 -74 -25 -137 -25 -141 0 -5
47 -8 105 -8 58 0 105 -2 105 -4 0 -3 -27 -159 -60 -348 -33 -189 -60 -351
-60 -361 0 -16 13 -17 168 -15 l167 3 23 130 c13 72 25 131 25 132 2 1 502
-51 594 -63 51 -6 56 -5 50 10 -4 10 -7 29 -7 42 l0 24 -315 0 c-278 0 -315 2
-315 16 0 8 5 46 11 84 l12 70 51 -6 c521 -59 551 -61 558 -39 3 11 6 30 7 43
l1 22 -306 0 -306 0 5 29 c3 15 9 51 13 80 8 59 5 58 140 41 200 -25 466 -51
471 -47 2 3 8 22 13 41 l8 36 -310 0 -310 0 6 31 c3 17 6 35 6 40 0 5 47 9
105 9 l104 0 7 35 c3 19 9 35 13 35 3 0 92 -9 196 -20 105 -11 196 -20 202
-20 12 0 43 50 43 70 0 7 -73 10 -221 10 l-221 0 6 28 c3 15 10 53 16 84 l11
57 42 -5 c23 -3 134 -15 247 -27 l206 -22 43 32 43 33 -671 0 c-369 0 -671 -2
-671 -3z"/>
<path d="M2531 5585 c5 -5 750 -87 754 -83 4 4 35 79 35 84 0 2 -178 4 -397 4
-218 0 -394 -2 -392 -5z"/>
<path d="M2800 5359 c190 -21 360 -38 377 -38 28 -1 35 4 48 35 8 20 15 38 15
40 0 2 -177 4 -392 3 l-393 -1 345 -39z"/>
<path d="M2375 5214 c6 -2 161 -19 345 -39 184 -20 352 -38 372 -42 35 -5 38
-4 52 32 9 21 16 41 16 46 0 5 -175 9 -397 8 -219 0 -393 -2 -388 -5z"/>
<path d="M2335 5024 c34 -6 680 -74 701 -74 13 0 25 13 36 40 l17 40 -387 -1
c-213 -1 -378 -3 -367 -5z"/>
<path d="M2215 4845 c14 -6 757 -86 759 -83 9 17 36 80 36 83 0 3 -181 5 -402
4 -222 0 -398 -2 -393 -4z"/>
<path d="M6745 4839 c55 -10 578 -67 583 -64 2 2 -7 19 -19 39 l-21 36 -296
-1 c-207 -1 -282 -4 -247 -10z"/>
<path d="M1875 4045 c215 -23 392 -41 394 -39 2 2 7 21 11 44 l7 40 -401 -1
-401 -1 390 -43z"/>
<path d="M2340 4080 c0 -15 -200 -1151 -206 -1172 -5 -17 8 -18 180 -18 l184
0 6 28 c9 42 56 315 56 324 0 5 18 8 39 8 l39 0 43 -180 43 -180 203 0 c112 0
203 2 203 4 0 3 -5 17 -10 31 -9 23 -8 26 7 21 33 -9 463 -50 468 -44 3 3 9
22 12 42 l6 36 -256 0 -256 0 -24 78 c-16 50 -20 78 -13 80 6 1 135 -11 286
-27 151 -16 276 -29 277 -28 1 2 6 22 11 45 l10 42 -303 0 -303 0 -20 59 -20
60 34 20 c33 20 38 20 157 7 259 -30 467 -50 470 -45 2 2 7 21 10 42 l6 37
-290 0 c-159 0 -289 4 -289 9 0 5 7 15 16 22 9 7 30 37 46 66 19 33 37 53 48
53 10 0 122 -11 250 -25 128 -14 234 -25 235 -23 2 2 6 22 10 46 l7 42 -252 0
-252 0 6 23 c4 12 11 44 17 71 l11 48 87 -7 c47 -3 156 -15 241 -24 85 -10
156 -17 157 -17 1 1 5 21 9 44 l7 42 -247 0 -246 0 0 75 c0 58 3 75 14 75 8 0
121 -11 252 -25 260 -28 254 -29 254 33 l0 32 -269 0 -269 0 -6 23 c-10 40
-73 103 -128 128 -52 24 -58 24 -405 27 -248 2 -353 0 -353 -8z m480 -313 c23
-12 25 -18 23 -74 -1 -64 -24 -128 -49 -137 -8 -3 -50 -9 -94 -12 -94 -8 -89
-19 -63 134 l17 102 71 0 c38 0 81 -6 95 -13z"/>
<path d="M1490 3900 c25 -4 115 -15 200 -24 85 -9 242 -25 348 -37 107 -11
196 -18 199 -16 2 3 7 24 10 46 l6 41 -404 -1 c-233 -1 -385 -5 -359 -9z"/>
<path d="M3835 3898 c-2 -7 -41 -224 -85 -483 -45 -258 -84 -482 -87 -497 l-5
-28 340 0 340 0 7 31 c6 27 10 30 34 26 51 -10 471 -51 475 -46 2 2 7 21 11
42 l7 37 -256 0 c-291 0 -265 -10 -245 93 14 68 -14 65 289 33 124 -14 226
-23 228 -21 2 2 6 22 9 44 l6 41 -433 0 -432 0 7 58 c4 31 9 60 12 65 2 4 67
7 143 7 103 0 141 3 147 13 6 11 61 7 286 -17 165 -17 281 -25 286 -20 5 5 11
24 14 41 l6 33 -292 2 c-187 2 -291 7 -290 13 0 6 4 36 8 68 l7 57 -141 0
c-77 0 -141 4 -141 8 0 5 5 34 11 65 l12 57 158 0 158 0 7 35 c8 42 -20 42
298 6 l248 -27 9 24 c5 13 9 32 9 43 0 18 -10 19 -270 19 -148 0 -270 3 -270
7 0 4 10 38 22 76 l23 69 60 -6 c114 -12 340 -36 396 -42 53 -6 56 -5 62 17 4
13 7 34 7 47 l0 22 -595 0 c-468 0 -597 -3 -600 -12z"/>
<path d="M5095 3898 c-4 -13 -175 -988 -175 -1001 0 -4 73 -6 163 -5 l162 3
20 115 20 115 140 5 c77 3 145 8 150 12 6 3 132 -7 280 -23 149 -15 285 -30
304 -31 31 -3 35 0 52 40 l18 42 -291 0 -292 0 40 30 c31 22 84 85 99 117 1 2
104 -8 229 -22 126 -14 235 -25 243 -25 11 0 43 54 43 75 0 3 -110 5 -245 5
-153 0 -245 4 -245 10 0 5 10 39 21 75 20 59 24 65 49 65 29 0 372 -36 431
-46 35 -5 37 -4 53 36 9 22 16 43 16 45 0 3 -117 5 -260 5 l-260 0 0 80 c0 78
1 80 23 76 44 -10 537 -59 542 -55 2 3 11 22 20 42 l15 37 -299 0 -300 0 -24
54 c-26 56 -67 94 -127 117 -52 19 -608 26 -615 7z m404 -287 c12 -8 13 -22 2
-96 -17 -111 -29 -125 -112 -125 -53 0 -60 2 -55 18 5 18 36 191 36 205 0 10
112 9 129 -2z"/>
<path d="M5751 3906 c2 -3 157 -21 344 -40 187 -20 355 -38 373 -41 30 -6 34
-3 47 29 8 20 15 40 15 46 0 7 -129 10 -392 10 -215 0 -389 -2 -387 -4z"/>
<path d="M6587 3878 c-8 -18 -103 -244 -212 -503 -108 -258 -199 -473 -202
-477 -2 -5 72 -8 165 -8 l170 0 27 75 28 75 123 0 124 0 0 -75 0 -75 170 0
170 0 0 26 c0 26 1 26 48 21 161 -20 382 -40 387 -35 3 3 8 22 12 42 l6 36
-229 2 -229 3 -5 73 c-5 67 -4 72 15 72 11 0 119 -11 240 -25 228 -25 234 -24
235 17 0 9 3 23 6 32 6 14 -20 16 -248 16 l-255 0 -7 71 c-3 40 -4 74 -2 76 2
3 121 -8 265 -23 143 -15 262 -26 264 -23 3 2 7 21 11 42 l7 37 -274 0 -274 0
-7 31 c-8 44 -8 129 2 129 11 0 470 -49 523 -56 46 -6 46 -6 53 26 12 64 33
60 -293 60 l-298 0 -6 78 c-2 42 -3 78 -2 80 3 3 570 -56 601 -63 23 -5 34 15
34 63 l0 22 -319 0 -319 0 -7 81 c-4 44 -5 82 -3 84 2 3 150 -11 329 -30 178
-19 330 -33 337 -30 7 2 12 22 12 45 l0 40 -580 0 -580 0 -13 -32z m221 -410
l-3 -143 -67 -3 c-38 -2 -68 -1 -68 1 0 2 22 60 48 128 27 68 52 132 55 142 4
9 13 17 22 17 13 0 15 -19 13 -142z"/>
<path d="M7825 3898 c-2 -7 -40 -227 -85 -488 -45 -261 -84 -485 -87 -497 l-5
-23 170 0 170 0 7 31 c7 30 9 31 49 26 131 -18 476 -50 481 -45 3 3 9 22 12
42 l6 36 -267 0 c-239 0 -266 2 -266 16 0 9 5 45 12 79 l11 63 36 -5 c179 -21
486 -51 489 -48 3 2 8 22 12 45 l7 40 -270 0 -269 0 6 33 c4 17 10 52 13 76
l6 43 61 -7 c257 -29 466 -49 470 -44 2 2 6 21 9 42 l6 37 -271 0 -270 0 5 23
c3 12 9 44 13 70 3 28 13 51 21 54 8 3 127 -6 265 -21 138 -15 252 -25 253
-24 2 2 6 22 10 46 l7 42 -270 0 -270 0 14 71 c7 40 15 73 17 75 3 3 454 -42
498 -50 23 -4 27 -1 33 26 12 62 29 58 -259 58 -301 0 -274 -10 -254 93 10 48
15 57 33 57 11 0 129 -11 260 -25 262 -28 256 -29 256 33 l0 32 -435 0 c-340
0 -436 -3 -440 -12z"/>
<path d="M8765 3898 c-2 -7 -41 -224 -85 -483 -45 -258 -84 -482 -87 -497 l-5
-28 164 0 164 0 24 145 c23 137 25 145 47 145 24 0 21 8 69 -182 l26 -108 179
0 c99 0 179 3 179 6 0 3 -23 78 -51 166 l-51 160 51 45 c114 100 181 358 128
495 -21 55 -80 112 -134 129 -58 19 -611 25 -618 7z m404 -287 c11 -7 12 -22
8 -63 -9 -72 -38 -98 -112 -98 -39 0 -53 4 -50 13 2 6 9 45 15 85 l12 72 56 0
c32 0 63 -4 71 -9z"/>
<path d="M1475 3713 c153 -20 727 -77 730 -73 2 3 6 22 10 43 l7 37 -388 -2
c-214 0 -375 -3 -359 -5z"/>
<path d="M1445 3529 c159 -23 720 -78 726 -71 4 4 10 24 13 45 l7 37 -403 -1
c-269 -1 -383 -4 -343 -10z"/>
<path d="M4225 3529 c94 -14 727 -80 730 -77 2 2 6 22 10 46 l7 42 -404 -1
c-270 -1 -383 -4 -343 -10z"/>
<path d="M1460 3339 c77 -10 504 -56 607 -65 78 -7 75 -9 87 49 l6 27 -382 -1
c-260 -1 -362 -4 -318 -10z"/>
<path d="M1345 3163 c90 -12 760 -81 763 -78 2 2 6 22 9 44 l6 41 -404 -1
c-222 -1 -390 -4 -374 -6z"/>
<path d="M1692 2937 c208 -23 379 -39 382 -36 2 2 7 21 11 42 l7 37 -388 -1
-389 -1 377 -41z"/>
<path d="M5675 2945 c160 -18 324 -36 366 -40 l75 -7 16 41 16 41 -381 -1
-382 -1 290 -33z"/>
</g>
</svg>
